M48
;Layer_Color=9474304
;FILE_FORMAT=2:5
INCH
;TYPE=PLATED
T6F00S00C0.03937
%
G90
G05
T06
G00X0695441Y0414906
M15
G01X0690480
M16
G00X0704378Y0414906
M15
G01X0701622
M16
G00X0715520Y0414906
M15
G01X0710559
M16
G00X0715520Y0453094
M15
G01X0710559
M16
G00X0704378Y0453094
M15
G01X0701622
M16
G00X0695441Y0453094
M15
G01X0690480
M16
G00X1058480Y0453094
M15
G01X1063441
M16
G00X1069622Y0453094
M15
G01X1072378
M16
G00X1078559Y0453094
M15
G01X1083520
M16
G00X1078559Y0414906
M15
G01X1083520
M16
G00X1069622Y0414906
M15
G01X1072378
M16
G00X1058480Y0414906
M15
G01X1063441
M16
G00X1130980Y0491905
M15
G01X1135941
M16
G00X1142122Y0491905
M15
G01X1144878
M16
G00X1151059Y0491905
M15
G01X1156020
M16
G00X1151059Y0530094
M15
G01X1156020
M16
G00X1142122Y0530094
M15
G01X1144878
M16
G00X1130980Y0530094
M15
G01X1135941
M16
G00X1175980Y0589906
M15
G01X1180941
M16
G00X1187122Y0589906
M15
G01X1189878
M16
G00X1196059Y0589906
M15
G01X1201020
M16
G00X0643020Y0530094
M15
G01X0638059
M16
G00X0631878Y0530094
M15
G01X0629122
M16
G00X0631878Y0491905
M15
G01X0629122
M16
G00X0643020Y0491905
M15
G01X0638059
M16
G00X0622941Y0491905
M15
G01X0617980
M16
G00X0622941Y0530094
M15
G01X0617980
M16
G00X0598020Y0589906
M15
G01X0593059
M16
G00X0586878Y0589906
M15
G01X0584122
M16
G00X0577941Y0589906
M15
G01X0572980
M16
G00X0577941Y0628094
M15
G01X0572980
M16
G00X0586878Y0628094
M15
G01X0584122
M16
G00X0598020Y0628094
M15
G01X0593059
M16
G00X1175980Y0628094
M15
G01X1180941
M16
G00X1187122Y0628094
M15
G01X1189878
M16
G00X1196059Y0628094
M15
G01X1201020
M16
G00X1122559Y0862405
M15
G01X1127520
M16
G00X1113622Y0862405
M15
G01X1116378
M16
G00X1102480Y0862405
M15
G01X1107441
M16
G00X1102480Y0900595
M15
G01X1107441
M16
G00X1113622Y0900595
M15
G01X1116378
M16
G00X1122559Y0900595
M15
G01X1127520
M16
G00X1063559Y0900595
M15
G01X1068520
M16
G00X1054622Y0900595
M15
G01X1057378
M16
G00X1043480Y0900595
M15
G01X1048441
M16
G00X1043480Y0914406
M15
G01X1048441
M16
G00X1054622Y0914406
M15
G01X1057378
M16
G00X1063559Y0914406
M15
G01X1068520
M16
G00X1063559Y0862405
M15
G01X1068520
M16
G00X1054622Y0862405
M15
G01X1057378
M16
G00X1043480Y0862405
M15
G01X1048441
M16
G00X0730520Y0862405
M15
G01X0725559
M16
G00X0719378Y0862405
M15
G01X0716622
M16
G00X0710441Y0862405
M15
G01X0705480
M16
G00X0710441Y0900595
M15
G01X0705480
M16
G00X0719378Y0900595
M15
G01X0716622
M16
G00X0730520Y0900595
M15
G01X0725559
M16
G00X0730520Y0914406
M15
G01X0725559
M16
G00X0719378Y0914406
M15
G01X0716622
M16
G00X0710441Y0914406
M15
G01X0705480
M16
G00X0671520Y0900595
M15
G01X0666559
M16
G00X0660378Y0900595
M15
G01X0657622
M16
G00X0651441Y0900595
M15
G01X0646480
M16
G00X0651441Y0862405
M15
G01X0646480
M16
G00X0660378Y0862405
M15
G01X0657622
M16
G00X0671520Y0862405
M15
G01X0666559
M16
G00X0710441Y0952594
M15
G01X0705480
M16
G00X0719378Y0952594
M15
G01X0716622
M16
G00X0730520Y0952594
M15
G01X0725559
M16
G00X1043480Y0952594
M15
G01X1048441
M16
G00X1054622Y0952594
M15
G01X1057378
M16
G00X1063559Y0952594
M15
G01X1068520
M16
M17
M30
