%FSAX25Y25*%
%MOIN*%
G70*
G01*
G75*
%ADD10O,0.08661X0.02362*%
%ADD11R,0.03000X0.03543*%
%ADD12R,0.05118X0.05512*%
%ADD13R,0.05512X0.05118*%
%ADD14R,0.03543X0.03000*%
%ADD15R,0.05000X0.06693*%
%ADD16R,0.04921X0.03937*%
%ADD17R,0.08661X0.02362*%
%ADD18O,0.08661X0.02362*%
%ADD19O,0.02362X0.08661*%
%ADD20R,0.09449X0.09843*%
%ADD21C,0.01575*%
%ADD22C,0.01181*%
%ADD23C,0.00984*%
%ADD24C,0.01000*%
%ADD25C,0.03150*%
%ADD26C,0.03937*%
%ADD27C,0.02756*%
%ADD28C,0.02362*%
%ADD29C,0.00591*%
%ADD30C,0.05906*%
%ADD31R,0.05906X0.05906*%
%ADD32C,0.05118*%
%ADD33C,0.07874*%
%ADD34O,0.10236X0.07874*%
%ADD35O,0.08268X0.07874*%
%ADD36R,0.05118X0.09843*%
%ADD37O,0.05118X0.09843*%
%ADD38R,0.06299X0.06299*%
%ADD39C,0.06299*%
%ADD40C,2.75591*%
%ADD41C,0.39370*%
%ADD42C,0.19685*%
%ADD43C,0.05500*%
%ADD44C,0.06693*%
%ADD45C,0.05000*%
%ADD46C,0.01969*%
%ADD47R,0.09646X0.09843*%
%ADD48R,0.09843X0.09449*%
%ADD49R,0.02362X0.08661*%
%ADD50O,0.02362X0.08661*%
%ADD51R,0.20866X0.07087*%
%ADD52O,0.03937X0.01024*%
%ADD53O,0.01024X0.03937*%
%ADD54R,0.03937X0.01024*%
%ADD55R,0.03543X0.01575*%
%ADD56R,0.09449X0.12598*%
%ADD57R,0.06693X0.05000*%
%ADD58R,0.09843X0.14961*%
%ADD59R,0.01969X0.05512*%
%ADD60O,0.08661X0.01575*%
%ADD61R,0.08661X0.01575*%
%ADD62R,0.18110X0.09252*%
%ADD63O,0.01378X0.06299*%
%ADD64R,0.07087X0.07874*%
%ADD65R,0.03543X0.01575*%
%ADD66R,0.09843X0.09646*%
%ADD67R,0.03937X0.04921*%
%ADD68O,0.02165X0.07874*%
%ADD69R,0.15000X0.19685*%
%ADD70R,0.01575X0.03543*%
%ADD71R,0.06000X0.06299*%
%ADD72R,0.06299X0.06000*%
%ADD73C,0.00787*%
%ADD74C,0.00141*%
%ADD75C,0.01378*%
%ADD76C,0.01200*%
%ADD77O,0.09461X0.03162*%
%ADD78R,0.03800X0.04343*%
%ADD79R,0.05918X0.06312*%
%ADD80R,0.06312X0.05918*%
%ADD81R,0.04343X0.03800*%
%ADD82R,0.05800X0.07493*%
%ADD83R,0.05721X0.04737*%
%ADD84R,0.09461X0.03162*%
%ADD85O,0.09461X0.03162*%
%ADD86O,0.03162X0.09461*%
%ADD87R,0.10249X0.10642*%
%ADD88C,0.06706*%
%ADD89R,0.06706X0.06706*%
%ADD90C,0.05918*%
%ADD91C,0.08674*%
%ADD92O,0.11036X0.08674*%
%ADD93O,0.09068X0.08674*%
%ADD94R,0.05918X0.10642*%
%ADD95O,0.05918X0.10642*%
%ADD96R,0.07099X0.07099*%
%ADD97C,0.07099*%
%ADD98C,2.76391*%
%ADD99C,0.40170*%
%ADD100C,0.20485*%
%ADD101C,0.06300*%
%ADD102C,0.07493*%
%ADD103C,0.05800*%
%ADD104R,0.10446X0.10642*%
%ADD105R,0.10642X0.10249*%
%ADD106R,0.03162X0.09461*%
%ADD107O,0.03162X0.09461*%
%ADD108R,0.21666X0.07887*%
%ADD109O,0.04737X0.01824*%
%ADD110O,0.01824X0.04737*%
%ADD111R,0.04737X0.01824*%
%ADD112R,0.04343X0.02375*%
%ADD113R,0.10249X0.13398*%
%ADD114R,0.07493X0.05800*%
%ADD115O,0.09461X0.02375*%
%ADD116R,0.09461X0.02375*%
%ADD117R,0.18910X0.10052*%
%ADD118O,0.02178X0.07099*%
%ADD119R,0.07887X0.08674*%
%ADD120R,0.04343X0.02375*%
%ADD121R,0.10642X0.10446*%
%ADD122R,0.04737X0.05721*%
%ADD123O,0.02965X0.08674*%
%ADD124R,0.15800X0.20485*%
%ADD125R,0.02375X0.04343*%
%ADD126R,0.06800X0.07099*%
%ADD127R,0.07099X0.06800*%
%ADD128C,0.00394*%
%ADD129C,0.00800*%
%ADD130C,0.00150*%
%ADD131C,0.00500*%
%ADD132C,0.00667*%
%ADD133C,0.00400*%
D131*
X0747173Y0420776D02*
X0750716D01*
X0748945Y0419004D02*
Y0422547D01*
X0757173Y0420776D02*
X0760716D01*
X0758945Y0419004D02*
Y0422547D01*
X0747173Y0430776D02*
X0750716D01*
X0748945Y0429004D02*
Y0432547D01*
X0757173Y0430776D02*
X0760716D01*
X0758945Y0429004D02*
Y0432547D01*
X0979508Y0430547D02*
X0983051D01*
X0981279Y0428776D02*
Y0432319D01*
X0989508Y0430547D02*
X0993051D01*
X0991280Y0428776D02*
Y0432319D01*
X0979508Y0420547D02*
X0983051D01*
X0981279Y0418776D02*
Y0422319D01*
X0989508Y0420547D02*
X0993051D01*
X0991280Y0418776D02*
Y0422319D01*
X0885032Y0851476D02*
X0888968D01*
X0887000Y0849508D02*
Y0853445D01*
X0890878Y0856142D02*
X0894815D01*
X0892846Y0854173D02*
Y0858110D01*
X0892323Y0849811D02*
X0896260D01*
X0894291Y0847843D02*
Y0851779D01*
X0888276Y0844736D02*
X0892213D01*
X0890244Y0842768D02*
Y0846705D01*
X0881787Y0844736D02*
X0885724D01*
X0883756Y0842768D02*
Y0846705D01*
X0877740Y0849811D02*
X0881677D01*
X0879709Y0847843D02*
Y0851779D01*
X0879185Y0856142D02*
X0883122D01*
X0881153Y0854173D02*
Y0858110D01*
X0885032Y0858957D02*
X0888968D01*
X0887000Y0856988D02*
Y0860925D01*
X0968221Y0914000D02*
X0972157D01*
X0970189Y0912031D02*
Y0915969D01*
X0968221Y0925811D02*
X0972157D01*
X0970189Y0923843D02*
Y0927779D01*
X0991842Y0929512D02*
X0995780D01*
X0993811Y0927543D02*
Y0931480D01*
X0956409Y0929512D02*
X0960347D01*
X0958378Y0927543D02*
Y0931480D01*
X0980031Y0925811D02*
X0983969D01*
X0982000Y0923843D02*
Y0927779D01*
X0980031Y0914000D02*
X0983969D01*
X0982000Y0912031D02*
Y0915969D01*
X0573492Y0628094D02*
X0577429D01*
X0575461Y0626126D02*
Y0630063D01*
X0583532Y0628094D02*
X0587468D01*
X0585500Y0626126D02*
Y0630063D01*
X0593571Y0628094D02*
X0597508D01*
X0595539Y0626126D02*
Y0630063D01*
X0573492Y0589906D02*
X0577429D01*
X0575461Y0587937D02*
Y0591874D01*
X0583532Y0589906D02*
X0587468D01*
X0585500Y0587937D02*
Y0591874D01*
X0593571Y0589906D02*
X0597508D01*
X0595539Y0587937D02*
Y0591874D01*
X0618492Y0530094D02*
X0622429D01*
X0620461Y0528126D02*
Y0532063D01*
X0628532Y0530094D02*
X0632469D01*
X0630500Y0528126D02*
Y0532063D01*
X0638571Y0530094D02*
X0642508D01*
X0640539Y0528126D02*
Y0532063D01*
X0618492Y0491905D02*
X0622429D01*
X0620461Y0489937D02*
Y0493874D01*
X0628532Y0491905D02*
X0632469D01*
X0630500Y0489937D02*
Y0493874D01*
X0638571Y0491905D02*
X0642508D01*
X0640539Y0489937D02*
Y0493874D01*
X0690992Y0453094D02*
X0694929D01*
X0692961Y0451126D02*
Y0455063D01*
X0701031Y0453094D02*
X0704969D01*
X0703000Y0451126D02*
Y0455063D01*
X0711071Y0453094D02*
X0715008D01*
X0713039Y0451126D02*
Y0455063D01*
X0690992Y0414906D02*
X0694929D01*
X0692961Y0412937D02*
Y0416874D01*
X0701031Y0414906D02*
X0704969D01*
X0703000Y0412937D02*
Y0416874D01*
X0711071Y0414906D02*
X0715008D01*
X0713039Y0412937D02*
Y0416874D01*
X1079071Y0414906D02*
X1083008D01*
X1081039Y0412937D02*
Y0416874D01*
X1069032Y0414906D02*
X1072968D01*
X1071000Y0412937D02*
Y0416874D01*
X1058992Y0414906D02*
X1062929D01*
X1060961Y0412937D02*
Y0416874D01*
X1079071Y0453094D02*
X1083008D01*
X1081039Y0451126D02*
Y0455063D01*
X1069032Y0453094D02*
X1072968D01*
X1071000Y0451126D02*
Y0455063D01*
X1058992Y0453094D02*
X1062929D01*
X1060961Y0451126D02*
Y0455063D01*
X1196571Y0589906D02*
X1200508D01*
X1198539Y0587937D02*
Y0591874D01*
X1186532Y0589906D02*
X1190469D01*
X1188500Y0587937D02*
Y0591874D01*
X1176492Y0589906D02*
X1180429D01*
X1178461Y0587937D02*
Y0591874D01*
X1196571Y0628094D02*
X1200508D01*
X1198539Y0626126D02*
Y0630063D01*
X1186532Y0628094D02*
X1190469D01*
X1188500Y0626126D02*
Y0630063D01*
X1176492Y0628094D02*
X1180429D01*
X1178461Y0626126D02*
Y0630063D01*
X1123071Y0862405D02*
X1127008D01*
X1125039Y0860437D02*
Y0864374D01*
X1113031Y0862405D02*
X1116969D01*
X1115000Y0860437D02*
Y0864374D01*
X1102992Y0862405D02*
X1106929D01*
X1104961Y0860437D02*
Y0864374D01*
X1123071Y0900595D02*
X1127008D01*
X1125039Y0898626D02*
Y0902563D01*
X1113031Y0900595D02*
X1116969D01*
X1115000Y0898626D02*
Y0902563D01*
X1102992Y0900595D02*
X1106929D01*
X1104961Y0898626D02*
Y0902563D01*
X1064071Y0862405D02*
X1068008D01*
X1066039Y0860437D02*
Y0864374D01*
X1054031Y0862405D02*
X1057969D01*
X1056000Y0860437D02*
Y0864374D01*
X1043992Y0862405D02*
X1047929D01*
X1045961Y0860437D02*
Y0864374D01*
X1064071Y0900595D02*
X1068008D01*
X1066039Y0898626D02*
Y0902563D01*
X1054031Y0900595D02*
X1057969D01*
X1056000Y0898626D02*
Y0902563D01*
X1043992Y0900595D02*
X1047929D01*
X1045961Y0898626D02*
Y0902563D01*
X1064071Y0914406D02*
X1068008D01*
X1066039Y0912437D02*
Y0916374D01*
X1054031Y0914406D02*
X1057969D01*
X1056000Y0912437D02*
Y0916374D01*
X1043992Y0914406D02*
X1047929D01*
X1045961Y0912437D02*
Y0916374D01*
X1064071Y0952594D02*
X1068008D01*
X1066039Y0950626D02*
Y0954563D01*
X1054031Y0952594D02*
X1057969D01*
X1056000Y0950626D02*
Y0954563D01*
X1043992Y0952594D02*
X1047929D01*
X1045961Y0950626D02*
Y0954563D01*
X0894728Y0883000D02*
X0898272D01*
X0896500Y0881228D02*
Y0884772D01*
X0904728Y0883000D02*
X0908272D01*
X0906500Y0881228D02*
Y0884772D01*
X0914728Y0883000D02*
X0918272D01*
X0916500Y0881228D02*
Y0884772D01*
X0924728Y0883000D02*
X0928272D01*
X0926500Y0881228D02*
Y0884772D01*
X0934728Y0883000D02*
X0938272D01*
X0936500Y0881228D02*
Y0884772D01*
X0944728Y0883000D02*
X0948272D01*
X0946500Y0881228D02*
Y0884772D01*
X0954728Y0883000D02*
X0958272D01*
X0956500Y0881228D02*
Y0884772D01*
X0964728Y0883000D02*
X0968272D01*
X0966500Y0881228D02*
Y0884772D01*
X0974728Y0883000D02*
X0978272D01*
X0976500Y0881228D02*
Y0884772D01*
X0894728Y0943000D02*
X0898272D01*
X0896500Y0941228D02*
Y0944772D01*
X0904728Y0943000D02*
X0908272D01*
X0906500Y0941228D02*
Y0944772D01*
X0914728Y0943000D02*
X0918272D01*
X0916500Y0941228D02*
Y0944772D01*
X0924728Y0943000D02*
X0928272D01*
X0926500Y0941228D02*
Y0944772D01*
X0934728Y0943000D02*
X0938272D01*
X0936500Y0941228D02*
Y0944772D01*
X0944728Y0943000D02*
X0948272D01*
X0946500Y0941228D02*
Y0944772D01*
X0954728Y0943000D02*
X0958272D01*
X0956500Y0941228D02*
Y0944772D01*
X0964728Y0943000D02*
X0968272D01*
X0966500Y0941228D02*
Y0944772D01*
X0974728Y0943000D02*
X0978272D01*
X0976500Y0941228D02*
Y0944772D01*
X0875728Y0943000D02*
X0879272D01*
X0877500Y0941228D02*
Y0944772D01*
X0865728Y0943000D02*
X0869272D01*
X0867500Y0941228D02*
Y0944772D01*
X0855728Y0943000D02*
X0859272D01*
X0857500Y0941228D02*
Y0944772D01*
X0845728Y0943000D02*
X0849272D01*
X0847500Y0941228D02*
Y0944772D01*
X0835728Y0943000D02*
X0839272D01*
X0837500Y0941228D02*
Y0944772D01*
X0825728Y0943000D02*
X0829272D01*
X0827500Y0941228D02*
Y0944772D01*
X0815728Y0943000D02*
X0819272D01*
X0817500Y0941228D02*
Y0944772D01*
X0805728Y0943000D02*
X0809272D01*
X0807500Y0941228D02*
Y0944772D01*
X0795728Y0943000D02*
X0799272D01*
X0797500Y0941228D02*
Y0944772D01*
X0875728Y0883000D02*
X0879272D01*
X0877500Y0881228D02*
Y0884772D01*
X0865728Y0883000D02*
X0869272D01*
X0867500Y0881228D02*
Y0884772D01*
X0855728Y0883000D02*
X0859272D01*
X0857500Y0881228D02*
Y0884772D01*
X0845728Y0883000D02*
X0849272D01*
X0847500Y0881228D02*
Y0884772D01*
X0835728Y0883000D02*
X0839272D01*
X0837500Y0881228D02*
Y0884772D01*
X0825728Y0883000D02*
X0829272D01*
X0827500Y0881228D02*
Y0884772D01*
X0815728Y0883000D02*
X0819272D01*
X0817500Y0881228D02*
Y0884772D01*
X0805728Y0883000D02*
X0809272D01*
X0807500Y0881228D02*
Y0884772D01*
X0795728Y0883000D02*
X0799272D01*
X0797500Y0881228D02*
Y0884772D01*
X0705992Y0952594D02*
X0709929D01*
X0707961Y0950626D02*
Y0954563D01*
X0716032Y0952594D02*
X0719969D01*
X0718000Y0950626D02*
Y0954563D01*
X0726071Y0952594D02*
X0730008D01*
X0728039Y0950626D02*
Y0954563D01*
X0705992Y0914406D02*
X0709929D01*
X0707961Y0912437D02*
Y0916374D01*
X0716032Y0914406D02*
X0719969D01*
X0718000Y0912437D02*
Y0916374D01*
X0726071Y0914406D02*
X0730008D01*
X0728039Y0912437D02*
Y0916374D01*
X0705992Y0900595D02*
X0709929D01*
X0707961Y0898626D02*
Y0902563D01*
X0716032Y0900595D02*
X0719969D01*
X0718000Y0898626D02*
Y0902563D01*
X0726071Y0900595D02*
X0730008D01*
X0728039Y0898626D02*
Y0902563D01*
X0705992Y0862405D02*
X0709929D01*
X0707961Y0860437D02*
Y0864374D01*
X0716032Y0862405D02*
X0719969D01*
X0718000Y0860437D02*
Y0864374D01*
X0726071Y0862405D02*
X0730008D01*
X0728039Y0860437D02*
Y0864374D01*
X0646992Y0900595D02*
X0650929D01*
X0648961Y0898626D02*
Y0902563D01*
X0657031Y0900595D02*
X0660968D01*
X0659000Y0898626D02*
Y0902563D01*
X0667071Y0900595D02*
X0671008D01*
X0669039Y0898626D02*
Y0902563D01*
X0646992Y0862405D02*
X0650929D01*
X0648961Y0860437D02*
Y0864374D01*
X0657031Y0862405D02*
X0660968D01*
X0659000Y0860437D02*
Y0864374D01*
X0667071Y0862405D02*
X0671008D01*
X0669039Y0860437D02*
Y0864374D01*
X0661728Y0495000D02*
X0665272D01*
X0663500Y0493228D02*
Y0496772D01*
X0661728Y0485000D02*
X0665272D01*
X0663500Y0483228D02*
Y0486772D01*
X0671728Y0495000D02*
X0675272D01*
X0673500Y0493228D02*
Y0496772D01*
X0671728Y0485000D02*
X0675272D01*
X0673500Y0483228D02*
Y0486772D01*
X0681728Y0495000D02*
X0685272D01*
X0683500Y0493228D02*
Y0496772D01*
X0681728Y0485000D02*
X0685272D01*
X0683500Y0483228D02*
Y0486772D01*
X0691728Y0495000D02*
X0695272D01*
X0693500Y0493228D02*
Y0496772D01*
X0691728Y0485000D02*
X0695272D01*
X0693500Y0483228D02*
Y0486772D01*
X0816531Y0914500D02*
X0820469D01*
X0818500Y0912531D02*
Y0916469D01*
X0816531Y0926311D02*
X0820469D01*
X0818500Y0924343D02*
Y0928279D01*
X0792909Y0930012D02*
X0796846D01*
X0794878Y0928043D02*
Y0931980D01*
X0828343Y0930012D02*
X0832279D01*
X0830311Y0928043D02*
Y0931980D01*
X0804720Y0926311D02*
X0808657D01*
X0806689Y0924343D02*
Y0928279D01*
X0804720Y0914500D02*
X0808657D01*
X0806689Y0912531D02*
Y0916469D01*
X0985728Y0561000D02*
X0989272D01*
X0987500Y0559228D02*
Y0562772D01*
X0985728Y0551000D02*
X0989272D01*
X0987500Y0549228D02*
Y0552772D01*
X0995728Y0561000D02*
X0999272D01*
X0997500Y0559228D02*
Y0562772D01*
X0995728Y0551000D02*
X0999272D01*
X0997500Y0549228D02*
Y0552772D01*
X1005728Y0561000D02*
X1009272D01*
X1007500Y0559228D02*
Y0562772D01*
X1005728Y0551000D02*
X1009272D01*
X1007500Y0549228D02*
Y0552772D01*
X1015728Y0561000D02*
X1019272D01*
X1017500Y0559228D02*
Y0562772D01*
X1015728Y0551000D02*
X1019272D01*
X1017500Y0549228D02*
Y0552772D01*
X1151571Y0491905D02*
X1155508D01*
X1153539Y0489937D02*
Y0493874D01*
X1141531Y0491905D02*
X1145469D01*
X1143500Y0489937D02*
Y0493874D01*
X1131492Y0491905D02*
X1135429D01*
X1133461Y0489937D02*
Y0493874D01*
X1151571Y0530094D02*
X1155508D01*
X1153539Y0528126D02*
Y0532063D01*
X1141531Y0530094D02*
X1145469D01*
X1143500Y0528126D02*
Y0532063D01*
X1131492Y0530094D02*
X1135429D01*
X1133461Y0528126D02*
Y0532063D01*
X0749205Y0677500D02*
X1024795D01*
X0887000Y0539705D02*
Y0815295D01*
X0841331Y0464902D02*
X0853929D01*
X0847630Y0458602D02*
Y0471201D01*
X0920071Y0464902D02*
X0932669D01*
X0926370Y0458602D02*
Y0471201D01*
X0950150Y0851476D02*
X0961961D01*
X0956055Y0845571D02*
Y0857382D01*
X0812039Y0851476D02*
X0823850D01*
X0817945Y0845571D02*
Y0857382D01*
X1046055Y0795610D02*
X1058654D01*
X1052354Y0789311D02*
Y0801910D01*
X1046055Y0736555D02*
X1058654D01*
X1052354Y0730256D02*
Y0742854D01*
X0715346Y0736555D02*
X0727945D01*
X0721646Y0730256D02*
Y0742854D01*
X0715346Y0795610D02*
X0727945D01*
X0721646Y0789311D02*
Y0801910D01*
X1083595Y0917000D02*
X1095405D01*
X1089500Y0911094D02*
Y0922906D01*
X0678594Y0917000D02*
X0690406D01*
X0684500Y0911094D02*
Y0922906D01*
X1165094Y0560000D02*
X1176906D01*
X1171000Y0554095D02*
Y0565906D01*
X0597094Y0560000D02*
X0608906D01*
X0603000Y0554095D02*
Y0565906D01*
X1102594Y0466063D02*
X1114406D01*
X1108500Y0460157D02*
Y0471969D01*
X0659594Y0466063D02*
X0671406D01*
X0665500Y0460157D02*
Y0471969D01*
X0961600Y0981000D02*
X0964400D01*
X0963000Y0979600D02*
Y0982400D01*
X0971600Y0981000D02*
X0974400D01*
X0973000Y0979600D02*
Y0982400D01*
X0823171Y0987000D02*
X0825971D01*
X0824571Y0985600D02*
Y0988400D01*
X0833171Y0987000D02*
X0835971D01*
X0834571Y0985600D02*
Y0988400D01*
X0846243Y0990500D02*
X0849043D01*
X0847643Y0989100D02*
Y0991900D01*
X0856243Y0990500D02*
X0859043D01*
X0857643Y0989100D02*
Y0991900D01*
X0869314Y0991500D02*
X0872114D01*
X0870714Y0990100D02*
Y0992900D01*
X0879314Y0991500D02*
X0882114D01*
X0880714Y0990100D02*
Y0992900D01*
X0892386Y0991500D02*
X0895186D01*
X0893786Y0990100D02*
Y0992900D01*
X0902386Y0991500D02*
X0905186D01*
X0903786Y0990100D02*
Y0992900D01*
X0915457Y0990500D02*
X0918257D01*
X0916857Y0989100D02*
Y0991900D01*
X0925457Y0990500D02*
X0928257D01*
X0926857Y0989100D02*
Y0991900D01*
X0938529Y0987000D02*
X0941329D01*
X0939929Y0985600D02*
Y0988400D01*
X0948528Y0987000D02*
X0951328D01*
X0949928Y0985600D02*
Y0988400D01*
X0800100Y0981000D02*
X0802900D01*
X0801500Y0979600D02*
Y0982400D01*
X0810100Y0981000D02*
X0812900D01*
X0811500Y0979600D02*
Y0982400D01*
X0745100Y0914500D02*
X0747900D01*
X0746500Y0913100D02*
Y0915900D01*
X0745100Y0904500D02*
X0747900D01*
X0746500Y0903100D02*
Y0905900D01*
X1114425Y0574858D02*
X1117575D01*
X1116000Y0573283D02*
Y0576433D01*
X1114425Y0555646D02*
X1117575D01*
X1116000Y0554071D02*
Y0557221D01*
X0768925Y0525358D02*
X0772075D01*
X0770500Y0523783D02*
Y0526933D01*
X0768925Y0506146D02*
X0772075D01*
X0770500Y0504571D02*
Y0507721D01*
X0767600Y0872500D02*
X0770400D01*
X0769000Y0871100D02*
Y0873900D01*
X0763450Y0862226D02*
X0766250D01*
X0764850Y0860827D02*
Y0863626D01*
X0763450Y0857110D02*
X0766250D01*
X0764850Y0855710D02*
Y0858509D01*
X0758628Y0854807D02*
X0761427D01*
X0760028Y0853407D02*
Y0856207D01*
X1056100Y0558500D02*
X1058900D01*
X1057500Y0557100D02*
Y0559900D01*
X1031600Y0511000D02*
X1034400D01*
X1033000Y0509600D02*
Y0512400D01*
X0774600Y0471500D02*
X0777400D01*
X0776000Y0470100D02*
Y0472900D01*
X1131199Y0583382D02*
X1133998D01*
X1132598Y0581982D02*
Y0584782D01*
X1131100Y0571000D02*
X1133900D01*
X1132500Y0569600D02*
Y0572400D01*
X1070100Y0571500D02*
X1072900D01*
X1071500Y0570100D02*
Y0572900D01*
X1118600Y0562500D02*
X1121400D01*
X1120000Y0561100D02*
Y0563900D01*
X1163100Y0572500D02*
X1165900D01*
X1164500Y0571100D02*
Y0573900D01*
X0990100Y0826000D02*
X0992900D01*
X0991500Y0824600D02*
Y0827400D01*
X1011600Y0849500D02*
X1014400D01*
X1013000Y0848100D02*
Y0850900D01*
X0974600Y0831500D02*
X0977400D01*
X0976000Y0830100D02*
Y0832900D01*
X0960100Y0902500D02*
X0962900D01*
X0961500Y0901100D02*
Y0903900D01*
X0960100Y0895500D02*
X0962900D01*
X0961500Y0894100D02*
Y0896900D01*
X0879100Y0924000D02*
X0881900D01*
X0880500Y0922600D02*
Y0925400D01*
X0919100Y0864000D02*
X0921900D01*
X0920500Y0862600D02*
Y0865400D01*
X0861100Y0899500D02*
X0863900D01*
X0862500Y0898100D02*
Y0900900D01*
X0873100Y0924000D02*
X0875900D01*
X0874500Y0922600D02*
Y0925400D01*
X0858039Y0924939D02*
X0860839D01*
X0859439Y0923539D02*
Y0926339D01*
X0846600Y0914000D02*
X0849400D01*
X0848000Y0912600D02*
Y0915400D01*
X0764600Y0831000D02*
X0767400D01*
X0766000Y0829600D02*
Y0832400D01*
X1118600Y0567500D02*
X1121400D01*
X1120000Y0566100D02*
Y0568900D01*
X1035100Y0548000D02*
X1037900D01*
X1036500Y0546600D02*
Y0549400D01*
X1023600Y0541500D02*
X1026400D01*
X1025000Y0540100D02*
Y0542900D01*
X0980600Y0451500D02*
X0983400D01*
X0982000Y0450100D02*
Y0452900D01*
X1027100Y0438500D02*
X1029900D01*
X1028500Y0437100D02*
Y0439900D01*
X0794600Y0438500D02*
X0797400D01*
X0796000Y0437100D02*
Y0439900D01*
X0764100Y0499000D02*
X0766900D01*
X0765500Y0497600D02*
Y0500400D01*
X0911600Y0515000D02*
X0914400D01*
X0913000Y0513600D02*
Y0516400D01*
X0911600Y0509000D02*
X0914400D01*
X0913000Y0507600D02*
Y0510400D01*
X0721100Y0540500D02*
X0723900D01*
X0722500Y0539100D02*
Y0541900D01*
X0714600Y0540250D02*
X0717400D01*
X0716000Y0538850D02*
Y0541650D01*
X0799600Y0506500D02*
X0802400D01*
X0801000Y0505100D02*
Y0507900D01*
X0964100Y0519500D02*
X0966900D01*
X0965500Y0518100D02*
Y0520900D01*
X0730681Y0528500D02*
X0733480D01*
X0732081Y0527100D02*
Y0529900D01*
X0738813Y0534787D02*
X0741613D01*
X0740213Y0533387D02*
Y0536187D01*
X0960600Y0524500D02*
X0963400D01*
X0962000Y0523100D02*
Y0525900D01*
X1028600Y0477000D02*
X1031400D01*
X1030000Y0475600D02*
Y0478400D01*
X0944600Y0495500D02*
X0947400D01*
X0946000Y0494100D02*
Y0496900D01*
X0948600Y0500000D02*
X0951400D01*
X0950000Y0498600D02*
Y0501400D01*
X0940100Y0491000D02*
X0942900D01*
X0941500Y0489600D02*
Y0492400D01*
X0799600Y0472500D02*
X0802400D01*
X0801000Y0471100D02*
Y0473900D01*
X0840600Y0534500D02*
X0843400D01*
X0842000Y0533100D02*
Y0535900D01*
X0979100Y0540000D02*
X0981900D01*
X0980500Y0538600D02*
Y0541400D01*
X0940100Y0546500D02*
X0942900D01*
X0941500Y0545100D02*
Y0547900D01*
X0945100Y0546500D02*
X0947900D01*
X0946500Y0545100D02*
Y0547900D01*
X0950100Y0546500D02*
X0952900D01*
X0951500Y0545100D02*
Y0547900D01*
X0823100Y0545000D02*
X0825900D01*
X0824500Y0543600D02*
Y0546400D01*
X0842600Y0519000D02*
X0845400D01*
X0844000Y0517600D02*
Y0520400D01*
X0838600Y0522102D02*
X0841400D01*
X0840000Y0520703D02*
Y0523502D01*
X1034100Y0416500D02*
X1036900D01*
X1035500Y0415100D02*
Y0417900D01*
X1034100Y0422500D02*
X1036900D01*
X1035500Y0421100D02*
Y0423900D01*
X0782100Y0417000D02*
X0784900D01*
X0783500Y0415600D02*
Y0418400D01*
X0782100Y0422500D02*
X0784900D01*
X0783500Y0421100D02*
Y0423900D01*
X0951100Y0506000D02*
X0953900D01*
X0952500Y0504600D02*
Y0507400D01*
X0945600Y0506000D02*
X0948400D01*
X0947000Y0504600D02*
Y0507400D01*
X0855600Y0499500D02*
X0858400D01*
X0857000Y0498100D02*
Y0500900D01*
X0859600Y0504000D02*
X0862400D01*
X0861000Y0502600D02*
Y0505400D01*
X0856600Y0508500D02*
X0859400D01*
X0858000Y0507100D02*
Y0509900D01*
X0755600Y0588500D02*
X0758400D01*
X0757000Y0587100D02*
Y0589900D01*
X0746600Y0588500D02*
X0749400D01*
X0748000Y0587100D02*
Y0589900D01*
X0741352Y0588500D02*
X0744152D01*
X0742752Y0587100D02*
Y0589900D01*
X0713600Y0623500D02*
X0716400D01*
X0715000Y0622100D02*
Y0624900D01*
X0727100Y0620000D02*
X0729900D01*
X0728500Y0618600D02*
Y0621400D01*
X0727100Y0625500D02*
X0729900D01*
X0728500Y0624100D02*
Y0626900D01*
X0716100Y0628500D02*
X0718900D01*
X0717500Y0627100D02*
Y0629900D01*
X0715100Y0639500D02*
X0717900D01*
X0716500Y0638100D02*
Y0640900D01*
X0715100Y0645000D02*
X0717900D01*
X0716500Y0643600D02*
Y0646400D01*
X0983600Y0826000D02*
X0986400D01*
X0985000Y0824600D02*
Y0827400D01*
X1016600Y0855500D02*
X1019400D01*
X1018000Y0854100D02*
Y0856900D01*
X0955100Y0546500D02*
X0957900D01*
X0956500Y0545100D02*
Y0547900D01*
X0789100Y0874000D02*
X0791900D01*
X0790500Y0872600D02*
Y0875400D01*
X0750600Y0909000D02*
X0753400D01*
X0752000Y0907600D02*
Y0910400D01*
X1049600Y0530500D02*
X1052400D01*
X1051000Y0529100D02*
Y0531900D01*
X0718600Y0475500D02*
X0721400D01*
X0720000Y0474100D02*
Y0476900D01*
X0721100Y0482000D02*
X0723900D01*
X0722500Y0480600D02*
Y0483400D01*
X1095600Y0503000D02*
X1098400D01*
X1097000Y0501600D02*
Y0504400D01*
X1082600Y0510500D02*
X1085400D01*
X1084000Y0509100D02*
Y0511900D01*
X1026600Y0531500D02*
X1029400D01*
X1028000Y0530100D02*
Y0532900D01*
X1162600Y0583000D02*
X1165400D01*
X1164000Y0581600D02*
Y0584400D01*
X0783600Y0912000D02*
X0786400D01*
X0785000Y0910600D02*
Y0913400D01*
X0673600Y0617000D02*
X0676400D01*
X0675000Y0615600D02*
Y0618400D01*
X0745100Y0892500D02*
X0747900D01*
X0746500Y0891100D02*
Y0893900D01*
X0738100Y0901000D02*
X0740900D01*
X0739500Y0899600D02*
Y0902400D01*
X1088100Y0582000D02*
X1090900D01*
X1089500Y0580600D02*
Y0583400D01*
X0728600Y0439500D02*
X0731400D01*
X0730000Y0438100D02*
Y0440900D01*
X0741100Y0439500D02*
X0743900D01*
X0742500Y0438100D02*
Y0440900D01*
X0710600Y0483500D02*
X0713400D01*
X0712000Y0482100D02*
Y0484900D01*
X0702600Y0483500D02*
X0705400D01*
X0704000Y0482100D02*
Y0484900D01*
X0754100Y0502500D02*
X0756900D01*
X0755500Y0501100D02*
Y0503900D01*
X0754100Y0509500D02*
X0756900D01*
X0755500Y0508100D02*
Y0510900D01*
X0737600Y0399000D02*
X0740400D01*
X0739000Y0397600D02*
Y0400400D01*
X0729100Y0399000D02*
X0731900D01*
X0730500Y0397600D02*
Y0400400D01*
X0729600Y0420500D02*
X0732400D01*
X0731000Y0419100D02*
Y0421900D01*
X0737600Y0420500D02*
X0740400D01*
X0739000Y0419100D02*
Y0421900D01*
X0744100Y0470000D02*
X0746900D01*
X0745500Y0468600D02*
Y0471400D01*
X0752600Y0486000D02*
X0755400D01*
X0754000Y0484600D02*
Y0487400D01*
X0743100Y0496500D02*
X0745900D01*
X0744500Y0495100D02*
Y0497900D01*
X0871031Y0845500D02*
X0874969D01*
X0873000Y0843532D02*
Y0847468D01*
X1075100Y0636000D02*
X1077900D01*
X1076500Y0634600D02*
Y0637400D01*
X1071600Y0630500D02*
X1074400D01*
X1073000Y0629100D02*
Y0631900D01*
X0705600Y0610500D02*
X0708400D01*
X0707000Y0609100D02*
Y0611900D01*
X0788100Y0946000D02*
X0790900D01*
X0789500Y0944600D02*
Y0947400D01*
X0699100Y0614000D02*
X0701900D01*
X0700500Y0612600D02*
Y0615400D01*
X0726100Y0568000D02*
X0728900D01*
X0727500Y0566600D02*
Y0569400D01*
X0684100Y0586000D02*
X0686900D01*
X0685500Y0584600D02*
Y0587400D01*
X0793100Y0982000D02*
X0795900D01*
X0794500Y0980600D02*
Y0983400D01*
X0982600Y0944500D02*
X0985400D01*
X0984000Y0943100D02*
Y0945900D01*
X0988100Y0917000D02*
X0990900D01*
X0989500Y0915600D02*
Y0918400D01*
X1010600Y0831500D02*
X1013400D01*
X1012000Y0830100D02*
Y0832900D01*
X0846100Y0868500D02*
X0848900D01*
X0847500Y0867100D02*
Y0869900D01*
X0921100Y0840500D02*
X0923900D01*
X0922500Y0839100D02*
Y0841900D01*
X0885600Y0838500D02*
X0888400D01*
X0887000Y0837100D02*
Y0839900D01*
X0746226Y0843193D02*
X0749026D01*
X0747626Y0841793D02*
Y0844593D01*
X0696600Y0624000D02*
X0699400D01*
X0698000Y0622600D02*
Y0625400D01*
X0924100Y0868500D02*
X0926900D01*
X0925500Y0867100D02*
Y0869900D01*
X1010600Y0865000D02*
X1013400D01*
X1012000Y0863600D02*
Y0866400D01*
X0978100Y0865000D02*
X0980900D01*
X0979500Y0863600D02*
Y0866400D01*
X0856100Y0535000D02*
X0858900D01*
X0857500Y0533600D02*
Y0536400D01*
X1029100Y0466500D02*
X1031900D01*
X1030500Y0465100D02*
Y0467900D01*
X0955100Y0479500D02*
X0957900D01*
X0956500Y0478100D02*
Y0480900D01*
X1075600Y0533500D02*
X1078400D01*
X1077000Y0532100D02*
Y0534900D01*
X0959100Y0485500D02*
X0961900D01*
X0960500Y0484100D02*
Y0486900D01*
X1046100Y0511000D02*
X1048900D01*
X1047500Y0509600D02*
Y0512400D01*
X1037600Y0511000D02*
X1040400D01*
X1039000Y0509600D02*
Y0512400D01*
X1096600Y0599000D02*
X1099400D01*
X1098000Y0597600D02*
Y0600400D01*
X1047100Y0589500D02*
X1049900D01*
X1048500Y0588100D02*
Y0590900D01*
X1085100Y0576000D02*
X1087900D01*
X1086500Y0574600D02*
Y0577400D01*
X1074600Y0547500D02*
X1077400D01*
X1076000Y0546100D02*
Y0548900D01*
X0708100Y0540500D02*
X0710900D01*
X0709500Y0539100D02*
Y0541900D01*
X0788600Y0502500D02*
X0791400D01*
X0790000Y0501100D02*
Y0503900D01*
X0722600Y0510000D02*
X0725400D01*
X0724000Y0508600D02*
Y0511400D01*
X0764100Y0482000D02*
X0766900D01*
X0765500Y0480600D02*
Y0483400D01*
X0722600Y0525000D02*
X0725400D01*
X0724000Y0523600D02*
Y0526400D01*
X0715600Y0523500D02*
X0718400D01*
X0717000Y0522100D02*
Y0524900D01*
X0677100Y0507000D02*
X0679900D01*
X0678500Y0505600D02*
Y0508400D01*
X0739100Y0474500D02*
X0741900D01*
X0740500Y0473100D02*
Y0475900D01*
X0756100Y0522500D02*
X0758900D01*
X0757500Y0521100D02*
Y0523900D01*
X0677100Y0501000D02*
X0679900D01*
X0678500Y0499600D02*
Y0502400D01*
X0735100Y0470000D02*
X0737900D01*
X0736500Y0468600D02*
Y0471400D01*
X0752100Y0528000D02*
X0754900D01*
X0753500Y0526600D02*
Y0529400D01*
X1142864Y0594000D02*
X1145664D01*
X1144264Y0592600D02*
Y0595400D01*
X0771643Y0907000D02*
X0774443D01*
X0773043Y0905600D02*
Y0908400D01*
X0776600Y0937000D02*
X0779400D01*
X0778000Y0935600D02*
Y0938400D01*
X0745100Y0949500D02*
X0747900D01*
X0746500Y0948100D02*
Y0950900D01*
X0745600Y0964500D02*
X0748400D01*
X0747000Y0963100D02*
Y0965900D01*
X0776100Y0929500D02*
X0778900D01*
X0777500Y0928100D02*
Y0930900D01*
X0911600Y0965500D02*
X0914400D01*
X0913000Y0964100D02*
Y0966900D01*
X0897600Y0986500D02*
X0900400D01*
X0899000Y0985100D02*
Y0987900D01*
X0875600Y0972500D02*
X0878400D01*
X0877000Y0971100D02*
Y0973900D01*
X0865931Y0981000D02*
X0868731D01*
X0867331Y0979600D02*
Y0982400D01*
X0960600Y0969000D02*
X0963400D01*
X0962000Y0967600D02*
Y0970400D01*
X0799100Y0969000D02*
X0801900D01*
X0800500Y0967600D02*
Y0970400D01*
X0713600Y0873000D02*
X0716400D01*
X0715000Y0871600D02*
Y0874400D01*
X0780100Y0982000D02*
X0782900D01*
X0781500Y0980600D02*
Y0983400D01*
X0989600Y0895000D02*
X0992400D01*
X0991000Y0893600D02*
Y0896400D01*
X0984600Y0979500D02*
X0987400D01*
X0986000Y0978100D02*
Y0980900D01*
X0976100Y0986500D02*
X0978900D01*
X0977500Y0985100D02*
Y0987900D01*
X1066458Y0487032D02*
X1069258D01*
X1067858Y0485632D02*
Y0488432D01*
X0988600Y0404000D02*
X0991400D01*
X0990000Y0402600D02*
Y0405400D01*
X1009879Y0437047D02*
X1012679D01*
X1011279Y0435647D02*
Y0438447D01*
X1004379Y0437047D02*
X1007180D01*
X1005779Y0435647D02*
Y0438447D01*
X1004600Y0443000D02*
X1007400D01*
X1006000Y0441600D02*
Y0444400D01*
X0997880Y0456547D02*
X1000679D01*
X0999279Y0455147D02*
Y0457947D01*
X0999380Y0449047D02*
X1002180D01*
X1000780Y0447647D02*
Y0450447D01*
X0949100Y0907500D02*
X0951900D01*
X0950500Y0906100D02*
Y0908900D01*
X0938100Y0908500D02*
X0940900D01*
X0939500Y0907100D02*
Y0909900D01*
X0932600Y0908500D02*
X0935400D01*
X0934000Y0907100D02*
Y0909900D01*
X1111100Y0621500D02*
X1113900D01*
X1112500Y0620100D02*
Y0622900D01*
X1128100Y0616000D02*
X1130900D01*
X1129500Y0614600D02*
Y0617400D01*
X0652100Y0581000D02*
X0654900D01*
X0653500Y0579600D02*
Y0582400D01*
X0664600Y0566000D02*
X0667400D01*
X0666000Y0564600D02*
Y0567400D01*
X0652100Y0551000D02*
X0654900D01*
X0653500Y0549600D02*
Y0552400D01*
X0626100Y0588500D02*
X0628900D01*
X0627500Y0587100D02*
Y0589900D01*
X0654600Y0604000D02*
X0657400D01*
X0656000Y0602600D02*
Y0605400D01*
X0641600Y0603500D02*
X0644400D01*
X0643000Y0602100D02*
Y0604900D01*
X0925600Y0894500D02*
X0928400D01*
X0927000Y0893100D02*
Y0895900D01*
X0891100Y0905500D02*
X0893900D01*
X0892500Y0904100D02*
Y0906900D01*
X0926100Y0902500D02*
X0928900D01*
X0927500Y0901100D02*
Y0903900D01*
X0926100Y0933500D02*
X0928900D01*
X0927500Y0932100D02*
Y0934900D01*
X0916100Y0913500D02*
X0918900D01*
X0917500Y0912100D02*
Y0914900D01*
X0935100Y0891500D02*
X0937900D01*
X0936500Y0890100D02*
Y0892900D01*
X0862600Y0919500D02*
X0865400D01*
X0864000Y0918100D02*
Y0920900D01*
X0895100Y0910000D02*
X0897900D01*
X0896500Y0908600D02*
Y0911400D01*
X0895100Y0916500D02*
X0897900D01*
X0896500Y0915100D02*
Y0917900D01*
X0909100Y0913500D02*
X0911900D01*
X0910500Y0912100D02*
Y0914900D01*
X0886600Y0940000D02*
X0889400D01*
X0888000Y0938600D02*
Y0941400D01*
X1052897Y0571142D02*
X1055697D01*
X1054297Y0569742D02*
Y0572542D01*
X1063100Y0558500D02*
X1065900D01*
X1064500Y0557100D02*
Y0559900D01*
X1063100Y0578174D02*
X1065900D01*
X1064500Y0576774D02*
Y0579574D01*
X0780549Y0461772D02*
X0783349D01*
X0781949Y0460372D02*
Y0463172D01*
X0767045Y0449276D02*
X0769845D01*
X0768445Y0447876D02*
Y0450676D01*
X0772045Y0437276D02*
X0774845D01*
X0773445Y0435876D02*
Y0438676D01*
X0777545Y0437276D02*
X0780345D01*
X0778945Y0435876D02*
Y0438676D01*
X0765545Y0456776D02*
X0768345D01*
X0766945Y0455376D02*
Y0458176D01*
X0751100Y0406000D02*
X0753900D01*
X0752500Y0404600D02*
Y0407400D01*
X0771545Y0444276D02*
X0774345D01*
X0772945Y0442876D02*
Y0445676D01*
X1050100Y0596000D02*
X1052900D01*
X1051500Y0594600D02*
Y0597400D01*
X1051600Y0553500D02*
X1054400D01*
X1053000Y0552100D02*
Y0554900D01*
X1053100Y0537500D02*
X1055900D01*
X1054500Y0536100D02*
Y0538900D01*
X1096600Y0553000D02*
X1099400D01*
X1098000Y0551600D02*
Y0554400D01*
X1098100Y0571000D02*
X1100900D01*
X1099500Y0569600D02*
Y0572400D01*
X1098100Y0577500D02*
X1100900D01*
X1099500Y0576100D02*
Y0578900D01*
X0712882Y0893339D02*
X0715682D01*
X0714282Y0891939D02*
Y0894739D01*
X0712882Y0886339D02*
X0715682D01*
X0714282Y0884939D02*
Y0887739D01*
X1089100Y0592500D02*
X1091900D01*
X1090500Y0591100D02*
Y0593900D01*
X1073100Y0600500D02*
X1075900D01*
X1074500Y0599100D02*
Y0601900D01*
X0851100Y0930500D02*
X0853900D01*
X0852500Y0929100D02*
Y0931900D01*
X1118509Y0876474D02*
X1121309D01*
X1119909Y0875074D02*
Y0877874D01*
X1118509Y0869474D02*
X1121309D01*
X1119909Y0868074D02*
Y0870874D01*
X1118239Y0890179D02*
X1121039D01*
X1119639Y0888779D02*
Y0891579D01*
X0579382Y0620841D02*
X0582182D01*
X0580782Y0619441D02*
Y0622241D01*
X0579382Y0613841D02*
X0582182D01*
X0580782Y0612441D02*
Y0615241D01*
X0578606Y0600778D02*
X0581406D01*
X0580006Y0599378D02*
Y0602178D01*
X0624191Y0523026D02*
X0626991D01*
X0625591Y0521626D02*
Y0524426D01*
X0624191Y0516026D02*
X0626991D01*
X0625591Y0514626D02*
Y0517426D01*
X0622857Y0503393D02*
X0625657D01*
X0624257Y0501993D02*
Y0504793D01*
X0696691Y0446026D02*
X0699490D01*
X0698091Y0444626D02*
Y0447426D01*
X0696691Y0439026D02*
X0699490D01*
X0698091Y0437626D02*
Y0440426D01*
X0697100Y0427500D02*
X0699900D01*
X0698500Y0426100D02*
Y0428900D01*
X1074740Y0429161D02*
X1077540D01*
X1076140Y0427761D02*
Y0430561D01*
X1074740Y0422161D02*
X1077540D01*
X1076140Y0420761D02*
Y0423561D01*
X1075094Y0442222D02*
X1077894D01*
X1076494Y0440822D02*
Y0443622D01*
X1148740Y0499161D02*
X1151540D01*
X1150140Y0497761D02*
Y0500561D01*
X1148740Y0506161D02*
X1151540D01*
X1150140Y0504761D02*
Y0507561D01*
X1149268Y0519780D02*
X1152068D01*
X1150668Y0518380D02*
Y0521180D01*
X1192010Y0603974D02*
X1194810D01*
X1193410Y0602574D02*
Y0605374D01*
X1192010Y0596974D02*
X1194810D01*
X1193410Y0595574D02*
Y0598374D01*
X1193343Y0616607D02*
X1196143D01*
X1194743Y0615207D02*
Y0618007D01*
X1059321Y0876472D02*
X1062121D01*
X1060721Y0875072D02*
Y0877872D01*
X1059321Y0869472D02*
X1062121D01*
X1060721Y0868072D02*
Y0870872D01*
X1063036Y0891378D02*
X1065836D01*
X1064436Y0889978D02*
Y0892778D01*
X1059240Y0928661D02*
X1062040D01*
X1060640Y0927261D02*
Y0930061D01*
X1059240Y0921661D02*
X1062040D01*
X1060640Y0920261D02*
Y0923061D01*
X1059600Y0943000D02*
X1062400D01*
X1061000Y0941600D02*
Y0944400D01*
X0712382Y0938339D02*
X0715181D01*
X0713781Y0936939D02*
Y0939739D01*
X0712382Y0945339D02*
X0715181D01*
X0713781Y0943939D02*
Y0946739D01*
X0712816Y0924365D02*
X0715616D01*
X0714216Y0922965D02*
Y0925765D01*
X0652691Y0893526D02*
X0655490D01*
X0654090Y0892126D02*
Y0894926D01*
X0652691Y0886526D02*
X0655490D01*
X0654090Y0885126D02*
Y0887926D01*
X0652106Y0873278D02*
X0654906D01*
X0653506Y0871878D02*
Y0874678D01*
X0888100Y0886500D02*
X0890900D01*
X0889500Y0885100D02*
Y0887900D01*
X0882100Y0947500D02*
X0884900D01*
X0883500Y0946100D02*
Y0948900D01*
X0934100Y0920000D02*
X0936900D01*
X0935500Y0918600D02*
Y0921400D01*
X0939100Y0920000D02*
X0941900D01*
X0940500Y0918600D02*
Y0921400D01*
X0949100Y0894000D02*
X0951900D01*
X0950500Y0892600D02*
Y0895400D01*
X0846100Y0840000D02*
X0848900D01*
X0847500Y0838600D02*
Y0841400D01*
X0882600Y0868500D02*
X0885400D01*
X0884000Y0867100D02*
Y0869900D01*
X0893100Y0840000D02*
X0895900D01*
X0894500Y0838600D02*
Y0841400D01*
X0888100Y0868500D02*
X0890900D01*
X0889500Y0867100D02*
Y0869900D01*
X1062600Y0535500D02*
X1065400D01*
X1064000Y0534100D02*
Y0536900D01*
X0942600Y0969000D02*
X0945400D01*
X0944000Y0967600D02*
Y0970400D01*
X0864100Y0966000D02*
X0866900D01*
X0865500Y0964600D02*
Y0967400D01*
X0845600Y0969000D02*
X0848400D01*
X0847000Y0967600D02*
Y0970400D01*
X0818600Y0969000D02*
X0821400D01*
X0820000Y0967600D02*
Y0970400D01*
X0688600Y0886000D02*
X0691400D01*
X0690000Y0884600D02*
Y0887400D01*
X0699100Y0886000D02*
X0701900D01*
X0700500Y0884600D02*
Y0887400D01*
X1034100Y0944500D02*
X1036900D01*
X1035500Y0943100D02*
Y0945900D01*
X1034100Y0956000D02*
X1036900D01*
X1035500Y0954600D02*
Y0957400D01*
X1080100Y0889500D02*
X1082900D01*
X1081500Y0888100D02*
Y0890900D01*
X1080100Y0877000D02*
X1082900D01*
X1081500Y0875600D02*
Y0878400D01*
X1089600Y0856000D02*
X1092400D01*
X1091000Y0854600D02*
Y0857400D01*
X1031100Y0916000D02*
X1033900D01*
X1032500Y0914600D02*
Y0917400D01*
X1026600Y0921500D02*
X1029400D01*
X1028000Y0920100D02*
Y0922900D01*
X1026600Y0893000D02*
X1029400D01*
X1028000Y0891600D02*
Y0894400D01*
X1031100Y0899500D02*
X1033900D01*
X1032500Y0898100D02*
Y0900900D01*
X1081458Y0471531D02*
X1084258D01*
X1082858Y0470131D02*
Y0472931D01*
X0753100Y0887000D02*
X0755900D01*
X0754500Y0885600D02*
Y0888400D01*
X0782864Y0922000D02*
X0785664D01*
X0784264Y0920600D02*
Y0923400D01*
X1051458Y0471032D02*
X1054258D01*
X1052858Y0469631D02*
Y0472432D01*
X0992600Y0921500D02*
X0995400D01*
X0994000Y0920100D02*
Y0922900D01*
X1071600Y0471000D02*
X1074400D01*
X1073000Y0469600D02*
Y0472400D01*
X0890600Y0972500D02*
X0893400D01*
X0892000Y0971100D02*
Y0973900D01*
X1003600Y0902000D02*
X1006400D01*
X1005000Y0900600D02*
Y0903400D01*
X1043600Y0496500D02*
X1046400D01*
X1045000Y0495100D02*
Y0497900D01*
X1087100Y0481000D02*
X1089900D01*
X1088500Y0479600D02*
Y0482400D01*
X0884100Y0972500D02*
X0886900D01*
X0885500Y0971100D02*
Y0973900D01*
X0874100Y0985000D02*
X0876900D01*
X0875500Y0983600D02*
Y0986400D01*
X0885600Y0993500D02*
X0888400D01*
X0887000Y0992100D02*
Y0994900D01*
X1061600Y0471000D02*
X1064400D01*
X1063000Y0469600D02*
Y0472400D01*
X1110600Y0530500D02*
X1113400D01*
X1112000Y0529100D02*
Y0531900D01*
X0641600Y0571000D02*
X0644400D01*
X0643000Y0569600D02*
Y0572400D01*
X1056458Y0467142D02*
X1059258D01*
X1057858Y0465742D02*
Y0468542D01*
X1106100Y0535000D02*
X1108900D01*
X1107500Y0533600D02*
Y0536400D01*
X0647100Y0576000D02*
X0649900D01*
X0648500Y0574600D02*
Y0577400D01*
X0635100Y0573500D02*
X0637900D01*
X0636500Y0572100D02*
Y0574900D01*
X0616600Y0573500D02*
X0619400D01*
X0618000Y0572100D02*
Y0574900D01*
X0918600Y0965500D02*
X0921400D01*
X0920000Y0964100D02*
Y0966900D01*
X1019100Y0944500D02*
X1021900D01*
X1020500Y0943100D02*
Y0945900D01*
X1012100Y0957000D02*
X1014900D01*
X1013500Y0955600D02*
Y0958400D01*
X1012100Y0964500D02*
X1014900D01*
X1013500Y0963100D02*
Y0965900D01*
X1019100Y0929500D02*
X1021900D01*
X1020500Y0928100D02*
Y0930900D01*
X0737600Y0644000D02*
X0740400D01*
X0739000Y0642600D02*
Y0645400D01*
X0737600Y0639000D02*
X0740400D01*
X0739000Y0637600D02*
Y0640400D01*
X0720600Y0568000D02*
X0723400D01*
X0722000Y0566600D02*
Y0569400D01*
X0715100Y0568000D02*
X0717900D01*
X0716500Y0566600D02*
Y0569400D01*
X0788600Y0897000D02*
X0791400D01*
X0790000Y0895600D02*
Y0898400D01*
X1008100Y0913000D02*
X1010900D01*
X1009500Y0911600D02*
Y0914400D01*
X0995600Y0888831D02*
X0998400D01*
X0997000Y0887431D02*
Y0890231D01*
X0884100Y0985000D02*
X0886900D01*
X0885500Y0983600D02*
Y0986400D01*
X0909100Y0984500D02*
X0911900D01*
X0910500Y0983100D02*
Y0985900D01*
X0915100Y0960500D02*
X0917900D01*
X0916500Y0959100D02*
Y0961900D01*
X0846600Y0954634D02*
X0849400D01*
X0848000Y0953234D02*
Y0956034D01*
X0926600Y0959500D02*
X0929400D01*
X0928000Y0958100D02*
Y0960900D01*
X0801100Y0950500D02*
X0803900D01*
X0802500Y0949100D02*
Y0951900D01*
X1096600Y0559000D02*
X1099400D01*
X1098000Y0557600D02*
Y0560400D01*
X0734100Y0568000D02*
X0736900D01*
X0735500Y0566600D02*
Y0569400D01*
X0739100Y0568000D02*
X0741900D01*
X0740500Y0566600D02*
Y0569400D01*
X0748100Y0568000D02*
X0750900D01*
X0749500Y0566600D02*
Y0569400D01*
X0753600Y0568000D02*
X0756400D01*
X0755000Y0566600D02*
Y0569400D01*
X0745100Y0533000D02*
X0747900D01*
X0746500Y0531600D02*
Y0534400D01*
X0677600Y0535500D02*
X0680400D01*
X0679000Y0534100D02*
Y0536900D01*
X0685100Y0540000D02*
X0687900D01*
X0686500Y0538600D02*
Y0541400D01*
X1068600Y0596500D02*
X1071400D01*
X1070000Y0595100D02*
Y0597900D01*
X1071600Y0609000D02*
X1074400D01*
X1073000Y0607600D02*
Y0610400D01*
X1076600Y0612500D02*
X1079400D01*
X1078000Y0611100D02*
Y0613900D01*
X1090100Y0612500D02*
X1092900D01*
X1091500Y0611100D02*
Y0613900D01*
X0648600Y0560000D02*
X0651400D01*
X0650000Y0558600D02*
Y0561400D01*
X1039600Y0466500D02*
X1042400D01*
X1041000Y0465100D02*
Y0467900D01*
X1087100Y0543000D02*
X1089900D01*
X1088500Y0541600D02*
Y0544400D01*
X1093100Y0543000D02*
X1095900D01*
X1094500Y0541600D02*
Y0544400D01*
X1080600Y0547500D02*
X1083400D01*
X1082000Y0546100D02*
Y0548900D01*
X1053600Y0511000D02*
X1056400D01*
X1055000Y0509600D02*
Y0512400D01*
X0682600Y0474500D02*
X0685400D01*
X0684000Y0473100D02*
Y0475900D01*
X0682600Y0467500D02*
X0685400D01*
X0684000Y0466100D02*
Y0468900D01*
X0695190Y0517590D02*
X0697990D01*
X0696590Y0516190D02*
Y0518990D01*
X0689100Y0526000D02*
X0691900D01*
X0690500Y0524600D02*
Y0527400D01*
X0689100Y0516000D02*
X0691900D01*
X0690500Y0514600D02*
Y0517400D01*
X0666100Y0521000D02*
X0668900D01*
X0667500Y0519600D02*
Y0522400D01*
X0998586Y0537026D02*
X1001385D01*
X0999986Y0535627D02*
Y0538426D01*
X1082100Y0597000D02*
X1084900D01*
X1083500Y0595600D02*
Y0598400D01*
X1077600Y0589000D02*
X1080400D01*
X1079000Y0587600D02*
Y0590400D01*
X1063600Y0592500D02*
X1066400D01*
X1065000Y0591100D02*
Y0593900D01*
X1058600Y0609000D02*
X1061400D01*
X1060000Y0607600D02*
Y0610400D01*
X1041600Y0620500D02*
X1044400D01*
X1043000Y0619100D02*
Y0621900D01*
X1037100Y0625000D02*
X1039900D01*
X1038500Y0623600D02*
Y0626400D01*
X1044600Y0544000D02*
X1047400D01*
X1046000Y0542600D02*
Y0545400D01*
X1035600Y0531500D02*
X1038400D01*
X1037000Y0530100D02*
Y0532900D01*
X1006600Y0540000D02*
X1009400D01*
X1008000Y0538600D02*
Y0541400D01*
X1082600Y0520000D02*
X1085400D01*
X1084000Y0518600D02*
Y0521400D01*
X1075600Y0541000D02*
X1078400D01*
X1077000Y0539600D02*
Y0542400D01*
X1113100Y0599000D02*
X1115900D01*
X1114500Y0597600D02*
Y0600400D01*
X1066100Y0511000D02*
X1068900D01*
X1067500Y0509600D02*
Y0512400D01*
X1060100Y0511000D02*
X1062900D01*
X1061500Y0509600D02*
Y0512400D01*
X1012883Y0461543D02*
X1015683D01*
X1014283Y0460143D02*
Y0462943D01*
X0987600Y0488500D02*
X0990400D01*
X0989000Y0487100D02*
Y0489900D01*
X0993600Y0486000D02*
X0996400D01*
X0995000Y0484600D02*
Y0487400D01*
X1010600Y0470500D02*
X1013400D01*
X1012000Y0469100D02*
Y0471900D01*
X0963600Y0491000D02*
X0966400D01*
X0965000Y0489600D02*
Y0492400D01*
X0969600Y0495500D02*
X0972400D01*
X0971000Y0494100D02*
Y0496900D01*
X0975600Y0493500D02*
X0978400D01*
X0977000Y0492100D02*
Y0494900D01*
X1010600Y0477000D02*
X1013400D01*
X1012000Y0475600D02*
Y0478400D01*
X1000100Y0488000D02*
X1002900D01*
X1001500Y0486600D02*
Y0489400D01*
X0981600Y0491000D02*
X0984400D01*
X0983000Y0489600D02*
Y0492400D01*
X0989100Y0523000D02*
X0991900D01*
X0990500Y0521600D02*
Y0524400D01*
X1002100Y0523000D02*
X1004900D01*
X1003500Y0521600D02*
Y0524400D01*
X0986100Y0516000D02*
X0988900D01*
X0987500Y0514600D02*
Y0517400D01*
X1011600Y0524000D02*
X1014400D01*
X1013000Y0522600D02*
Y0525400D01*
X1006100Y0514964D02*
X1008900D01*
X1007500Y0513565D02*
Y0516364D01*
X1063075Y0552525D02*
X1065875D01*
X1064475Y0551125D02*
Y0553925D01*
X0938100Y0861500D02*
X0940900D01*
X0939500Y0860100D02*
Y0862900D01*
X0938100Y0848000D02*
X0940900D01*
X0939500Y0846600D02*
Y0849400D01*
X0832100Y0848000D02*
X0834900D01*
X0833500Y0846600D02*
Y0849400D01*
X0833100Y0861000D02*
X0835900D01*
X0834500Y0859600D02*
Y0862400D01*
M02*
