M48
;Layer_Color=9474304
;FILE_FORMAT=2:5
INCH
;TYPE=PLATED
T1F00S00C0.02799
T2F00S00C0.02800
T3F00S00C0.03150
T4F00S00C0.03543
T5F00S00C0.03937
T7F00S00C0.11811
T8F00S00C0.12598
T9F00S00C2.75591
%
T01
X0730500Y0399000
X0739000
Y0420500
X0731000
X0730000Y0439500
X0742500
X0684000Y0467500
X0796000Y0438500
X0783500Y0422500
Y0417000
X0982000Y0451500
X1028500Y0438500
X1035500Y0422500
Y0416500
X1097000Y0503000
X1120000Y0562500
Y0567500
X1132500Y0571000
X1132598Y0583382
X1164000Y0583000
X1164500Y0572500
X1114500Y0599000
X1079000Y0589000
X1065000Y0592500
X1071500Y0571500
X1057500Y0558500
X1046000Y0544000
X1036500Y0548000
X1037000Y0531500
X1028000
X1025000Y0541500
X1008000Y0540000
X0999986Y0537026
X1003500Y0523000
X1013000Y0524000
X1007500Y0514964
X0987500Y0516000
X0990500Y0523000
X0980500Y0540000
X0956500Y0546500
X0951500
X0946500
X0941500
X0962000Y0524500
X0965500Y0519500
X0952500Y0506000
X0947000
X0950000Y0500000
X0946000Y0495500
X0941500Y0491000
X1001500Y0488000
X1012000Y0477000
Y0470500
X1030000Y0477000
X1033000Y0511000
X1061500
X1067500
X1084000Y0510500
Y0520000
X1077000Y0541000
X1051000Y0530500
X1043000Y0620500
X0913000Y0515000
Y0509000
X0858000Y0508500
X0861000Y0504000
X0857000Y0499500
X0844000Y0519000
X0840000Y0522102
X0842000Y0534500
X0824500Y0545000
X0801000Y0506500
Y0472500
X0754000Y0486000
X0755500Y0502500
Y0509500
X0765500Y0499000
X0744500Y0496500
X0732081Y0528500
X0722500Y0540500
X0690500Y0526000
Y0516000
X0667500Y0521000
X0684000Y0474500
X0704000Y0483500
X0712000
X0720000Y0475500
X0742752Y0588500
X0748000
X0757000
X0728500Y0620000
X0715000Y0623500
X0717500Y0628500
X0716500Y0639500
Y0645000
X0728500Y0625500
X1038500Y0625000
X0991500Y0826000
X0985000
X0976000Y0831500
X0939500Y0848000
Y0861500
X0961500Y0895500
Y0902500
X1013000Y0849500
X0920500Y0864000
X0834500Y0861000
X0833500Y0848000
X0790500Y0874000
X0862500Y0899500
X0859439Y0924939
X0874500Y0924000
X0880500
X0848000Y0914000
X0752000Y0909000
X0764850Y0862226
Y0857110
X0760028Y0854807
X0766000Y0831000
T02
X0698500Y0427500
X0698091Y0439026
Y0446026
X0768445Y0449276
X0766945Y0456776
X0772945Y0444276
X0773445Y0437276
X0778945
X0752500Y0406000
X0781949Y0461772
X0999279Y0456547
X1000780Y0449047
X1006000Y0443000
X1005779Y0437047
X1011279
X1014283Y0461543
X1030500Y0466500
X1041000
X1057858Y0467142
X1076494Y0442222
X1076140Y0429161
Y0422161
X0990000Y0404000
X1094500Y0543000
X1098000Y0553000
Y0559000
X1099500Y0571000
Y0577500
X1098000Y0599000
X1112500Y0621500
X1129500Y0616000
X1144264Y0594000
X1193410Y0596974
Y0603974
X1194743Y0616607
X1150668Y0519780
X1150140Y0506161
Y0499161
X1112000Y0530500
X1107500Y0535000
X1088500Y0543000
X1082000Y0547500
X1076000
X1077000Y0533500
X1064000Y0535500
X1054500Y0537500
X1053000Y0553500
X1064475Y0552525
X1064500Y0558500
Y0578174
X1054297Y0571142
X1048500Y0589500
X1051500Y0596000
X1070000Y0596500
X1074500Y0600500
X1073000Y0609000
X1078000Y0612500
X1091500
X1090500Y0592500
X1089500Y0582000
X1086500Y0576000
X1083500Y0597000
X1060000Y0609000
X1055000Y0511000
X1047500
X1039000
X1045000Y0496500
X1067858Y0487032
X1063000Y0471000
X1073000
X1082858Y0471531
X1088500Y0481000
X1052858Y0471032
X0995000Y0486000
X0989000Y0488500
X0983000Y0491000
X0977000Y0493500
X0971000Y0495500
X0965000Y0491000
X0960500Y0485500
X0956500Y0479500
X0857500Y0535000
X0790000Y0502500
X0776000Y0471500
X0765500Y0482000
X0745500Y0470000
X0736500
X0740500Y0474500
X0722500Y0482000
X0724000Y0510000
Y0525000
X0717000Y0523500
X0716000Y0540250
X0709500Y0540500
X0686500Y0540000
X0679000Y0535500
X0678500Y0507000
Y0501000
X0696590Y0517590
X0740213Y0534787
X0746500Y0533000
X0753500Y0528000
X0757500Y0522500
X0755000Y0568000
X0749500
X0740500
X0735500
X0727500
X0722000
X0716500
X0685500Y0586000
X0653500Y0581000
X0648500Y0576000
X0643000Y0571000
X0636500Y0573500
X0627500Y0588500
X0643000Y0603500
X0656000Y0604000
X0675000Y0617000
X0700500Y0614000
X0707000Y0610500
X0698000Y0624000
X0666000Y0566000
X0650000Y0560000
X0653500Y0551000
X0625591Y0523026
Y0516026
X0624257Y0503393
X0618000Y0573500
X0580006Y0600778
X0580782Y0613841
Y0620841
X0739000Y0639000
Y0644000
X1076500Y0636000
X1073000Y0630500
X1119909Y0869474
Y0876474
X1119639Y0890179
X1081500Y0889500
Y0877000
X1060721Y0876472
Y0869472
X1064436Y0891378
X1060640Y0921661
Y0928661
X1028000Y0921500
X1032500Y0916000
Y0899500
X1028000Y0893000
X1005000Y0902000
X1009500Y0913000
X0989500Y0917000
X0994000Y0921500
X0991000Y0895000
X0997000Y0888831
X1012000Y0865000
X1018000Y0855500
X1012000Y0831500
X0979500Y0865000
X0950500Y0894000
Y0907500
X0939500Y0908500
X0940500Y0920000
X1020500Y0929500
X1091000Y0856000
X0925500Y0868500
X0927000Y0894500
X0927500Y0902500
X0934000Y0908500
X0935500Y0920000
X0927500Y0933500
X0917500Y0913500
X0910500
X0896500Y0916500
Y0910000
X0892500Y0905500
X0889500Y0886500
Y0868500
X0884000
X0887000Y0838500
X0894500Y0840000
X0922500Y0840500
X0936500Y0891500
X0864000Y0919500
X0852500Y0930500
X0847500Y0868500
Y0840000
X0790000Y0897000
X0785000Y0912000
X0784264Y0922000
X0777500Y0929500
X0778000Y0937000
X0773043Y0907000
X0746500Y0904500
Y0914500
X0739500Y0901000
X0746500Y0892500
X0754500Y0887000
X0769000Y0872500
X0747626Y0843193
X0715000Y0873000
X0714282Y0886339
Y0893339
X0700500Y0886000
X0690000
X0654090Y0886526
Y0893526
X0653506Y0873278
X0714216Y0924365
X0713781Y0938339
Y0945339
X0746500Y0949500
X0747000Y0964500
X0781500Y0982000
X0794500
X0801500Y0981000
X0811500
X0824571Y0987000
X0834571
X0847643Y0990500
X0857643
X0870714Y0991500
X0880714
X0887000Y0993500
X0893786Y0991500
X0903786
X0899000Y0986500
X0910500Y0984500
X0916857Y0990500
X0926857
X0920000Y0965500
X0913000
X0916500Y0960500
X0928000Y0959500
X0892000Y0972500
X0885500
X0877000
X0875500Y0985000
X0885500
X0867331Y0981000
X0865500Y0966000
X0847000Y0969000
X0848000Y0954634
X0820000Y0969000
X0800500
X0802500Y0950500
X0789500Y0946000
X0883500Y0947500
X0888000Y0940000
X0944000Y0969000
X0962000
X0963000Y0981000
X0973000
X0977500Y0986500
X0986000Y0979500
X0984000Y0944500
X1020500
X1035500
Y0956000
X1013500Y0957000
Y0964500
X1061000Y0943000
X0949928Y0987000
X0939929
T03
X1116000Y0555646
Y0574858
X0770500Y0525358
Y0506146
T04
X0748945Y0420776
X0758945
Y0430776
X0748945
X0981279Y0430547
X0991280
Y0420547
X0981279
X0987500Y0551000
Y0561000
X0997500
Y0551000
X1007500
Y0561000
X1017500
Y0551000
X0693500Y0495000
X0683500
X0673500
X0663500
Y0485000
X0673500
X0683500
X0693500
X0946500Y0883000
X0956500
X0966500
X0976500
X0936500
X0926500
X0916500
X0906500
X0896500
X0877500
X0867500
X0857500
X0847500
X0837500
X0827500
X0817500
X0807500
X0797500
Y0943000
X0807500
X0817500
X0827500
X0837500
X0847500
X0857500
X0867500
X0877500
X0896500
X0906500
X0916500
X0926500
X0936500
X0946500
X0956500
X0966500
X0976500
T05
X0970189Y0914000
Y0925811
X0982000
Y0914000
X0993811Y0929512
X0958378
X0830311Y0930012
X0818500Y0926311
Y0914500
X0806689
Y0926311
X0794878Y0930012
X0881153Y0856142
X0879709Y0849811
X0887000Y0851476
Y0858957
X0892846Y0856142
X0894291Y0849811
X0890244Y0844736
X0883756
X0873000Y0845500
T07
X0665500Y0466063
X1108500
X1171000Y0560000
X0603000
X0956055Y0851476
X1089500Y0917000
X0817945Y0851476
X0684500Y0917000
T08
X0847630Y0464902
X0926370
X0721646Y0736555
X1052354
Y0795610
X0721646
T09
X0887000Y0677500
M30
