%FSLAX25Y25*%
%MOIN*%
G70*
G01*
G75*
%ADD10O,0.08661X0.02362*%
%ADD11R,0.03000X0.03543*%
%ADD12R,0.05118X0.05512*%
%ADD13R,0.05512X0.05118*%
%ADD14R,0.03543X0.03000*%
%ADD15R,0.05000X0.06693*%
%ADD16R,0.04921X0.03937*%
%ADD17R,0.08661X0.02362*%
%ADD18O,0.08661X0.02362*%
%ADD19O,0.02362X0.08661*%
%ADD20R,0.09449X0.09843*%
%ADD21C,0.01575*%
%ADD22C,0.01181*%
%ADD23C,0.00984*%
%ADD24C,0.01000*%
%ADD25C,0.03150*%
%ADD26C,0.03937*%
%ADD27C,0.02756*%
%ADD28C,0.02362*%
%ADD29C,0.00591*%
%ADD30C,0.05906*%
%ADD31R,0.05906X0.05906*%
%ADD32C,0.05118*%
%ADD33C,0.07874*%
%ADD34O,0.10236X0.07874*%
%ADD35O,0.08268X0.07874*%
%ADD36R,0.05118X0.09843*%
%ADD37O,0.05118X0.09843*%
%ADD38C,0.05500*%
%ADD39C,0.06693*%
%ADD40R,0.06299X0.06299*%
%ADD41C,0.06299*%
%ADD42C,2.75591*%
%ADD43C,0.39370*%
%ADD44C,0.19685*%
%ADD45C,0.05000*%
%ADD46C,0.01969*%
%ADD47R,0.09646X0.09843*%
%ADD48R,0.09843X0.09449*%
%ADD49R,0.02362X0.08661*%
%ADD50O,0.02362X0.08661*%
%ADD51R,0.20866X0.07087*%
%ADD52O,0.03937X0.01024*%
%ADD53O,0.01024X0.03937*%
%ADD54R,0.03937X0.01024*%
%ADD55R,0.03543X0.01575*%
%ADD56R,0.09449X0.12598*%
%ADD57R,0.06693X0.05000*%
%ADD58R,0.09843X0.14961*%
%ADD59R,0.01969X0.05512*%
%ADD60O,0.08661X0.01575*%
%ADD61R,0.08661X0.01575*%
%ADD62R,0.18110X0.09252*%
%ADD63O,0.01378X0.06299*%
%ADD64R,0.07087X0.07874*%
%ADD65R,0.03543X0.01575*%
%ADD66R,0.09843X0.09646*%
%ADD67R,0.03937X0.04921*%
%ADD68O,0.02165X0.07874*%
%ADD69R,0.15000X0.19685*%
%ADD70R,0.01575X0.03543*%
%ADD71R,0.06000X0.06299*%
%ADD72R,0.06299X0.06000*%
%ADD73C,0.00787*%
%ADD74C,0.00141*%
%ADD75C,0.01378*%
%ADD76C,0.01200*%
G36*
X-147168Y247599D02*
X-147041Y247588D01*
X-146891Y247576D01*
X-146753Y247553D01*
X-146614Y247530D01*
X-146603D01*
X-146557Y247519D01*
X-146488Y247496D01*
X-146407Y247473D01*
X-146211Y247403D01*
X-146119Y247357D01*
X-146026Y247300D01*
X-146015Y247288D01*
X-145992Y247276D01*
X-145946Y247242D01*
X-145888Y247196D01*
X-145773Y247069D01*
X-145657Y246908D01*
X-145646Y246896D01*
X-145634Y246862D01*
X-145611Y246815D01*
X-145588Y246758D01*
X-145565Y246677D01*
X-145554Y246573D01*
X-145531Y246469D01*
Y246354D01*
Y246343D01*
Y246308D01*
Y246250D01*
X-145542Y246181D01*
X-145554Y246100D01*
X-145565Y246020D01*
X-145611Y245824D01*
Y245812D01*
X-145623Y245778D01*
X-145646Y245731D01*
X-145669Y245674D01*
X-145738Y245535D01*
X-145842Y245374D01*
X-145853Y245363D01*
X-145865Y245339D01*
X-145899Y245305D01*
X-145946Y245259D01*
X-146061Y245144D01*
X-146199Y245017D01*
X-146211Y245005D01*
X-146234Y244994D01*
X-146280Y244959D01*
X-146338Y244924D01*
X-146407Y244890D01*
X-146476Y244844D01*
X-146660Y244763D01*
X-146649D01*
X-146626Y244752D01*
X-146580D01*
X-146534Y244728D01*
X-146407Y244694D01*
X-146280Y244625D01*
X-146268D01*
X-146245Y244613D01*
X-146176Y244555D01*
X-146084Y244486D01*
X-145980Y244383D01*
X-145969Y244371D01*
X-145957Y244359D01*
X-145911Y244290D01*
X-145842Y244175D01*
X-145784Y244037D01*
Y244025D01*
X-145773Y244002D01*
X-145761Y243956D01*
X-145750Y243910D01*
X-145738Y243841D01*
X-145727Y243760D01*
X-145715Y243587D01*
Y243575D01*
Y243552D01*
Y243506D01*
X-145727Y243449D01*
X-145738Y243299D01*
X-145784Y243126D01*
Y243114D01*
X-145796Y243080D01*
X-145807Y243034D01*
X-145830Y242976D01*
X-145888Y242814D01*
X-145980Y242641D01*
Y242630D01*
X-146003Y242607D01*
X-146026Y242561D01*
X-146072Y242503D01*
X-146176Y242365D01*
X-146326Y242203D01*
X-146338Y242192D01*
X-146361Y242169D01*
X-146407Y242134D01*
X-146465Y242076D01*
X-146545Y242019D01*
X-146626Y241961D01*
X-146834Y241834D01*
X-146845Y241823D01*
X-146891Y241811D01*
X-146949Y241777D01*
X-147029Y241742D01*
X-147133Y241707D01*
X-147248Y241661D01*
X-147387Y241615D01*
X-147525Y241581D01*
X-147548D01*
X-147594Y241569D01*
X-147675Y241558D01*
X-147791Y241546D01*
X-147917Y241523D01*
X-148079Y241512D01*
X-148252Y241500D01*
X-150166D01*
X-150235Y241512D01*
X-150339Y241535D01*
X-150419Y241592D01*
X-150431Y241615D01*
X-150454Y241661D01*
X-150465Y241754D01*
Y241811D01*
X-150454Y241880D01*
X-149382Y247219D01*
Y247230D01*
X-149370Y247253D01*
X-149358Y247288D01*
X-149347Y247334D01*
X-149301Y247438D01*
X-149220Y247519D01*
X-149209D01*
X-149197Y247530D01*
X-149139Y247565D01*
X-149036Y247599D01*
X-148920Y247611D01*
X-147283D01*
X-147168Y247599D01*
D02*
G37*
G36*
X-142014Y246135D02*
X-142002D01*
X-141968Y246124D01*
X-141887Y246100D01*
X-141876D01*
X-141841Y246089D01*
X-141772Y246066D01*
X-141760D01*
X-141737Y246054D01*
X-141714Y246043D01*
X-141691Y246031D01*
X-141680Y246020D01*
X-141668Y246008D01*
X-141656Y245974D01*
Y245939D01*
Y245928D01*
Y245916D01*
Y245870D01*
X-141668Y245812D01*
Y245801D01*
X-141680Y245755D01*
X-141691Y245697D01*
X-141703Y245616D01*
Y245593D01*
X-141714Y245547D01*
X-141726Y245466D01*
X-141749Y245374D01*
Y245351D01*
X-141760Y245305D01*
X-141783Y245236D01*
X-141806Y245155D01*
Y245144D01*
X-141829Y245097D01*
X-141852Y245040D01*
X-141887Y244982D01*
X-141899Y244970D01*
X-141922Y244959D01*
X-141945Y244936D01*
X-141991Y244924D01*
X-142014D01*
X-142072Y244936D01*
X-142083D01*
X-142095Y244948D01*
X-142164Y244970D01*
X-142175D01*
X-142198Y244982D01*
X-142233Y244994D01*
X-142279Y245005D01*
X-142291D01*
X-142314Y245017D01*
X-142360Y245028D01*
X-142440D01*
X-142475Y245017D01*
X-142521D01*
X-142637Y244970D01*
X-142694Y244948D01*
X-142763Y244901D01*
X-142775D01*
X-142798Y244878D01*
X-142833Y244855D01*
X-142867Y244809D01*
X-142982Y244717D01*
X-143109Y244579D01*
X-143121Y244567D01*
X-143132Y244544D01*
X-143167Y244498D01*
X-143201Y244452D01*
X-143248Y244383D01*
X-143305Y244302D01*
X-143409Y244106D01*
Y244094D01*
X-143432Y244060D01*
X-143455Y244002D01*
X-143478Y243933D01*
X-143513Y243852D01*
X-143536Y243760D01*
X-143594Y243552D01*
X-143974Y241661D01*
Y241650D01*
Y241638D01*
X-143985Y241604D01*
X-144009Y241581D01*
X-144020D01*
X-144032Y241558D01*
X-144066Y241546D01*
X-144124Y241523D01*
X-144135D01*
X-144170Y241512D01*
X-144228Y241500D01*
X-144308Y241489D01*
X-144389D01*
X-144481Y241477D01*
X-144793D01*
X-144885Y241489D01*
X-144908D01*
X-144954Y241500D01*
X-145012Y241512D01*
X-145069Y241523D01*
X-145081D01*
X-145104Y241535D01*
X-145127Y241558D01*
X-145150Y241581D01*
Y241592D01*
Y241604D01*
Y241661D01*
X-144308Y245881D01*
Y245893D01*
Y245904D01*
X-144297Y245939D01*
X-144274Y245962D01*
X-144262Y245974D01*
X-144251Y245985D01*
X-144182Y246008D01*
X-144170D01*
X-144135Y246020D01*
X-144078Y246031D01*
X-144009Y246043D01*
X-143985D01*
X-143939Y246054D01*
X-143859Y246066D01*
X-143674D01*
X-143605Y246054D01*
X-143524Y246043D01*
X-143513D01*
X-143467Y246031D01*
X-143432Y246020D01*
X-143386Y246008D01*
X-143375D01*
X-143351Y245997D01*
X-143328Y245985D01*
X-143317Y245962D01*
X-143305Y245939D01*
Y245916D01*
Y245881D01*
X-143441Y245216D01*
X-143421Y245236D01*
X-143397Y245282D01*
X-143363Y245328D01*
X-143282Y245455D01*
X-143178Y245582D01*
X-143167Y245593D01*
X-143155Y245616D01*
X-143086Y245685D01*
X-142982Y245778D01*
X-142867Y245870D01*
X-142856Y245881D01*
X-142833Y245893D01*
X-142798Y245916D01*
X-142763Y245939D01*
X-142648Y246008D01*
X-142521Y246066D01*
X-142510D01*
X-142487Y246077D01*
X-142452Y246089D01*
X-142406Y246112D01*
X-142291Y246135D01*
X-142152Y246147D01*
X-142060D01*
X-142014Y246135D01*
D02*
G37*
G36*
X-66223Y287226D02*
X-66031Y287207D01*
X-65820Y287169D01*
X-65608Y287130D01*
X-65416Y287073D01*
X-65397D01*
X-65320Y287034D01*
X-65243Y286996D01*
X-65108Y286957D01*
X-64839Y286804D01*
X-64570Y286611D01*
X-64551Y286592D01*
X-64513Y286573D01*
X-64455Y286515D01*
X-64378Y286438D01*
X-64205Y286227D01*
X-64070Y285977D01*
Y285958D01*
X-64051Y285919D01*
X-64013Y285843D01*
X-63974Y285766D01*
X-63917Y285516D01*
X-63898Y285247D01*
Y285228D01*
Y285151D01*
X-63917Y285055D01*
X-63936Y284920D01*
X-63955Y284747D01*
X-64013Y284574D01*
X-64070Y284401D01*
X-64167Y284228D01*
X-64186Y284209D01*
X-64205Y284151D01*
X-64282Y284074D01*
X-64359Y283959D01*
X-64474Y283824D01*
X-64609Y283709D01*
X-64763Y283575D01*
X-64955Y283440D01*
X-64974Y283421D01*
X-65051Y283382D01*
X-65166Y283325D01*
X-65320Y283267D01*
X-65531Y283190D01*
X-65762Y283113D01*
X-66031Y283036D01*
X-66338Y282960D01*
X-66377D01*
X-66492Y282940D01*
X-66665Y282902D01*
X-66896Y282883D01*
X-67184Y282844D01*
X-67530Y282806D01*
X-67895Y282787D01*
X-69029D01*
Y282748D01*
X-69049Y282671D01*
X-69068Y282537D01*
X-69087Y282402D01*
Y282383D01*
Y282306D01*
Y282191D01*
Y282095D01*
Y282076D01*
Y281979D01*
X-69068Y281864D01*
X-69049Y281730D01*
X-69010Y281576D01*
X-68952Y281403D01*
X-68875Y281249D01*
X-68760Y281115D01*
X-68741Y281095D01*
X-68703Y281076D01*
X-68626Y281018D01*
X-68510Y280961D01*
X-68357Y280903D01*
X-68184Y280865D01*
X-67953Y280826D01*
X-67703Y280807D01*
X-67396D01*
X-67088Y280826D01*
X-66781Y280865D01*
X-66761D01*
X-66704Y280884D01*
X-66627Y280903D01*
X-66531Y280922D01*
X-66300Y280980D01*
X-66050Y281038D01*
X-66031D01*
X-65992Y281057D01*
X-65935Y281076D01*
X-65877Y281095D01*
X-65704Y281153D01*
X-65531Y281211D01*
X-65512D01*
X-65493Y281230D01*
X-65416Y281249D01*
X-65320Y281268D01*
X-65243Y281288D01*
X-65185D01*
X-65147Y281268D01*
X-65108Y281230D01*
X-65089Y281211D01*
X-65070Y281191D01*
X-65051Y281134D01*
Y281057D01*
Y281038D01*
Y280961D01*
X-65070Y280865D01*
X-65089Y280749D01*
Y280711D01*
X-65108Y280634D01*
X-65128Y280538D01*
X-65147Y280403D01*
Y280384D01*
X-65166Y280307D01*
X-65205Y280192D01*
X-65262Y280077D01*
X-65281Y280057D01*
X-65301Y280000D01*
X-65358Y279923D01*
X-65416Y279865D01*
X-65435Y279846D01*
X-65493Y279807D01*
X-65608Y279750D01*
X-65762Y279673D01*
X-65781D01*
X-65800Y279654D01*
X-65858Y279634D01*
X-65935Y279615D01*
X-66127Y279558D01*
X-66377Y279500D01*
X-66435D01*
X-66511Y279481D01*
X-66608Y279462D01*
X-66723Y279442D01*
X-66857Y279423D01*
X-67165Y279385D01*
X-67242D01*
X-67338Y279365D01*
X-67434D01*
X-67588Y279346D01*
X-67722D01*
X-68068Y279327D01*
X-68337D01*
X-68510Y279346D01*
X-68722Y279365D01*
X-68933Y279385D01*
X-69375Y279481D01*
X-69394D01*
X-69471Y279519D01*
X-69568Y279538D01*
X-69702Y279596D01*
X-70009Y279750D01*
X-70317Y279942D01*
X-70336Y279961D01*
X-70375Y280000D01*
X-70452Y280077D01*
X-70529Y280173D01*
X-70625Y280288D01*
X-70721Y280423D01*
X-70817Y280595D01*
X-70894Y280768D01*
Y280788D01*
X-70913Y280865D01*
X-70951Y280961D01*
X-70970Y281115D01*
X-71009Y281288D01*
X-71047Y281480D01*
X-71067Y281710D01*
Y281960D01*
Y281979D01*
Y282056D01*
Y282172D01*
X-71047Y282306D01*
Y282479D01*
X-71028Y282671D01*
X-70970Y283094D01*
Y283113D01*
X-70951Y283190D01*
X-70932Y283306D01*
X-70894Y283459D01*
X-70855Y283651D01*
X-70797Y283844D01*
X-70663Y284267D01*
X-70644Y284286D01*
X-70625Y284363D01*
X-70567Y284478D01*
X-70509Y284632D01*
X-70413Y284805D01*
X-70317Y284997D01*
X-70086Y285401D01*
X-70067Y285420D01*
X-70029Y285497D01*
X-69952Y285593D01*
X-69856Y285727D01*
X-69740Y285862D01*
X-69587Y286035D01*
X-69260Y286342D01*
X-69241Y286362D01*
X-69164Y286419D01*
X-69068Y286477D01*
X-68933Y286573D01*
X-68760Y286688D01*
X-68568Y286784D01*
X-68357Y286900D01*
X-68126Y286996D01*
X-68088Y287015D01*
X-68011Y287034D01*
X-67876Y287073D01*
X-67703Y287130D01*
X-67472Y287169D01*
X-67223Y287207D01*
X-66953Y287226D01*
X-66646Y287246D01*
X-66396D01*
X-66223Y287226D01*
D02*
G37*
G36*
X-128997Y246135D02*
X-128881Y246124D01*
X-128754Y246100D01*
X-128628Y246077D01*
X-128512Y246043D01*
X-128501D01*
X-128455Y246020D01*
X-128409Y245997D01*
X-128328Y245974D01*
X-128166Y245881D01*
X-128005Y245766D01*
X-127993Y245755D01*
X-127970Y245743D01*
X-127936Y245708D01*
X-127890Y245662D01*
X-127786Y245535D01*
X-127705Y245386D01*
Y245374D01*
X-127694Y245351D01*
X-127671Y245305D01*
X-127647Y245259D01*
X-127613Y245109D01*
X-127601Y244948D01*
Y244936D01*
Y244890D01*
X-127613Y244832D01*
X-127624Y244752D01*
X-127636Y244648D01*
X-127671Y244544D01*
X-127705Y244440D01*
X-127763Y244336D01*
X-127774Y244325D01*
X-127786Y244290D01*
X-127832Y244244D01*
X-127878Y244175D01*
X-127947Y244094D01*
X-128028Y244025D01*
X-128120Y243944D01*
X-128236Y243864D01*
X-128247Y243852D01*
X-128293Y243829D01*
X-128362Y243794D01*
X-128455Y243760D01*
X-128582Y243714D01*
X-128720Y243668D01*
X-128881Y243621D01*
X-129066Y243575D01*
X-129089D01*
X-129158Y243564D01*
X-129262Y243541D01*
X-129400Y243529D01*
X-129573Y243506D01*
X-129781Y243483D01*
X-130000Y243472D01*
X-130680D01*
Y243449D01*
X-130692Y243402D01*
X-130703Y243322D01*
X-130714Y243241D01*
Y243230D01*
Y243183D01*
Y243114D01*
Y243057D01*
Y243045D01*
Y242987D01*
X-130703Y242918D01*
X-130692Y242838D01*
X-130668Y242745D01*
X-130634Y242641D01*
X-130588Y242549D01*
X-130518Y242469D01*
X-130507Y242457D01*
X-130484Y242445D01*
X-130438Y242411D01*
X-130369Y242376D01*
X-130276Y242342D01*
X-130173Y242319D01*
X-130034Y242296D01*
X-129884Y242284D01*
X-129700D01*
X-129515Y242296D01*
X-129331Y242319D01*
X-129319D01*
X-129285Y242330D01*
X-129239Y242342D01*
X-129181Y242353D01*
X-129043Y242388D01*
X-128893Y242422D01*
X-128881D01*
X-128858Y242434D01*
X-128824Y242445D01*
X-128789Y242457D01*
X-128685Y242492D01*
X-128582Y242526D01*
X-128570D01*
X-128558Y242538D01*
X-128512Y242549D01*
X-128455Y242561D01*
X-128409Y242572D01*
X-128374D01*
X-128351Y242561D01*
X-128328Y242538D01*
X-128316Y242526D01*
X-128305Y242515D01*
X-128293Y242480D01*
Y242434D01*
Y242422D01*
Y242376D01*
X-128305Y242319D01*
X-128316Y242249D01*
Y242226D01*
X-128328Y242180D01*
X-128339Y242123D01*
X-128351Y242042D01*
Y242030D01*
X-128362Y241984D01*
X-128385Y241915D01*
X-128420Y241846D01*
X-128432Y241834D01*
X-128443Y241800D01*
X-128478Y241754D01*
X-128512Y241719D01*
X-128524Y241707D01*
X-128558Y241685D01*
X-128628Y241650D01*
X-128720Y241604D01*
X-128731D01*
X-128743Y241592D01*
X-128778Y241581D01*
X-128824Y241569D01*
X-128939Y241535D01*
X-129089Y241500D01*
X-129123D01*
X-129169Y241489D01*
X-129227Y241477D01*
X-129296Y241465D01*
X-129377Y241454D01*
X-129561Y241431D01*
X-129608D01*
X-129665Y241419D01*
X-129723D01*
X-129815Y241408D01*
X-129896D01*
X-130103Y241396D01*
X-130265D01*
X-130369Y241408D01*
X-130496Y241419D01*
X-130622Y241431D01*
X-130887Y241489D01*
X-130899D01*
X-130945Y241512D01*
X-131003Y241523D01*
X-131084Y241558D01*
X-131268Y241650D01*
X-131452Y241765D01*
X-131464Y241777D01*
X-131487Y241800D01*
X-131533Y241846D01*
X-131579Y241903D01*
X-131637Y241973D01*
X-131695Y242053D01*
X-131752Y242157D01*
X-131798Y242261D01*
Y242272D01*
X-131810Y242319D01*
X-131833Y242376D01*
X-131844Y242469D01*
X-131868Y242572D01*
X-131891Y242688D01*
X-131902Y242826D01*
Y242976D01*
Y242987D01*
Y243034D01*
Y243103D01*
X-131891Y243183D01*
Y243287D01*
X-131879Y243402D01*
X-131844Y243656D01*
Y243668D01*
X-131833Y243714D01*
X-131821Y243783D01*
X-131798Y243875D01*
X-131775Y243990D01*
X-131741Y244106D01*
X-131660Y244359D01*
X-131649Y244371D01*
X-131637Y244417D01*
X-131602Y244486D01*
X-131568Y244579D01*
X-131510Y244682D01*
X-131452Y244798D01*
X-131314Y245040D01*
X-131302Y245051D01*
X-131280Y245097D01*
X-131233Y245155D01*
X-131176Y245236D01*
X-131106Y245316D01*
X-131014Y245420D01*
X-130818Y245605D01*
X-130807Y245616D01*
X-130761Y245651D01*
X-130703Y245685D01*
X-130622Y245743D01*
X-130518Y245812D01*
X-130403Y245870D01*
X-130276Y245939D01*
X-130138Y245997D01*
X-130115Y246008D01*
X-130069Y246020D01*
X-129988Y246043D01*
X-129884Y246077D01*
X-129746Y246100D01*
X-129596Y246124D01*
X-129435Y246135D01*
X-129250Y246147D01*
X-129100D01*
X-128997Y246135D01*
D02*
G37*
G36*
X-139189D02*
X-139097Y246124D01*
X-138981Y246100D01*
X-138866Y246077D01*
X-138751Y246031D01*
X-138636Y245974D01*
X-138624Y245962D01*
X-138590Y245939D01*
X-138532Y245904D01*
X-138451Y245858D01*
X-138370Y245789D01*
X-138290Y245708D01*
X-138198Y245616D01*
X-138105Y245501D01*
X-138024Y245881D01*
Y245893D01*
X-138002Y245939D01*
X-137955Y245974D01*
X-137886Y246020D01*
X-137875D01*
X-137863Y246031D01*
X-137829D01*
X-137782Y246043D01*
X-137725Y246054D01*
X-137644D01*
X-137563Y246066D01*
X-137379D01*
X-137298Y246054D01*
X-137229Y246043D01*
X-137206D01*
X-137171Y246031D01*
X-137125Y246020D01*
X-137079Y246008D01*
X-137068D01*
X-137045Y245997D01*
X-137021Y245985D01*
X-137010Y245962D01*
X-136998Y245939D01*
X-136987Y245881D01*
X-137829Y241650D01*
Y241638D01*
X-137852Y241604D01*
X-137909Y241558D01*
X-137990Y241512D01*
X-138013D01*
X-138048Y241500D01*
X-138094D01*
X-138151Y241489D01*
X-138221D01*
X-138301Y241477D01*
X-138567D01*
X-138647Y241489D01*
X-138659D01*
X-138705Y241500D01*
X-138751D01*
X-138797Y241512D01*
X-138809D01*
X-138820Y241523D01*
X-138866Y241569D01*
Y241581D01*
Y241592D01*
Y241650D01*
X-138742Y242316D01*
X-138751Y242307D01*
X-138797Y242238D01*
X-138866Y242134D01*
X-138970Y242007D01*
X-138981Y241996D01*
X-138993Y241984D01*
X-139028Y241950D01*
X-139074Y241915D01*
X-139189Y241811D01*
X-139339Y241707D01*
X-139350D01*
X-139374Y241685D01*
X-139420Y241661D01*
X-139477Y241627D01*
X-139547Y241592D01*
X-139627Y241558D01*
X-139812Y241489D01*
X-139823D01*
X-139858Y241477D01*
X-139904Y241465D01*
X-139973Y241442D01*
X-140054Y241431D01*
X-140146Y241408D01*
X-140342Y241396D01*
X-140400D01*
X-140469Y241408D01*
X-140561D01*
X-140653Y241431D01*
X-140757Y241454D01*
X-140861Y241477D01*
X-140965Y241523D01*
X-140976Y241535D01*
X-141011Y241546D01*
X-141057Y241581D01*
X-141115Y241615D01*
X-141241Y241719D01*
X-141368Y241869D01*
X-141380Y241880D01*
X-141391Y241915D01*
X-141414Y241961D01*
X-141449Y242019D01*
X-141483Y242100D01*
X-141518Y242180D01*
X-141587Y242388D01*
Y242399D01*
X-141599Y242434D01*
X-141610Y242492D01*
Y242572D01*
X-141622Y242665D01*
X-141633Y242768D01*
X-141645Y242999D01*
Y243010D01*
Y243057D01*
Y243114D01*
X-141633Y243195D01*
Y243287D01*
X-141622Y243402D01*
X-141599Y243645D01*
Y243656D01*
X-141587Y243702D01*
X-141576Y243771D01*
X-141553Y243864D01*
X-141530Y243979D01*
X-141507Y244094D01*
X-141426Y244348D01*
X-141414Y244359D01*
X-141403Y244406D01*
X-141380Y244475D01*
X-141334Y244567D01*
X-141299Y244659D01*
X-141241Y244775D01*
X-141115Y245017D01*
X-141103Y245028D01*
X-141080Y245074D01*
X-141045Y245132D01*
X-140988Y245213D01*
X-140930Y245305D01*
X-140849Y245397D01*
X-140676Y245593D01*
X-140665Y245605D01*
X-140630Y245639D01*
X-140573Y245685D01*
X-140504Y245743D01*
X-140411Y245801D01*
X-140307Y245870D01*
X-140077Y245997D01*
X-140065Y246008D01*
X-140019Y246020D01*
X-139950Y246043D01*
X-139858Y246077D01*
X-139743Y246100D01*
X-139616Y246124D01*
X-139477Y246135D01*
X-139327Y246147D01*
X-139258D01*
X-139189Y246135D01*
D02*
G37*
G36*
X-134577Y248061D02*
X-134485Y248049D01*
X-134462D01*
X-134416Y248038D01*
X-134358Y248026D01*
X-134312Y248014D01*
X-134300D01*
X-134277Y248003D01*
X-134254Y247980D01*
X-134231Y247945D01*
X-134220Y247922D01*
Y247899D01*
Y247865D01*
X-134958Y244175D01*
X-133378Y245858D01*
X-133366Y245870D01*
X-133343Y245893D01*
X-133286Y245951D01*
X-133274Y245962D01*
X-133251Y245974D01*
X-133205Y245997D01*
X-133147Y246020D01*
X-133136D01*
X-133090Y246031D01*
X-133020Y246043D01*
X-132940Y246054D01*
X-132917D01*
X-132848Y246066D01*
X-132432D01*
X-132340Y246054D01*
X-132317D01*
X-132271Y246043D01*
X-132213Y246031D01*
X-132167Y246020D01*
X-132156D01*
X-132133Y246008D01*
X-132098Y245985D01*
X-132075Y245962D01*
X-132063D01*
X-132052Y245939D01*
X-132041Y245916D01*
Y245893D01*
Y245881D01*
X-132052Y245835D01*
X-132063Y245778D01*
X-132110Y245708D01*
X-132121Y245697D01*
X-132156Y245639D01*
X-132225Y245559D01*
X-132317Y245455D01*
X-133793Y244048D01*
X-132836Y242019D01*
X-132825Y242007D01*
X-132801Y241961D01*
X-132778Y241892D01*
X-132767Y241823D01*
Y241811D01*
X-132755Y241777D01*
X-132744Y241731D01*
Y241696D01*
Y241685D01*
Y241661D01*
X-132755Y241627D01*
X-132778Y241592D01*
X-132790Y241581D01*
X-132801Y241569D01*
X-132836Y241546D01*
X-132882Y241523D01*
X-132894D01*
X-132928Y241512D01*
X-132998Y241500D01*
X-133078Y241489D01*
X-133159D01*
X-133263Y241477D01*
X-133608D01*
X-133701Y241489D01*
X-133724D01*
X-133770Y241500D01*
X-133828D01*
X-133885Y241512D01*
X-133897D01*
X-133920Y241523D01*
X-133977Y241569D01*
Y241581D01*
X-133989Y241604D01*
X-134012Y241673D01*
X-135015Y243887D01*
X-135453Y241661D01*
Y241650D01*
X-135465Y241638D01*
X-135476Y241604D01*
X-135511Y241581D01*
X-135522D01*
X-135534Y241558D01*
X-135569Y241546D01*
X-135615Y241523D01*
X-135626D01*
X-135661Y241512D01*
X-135730Y241500D01*
X-135811Y241489D01*
X-135891D01*
X-135972Y241477D01*
X-136295D01*
X-136387Y241489D01*
X-136399D01*
X-136445Y241500D01*
X-136503D01*
X-136560Y241512D01*
X-136572D01*
X-136595Y241523D01*
X-136618Y241546D01*
X-136641Y241569D01*
Y241581D01*
Y241592D01*
Y241650D01*
X-135396Y247865D01*
Y247876D01*
Y247888D01*
X-135384Y247922D01*
X-135361Y247945D01*
X-135350Y247957D01*
X-135338Y247968D01*
X-135303Y247991D01*
X-135257Y248014D01*
X-135246D01*
X-135200Y248026D01*
X-135142Y248038D01*
X-135061Y248049D01*
X-135038D01*
X-134981Y248061D01*
X-134888Y248072D01*
X-134669D01*
X-134577Y248061D01*
D02*
G37*
G36*
X-81292Y289840D02*
X-81042Y289802D01*
X-81023D01*
X-80984Y289783D01*
X-80907D01*
X-80830Y289763D01*
X-80619Y289706D01*
X-80388Y289648D01*
X-80369D01*
X-80331Y289629D01*
X-80215Y289591D01*
X-80062Y289533D01*
X-79889Y289456D01*
X-79869D01*
X-79850Y289437D01*
X-79773Y289398D01*
X-79677Y289341D01*
X-79600Y289283D01*
X-79581Y289264D01*
X-79562Y289225D01*
X-79485Y289110D01*
Y289091D01*
X-79466Y289052D01*
X-79447Y288995D01*
Y288918D01*
Y288899D01*
Y288860D01*
Y288803D01*
X-79466Y288726D01*
Y288706D01*
X-79485Y288649D01*
Y288572D01*
X-79504Y288457D01*
Y288437D01*
X-79523Y288380D01*
X-79543Y288283D01*
X-79562Y288168D01*
Y288149D01*
X-79581Y288091D01*
X-79619Y288015D01*
X-79658Y287918D01*
Y287899D01*
X-79677Y287861D01*
X-79773Y287726D01*
Y287707D01*
X-79812Y287688D01*
X-79850Y287668D01*
X-79889Y287649D01*
X-79908D01*
X-79966Y287668D01*
X-80062Y287688D01*
X-80177Y287745D01*
X-80196Y287765D01*
X-80292Y287803D01*
X-80408Y287861D01*
X-80581Y287938D01*
X-80600D01*
X-80619Y287957D01*
X-80734Y288015D01*
X-80907Y288072D01*
X-81138Y288149D01*
X-81157D01*
X-81196Y288168D01*
X-81253Y288187D01*
X-81349Y288207D01*
X-81580Y288245D01*
X-81868Y288264D01*
X-82022D01*
X-82118Y288245D01*
X-82349Y288207D01*
X-82599Y288130D01*
X-82618D01*
X-82637Y288111D01*
X-82772Y288053D01*
X-82925Y287957D01*
X-83079Y287822D01*
X-83098Y287784D01*
X-83175Y287688D01*
X-83271Y287553D01*
X-83348Y287380D01*
Y287361D01*
X-83367Y287342D01*
X-83387Y287226D01*
X-83406Y287073D01*
X-83425Y286900D01*
Y286880D01*
Y286861D01*
X-83406Y286746D01*
X-83367Y286573D01*
X-83290Y286400D01*
X-83271Y286362D01*
X-83194Y286265D01*
X-83079Y286150D01*
X-82925Y285996D01*
X-82906D01*
X-82887Y285958D01*
X-82772Y285881D01*
X-82599Y285785D01*
X-82387Y285650D01*
X-82368D01*
X-82329Y285612D01*
X-82272Y285593D01*
X-82195Y285535D01*
X-82003Y285420D01*
X-81772Y285285D01*
X-81753D01*
X-81714Y285247D01*
X-81657Y285208D01*
X-81580Y285170D01*
X-81388Y285035D01*
X-81176Y284862D01*
X-81157D01*
X-81119Y284824D01*
X-81061Y284786D01*
X-80984Y284728D01*
X-80811Y284555D01*
X-80638Y284343D01*
X-80619Y284324D01*
X-80600Y284286D01*
X-80542Y284228D01*
X-80504Y284151D01*
X-80369Y283940D01*
X-80254Y283671D01*
Y283651D01*
X-80235Y283613D01*
X-80196Y283517D01*
X-80177Y283421D01*
X-80138Y283286D01*
X-80119Y283152D01*
X-80100Y282806D01*
Y282767D01*
Y282671D01*
X-80119Y282537D01*
X-80138Y282345D01*
X-80177Y282133D01*
X-80235Y281903D01*
X-80311Y281672D01*
X-80408Y281422D01*
X-80427Y281403D01*
X-80465Y281307D01*
X-80542Y281191D01*
X-80619Y281038D01*
X-80753Y280865D01*
X-80888Y280692D01*
X-81061Y280499D01*
X-81253Y280307D01*
X-81272Y280288D01*
X-81349Y280230D01*
X-81465Y280153D01*
X-81618Y280038D01*
X-81811Y279923D01*
X-82041Y279807D01*
X-82291Y279692D01*
X-82579Y279577D01*
X-82618Y279558D01*
X-82714Y279538D01*
X-82868Y279500D01*
X-83079Y279462D01*
X-83329Y279404D01*
X-83617Y279365D01*
X-83944Y279346D01*
X-84290Y279327D01*
X-84482D01*
X-84597Y279346D01*
X-84751D01*
X-84905Y279365D01*
X-85251Y279423D01*
X-85270D01*
X-85328Y279442D01*
X-85405Y279462D01*
X-85501Y279481D01*
X-85751Y279538D01*
X-86001Y279596D01*
X-86020D01*
X-86058Y279615D01*
X-86116Y279634D01*
X-86193Y279673D01*
X-86366Y279750D01*
X-86558Y279846D01*
X-86596Y279865D01*
X-86693Y279923D01*
X-86808Y280000D01*
X-86904Y280096D01*
X-86923Y280115D01*
X-86942Y280192D01*
X-86981Y280307D01*
X-87000Y280461D01*
Y280480D01*
Y280499D01*
Y280557D01*
Y280634D01*
Y280653D01*
X-86981Y280711D01*
Y280807D01*
X-86962Y280903D01*
Y280922D01*
X-86942Y280999D01*
X-86904Y281095D01*
X-86885Y281211D01*
Y281230D01*
X-86866Y281307D01*
X-86827Y281384D01*
X-86789Y281480D01*
X-86769Y281499D01*
X-86750Y281557D01*
X-86712Y281633D01*
X-86673Y281691D01*
X-86654Y281710D01*
X-86616Y281749D01*
X-86577Y281768D01*
X-86519Y281787D01*
X-86500D01*
X-86423Y281768D01*
X-86327Y281730D01*
X-86212Y281653D01*
X-86173Y281633D01*
X-86077Y281576D01*
X-85943Y281499D01*
X-85751Y281384D01*
X-85732D01*
X-85693Y281364D01*
X-85635Y281326D01*
X-85558Y281307D01*
X-85347Y281211D01*
X-85097Y281115D01*
X-85078D01*
X-85020Y281095D01*
X-84943Y281076D01*
X-84847Y281057D01*
X-84713Y281038D01*
X-84559Y281018D01*
X-84194Y280999D01*
X-84021D01*
X-83925Y281018D01*
X-83656Y281057D01*
X-83387Y281115D01*
X-83367D01*
X-83329Y281134D01*
X-83271Y281153D01*
X-83175Y281191D01*
X-83002Y281288D01*
X-82810Y281422D01*
X-82791Y281441D01*
X-82772Y281460D01*
X-82675Y281557D01*
X-82541Y281710D01*
X-82445Y281903D01*
Y281922D01*
X-82426Y281941D01*
X-82406Y281999D01*
X-82368Y282076D01*
X-82329Y282268D01*
X-82310Y282498D01*
Y282518D01*
Y282556D01*
X-82329Y282671D01*
X-82368Y282825D01*
X-82464Y282998D01*
Y283017D01*
X-82483Y283036D01*
X-82560Y283133D01*
X-82675Y283267D01*
X-82829Y283402D01*
X-82849D01*
X-82868Y283440D01*
X-82983Y283517D01*
X-83156Y283632D01*
X-83367Y283767D01*
X-83387D01*
X-83425Y283805D01*
X-83483Y283824D01*
X-83540Y283882D01*
X-83733Y283978D01*
X-83963Y284113D01*
X-83982D01*
X-84021Y284151D01*
X-84079Y284190D01*
X-84136Y284228D01*
X-84328Y284363D01*
X-84559Y284516D01*
X-84578Y284536D01*
X-84597Y284555D01*
X-84732Y284670D01*
X-84905Y284824D01*
X-85078Y285035D01*
Y285055D01*
X-85116Y285093D01*
X-85155Y285151D01*
X-85212Y285247D01*
X-85328Y285458D01*
X-85443Y285727D01*
Y285747D01*
X-85462Y285804D01*
X-85482Y285881D01*
X-85501Y285977D01*
X-85539Y286112D01*
X-85558Y286265D01*
X-85578Y286631D01*
Y286669D01*
Y286746D01*
X-85558Y286880D01*
X-85539Y287053D01*
X-85520Y287265D01*
X-85462Y287476D01*
X-85405Y287707D01*
X-85309Y287938D01*
X-85289Y287957D01*
X-85251Y288034D01*
X-85193Y288149D01*
X-85097Y288283D01*
X-84982Y288457D01*
X-84847Y288610D01*
X-84694Y288783D01*
X-84521Y288956D01*
X-84501Y288976D01*
X-84425Y289033D01*
X-84328Y289110D01*
X-84175Y289206D01*
X-84002Y289321D01*
X-83810Y289437D01*
X-83579Y289533D01*
X-83329Y289629D01*
X-83290Y289648D01*
X-83194Y289667D01*
X-83060Y289706D01*
X-82868Y289763D01*
X-82637Y289802D01*
X-82368Y289840D01*
X-82080Y289860D01*
X-81772Y289879D01*
X-81542D01*
X-81292Y289840D01*
D02*
G37*
G36*
X-53538Y289725D02*
X-53365Y289706D01*
X-53327D01*
X-53250Y289687D01*
X-53154Y289648D01*
X-53096Y289591D01*
X-53077Y289571D01*
X-53057Y289533D01*
Y289456D01*
X-53077Y289341D01*
Y289302D01*
X-53115Y289225D01*
X-53173Y289091D01*
X-53269Y288899D01*
X-58093Y279865D01*
X-58112Y279846D01*
X-58132Y279788D01*
X-58247Y279634D01*
X-58266Y279615D01*
X-58305Y279596D01*
X-58381Y279558D01*
X-58477Y279519D01*
X-58497D01*
X-58574Y279500D01*
X-58689D01*
X-58862Y279481D01*
X-59035D01*
X-59246Y279462D01*
X-60034D01*
X-60265Y279481D01*
X-60303D01*
X-60419Y279500D01*
X-60553D01*
X-60688Y279519D01*
X-60707D01*
X-60765Y279558D01*
X-60822Y279577D01*
X-60880Y279634D01*
Y279654D01*
X-60899Y279711D01*
X-60918Y279788D01*
X-60938Y279884D01*
X-62168Y289091D01*
Y289110D01*
Y289129D01*
X-62187Y289206D01*
X-62206Y289321D01*
Y289418D01*
Y289437D01*
X-62187Y289494D01*
X-62148Y289552D01*
X-62091Y289610D01*
X-62072Y289629D01*
X-62014Y289648D01*
X-61899Y289687D01*
X-61764Y289706D01*
X-61726D01*
X-61610Y289725D01*
X-61418Y289744D01*
X-60746D01*
X-60553Y289725D01*
X-60515D01*
X-60438Y289706D01*
X-60323Y289687D01*
X-60227Y289648D01*
X-60207D01*
X-60169Y289629D01*
X-60111Y289591D01*
X-60092Y289533D01*
Y289514D01*
X-60073Y289475D01*
X-60054Y289418D01*
X-60034Y289341D01*
X-59169Y281499D01*
X-59150D01*
X-55191Y289360D01*
Y289379D01*
X-55152Y289437D01*
X-55076Y289552D01*
X-55056Y289571D01*
X-55018Y289591D01*
X-54960Y289629D01*
X-54883Y289667D01*
X-54864D01*
X-54787Y289687D01*
X-54672Y289706D01*
X-54537Y289725D01*
X-54441D01*
X-54384Y289744D01*
X-53730D01*
X-53538Y289725D01*
D02*
G37*
G36*
X-48771Y287226D02*
X-48579Y287207D01*
X-48368Y287169D01*
X-48156Y287130D01*
X-47964Y287073D01*
X-47945D01*
X-47868Y287034D01*
X-47791Y286996D01*
X-47657Y286957D01*
X-47388Y286804D01*
X-47118Y286611D01*
X-47099Y286592D01*
X-47061Y286573D01*
X-47003Y286515D01*
X-46926Y286438D01*
X-46753Y286227D01*
X-46619Y285977D01*
Y285958D01*
X-46600Y285919D01*
X-46561Y285843D01*
X-46523Y285766D01*
X-46465Y285516D01*
X-46446Y285247D01*
Y285228D01*
Y285151D01*
X-46465Y285055D01*
X-46484Y284920D01*
X-46503Y284747D01*
X-46561Y284574D01*
X-46619Y284401D01*
X-46715Y284228D01*
X-46734Y284209D01*
X-46753Y284151D01*
X-46830Y284074D01*
X-46907Y283959D01*
X-47022Y283824D01*
X-47157Y283709D01*
X-47311Y283575D01*
X-47503Y283440D01*
X-47522Y283421D01*
X-47599Y283382D01*
X-47714Y283325D01*
X-47868Y283267D01*
X-48079Y283190D01*
X-48310Y283113D01*
X-48579Y283036D01*
X-48887Y282960D01*
X-48925D01*
X-49040Y282940D01*
X-49213Y282902D01*
X-49444Y282883D01*
X-49732Y282844D01*
X-50078Y282806D01*
X-50444Y282787D01*
X-51578D01*
Y282748D01*
X-51597Y282671D01*
X-51616Y282537D01*
X-51635Y282402D01*
Y282383D01*
Y282306D01*
Y282191D01*
Y282095D01*
Y282076D01*
Y281979D01*
X-51616Y281864D01*
X-51597Y281730D01*
X-51558Y281576D01*
X-51501Y281403D01*
X-51424Y281249D01*
X-51309Y281115D01*
X-51289Y281095D01*
X-51251Y281076D01*
X-51174Y281018D01*
X-51059Y280961D01*
X-50905Y280903D01*
X-50732Y280865D01*
X-50501Y280826D01*
X-50251Y280807D01*
X-49944D01*
X-49636Y280826D01*
X-49329Y280865D01*
X-49310D01*
X-49252Y280884D01*
X-49175Y280903D01*
X-49079Y280922D01*
X-48848Y280980D01*
X-48598Y281038D01*
X-48579D01*
X-48541Y281057D01*
X-48483Y281076D01*
X-48425Y281095D01*
X-48252Y281153D01*
X-48079Y281211D01*
X-48060D01*
X-48041Y281230D01*
X-47964Y281249D01*
X-47868Y281268D01*
X-47791Y281288D01*
X-47734D01*
X-47695Y281268D01*
X-47657Y281230D01*
X-47637Y281211D01*
X-47618Y281191D01*
X-47599Y281134D01*
Y281057D01*
Y281038D01*
Y280961D01*
X-47618Y280865D01*
X-47637Y280749D01*
Y280711D01*
X-47657Y280634D01*
X-47676Y280538D01*
X-47695Y280403D01*
Y280384D01*
X-47714Y280307D01*
X-47753Y280192D01*
X-47810Y280077D01*
X-47830Y280057D01*
X-47849Y280000D01*
X-47907Y279923D01*
X-47964Y279865D01*
X-47983Y279846D01*
X-48041Y279807D01*
X-48156Y279750D01*
X-48310Y279673D01*
X-48329D01*
X-48349Y279654D01*
X-48406Y279634D01*
X-48483Y279615D01*
X-48675Y279558D01*
X-48925Y279500D01*
X-48983D01*
X-49060Y279481D01*
X-49156Y279462D01*
X-49271Y279442D01*
X-49406Y279423D01*
X-49713Y279385D01*
X-49790D01*
X-49886Y279365D01*
X-49982D01*
X-50136Y279346D01*
X-50271D01*
X-50617Y279327D01*
X-50886D01*
X-51059Y279346D01*
X-51270Y279365D01*
X-51481Y279385D01*
X-51924Y279481D01*
X-51943D01*
X-52020Y279519D01*
X-52116Y279538D01*
X-52250Y279596D01*
X-52558Y279750D01*
X-52865Y279942D01*
X-52885Y279961D01*
X-52923Y280000D01*
X-53000Y280077D01*
X-53077Y280173D01*
X-53173Y280288D01*
X-53269Y280423D01*
X-53365Y280595D01*
X-53442Y280768D01*
Y280788D01*
X-53461Y280865D01*
X-53500Y280961D01*
X-53519Y281115D01*
X-53557Y281288D01*
X-53596Y281480D01*
X-53615Y281710D01*
Y281960D01*
Y281979D01*
Y282056D01*
Y282172D01*
X-53596Y282306D01*
Y282479D01*
X-53576Y282671D01*
X-53519Y283094D01*
Y283113D01*
X-53500Y283190D01*
X-53480Y283306D01*
X-53442Y283459D01*
X-53403Y283651D01*
X-53346Y283844D01*
X-53211Y284267D01*
X-53192Y284286D01*
X-53173Y284363D01*
X-53115Y284478D01*
X-53057Y284632D01*
X-52961Y284805D01*
X-52865Y284997D01*
X-52635Y285401D01*
X-52615Y285420D01*
X-52577Y285497D01*
X-52500Y285593D01*
X-52404Y285727D01*
X-52289Y285862D01*
X-52135Y286035D01*
X-51808Y286342D01*
X-51789Y286362D01*
X-51712Y286419D01*
X-51616Y286477D01*
X-51481Y286573D01*
X-51309Y286688D01*
X-51116Y286784D01*
X-50905Y286900D01*
X-50674Y286996D01*
X-50636Y287015D01*
X-50559Y287034D01*
X-50424Y287073D01*
X-50251Y287130D01*
X-50021Y287169D01*
X-49771Y287207D01*
X-49502Y287226D01*
X-49194Y287246D01*
X-48944D01*
X-48771Y287226D01*
D02*
G37*
G36*
X-70586Y289667D02*
X-70529Y289648D01*
X-70490Y289591D01*
X-70471Y289571D01*
X-70452Y289533D01*
X-70432Y289456D01*
Y289341D01*
Y289321D01*
Y289302D01*
Y289245D01*
X-70452Y289168D01*
Y289148D01*
X-70471Y289091D01*
Y289014D01*
X-70490Y288899D01*
Y288879D01*
X-70509Y288803D01*
X-70529Y288687D01*
X-70567Y288572D01*
Y288553D01*
X-70586Y288476D01*
X-70625Y288380D01*
X-70663Y288283D01*
X-70682Y288264D01*
X-70701Y288207D01*
X-70817Y288072D01*
X-70836Y288053D01*
X-70874Y288034D01*
X-70913Y288015D01*
X-70990Y287995D01*
X-73527D01*
X-75160Y279788D01*
Y279769D01*
X-75180Y279750D01*
X-75199Y279692D01*
X-75257Y279634D01*
X-75276D01*
X-75295Y279596D01*
X-75353Y279577D01*
X-75449Y279538D01*
X-75468D01*
X-75526Y279519D01*
X-75641Y279500D01*
X-75775Y279481D01*
X-75910D01*
X-76064Y279462D01*
X-76621D01*
X-76775Y279481D01*
X-76813D01*
X-76890Y279500D01*
X-76986Y279519D01*
X-77083Y279538D01*
X-77102D01*
X-77140Y279558D01*
X-77198Y279596D01*
X-77236Y279634D01*
Y279654D01*
Y279692D01*
Y279788D01*
X-75603Y287995D01*
X-78178D01*
X-78216Y288015D01*
X-78274Y288034D01*
X-78313Y288072D01*
Y288091D01*
X-78332Y288130D01*
X-78351Y288207D01*
Y288303D01*
Y288322D01*
Y288360D01*
Y288418D01*
Y288495D01*
Y288514D01*
X-78332Y288572D01*
Y288649D01*
X-78313Y288764D01*
Y288783D01*
X-78293Y288860D01*
X-78255Y288956D01*
X-78236Y289072D01*
Y289110D01*
X-78216Y289168D01*
X-78178Y289283D01*
X-78140Y289379D01*
X-78120Y289398D01*
X-78082Y289456D01*
X-78044Y289533D01*
X-77986Y289591D01*
X-77967Y289610D01*
X-77928Y289648D01*
X-77871Y289667D01*
X-77794Y289687D01*
X-70625D01*
X-70586Y289667D01*
D02*
G37*
%LPC*%
G36*
X-66646Y285843D02*
X-66953D01*
X-67050Y285823D01*
X-67280Y285785D01*
X-67530Y285689D01*
X-67549D01*
X-67588Y285670D01*
X-67646Y285631D01*
X-67722Y285593D01*
X-67895Y285477D01*
X-68088Y285304D01*
X-68107Y285285D01*
X-68126Y285266D01*
X-68222Y285151D01*
X-68357Y284978D01*
X-68491Y284747D01*
Y284728D01*
X-68510Y284689D01*
X-68549Y284632D01*
X-68587Y284536D01*
X-68664Y284324D01*
X-68741Y284055D01*
X-67857D01*
X-67722Y284074D01*
X-67549D01*
X-67376Y284094D01*
X-67203Y284113D01*
X-67030Y284132D01*
X-67011D01*
X-66953Y284151D01*
X-66877Y284171D01*
X-66781Y284190D01*
X-66569Y284247D01*
X-66358Y284343D01*
X-66338D01*
X-66319Y284363D01*
X-66204Y284439D01*
X-66089Y284555D01*
X-65973Y284689D01*
X-65954Y284728D01*
X-65896Y284805D01*
X-65858Y284939D01*
X-65839Y285093D01*
Y285112D01*
Y285151D01*
X-65858Y285208D01*
X-65877Y285285D01*
X-65935Y285458D01*
X-66012Y285554D01*
X-66089Y285631D01*
X-66108Y285650D01*
X-66127Y285670D01*
X-66185Y285708D01*
X-66281Y285747D01*
X-66377Y285785D01*
X-66492Y285804D01*
X-66646Y285843D01*
D02*
G37*
G36*
X-49194D02*
X-49502D01*
X-49598Y285823D01*
X-49828Y285785D01*
X-50078Y285689D01*
X-50098D01*
X-50136Y285670D01*
X-50194Y285631D01*
X-50271Y285593D01*
X-50444Y285477D01*
X-50636Y285304D01*
X-50655Y285285D01*
X-50674Y285266D01*
X-50770Y285151D01*
X-50905Y284978D01*
X-51039Y284747D01*
Y284728D01*
X-51059Y284689D01*
X-51097Y284632D01*
X-51135Y284536D01*
X-51212Y284324D01*
X-51289Y284055D01*
X-50405D01*
X-50271Y284074D01*
X-50098D01*
X-49925Y284094D01*
X-49752Y284113D01*
X-49579Y284132D01*
X-49559D01*
X-49502Y284151D01*
X-49425Y284171D01*
X-49329Y284190D01*
X-49117Y284247D01*
X-48906Y284343D01*
X-48887D01*
X-48867Y284363D01*
X-48752Y284439D01*
X-48637Y284555D01*
X-48522Y284689D01*
X-48502Y284728D01*
X-48445Y284805D01*
X-48406Y284939D01*
X-48387Y285093D01*
Y285112D01*
Y285151D01*
X-48406Y285208D01*
X-48425Y285285D01*
X-48483Y285458D01*
X-48560Y285554D01*
X-48637Y285631D01*
X-48656Y285650D01*
X-48675Y285670D01*
X-48733Y285708D01*
X-48829Y285747D01*
X-48925Y285785D01*
X-49040Y285804D01*
X-49194Y285843D01*
D02*
G37*
G36*
X-129250Y245305D02*
X-129435D01*
X-129492Y245293D01*
X-129631Y245270D01*
X-129781Y245213D01*
X-129792D01*
X-129815Y245201D01*
X-129850Y245178D01*
X-129896Y245155D01*
X-130000Y245086D01*
X-130115Y244982D01*
X-130127Y244970D01*
X-130138Y244959D01*
X-130196Y244890D01*
X-130276Y244786D01*
X-130357Y244648D01*
Y244636D01*
X-130369Y244613D01*
X-130392Y244579D01*
X-130415Y244521D01*
X-130461Y244394D01*
X-130507Y244233D01*
X-129977D01*
X-129896Y244244D01*
X-129792D01*
X-129688Y244256D01*
X-129585Y244267D01*
X-129481Y244279D01*
X-129469D01*
X-129435Y244290D01*
X-129389Y244302D01*
X-129331Y244313D01*
X-129204Y244348D01*
X-129077Y244406D01*
X-129066D01*
X-129054Y244417D01*
X-128985Y244463D01*
X-128916Y244532D01*
X-128847Y244613D01*
X-128835Y244636D01*
X-128800Y244682D01*
X-128778Y244763D01*
X-128766Y244855D01*
Y244867D01*
Y244890D01*
X-128778Y244924D01*
X-128789Y244970D01*
X-128824Y245074D01*
X-128870Y245132D01*
X-128916Y245178D01*
X-128927Y245190D01*
X-128939Y245201D01*
X-128973Y245224D01*
X-129031Y245247D01*
X-129089Y245270D01*
X-129158Y245282D01*
X-129250Y245305D01*
D02*
G37*
G36*
X-147606Y246677D02*
X-148275D01*
X-148598Y245097D01*
X-147802D01*
X-147721Y245109D01*
X-147560Y245132D01*
X-147398Y245190D01*
X-147387D01*
X-147364Y245201D01*
X-147329Y245224D01*
X-147283Y245259D01*
X-147168Y245328D01*
X-147064Y245432D01*
X-147053Y245443D01*
X-147041Y245455D01*
X-147018Y245489D01*
X-146995Y245535D01*
X-146937Y245651D01*
X-146880Y245778D01*
Y245789D01*
X-146868Y245812D01*
X-146856Y245847D01*
X-146845Y245893D01*
X-146822Y245997D01*
X-146810Y246124D01*
Y246135D01*
Y246147D01*
X-146822Y246204D01*
X-146834Y246285D01*
X-146868Y246354D01*
X-146880Y246377D01*
X-146903Y246412D01*
X-146949Y246469D01*
X-147006Y246527D01*
X-147018Y246539D01*
X-147076Y246562D01*
X-147145Y246596D01*
X-147248Y246631D01*
X-147260D01*
X-147272Y246642D01*
X-147306D01*
X-147341Y246654D01*
X-147456Y246665D01*
X-147606Y246677D01*
D02*
G37*
G36*
X-139166Y245132D02*
X-139327D01*
X-139374Y245120D01*
X-139500Y245086D01*
X-139627Y245028D01*
X-139639D01*
X-139650Y245017D01*
X-139719Y244959D01*
X-139812Y244878D01*
X-139916Y244775D01*
Y244763D01*
X-139938Y244752D01*
X-139962Y244717D01*
X-139996Y244671D01*
X-140065Y244555D01*
X-140146Y244417D01*
Y244406D01*
X-140158Y244383D01*
X-140181Y244336D01*
X-140204Y244290D01*
X-140250Y244140D01*
X-140307Y243979D01*
Y243967D01*
X-140319Y243944D01*
X-140331Y243898D01*
X-140342Y243841D01*
X-140365Y243702D01*
X-140400Y243529D01*
Y243518D01*
Y243495D01*
X-140411Y243449D01*
Y243391D01*
X-140423Y243253D01*
Y243103D01*
Y243091D01*
Y243080D01*
Y243022D01*
Y242930D01*
X-140411Y242838D01*
Y242814D01*
X-140388Y242757D01*
X-140365Y242688D01*
X-140331Y242607D01*
X-140319Y242595D01*
X-140284Y242549D01*
X-140238Y242503D01*
X-140181Y242457D01*
X-140158Y242445D01*
X-140111Y242434D01*
X-140031Y242411D01*
X-139927Y242399D01*
X-139892D01*
X-139846Y242411D01*
X-139800D01*
X-139662Y242445D01*
X-139500Y242515D01*
X-139489Y242526D01*
X-139466Y242538D01*
X-139420Y242572D01*
X-139362Y242607D01*
X-139235Y242711D01*
X-139097Y242861D01*
X-139085Y242872D01*
X-139062Y242895D01*
X-139028Y242941D01*
X-138981Y243010D01*
X-138935Y243080D01*
X-138878Y243160D01*
X-138762Y243356D01*
X-138751Y243368D01*
X-138739Y243402D01*
X-138716Y243460D01*
X-138682Y243541D01*
X-138647Y243633D01*
X-138613Y243737D01*
X-138555Y243979D01*
X-138428Y244613D01*
X-138440Y244625D01*
X-138451Y244659D01*
X-138486Y244705D01*
X-138532Y244752D01*
X-138647Y244878D01*
X-138716Y244936D01*
X-138797Y244994D01*
X-138809Y245005D01*
X-138832Y245017D01*
X-138878Y245040D01*
X-138924Y245063D01*
X-138993Y245086D01*
X-139074Y245109D01*
X-139166Y245132D01*
D02*
G37*
G36*
X-147963Y244186D02*
X-148782D01*
X-149128Y242445D01*
X-148136D01*
X-148056Y242457D01*
X-147871Y242480D01*
X-147698Y242538D01*
X-147687D01*
X-147664Y242549D01*
X-147617Y242572D01*
X-147560Y242607D01*
X-147445Y242676D01*
X-147318Y242780D01*
X-147306Y242791D01*
X-147295Y242803D01*
X-147272Y242838D01*
X-147237Y242884D01*
X-147156Y242987D01*
X-147099Y243126D01*
Y243137D01*
X-147087Y243160D01*
X-147076Y243195D01*
X-147053Y243253D01*
X-147029Y243379D01*
X-147018Y243529D01*
Y243541D01*
Y243575D01*
X-147029Y243633D01*
X-147041Y243702D01*
X-147076Y243771D01*
X-147110Y243852D01*
X-147168Y243933D01*
X-147248Y244002D01*
X-147260Y244014D01*
X-147295Y244037D01*
X-147341Y244060D01*
X-147422Y244094D01*
X-147514Y244129D01*
X-147641Y244163D01*
X-147791Y244175D01*
X-147963Y244186D01*
D02*
G37*
%LPD*%
D23*
X-208559Y-129847D02*
G03*
X-208559Y-129847I-492J0D01*
G01*
X131941Y211154D02*
G03*
X131941Y211154I-492J0D01*
G01*
X44193Y166161D02*
G03*
X44193Y166161I-492J0D01*
G01*
X-126457Y247847D02*
G03*
X-126457Y247847I-492J0D01*
G01*
X-19354Y284051D02*
G03*
X-19354Y284051I-492J0D01*
G01*
X-43209Y187854D02*
G03*
X-43209Y187854I-492J0D01*
G01*
X199697Y-181020D02*
G03*
X199697Y-181020I-492J0D01*
G01*
D24*
X31496Y173976D02*
G03*
X31496Y173976I-31496J0D01*
G01*
X-144248Y236685D02*
G03*
X-136752Y236685I3748J-4685D01*
G01*
X-85185Y299752D02*
G03*
X-85185Y307248I4685J3748D01*
G01*
X-62114Y305752D02*
G03*
X-62114Y313248I4685J3748D01*
G01*
X-39042Y309252D02*
G03*
X-39042Y316748I4685J3748D01*
G01*
X-15971Y310252D02*
G03*
X-15971Y317748I4685J3748D01*
G01*
X7101Y310252D02*
G03*
X7101Y317748I4685J3748D01*
G01*
X30172Y309252D02*
G03*
X30172Y316748I4685J3748D01*
G01*
X53243Y305752D02*
G03*
X53243Y313248I4685J3748D01*
G01*
X76315Y299752D02*
G03*
X76315Y307248I4685J3748D01*
G01*
X11811Y-100000D02*
G03*
X11811Y-100000I-11811J0D01*
G01*
X-74791Y50000D02*
G03*
X-74791Y50000I-11811J0D01*
G01*
X98413D02*
G03*
X98413Y50000I-11811J0D01*
G01*
X137795Y0D02*
G03*
X137795Y0I-137795J0D01*
G01*
X2500Y208366D02*
X6500D01*
X2500D02*
Y213038D01*
X-2500D02*
X2500D01*
X-2500Y208319D02*
Y213038D01*
X-6500Y208319D02*
X-2500D01*
X-144500Y237000D02*
X-136500D01*
X-85500Y299500D02*
Y307500D01*
X-62429Y305500D02*
Y313500D01*
X-39357Y309000D02*
Y317000D01*
X-16286Y310000D02*
Y318000D01*
X6786Y310000D02*
Y318000D01*
X29857Y309000D02*
Y317000D01*
X52929Y305500D02*
Y313500D01*
X76000Y299500D02*
Y307500D01*
D28*
X-217713Y-124748D02*
G03*
X-217713Y-124748I-1181J0D01*
G01*
X122787Y216252D02*
G03*
X122787Y216252I-1181J0D01*
G01*
X-115925Y242748D02*
G03*
X-115925Y242748I-1181J0D01*
G01*
X-13567Y293894D02*
G03*
X-13567Y293894I-1181J0D01*
G01*
X195287Y-190862D02*
G03*
X195287Y-190862I-1181J0D01*
G01*
D29*
X-304426Y-41532D02*
X-304819Y-41139D01*
X-305606D01*
X-306000Y-41532D01*
Y-41926D01*
X-305606Y-42319D01*
X-304819D01*
X-304426Y-42713D01*
Y-43106D01*
X-304819Y-43500D01*
X-305606D01*
X-306000Y-43106D01*
X-303639Y-41139D02*
Y-43500D01*
X-302851Y-42713D01*
X-302064Y-43500D01*
Y-41139D01*
X-301277Y-43500D02*
X-300490D01*
X-300884D01*
Y-41139D01*
X-301277Y-41532D01*
X-297735Y-43500D02*
X-299309D01*
X-297735Y-41926D01*
Y-41532D01*
X-298129Y-41139D01*
X-298916D01*
X-299309Y-41532D01*
X-222000Y-132139D02*
Y-134106D01*
X-221606Y-134500D01*
X-220819D01*
X-220426Y-134106D01*
Y-132139D01*
X-219639Y-134500D02*
X-218851D01*
X-219245D01*
Y-132139D01*
X-219639Y-132532D01*
X-217671D02*
X-217277Y-132139D01*
X-216490D01*
X-216096Y-132532D01*
Y-132926D01*
X-216490Y-133319D01*
X-216096Y-133713D01*
Y-134106D01*
X-216490Y-134500D01*
X-217277D01*
X-217671Y-134106D01*
Y-133713D01*
X-217277Y-133319D01*
X-217671Y-132926D01*
Y-132532D01*
X-217277Y-133319D02*
X-216490D01*
X-258426Y-139032D02*
X-258819Y-138639D01*
X-259606D01*
X-260000Y-139032D01*
Y-139426D01*
X-259606Y-139819D01*
X-258819D01*
X-258426Y-140213D01*
Y-140606D01*
X-258819Y-141000D01*
X-259606D01*
X-260000Y-140606D01*
X-257639Y-138639D02*
Y-141000D01*
X-256851Y-140213D01*
X-256064Y-141000D01*
Y-138639D01*
X-255277Y-141000D02*
X-254490D01*
X-254884D01*
Y-138639D01*
X-255277Y-139032D01*
X-253309Y-141000D02*
X-252522D01*
X-252916D01*
Y-138639D01*
X-253309Y-139032D01*
X-218000Y-177500D02*
X-220361D01*
Y-176319D01*
X-219968Y-175926D01*
X-219181D01*
X-218787Y-176319D01*
Y-177500D01*
Y-176713D02*
X-218000Y-175926D01*
X-219968Y-175139D02*
X-220361Y-174745D01*
Y-173958D01*
X-219968Y-173564D01*
X-219574D01*
X-219181Y-173958D01*
Y-174351D01*
Y-173958D01*
X-218787Y-173564D01*
X-218394D01*
X-218000Y-173958D01*
Y-174745D01*
X-218394Y-175139D01*
X-220361Y-171203D02*
Y-172777D01*
X-219181D01*
X-219574Y-171990D01*
Y-171596D01*
X-219181Y-171203D01*
X-218394D01*
X-218000Y-171596D01*
Y-172383D01*
X-218394Y-172777D01*
X-222500Y-143000D02*
Y-140639D01*
X-221319D01*
X-220926Y-141032D01*
Y-141819D01*
X-221319Y-142213D01*
X-222500D01*
X-221713D02*
X-220926Y-143000D01*
X-220139Y-141032D02*
X-219745Y-140639D01*
X-218958D01*
X-218564Y-141032D01*
Y-141426D01*
X-218958Y-141819D01*
X-219351D01*
X-218958D01*
X-218564Y-142213D01*
Y-142606D01*
X-218958Y-143000D01*
X-219745D01*
X-220139Y-142606D01*
X-216596Y-143000D02*
Y-140639D01*
X-217777Y-141819D01*
X-216203D01*
X-202500Y-168639D02*
Y-171000D01*
X-201319D01*
X-200926Y-170606D01*
Y-169032D01*
X-201319Y-168639D01*
X-202500D01*
X-198564D02*
X-199351Y-169032D01*
X-200139Y-169819D01*
Y-170606D01*
X-199745Y-171000D01*
X-198958D01*
X-198564Y-170606D01*
Y-170213D01*
X-198958Y-169819D01*
X-200139D01*
X-191000Y-150139D02*
Y-152500D01*
X-189819D01*
X-189426Y-152106D01*
Y-150532D01*
X-189819Y-150139D01*
X-191000D01*
X-187064D02*
X-188639D01*
Y-151319D01*
X-187851Y-150926D01*
X-187458D01*
X-187064Y-151319D01*
Y-152106D01*
X-187458Y-152500D01*
X-188245D01*
X-188639Y-152106D01*
X-190926Y-216032D02*
X-191319Y-215639D01*
X-192106D01*
X-192500Y-216032D01*
Y-216426D01*
X-192106Y-216819D01*
X-191319D01*
X-190926Y-217213D01*
Y-217606D01*
X-191319Y-218000D01*
X-192106D01*
X-192500Y-217606D01*
X-190139Y-215639D02*
Y-218000D01*
X-189351Y-217213D01*
X-188564Y-218000D01*
Y-215639D01*
X-187777Y-218000D02*
X-186990D01*
X-187383D01*
Y-215639D01*
X-187777Y-216032D01*
X-185809D02*
X-185416Y-215639D01*
X-184628D01*
X-184235Y-216032D01*
Y-217606D01*
X-184628Y-218000D01*
X-185416D01*
X-185809Y-217606D01*
Y-216032D01*
X-117968Y-213426D02*
X-118361Y-213819D01*
Y-214606D01*
X-117968Y-215000D01*
X-116394D01*
X-116000Y-214606D01*
Y-213819D01*
X-116394Y-213426D01*
X-116000Y-211064D02*
Y-212639D01*
X-117574Y-211064D01*
X-117968D01*
X-118361Y-211458D01*
Y-212245D01*
X-117968Y-212639D01*
X-116000Y-209096D02*
X-118361D01*
X-117181Y-210277D01*
Y-208703D01*
X-120468Y-237426D02*
X-120861Y-237819D01*
Y-238606D01*
X-120468Y-239000D01*
X-118894D01*
X-118500Y-238606D01*
Y-237819D01*
X-118894Y-237426D01*
X-118500Y-235064D02*
Y-236639D01*
X-120074Y-235064D01*
X-120468D01*
X-120861Y-235458D01*
Y-236245D01*
X-120468Y-236639D01*
X-120861Y-234277D02*
Y-232703D01*
X-120468D01*
X-118894Y-234277D01*
X-118500D01*
X-140861Y-229000D02*
X-138500D01*
Y-227819D01*
X-138894Y-227426D01*
X-140468D01*
X-140861Y-227819D01*
Y-229000D01*
X-138500Y-226639D02*
Y-225851D01*
Y-226245D01*
X-140861D01*
X-140468Y-226639D01*
Y-224671D02*
X-140861Y-224277D01*
Y-223490D01*
X-140468Y-223096D01*
X-138894D01*
X-138500Y-223490D01*
Y-224277D01*
X-138894Y-224671D01*
X-140468D01*
X-150000Y-176500D02*
Y-174139D01*
X-148819D01*
X-148426Y-174532D01*
Y-175319D01*
X-148819Y-175713D01*
X-150000D01*
X-149213D02*
X-148426Y-176500D01*
X-146064D02*
X-147639D01*
X-146064Y-174926D01*
Y-174532D01*
X-146458Y-174139D01*
X-147245D01*
X-147639Y-174532D01*
X-145277Y-176500D02*
X-144490D01*
X-144884D01*
Y-174139D01*
X-145277Y-174532D01*
X-150000Y-169000D02*
Y-166639D01*
X-148819D01*
X-148426Y-167032D01*
Y-167819D01*
X-148819Y-168213D01*
X-150000D01*
X-149213D02*
X-148426Y-169000D01*
X-147639D02*
X-146851D01*
X-147245D01*
Y-166639D01*
X-147639Y-167032D01*
X-145671Y-168606D02*
X-145277Y-169000D01*
X-144490D01*
X-144096Y-168606D01*
Y-167032D01*
X-144490Y-166639D01*
X-145277D01*
X-145671Y-167032D01*
Y-167426D01*
X-145277Y-167819D01*
X-144096D01*
X-126000Y-202000D02*
Y-199639D01*
X-124819D01*
X-124426Y-200032D01*
Y-200819D01*
X-124819Y-201213D01*
X-126000D01*
X-125213D02*
X-124426Y-202000D01*
X-123639Y-200032D02*
X-123245Y-199639D01*
X-122458D01*
X-122064Y-200032D01*
Y-200426D01*
X-122458Y-200819D01*
X-122851D01*
X-122458D01*
X-122064Y-201213D01*
Y-201606D01*
X-122458Y-202000D01*
X-123245D01*
X-123639Y-201606D01*
X-121277Y-200032D02*
X-120884Y-199639D01*
X-120096D01*
X-119703Y-200032D01*
Y-200426D01*
X-120096Y-200819D01*
X-119703Y-201213D01*
Y-201606D01*
X-120096Y-202000D01*
X-120884D01*
X-121277Y-201606D01*
Y-201213D01*
X-120884Y-200819D01*
X-121277Y-200426D01*
Y-200032D01*
X-120884Y-200819D02*
X-120096D01*
X-126500Y-191000D02*
Y-188639D01*
X-125319D01*
X-124926Y-189032D01*
Y-189819D01*
X-125319Y-190213D01*
X-126500D01*
X-125713D02*
X-124926Y-191000D01*
X-124139Y-189032D02*
X-123745Y-188639D01*
X-122958D01*
X-122564Y-189032D01*
Y-189426D01*
X-122958Y-189819D01*
X-123351D01*
X-122958D01*
X-122564Y-190213D01*
Y-190606D01*
X-122958Y-191000D01*
X-123745D01*
X-124139Y-190606D01*
X-121777Y-188639D02*
X-120203D01*
Y-189032D01*
X-121777Y-190606D01*
Y-191000D01*
X-127000Y-185500D02*
Y-183139D01*
X-125819D01*
X-125426Y-183532D01*
Y-184319D01*
X-125819Y-184713D01*
X-127000D01*
X-126213D02*
X-125426Y-185500D01*
X-124639Y-183532D02*
X-124245Y-183139D01*
X-123458D01*
X-123064Y-183532D01*
Y-183926D01*
X-123458Y-184319D01*
X-123851D01*
X-123458D01*
X-123064Y-184713D01*
Y-185106D01*
X-123458Y-185500D01*
X-124245D01*
X-124639Y-185106D01*
X-120703Y-183139D02*
X-121490Y-183532D01*
X-122277Y-184319D01*
Y-185106D01*
X-121883Y-185500D01*
X-121096D01*
X-120703Y-185106D01*
Y-184713D01*
X-121096Y-184319D01*
X-122277D01*
X-126500Y-179000D02*
Y-176639D01*
X-125319D01*
X-124926Y-177032D01*
Y-177819D01*
X-125319Y-178213D01*
X-126500D01*
X-125713D02*
X-124926Y-179000D01*
X-124139Y-177032D02*
X-123745Y-176639D01*
X-122958D01*
X-122564Y-177032D01*
Y-177426D01*
X-122958Y-177819D01*
X-123351D01*
X-122958D01*
X-122564Y-178213D01*
Y-178606D01*
X-122958Y-179000D01*
X-123745D01*
X-124139Y-178606D01*
X-121777D02*
X-121384Y-179000D01*
X-120596D01*
X-120203Y-178606D01*
Y-177032D01*
X-120596Y-176639D01*
X-121384D01*
X-121777Y-177032D01*
Y-177426D01*
X-121384Y-177819D01*
X-120203D01*
X91639Y-234500D02*
X94000D01*
Y-233319D01*
X93606Y-232926D01*
X92032D01*
X91639Y-233319D01*
Y-234500D01*
X94000Y-232139D02*
Y-231351D01*
Y-231745D01*
X91639D01*
X92032Y-232139D01*
X94000Y-228596D02*
Y-230171D01*
X92426Y-228596D01*
X92032D01*
X91639Y-228990D01*
Y-229777D01*
X92032Y-230171D01*
X113032Y-236926D02*
X112639Y-237319D01*
Y-238106D01*
X113032Y-238500D01*
X114606D01*
X115000Y-238106D01*
Y-237319D01*
X114606Y-236926D01*
X113032Y-236139D02*
X112639Y-235745D01*
Y-234958D01*
X113032Y-234564D01*
X113426D01*
X113819Y-234958D01*
Y-235351D01*
Y-234958D01*
X114213Y-234564D01*
X114606D01*
X115000Y-234958D01*
Y-235745D01*
X114606Y-236139D01*
X115000Y-233777D02*
Y-232990D01*
Y-233384D01*
X112639D01*
X113032Y-233777D01*
X139468Y-226574D02*
X139861Y-226181D01*
Y-225394D01*
X139468Y-225000D01*
X137894D01*
X137500Y-225394D01*
Y-226181D01*
X137894Y-226574D01*
X137500Y-228936D02*
Y-227361D01*
X139074Y-228936D01*
X139468D01*
X139861Y-228542D01*
Y-227755D01*
X139468Y-227361D01*
X137894Y-229723D02*
X137500Y-230116D01*
Y-230904D01*
X137894Y-231297D01*
X139468D01*
X139861Y-230904D01*
Y-230116D01*
X139468Y-229723D01*
X139074D01*
X138681Y-230116D01*
Y-231297D01*
X132574Y-213032D02*
X132181Y-212639D01*
X131394D01*
X131000Y-213032D01*
Y-214606D01*
X131394Y-215000D01*
X132181D01*
X132574Y-214606D01*
X134936Y-215000D02*
X133361D01*
X134936Y-213426D01*
Y-213032D01*
X134542Y-212639D01*
X133755D01*
X133361Y-213032D01*
X135723D02*
X136117Y-212639D01*
X136904D01*
X137297Y-213032D01*
Y-213426D01*
X136904Y-213819D01*
X137297Y-214213D01*
Y-214606D01*
X136904Y-215000D01*
X136117D01*
X135723Y-214606D01*
Y-214213D01*
X136117Y-213819D01*
X135723Y-213426D01*
Y-213032D01*
X136117Y-213819D02*
X136904D01*
X131500Y-208000D02*
Y-205639D01*
X132681D01*
X133074Y-206032D01*
Y-206819D01*
X132681Y-207213D01*
X131500D01*
X132287D02*
X133074Y-208000D01*
X135436D02*
X133861D01*
X135436Y-206426D01*
Y-206032D01*
X135042Y-205639D01*
X134255D01*
X133861Y-206032D01*
X136223D02*
X136617Y-205639D01*
X137404D01*
X137797Y-206032D01*
Y-206426D01*
X137404Y-206819D01*
X137797Y-207213D01*
Y-207606D01*
X137404Y-208000D01*
X136617D01*
X136223Y-207606D01*
Y-207213D01*
X136617Y-206819D01*
X136223Y-206426D01*
Y-206032D01*
X136617Y-206819D02*
X137404D01*
X131500Y-201500D02*
Y-199139D01*
X132681D01*
X133074Y-199532D01*
Y-200319D01*
X132681Y-200713D01*
X131500D01*
X132287D02*
X133074Y-201500D01*
X135436D02*
X133861D01*
X135436Y-199926D01*
Y-199532D01*
X135042Y-199139D01*
X134255D01*
X133861Y-199532D01*
X137797Y-199139D02*
X137010Y-199532D01*
X136223Y-200319D01*
Y-201106D01*
X136617Y-201500D01*
X137404D01*
X137797Y-201106D01*
Y-200713D01*
X137404Y-200319D01*
X136223D01*
X181574Y-216532D02*
X181181Y-216139D01*
X180394D01*
X180000Y-216532D01*
Y-216926D01*
X180394Y-217319D01*
X181181D01*
X181574Y-217713D01*
Y-218106D01*
X181181Y-218500D01*
X180394D01*
X180000Y-218106D01*
X182361Y-216139D02*
Y-218500D01*
X183149Y-217713D01*
X183936Y-218500D01*
Y-216139D01*
X184723Y-218106D02*
X185117Y-218500D01*
X185904D01*
X186297Y-218106D01*
Y-216532D01*
X185904Y-216139D01*
X185117D01*
X184723Y-216532D01*
Y-216926D01*
X185117Y-217319D01*
X186297D01*
X299574Y-42032D02*
X299181Y-41639D01*
X298394D01*
X298000Y-42032D01*
Y-42426D01*
X298394Y-42819D01*
X299181D01*
X299574Y-43213D01*
Y-43606D01*
X299181Y-44000D01*
X298394D01*
X298000Y-43606D01*
X300361Y-41639D02*
Y-44000D01*
X301149Y-43213D01*
X301936Y-44000D01*
Y-41639D01*
X302723D02*
X304297D01*
Y-42032D01*
X302723Y-43606D01*
Y-44000D01*
X235574Y-96032D02*
X235181Y-95639D01*
X234394D01*
X234000Y-96032D01*
Y-97606D01*
X234394Y-98000D01*
X235181D01*
X235574Y-97606D01*
X237936Y-98000D02*
X236361D01*
X237936Y-96426D01*
Y-96032D01*
X237542Y-95639D01*
X236755D01*
X236361Y-96032D01*
X238723D02*
X239116Y-95639D01*
X239904D01*
X240297Y-96032D01*
Y-96426D01*
X239904Y-96819D01*
X239510D01*
X239904D01*
X240297Y-97213D01*
Y-97606D01*
X239904Y-98000D01*
X239116D01*
X238723Y-97606D01*
X243468Y-117074D02*
X243861Y-116681D01*
Y-115894D01*
X243468Y-115500D01*
X241894D01*
X241500Y-115894D01*
Y-116681D01*
X241894Y-117074D01*
X241500Y-119436D02*
Y-117861D01*
X243074Y-119436D01*
X243468D01*
X243861Y-119042D01*
Y-118255D01*
X243468Y-117861D01*
Y-120223D02*
X243861Y-120616D01*
Y-121404D01*
X243468Y-121797D01*
X241894D01*
X241500Y-121404D01*
Y-120616D01*
X241894Y-120223D01*
X243468D01*
X251500Y-84639D02*
Y-87000D01*
X252681D01*
X253074Y-86606D01*
Y-85032D01*
X252681Y-84639D01*
X251500D01*
X253861D02*
X255436D01*
Y-85032D01*
X253861Y-86606D01*
Y-87000D01*
X251500Y-113139D02*
Y-115500D01*
X252681D01*
X253074Y-115106D01*
Y-113532D01*
X252681Y-113139D01*
X251500D01*
X253861Y-113532D02*
X254255Y-113139D01*
X255042D01*
X255436Y-113532D01*
Y-113926D01*
X255042Y-114319D01*
X255436Y-114713D01*
Y-115106D01*
X255042Y-115500D01*
X254255D01*
X253861Y-115106D01*
Y-114713D01*
X254255Y-114319D01*
X253861Y-113926D01*
Y-113532D01*
X254255Y-114319D02*
X255042D01*
X141137Y-161532D02*
X140744Y-161139D01*
X139957D01*
X139563Y-161532D01*
Y-163106D01*
X139957Y-163500D01*
X140744D01*
X141137Y-163106D01*
X143105Y-163500D02*
Y-161139D01*
X141924Y-162319D01*
X143499D01*
X144286Y-161139D02*
X145860D01*
Y-161532D01*
X144286Y-163106D01*
Y-163500D01*
X117583Y-171500D02*
Y-169139D01*
X118763D01*
X119157Y-169532D01*
Y-170319D01*
X118763Y-170713D01*
X117583D01*
X118370D02*
X119157Y-171500D01*
X121125D02*
Y-169139D01*
X119944Y-170319D01*
X121518D01*
X122306Y-169532D02*
X122699Y-169139D01*
X123486D01*
X123880Y-169532D01*
Y-169926D01*
X123486Y-170319D01*
X123093D01*
X123486D01*
X123880Y-170713D01*
Y-171106D01*
X123486Y-171500D01*
X122699D01*
X122306Y-171106D01*
X141574Y-177532D02*
X141181Y-177139D01*
X140394D01*
X140000Y-177532D01*
Y-179106D01*
X140394Y-179500D01*
X141181D01*
X141574Y-179106D01*
X143542Y-179500D02*
Y-177139D01*
X142361Y-178319D01*
X143936D01*
X144723Y-177532D02*
X145116Y-177139D01*
X145904D01*
X146297Y-177532D01*
Y-179106D01*
X145904Y-179500D01*
X145116D01*
X144723Y-179106D01*
Y-177532D01*
X118574Y-177745D02*
X118181Y-177351D01*
X117394D01*
X117000Y-177745D01*
Y-179319D01*
X117394Y-179713D01*
X118181D01*
X118574Y-179319D01*
X120542Y-179713D02*
Y-177351D01*
X119361Y-178532D01*
X120936D01*
X121723Y-179713D02*
X122510D01*
X122116D01*
Y-177351D01*
X121723Y-177745D01*
X109574Y-155032D02*
X109181Y-154639D01*
X108394D01*
X108000Y-155032D01*
Y-156606D01*
X108394Y-157000D01*
X109181D01*
X109574Y-156606D01*
X111542Y-157000D02*
Y-154639D01*
X110361Y-155819D01*
X111936D01*
X114297Y-154639D02*
X113510Y-155032D01*
X112723Y-155819D01*
Y-156606D01*
X113117Y-157000D01*
X113904D01*
X114297Y-156606D01*
Y-156213D01*
X113904Y-155819D01*
X112723D01*
X155000Y-138639D02*
Y-140606D01*
X155394Y-141000D01*
X156181D01*
X156574Y-140606D01*
Y-138639D01*
X157361Y-140606D02*
X157755Y-141000D01*
X158542D01*
X158936Y-140606D01*
Y-139032D01*
X158542Y-138639D01*
X157755D01*
X157361Y-139032D01*
Y-139426D01*
X157755Y-139819D01*
X158936D01*
X225574Y231468D02*
X225181Y231861D01*
X224394D01*
X224000Y231468D01*
Y231074D01*
X224394Y230681D01*
X225181D01*
X225574Y230287D01*
Y229894D01*
X225181Y229500D01*
X224394D01*
X224000Y229894D01*
X226361Y231861D02*
Y229500D01*
X227149Y230287D01*
X227936Y229500D01*
Y231861D01*
X230297D02*
X229510Y231468D01*
X228723Y230681D01*
Y229894D01*
X229116Y229500D01*
X229904D01*
X230297Y229894D01*
Y230287D01*
X229904Y230681D01*
X228723D01*
X167074Y230968D02*
X166681Y231361D01*
X165894D01*
X165500Y230968D01*
Y230574D01*
X165894Y230181D01*
X166681D01*
X167074Y229787D01*
Y229394D01*
X166681Y229000D01*
X165894D01*
X165500Y229394D01*
X167861Y231361D02*
Y229000D01*
X168649Y229787D01*
X169436Y229000D01*
Y231361D01*
X171797D02*
X170223D01*
Y230181D01*
X171010Y230574D01*
X171404D01*
X171797Y230181D01*
Y229394D01*
X171404Y229000D01*
X170616D01*
X170223Y229394D01*
X167074Y283468D02*
X166681Y283861D01*
X165894D01*
X165500Y283468D01*
Y283074D01*
X165894Y282681D01*
X166681D01*
X167074Y282287D01*
Y281894D01*
X166681Y281500D01*
X165894D01*
X165500Y281894D01*
X167861Y283861D02*
Y281500D01*
X168649Y282287D01*
X169436Y281500D01*
Y283861D01*
X171404Y281500D02*
Y283861D01*
X170223Y282681D01*
X171797D01*
X119500Y208361D02*
Y206394D01*
X119894Y206000D01*
X120681D01*
X121074Y206394D01*
Y208361D01*
X123436Y206000D02*
X121861D01*
X123436Y207574D01*
Y207968D01*
X123042Y208361D01*
X122255D01*
X121861Y207968D01*
X124223Y206000D02*
X125010D01*
X124617D01*
Y208361D01*
X124223Y207968D01*
X39000Y162861D02*
Y160894D01*
X39394Y160500D01*
X40181D01*
X40574Y160894D01*
Y162861D01*
X41361Y162468D02*
X41755Y162861D01*
X42542D01*
X42936Y162468D01*
Y162074D01*
X42542Y161681D01*
X42149D01*
X42542D01*
X42936Y161287D01*
Y160894D01*
X42542Y160500D01*
X41755D01*
X41361Y160894D01*
X52074Y186468D02*
X51681Y186861D01*
X50894D01*
X50500Y186468D01*
Y184894D01*
X50894Y184500D01*
X51681D01*
X52074Y184894D01*
X54042Y184500D02*
Y186861D01*
X52861Y185681D01*
X54436D01*
X43500Y195000D02*
Y197361D01*
X44681D01*
X45074Y196968D01*
Y196181D01*
X44681Y195787D01*
X43500D01*
X44287D02*
X45074Y195000D01*
X45861D02*
X46649D01*
X46255D01*
Y197361D01*
X45861Y196968D01*
X49404Y195000D02*
X47829D01*
X49404Y196574D01*
Y196968D01*
X49010Y197361D01*
X48223D01*
X47829Y196968D01*
X50191D02*
X50584Y197361D01*
X51372D01*
X51765Y196968D01*
Y195394D01*
X51372Y195000D01*
X50584D01*
X50191Y195394D01*
Y196968D01*
X26000Y195500D02*
Y197861D01*
X27181D01*
X27574Y197468D01*
Y196681D01*
X27181Y196287D01*
X26000D01*
X26787D02*
X27574Y195500D01*
X28361D02*
X29149D01*
X28755D01*
Y197861D01*
X28361Y197468D01*
X30329Y195500D02*
X31116D01*
X30723D01*
Y197861D01*
X30329Y197468D01*
X5500Y195500D02*
Y197861D01*
X6681D01*
X7074Y197468D01*
Y196681D01*
X6681Y196287D01*
X5500D01*
X6287D02*
X7074Y195500D01*
X7861D02*
X8649D01*
X8255D01*
Y197861D01*
X7861Y197468D01*
X11404Y195500D02*
X9829D01*
X11404Y197074D01*
Y197468D01*
X11010Y197861D01*
X10223D01*
X9829Y197468D01*
X-12000Y195500D02*
Y197861D01*
X-10819D01*
X-10426Y197468D01*
Y196681D01*
X-10819Y196287D01*
X-12000D01*
X-11213D02*
X-10426Y195500D01*
X-8064D02*
X-9639D01*
X-8064Y197074D01*
Y197468D01*
X-8458Y197861D01*
X-9245D01*
X-9639Y197468D01*
X-57500Y167000D02*
Y169361D01*
X-56319D01*
X-55926Y168968D01*
Y168181D01*
X-56319Y167787D01*
X-57500D01*
X-56713D02*
X-55926Y167000D01*
X-55139D02*
X-54351D01*
X-54745D01*
Y169361D01*
X-55139Y168968D01*
X-53171Y167000D02*
X-52384D01*
X-52777D01*
Y169361D01*
X-53171Y168968D01*
X-51203D02*
X-50809Y169361D01*
X-50022D01*
X-49629Y168968D01*
Y168574D01*
X-50022Y168181D01*
X-49629Y167787D01*
Y167394D01*
X-50022Y167000D01*
X-50809D01*
X-51203Y167394D01*
Y167787D01*
X-50809Y168181D01*
X-51203Y168574D01*
Y168968D01*
X-50809Y168181D02*
X-50022D01*
X-35000Y195500D02*
Y197861D01*
X-33819D01*
X-33426Y197468D01*
Y196681D01*
X-33819Y196287D01*
X-35000D01*
X-34213D02*
X-33426Y195500D01*
X-32639Y197468D02*
X-32245Y197861D01*
X-31458D01*
X-31064Y197468D01*
Y197074D01*
X-31458Y196681D01*
X-31851D01*
X-31458D01*
X-31064Y196287D01*
Y195894D01*
X-31458Y195500D01*
X-32245D01*
X-32639Y195894D01*
X12000Y166500D02*
Y168861D01*
X13181D01*
X13574Y168468D01*
Y167681D01*
X13181Y167287D01*
X12000D01*
X12787D02*
X13574Y166500D01*
X14361Y168468D02*
X14755Y168861D01*
X15542D01*
X15936Y168468D01*
Y168074D01*
X15542Y167681D01*
X15936Y167287D01*
Y166894D01*
X15542Y166500D01*
X14755D01*
X14361Y166894D01*
Y167287D01*
X14755Y167681D01*
X14361Y168074D01*
Y168468D01*
X14755Y167681D02*
X15542D01*
X2000Y277330D02*
Y274969D01*
X3181D01*
X3574Y275362D01*
Y276936D01*
X3181Y277330D01*
X2000D01*
X4361Y274969D02*
X5149D01*
X4755D01*
Y277330D01*
X4361Y276936D01*
X7510Y274969D02*
Y277330D01*
X6329Y276149D01*
X7904D01*
X-95000Y276861D02*
Y274500D01*
X-93819D01*
X-93426Y274894D01*
Y276468D01*
X-93819Y276861D01*
X-95000D01*
X-92639Y274500D02*
X-91851D01*
X-92245D01*
Y276861D01*
X-92639Y276468D01*
X-90671D02*
X-90277Y276861D01*
X-89490D01*
X-89096Y276468D01*
Y276074D01*
X-89490Y275681D01*
X-89884D01*
X-89490D01*
X-89096Y275287D01*
Y274894D01*
X-89490Y274500D01*
X-90277D01*
X-90671Y274894D01*
X-153000Y232361D02*
Y230000D01*
X-151819D01*
X-151426Y230394D01*
Y231968D01*
X-151819Y232361D01*
X-153000D01*
X-150639Y231968D02*
X-150245Y232361D01*
X-149458D01*
X-149064Y231968D01*
Y231574D01*
X-149458Y231181D01*
X-149851D01*
X-149458D01*
X-149064Y230787D01*
Y230394D01*
X-149458Y230000D01*
X-150245D01*
X-150639Y230394D01*
X-115000Y251192D02*
Y249224D01*
X-114606Y248831D01*
X-113819D01*
X-113426Y249224D01*
Y251192D01*
X-111064Y248831D02*
X-112639D01*
X-111064Y250405D01*
Y250799D01*
X-111458Y251192D01*
X-112245D01*
X-112639Y250799D01*
X-110277D02*
X-109883Y251192D01*
X-109096D01*
X-108703Y250799D01*
Y249224D01*
X-109096Y248831D01*
X-109883D01*
X-110277Y249224D01*
Y250799D01*
X-170426Y282468D02*
X-170819Y282861D01*
X-171606D01*
X-172000Y282468D01*
Y282074D01*
X-171606Y281681D01*
X-170819D01*
X-170426Y281287D01*
Y280894D01*
X-170819Y280500D01*
X-171606D01*
X-172000Y280894D01*
X-169639Y282861D02*
Y280500D01*
X-168851Y281287D01*
X-168064Y280500D01*
Y282861D01*
X-165703Y280500D02*
X-167277D01*
X-165703Y282074D01*
Y282468D01*
X-166096Y282861D01*
X-166884D01*
X-167277Y282468D01*
X-170926Y230999D02*
X-171319Y231393D01*
X-172106D01*
X-172500Y230999D01*
Y230606D01*
X-172106Y230212D01*
X-171319D01*
X-170926Y229819D01*
Y229425D01*
X-171319Y229031D01*
X-172106D01*
X-172500Y229425D01*
X-170139Y231393D02*
Y229031D01*
X-169351Y229819D01*
X-168564Y229031D01*
Y231393D01*
X-167777Y230999D02*
X-167384Y231393D01*
X-166596D01*
X-166203Y230999D01*
Y230606D01*
X-166596Y230212D01*
X-166990D01*
X-166596D01*
X-166203Y229819D01*
Y229425D01*
X-166596Y229031D01*
X-167384D01*
X-167777Y229425D01*
X-228926Y230968D02*
X-229319Y231361D01*
X-230106D01*
X-230500Y230968D01*
Y230574D01*
X-230106Y230181D01*
X-229319D01*
X-228926Y229787D01*
Y229394D01*
X-229319Y229000D01*
X-230106D01*
X-230500Y229394D01*
X-228139Y231361D02*
Y229000D01*
X-227351Y229787D01*
X-226564Y229000D01*
Y231361D01*
X-225777Y229000D02*
X-224990D01*
X-225384D01*
Y231361D01*
X-225777Y230968D01*
X-134000Y207500D02*
Y209861D01*
X-132819D01*
X-132426Y209468D01*
Y208681D01*
X-132819Y208287D01*
X-134000D01*
X-133213D02*
X-132426Y207500D01*
X-130064Y209861D02*
X-130851Y209468D01*
X-131639Y208681D01*
Y207894D01*
X-131245Y207500D01*
X-130458D01*
X-130064Y207894D01*
Y208287D01*
X-130458Y208681D01*
X-131639D01*
X-128096Y207500D02*
Y209861D01*
X-129277Y208681D01*
X-127703D01*
X-29361Y289000D02*
X-27394D01*
X-27000Y289394D01*
Y290181D01*
X-27394Y290574D01*
X-29361D01*
X-27000Y292936D02*
Y291361D01*
X-28574Y292936D01*
X-28968D01*
X-29361Y292542D01*
Y291755D01*
X-28968Y291361D01*
X-29361Y295297D02*
Y293723D01*
X-28181D01*
X-28574Y294510D01*
Y294904D01*
X-28181Y295297D01*
X-27394D01*
X-27000Y294904D01*
Y294116D01*
X-27394Y293723D01*
X-84000Y314861D02*
Y312500D01*
X-82819D01*
X-82426Y312894D01*
Y314468D01*
X-82819Y314861D01*
X-84000D01*
X-81639Y314468D02*
X-81245Y314861D01*
X-80458D01*
X-80064Y314468D01*
Y314074D01*
X-80458Y313681D01*
X-80851D01*
X-80458D01*
X-80064Y313287D01*
Y312894D01*
X-80458Y312500D01*
X-81245D01*
X-81639Y312894D01*
X-79277Y314468D02*
X-78884Y314861D01*
X-78096D01*
X-77703Y314468D01*
Y314074D01*
X-78096Y313681D01*
X-78490D01*
X-78096D01*
X-77703Y313287D01*
Y312894D01*
X-78096Y312500D01*
X-78884D01*
X-79277Y312894D01*
X-54326Y187568D02*
X-54719Y187961D01*
X-55506D01*
X-55900Y187568D01*
Y185994D01*
X-55506Y185600D01*
X-54719D01*
X-54326Y185994D01*
X-53539Y185600D02*
X-52751D01*
X-53145D01*
Y187961D01*
X-53539Y187568D01*
X-38400Y168100D02*
Y170461D01*
X-37219D01*
X-36826Y170068D01*
Y169281D01*
X-37219Y168887D01*
X-38400D01*
X-37613D02*
X-36826Y168100D01*
X-34464Y170461D02*
X-36039D01*
Y169281D01*
X-35251Y169674D01*
X-34858D01*
X-34464Y169281D01*
Y168494D01*
X-34858Y168100D01*
X-35645D01*
X-36039Y168494D01*
X23600Y168100D02*
Y170461D01*
X24781D01*
X25174Y170068D01*
Y169281D01*
X24781Y168887D01*
X23600D01*
X24387D02*
X25174Y168100D01*
X25961D02*
X26749D01*
X26355D01*
Y170461D01*
X25961Y170068D01*
X27929D02*
X28323Y170461D01*
X29110D01*
X29504Y170068D01*
Y168494D01*
X29110Y168100D01*
X28323D01*
X27929Y168494D01*
Y170068D01*
X-47800Y193761D02*
Y191794D01*
X-47406Y191400D01*
X-46619D01*
X-46226Y191794D01*
Y193761D01*
X-43864Y191400D02*
X-45439D01*
X-43864Y192974D01*
Y193368D01*
X-44258Y193761D01*
X-45045D01*
X-45439Y193368D01*
X206861Y-186500D02*
X204894D01*
X204500Y-186894D01*
Y-187681D01*
X204894Y-188074D01*
X206861D01*
X204500Y-188861D02*
Y-189649D01*
Y-189255D01*
X206861D01*
X206468Y-188861D01*
X206861Y-192404D02*
Y-190829D01*
X205681D01*
X206074Y-191616D01*
Y-192010D01*
X205681Y-192404D01*
X204894D01*
X204500Y-192010D01*
Y-191223D01*
X204894Y-190829D01*
X241274Y-138532D02*
X240881Y-138139D01*
X240094D01*
X239700Y-138532D01*
Y-138926D01*
X240094Y-139319D01*
X240881D01*
X241274Y-139713D01*
Y-140106D01*
X240881Y-140500D01*
X240094D01*
X239700Y-140106D01*
X242061Y-138139D02*
Y-140500D01*
X242849Y-139713D01*
X243636Y-140500D01*
Y-138139D01*
X244423Y-138532D02*
X244816Y-138139D01*
X245604D01*
X245997Y-138532D01*
Y-138926D01*
X245604Y-139319D01*
X245997Y-139713D01*
Y-140106D01*
X245604Y-140500D01*
X244816D01*
X244423Y-140106D01*
Y-139713D01*
X244816Y-139319D01*
X244423Y-138926D01*
Y-138532D01*
X244816Y-139319D02*
X245604D01*
X-280500Y-59500D02*
Y-57139D01*
X-279319D01*
X-278926Y-57532D01*
Y-58319D01*
X-279319Y-58713D01*
X-280500D01*
X-279713D02*
X-278926Y-59500D01*
X-278139D02*
X-277351D01*
X-277745D01*
Y-57139D01*
X-278139Y-57532D01*
X-276171D02*
X-275777Y-57139D01*
X-274990D01*
X-274596Y-57532D01*
Y-59106D01*
X-274990Y-59500D01*
X-275777D01*
X-276171Y-59106D01*
Y-57532D01*
X-273809Y-59106D02*
X-273416Y-59500D01*
X-272628D01*
X-272235Y-59106D01*
Y-57532D01*
X-272628Y-57139D01*
X-273416D01*
X-273809Y-57532D01*
Y-57926D01*
X-273416Y-58319D01*
X-272235D01*
X-227000Y-163000D02*
X-229361D01*
Y-161819D01*
X-228968Y-161426D01*
X-228181D01*
X-227787Y-161819D01*
Y-163000D01*
Y-162213D02*
X-227000Y-161426D01*
Y-160639D02*
Y-159851D01*
Y-160245D01*
X-229361D01*
X-228968Y-160639D01*
Y-158671D02*
X-229361Y-158277D01*
Y-157490D01*
X-228968Y-157096D01*
X-227394D01*
X-227000Y-157490D01*
Y-158277D01*
X-227394Y-158671D01*
X-228968D01*
X-227000Y-155129D02*
X-229361D01*
X-228181Y-156309D01*
Y-154735D01*
X-177500Y-210000D02*
Y-207639D01*
X-176319D01*
X-175926Y-208032D01*
Y-208819D01*
X-176319Y-209213D01*
X-177500D01*
X-176713D02*
X-175926Y-210000D01*
X-175139Y-209606D02*
X-174745Y-210000D01*
X-173958D01*
X-173564Y-209606D01*
Y-208032D01*
X-173958Y-207639D01*
X-174745D01*
X-175139Y-208032D01*
Y-208426D01*
X-174745Y-208819D01*
X-173564D01*
X-172777Y-209606D02*
X-172383Y-210000D01*
X-171596D01*
X-171203Y-209606D01*
Y-208032D01*
X-171596Y-207639D01*
X-172383D01*
X-172777Y-208032D01*
Y-208426D01*
X-172383Y-208819D01*
X-171203D01*
X156000Y-243000D02*
Y-240639D01*
X157181D01*
X157574Y-241032D01*
Y-241819D01*
X157181Y-242213D01*
X156000D01*
X156787D02*
X157574Y-243000D01*
X158361Y-242606D02*
X158755Y-243000D01*
X159542D01*
X159936Y-242606D01*
Y-241032D01*
X159542Y-240639D01*
X158755D01*
X158361Y-241032D01*
Y-241426D01*
X158755Y-241819D01*
X159936D01*
X161904Y-243000D02*
Y-240639D01*
X160723Y-241819D01*
X162297D01*
X228500Y-177500D02*
X226139D01*
Y-176319D01*
X226532Y-175926D01*
X227319D01*
X227713Y-176319D01*
Y-177500D01*
Y-176713D02*
X228500Y-175926D01*
X226532Y-175139D02*
X226139Y-174745D01*
Y-173958D01*
X226532Y-173564D01*
X226926D01*
X227319Y-173958D01*
X227713Y-173564D01*
X228106D01*
X228500Y-173958D01*
Y-174745D01*
X228106Y-175139D01*
X227713D01*
X227319Y-174745D01*
X226926Y-175139D01*
X226532D01*
X227319Y-174745D02*
Y-173958D01*
X228106Y-172777D02*
X228500Y-172383D01*
Y-171596D01*
X228106Y-171203D01*
X226532D01*
X226139Y-171596D01*
Y-172383D01*
X226532Y-172777D01*
X226926D01*
X227319Y-172383D01*
Y-171203D01*
X273000Y-76000D02*
X270639D01*
Y-74819D01*
X271032Y-74426D01*
X271819D01*
X272213Y-74819D01*
Y-76000D01*
Y-75213D02*
X273000Y-74426D01*
X271032Y-73639D02*
X270639Y-73245D01*
Y-72458D01*
X271032Y-72064D01*
X271426D01*
X271819Y-72458D01*
X272213Y-72064D01*
X272606D01*
X273000Y-72458D01*
Y-73245D01*
X272606Y-73639D01*
X272213D01*
X271819Y-73245D01*
X271426Y-73639D01*
X271032D01*
X271819Y-73245D02*
Y-72458D01*
X273000Y-70096D02*
X270639D01*
X271819Y-71277D01*
Y-69703D01*
X200500Y204500D02*
Y206861D01*
X201681D01*
X202074Y206468D01*
Y205681D01*
X201681Y205287D01*
X200500D01*
X201287D02*
X202074Y204500D01*
X202861Y206861D02*
X204436D01*
Y206468D01*
X202861Y204894D01*
Y204500D01*
X205223Y204894D02*
X205616Y204500D01*
X206404D01*
X206797Y204894D01*
Y206468D01*
X206404Y206861D01*
X205616D01*
X205223Y206468D01*
Y206074D01*
X205616Y205681D01*
X206797D01*
X141000Y205500D02*
Y207861D01*
X142181D01*
X142574Y207468D01*
Y206681D01*
X142181Y206287D01*
X141000D01*
X141787D02*
X142574Y205500D01*
X143361Y207861D02*
X144936D01*
Y207468D01*
X143361Y205894D01*
Y205500D01*
X146904D02*
Y207861D01*
X145723Y206681D01*
X147297D01*
X143000Y260000D02*
Y262361D01*
X144181D01*
X144574Y261968D01*
Y261181D01*
X144181Y260787D01*
X143000D01*
X143787D02*
X144574Y260000D01*
X146936Y262361D02*
X146149Y261968D01*
X145361Y261181D01*
Y260394D01*
X145755Y260000D01*
X146542D01*
X146936Y260394D01*
Y260787D01*
X146542Y261181D01*
X145361D01*
X147723Y260394D02*
X148117Y260000D01*
X148904D01*
X149297Y260394D01*
Y261968D01*
X148904Y262361D01*
X148117D01*
X147723Y261968D01*
Y261574D01*
X148117Y261181D01*
X149297D01*
X-145500Y265000D02*
Y267361D01*
X-144319D01*
X-143926Y266968D01*
Y266181D01*
X-144319Y265787D01*
X-145500D01*
X-144713D02*
X-143926Y265000D01*
X-141564Y267361D02*
X-143139D01*
Y266181D01*
X-142351Y266574D01*
X-141958D01*
X-141564Y266181D01*
Y265394D01*
X-141958Y265000D01*
X-142745D01*
X-143139Y265394D01*
X-140777D02*
X-140384Y265000D01*
X-139596D01*
X-139203Y265394D01*
Y266968D01*
X-139596Y267361D01*
X-140384D01*
X-140777Y266968D01*
Y266574D01*
X-140384Y266181D01*
X-139203D01*
X-222909Y206526D02*
Y208888D01*
X-221729D01*
X-221335Y208494D01*
Y207707D01*
X-221729Y207313D01*
X-222909D01*
X-222122D02*
X-221335Y206526D01*
X-218974Y208888D02*
X-220548D01*
Y207707D01*
X-219761Y208101D01*
X-219367D01*
X-218974Y207707D01*
Y206920D01*
X-219367Y206526D01*
X-220154D01*
X-220548Y206920D01*
X-217006Y206526D02*
Y208888D01*
X-218187Y207707D01*
X-216612D01*
X99100Y-208900D02*
Y-206539D01*
X100281D01*
X100674Y-206932D01*
Y-207719D01*
X100281Y-208113D01*
X99100D01*
X99887D02*
X100674Y-208900D01*
X102642D02*
Y-206539D01*
X101461Y-207719D01*
X103036D01*
X105397Y-206539D02*
X103823D01*
Y-207719D01*
X104610Y-207326D01*
X105004D01*
X105397Y-207719D01*
Y-208506D01*
X105004Y-208900D01*
X104217D01*
X103823Y-208506D01*
X-133400Y-200700D02*
Y-198339D01*
X-132219D01*
X-131826Y-198732D01*
Y-199519D01*
X-132219Y-199913D01*
X-133400D01*
X-132613D02*
X-131826Y-200700D01*
X-129858D02*
Y-198339D01*
X-131039Y-199519D01*
X-129464D01*
X-127496Y-200700D02*
Y-198339D01*
X-128677Y-199519D01*
X-127103D01*
X139563Y-172000D02*
Y-169639D01*
X140744D01*
X141137Y-170032D01*
Y-170819D01*
X140744Y-171213D01*
X139563D01*
X140350D02*
X141137Y-172000D01*
X143105D02*
Y-169639D01*
X141924Y-170819D01*
X143499D01*
X145860Y-172000D02*
X144286D01*
X145860Y-170426D01*
Y-170032D01*
X145467Y-169639D01*
X144679D01*
X144286Y-170032D01*
X265600Y-99900D02*
Y-97539D01*
X266781D01*
X267174Y-97932D01*
Y-98719D01*
X266781Y-99113D01*
X265600D01*
X266387D02*
X267174Y-99900D01*
X269142D02*
Y-97539D01*
X267961Y-98719D01*
X269536D01*
X270323Y-99900D02*
X271110D01*
X270716D01*
Y-97539D01*
X270323Y-97932D01*
X265600Y-88400D02*
Y-86039D01*
X266781D01*
X267174Y-86432D01*
Y-87219D01*
X266781Y-87613D01*
X265600D01*
X266387D02*
X267174Y-88400D01*
X269142D02*
Y-86039D01*
X267961Y-87219D01*
X269536D01*
X270323Y-86432D02*
X270716Y-86039D01*
X271504D01*
X271897Y-86432D01*
Y-88006D01*
X271504Y-88400D01*
X270716D01*
X270323Y-88006D01*
Y-86432D01*
X194800Y-142300D02*
Y-139939D01*
X195981D01*
X196374Y-140332D01*
Y-141119D01*
X195981Y-141513D01*
X194800D01*
X195587D02*
X196374Y-142300D01*
X197161Y-140332D02*
X197555Y-139939D01*
X198342D01*
X198736Y-140332D01*
Y-140726D01*
X198342Y-141119D01*
X197949D01*
X198342D01*
X198736Y-141513D01*
Y-141906D01*
X198342Y-142300D01*
X197555D01*
X197161Y-141906D01*
X199523Y-142300D02*
X200310D01*
X199917D01*
Y-139939D01*
X199523Y-140332D01*
X186300Y-142300D02*
Y-139939D01*
X187481D01*
X187874Y-140332D01*
Y-141119D01*
X187481Y-141513D01*
X186300D01*
X187087D02*
X187874Y-142300D01*
X188661Y-140332D02*
X189055Y-139939D01*
X189842D01*
X190236Y-140332D01*
Y-140726D01*
X189842Y-141119D01*
X189449D01*
X189842D01*
X190236Y-141513D01*
Y-141906D01*
X189842Y-142300D01*
X189055D01*
X188661Y-141906D01*
X191023Y-140332D02*
X191417Y-139939D01*
X192204D01*
X192597Y-140332D01*
Y-141906D01*
X192204Y-142300D01*
X191417D01*
X191023Y-141906D01*
Y-140332D01*
X130900Y-130300D02*
Y-127939D01*
X132081D01*
X132474Y-128332D01*
Y-129119D01*
X132081Y-129513D01*
X130900D01*
X131687D02*
X132474Y-130300D01*
X134836D02*
X133261D01*
X134836Y-128726D01*
Y-128332D01*
X134442Y-127939D01*
X133655D01*
X133261Y-128332D01*
X135623Y-129906D02*
X136016Y-130300D01*
X136804D01*
X137197Y-129906D01*
Y-128332D01*
X136804Y-127939D01*
X136016D01*
X135623Y-128332D01*
Y-128726D01*
X136016Y-129119D01*
X137197D01*
X178100Y-142400D02*
Y-140039D01*
X179281D01*
X179674Y-140432D01*
Y-141219D01*
X179281Y-141613D01*
X178100D01*
X178887D02*
X179674Y-142400D01*
X182036D02*
X180461D01*
X182036Y-140826D01*
Y-140432D01*
X181642Y-140039D01*
X180855D01*
X180461Y-140432D01*
X182823Y-140039D02*
X184397D01*
Y-140432D01*
X182823Y-142006D01*
Y-142400D01*
X170100D02*
Y-140039D01*
X171281D01*
X171674Y-140432D01*
Y-141219D01*
X171281Y-141613D01*
X170100D01*
X170887D02*
X171674Y-142400D01*
X174036D02*
X172461D01*
X174036Y-140826D01*
Y-140432D01*
X173642Y-140039D01*
X172855D01*
X172461Y-140432D01*
X176397Y-140039D02*
X174823D01*
Y-141219D01*
X175610Y-140826D01*
X176004D01*
X176397Y-141219D01*
Y-142006D01*
X176004Y-142400D01*
X175216D01*
X174823Y-142006D01*
X-158900Y-263900D02*
Y-261539D01*
X-157719D01*
X-157326Y-261932D01*
Y-262719D01*
X-157719Y-263113D01*
X-158900D01*
X-158113D02*
X-157326Y-263900D01*
X-154964D02*
X-156539D01*
X-154964Y-262326D01*
Y-261932D01*
X-155358Y-261539D01*
X-156145D01*
X-156539Y-261932D01*
X-152996Y-263900D02*
Y-261539D01*
X-154177Y-262719D01*
X-152603D01*
X-150400Y-263900D02*
Y-261539D01*
X-149219D01*
X-148826Y-261932D01*
Y-262719D01*
X-149219Y-263113D01*
X-150400D01*
X-149613D02*
X-148826Y-263900D01*
X-146464D02*
X-148039D01*
X-146464Y-262326D01*
Y-261932D01*
X-146858Y-261539D01*
X-147645D01*
X-148039Y-261932D01*
X-145677D02*
X-145283Y-261539D01*
X-144496D01*
X-144103Y-261932D01*
Y-262326D01*
X-144496Y-262719D01*
X-144890D01*
X-144496D01*
X-144103Y-263113D01*
Y-263506D01*
X-144496Y-263900D01*
X-145283D01*
X-145677Y-263506D01*
X-150400Y-242400D02*
Y-240039D01*
X-149219D01*
X-148826Y-240432D01*
Y-241219D01*
X-149219Y-241613D01*
X-150400D01*
X-149613D02*
X-148826Y-242400D01*
X-146464D02*
X-148039D01*
X-146464Y-240826D01*
Y-240432D01*
X-146858Y-240039D01*
X-147645D01*
X-148039Y-240432D01*
X-145677D02*
X-145283Y-240039D01*
X-144496D01*
X-144103Y-240432D01*
Y-242006D01*
X-144496Y-242400D01*
X-145283D01*
X-145677Y-242006D01*
Y-240432D01*
X-158400Y-242400D02*
Y-240039D01*
X-157219D01*
X-156826Y-240432D01*
Y-241219D01*
X-157219Y-241613D01*
X-158400D01*
X-157613D02*
X-156826Y-242400D01*
X-156039D02*
X-155251D01*
X-155645D01*
Y-240039D01*
X-156039Y-240432D01*
X-154071D02*
X-153677Y-240039D01*
X-152890D01*
X-152496Y-240432D01*
Y-240826D01*
X-152890Y-241219D01*
X-152496Y-241613D01*
Y-242006D01*
X-152890Y-242400D01*
X-153677D01*
X-154071Y-242006D01*
Y-241613D01*
X-153677Y-241219D01*
X-154071Y-240826D01*
Y-240432D01*
X-153677Y-241219D02*
X-152890D01*
X116900Y-245639D02*
Y-248000D01*
X118081D01*
X118474Y-247606D01*
Y-246032D01*
X118081Y-245639D01*
X116900D01*
X119261Y-248000D02*
X120049D01*
X119655D01*
Y-245639D01*
X119261Y-246032D01*
X121229Y-248000D02*
X122017D01*
X121623D01*
Y-245639D01*
X121229Y-246032D01*
X-120500Y-245439D02*
Y-247800D01*
X-119319D01*
X-118926Y-247406D01*
Y-245832D01*
X-119319Y-245439D01*
X-120500D01*
X-118139Y-247406D02*
X-117745Y-247800D01*
X-116958D01*
X-116564Y-247406D01*
Y-245832D01*
X-116958Y-245439D01*
X-117745D01*
X-118139Y-245832D01*
Y-246226D01*
X-117745Y-246619D01*
X-116564D01*
X-123926Y279468D02*
X-124319Y279861D01*
X-125106D01*
X-125500Y279468D01*
Y277894D01*
X-125106Y277500D01*
X-124319D01*
X-123926Y277894D01*
X-121564Y279861D02*
X-123139D01*
Y278681D01*
X-122351Y279074D01*
X-121958D01*
X-121564Y278681D01*
Y277894D01*
X-121958Y277500D01*
X-122745D01*
X-123139Y277894D01*
X-120777Y277500D02*
X-119990D01*
X-120384D01*
Y279861D01*
X-120777Y279468D01*
X241674Y-57432D02*
X241281Y-57039D01*
X240494D01*
X240100Y-57432D01*
Y-59006D01*
X240494Y-59400D01*
X241281D01*
X241674Y-59006D01*
X243642Y-59400D02*
Y-57039D01*
X242461Y-58219D01*
X244036D01*
X244823Y-59006D02*
X245216Y-59400D01*
X246004D01*
X246397Y-59006D01*
Y-57432D01*
X246004Y-57039D01*
X245216D01*
X244823Y-57432D01*
Y-57826D01*
X245216Y-58219D01*
X246397D01*
X-240826Y-65932D02*
X-241219Y-65539D01*
X-242006D01*
X-242400Y-65932D01*
Y-67506D01*
X-242006Y-67900D01*
X-241219D01*
X-240826Y-67506D01*
X-238858Y-67900D02*
Y-65539D01*
X-240039Y-66719D01*
X-238464D01*
X-237677Y-65932D02*
X-237284Y-65539D01*
X-236496D01*
X-236103Y-65932D01*
Y-66326D01*
X-236496Y-66719D01*
X-236103Y-67113D01*
Y-67506D01*
X-236496Y-67900D01*
X-237284D01*
X-237677Y-67506D01*
Y-67113D01*
X-237284Y-66719D01*
X-237677Y-66326D01*
Y-65932D01*
X-237284Y-66719D02*
X-236496D01*
X-104026Y-214132D02*
X-104419Y-213739D01*
X-105206D01*
X-105600Y-214132D01*
Y-215706D01*
X-105206Y-216100D01*
X-104419D01*
X-104026Y-215706D01*
X-101664Y-216100D02*
X-103239D01*
X-101664Y-214526D01*
Y-214132D01*
X-102058Y-213739D01*
X-102845D01*
X-103239Y-214132D01*
X-99303Y-213739D02*
X-100877D01*
Y-214919D01*
X-100090Y-214526D01*
X-99696D01*
X-99303Y-214919D01*
Y-215706D01*
X-99696Y-216100D01*
X-100484D01*
X-100877Y-215706D01*
X125974Y-128332D02*
X125581Y-127939D01*
X124794D01*
X124400Y-128332D01*
Y-129906D01*
X124794Y-130300D01*
X125581D01*
X125974Y-129906D01*
X128336Y-130300D02*
X126761D01*
X128336Y-128726D01*
Y-128332D01*
X127942Y-127939D01*
X127155D01*
X126761Y-128332D01*
X130697Y-130300D02*
X129123D01*
X130697Y-128726D01*
Y-128332D01*
X130304Y-127939D01*
X129516D01*
X129123Y-128332D01*
X143674Y-118432D02*
X143281Y-118039D01*
X142494D01*
X142100Y-118432D01*
Y-120006D01*
X142494Y-120400D01*
X143281D01*
X143674Y-120006D01*
X146036Y-120400D02*
X144461D01*
X146036Y-118826D01*
Y-118432D01*
X145642Y-118039D01*
X144855D01*
X144461Y-118432D01*
X146823Y-120400D02*
X147610D01*
X147216D01*
Y-118039D01*
X146823Y-118432D01*
X182674Y-101932D02*
X182281Y-101539D01*
X181494D01*
X181100Y-101932D01*
Y-103506D01*
X181494Y-103900D01*
X182281D01*
X182674Y-103506D01*
X183461Y-103900D02*
X184249D01*
X183855D01*
Y-101539D01*
X183461Y-101932D01*
X185429Y-103506D02*
X185823Y-103900D01*
X186610D01*
X187004Y-103506D01*
Y-101932D01*
X186610Y-101539D01*
X185823D01*
X185429Y-101932D01*
Y-102326D01*
X185823Y-102719D01*
X187004D01*
X176374Y-101932D02*
X175981Y-101539D01*
X175194D01*
X174800Y-101932D01*
Y-103506D01*
X175194Y-103900D01*
X175981D01*
X176374Y-103506D01*
X177161Y-103900D02*
X177949D01*
X177555D01*
Y-101539D01*
X177161Y-101932D01*
X179129D02*
X179523Y-101539D01*
X180310D01*
X180704Y-101932D01*
Y-102326D01*
X180310Y-102719D01*
X180704Y-103113D01*
Y-103506D01*
X180310Y-103900D01*
X179523D01*
X179129Y-103506D01*
Y-103113D01*
X179523Y-102719D01*
X179129Y-102326D01*
Y-101932D01*
X179523Y-102719D02*
X180310D01*
X170074Y-101932D02*
X169681Y-101539D01*
X168894D01*
X168500Y-101932D01*
Y-103506D01*
X168894Y-103900D01*
X169681D01*
X170074Y-103506D01*
X170861Y-103900D02*
X171649D01*
X171255D01*
Y-101539D01*
X170861Y-101932D01*
X172829Y-101539D02*
X174404D01*
Y-101932D01*
X172829Y-103506D01*
Y-103900D01*
X163674Y-101932D02*
X163281Y-101539D01*
X162494D01*
X162100Y-101932D01*
Y-103506D01*
X162494Y-103900D01*
X163281D01*
X163674Y-103506D01*
X164461Y-103900D02*
X165249D01*
X164855D01*
Y-101539D01*
X164461Y-101932D01*
X168004Y-101539D02*
X167217Y-101932D01*
X166429Y-102719D01*
Y-103506D01*
X166823Y-103900D01*
X167610D01*
X168004Y-103506D01*
Y-103113D01*
X167610Y-102719D01*
X166429D01*
X-156326Y-150432D02*
X-156719Y-150039D01*
X-157506D01*
X-157900Y-150432D01*
Y-152006D01*
X-157506Y-152400D01*
X-156719D01*
X-156326Y-152006D01*
X-155539Y-152400D02*
X-154751D01*
X-155145D01*
Y-150039D01*
X-155539Y-150432D01*
X-153571Y-152400D02*
X-152784D01*
X-153177D01*
Y-150039D01*
X-153571Y-150432D01*
X-163626D02*
X-164019Y-150039D01*
X-164806D01*
X-165200Y-150432D01*
Y-152006D01*
X-164806Y-152400D01*
X-164019D01*
X-163626Y-152006D01*
X-162839Y-152400D02*
X-162051D01*
X-162445D01*
Y-150039D01*
X-162839Y-150432D01*
X-160871D02*
X-160477Y-150039D01*
X-159690D01*
X-159296Y-150432D01*
Y-152006D01*
X-159690Y-152400D01*
X-160477D01*
X-160871Y-152006D01*
Y-150432D01*
X-170926D02*
X-171319Y-150039D01*
X-172106D01*
X-172500Y-150432D01*
Y-152006D01*
X-172106Y-152400D01*
X-171319D01*
X-170926Y-152006D01*
X-170139D02*
X-169745Y-152400D01*
X-168958D01*
X-168564Y-152006D01*
Y-150432D01*
X-168958Y-150039D01*
X-169745D01*
X-170139Y-150432D01*
Y-150826D01*
X-169745Y-151219D01*
X-168564D01*
X-178326Y-150432D02*
X-178719Y-150039D01*
X-179506D01*
X-179900Y-150432D01*
Y-152006D01*
X-179506Y-152400D01*
X-178719D01*
X-178326Y-152006D01*
X-177539Y-150432D02*
X-177145Y-150039D01*
X-176358D01*
X-175964Y-150432D01*
Y-150826D01*
X-176358Y-151219D01*
X-175964Y-151613D01*
Y-152006D01*
X-176358Y-152400D01*
X-177145D01*
X-177539Y-152006D01*
Y-151613D01*
X-177145Y-151219D01*
X-177539Y-150826D01*
Y-150432D01*
X-177145Y-151219D02*
X-176358D01*
X-60500Y320861D02*
Y318500D01*
X-59319D01*
X-58926Y318894D01*
Y320468D01*
X-59319Y320861D01*
X-60500D01*
X-58139Y320468D02*
X-57745Y320861D01*
X-56958D01*
X-56564Y320468D01*
Y320074D01*
X-56958Y319681D01*
X-57351D01*
X-56958D01*
X-56564Y319287D01*
Y318894D01*
X-56958Y318500D01*
X-57745D01*
X-58139Y318894D01*
X-54596Y318500D02*
Y320861D01*
X-55777Y319681D01*
X-54203D01*
X-37500Y324861D02*
Y322500D01*
X-36319D01*
X-35926Y322894D01*
Y324468D01*
X-36319Y324861D01*
X-37500D01*
X-35139Y324468D02*
X-34745Y324861D01*
X-33958D01*
X-33564Y324468D01*
Y324074D01*
X-33958Y323681D01*
X-34351D01*
X-33958D01*
X-33564Y323287D01*
Y322894D01*
X-33958Y322500D01*
X-34745D01*
X-35139Y322894D01*
X-31203Y324861D02*
X-32777D01*
Y323681D01*
X-31990Y324074D01*
X-31596D01*
X-31203Y323681D01*
Y322894D01*
X-31596Y322500D01*
X-32384D01*
X-32777Y322894D01*
X-15000Y326361D02*
Y324000D01*
X-13819D01*
X-13426Y324394D01*
Y325968D01*
X-13819Y326361D01*
X-15000D01*
X-12639Y325968D02*
X-12245Y326361D01*
X-11458D01*
X-11064Y325968D01*
Y325574D01*
X-11458Y325181D01*
X-11851D01*
X-11458D01*
X-11064Y324787D01*
Y324394D01*
X-11458Y324000D01*
X-12245D01*
X-12639Y324394D01*
X-8703Y326361D02*
X-9490Y325968D01*
X-10277Y325181D01*
Y324394D01*
X-9883Y324000D01*
X-9096D01*
X-8703Y324394D01*
Y324787D01*
X-9096Y325181D01*
X-10277D01*
X9500Y326361D02*
Y324000D01*
X10681D01*
X11074Y324394D01*
Y325968D01*
X10681Y326361D01*
X9500D01*
X11861Y325968D02*
X12255Y326361D01*
X13042D01*
X13436Y325968D01*
Y325574D01*
X13042Y325181D01*
X12649D01*
X13042D01*
X13436Y324787D01*
Y324394D01*
X13042Y324000D01*
X12255D01*
X11861Y324394D01*
X14223Y326361D02*
X15797D01*
Y325968D01*
X14223Y324394D01*
Y324000D01*
X33000Y324861D02*
Y322500D01*
X34181D01*
X34574Y322894D01*
Y324468D01*
X34181Y324861D01*
X33000D01*
X35361Y324468D02*
X35755Y324861D01*
X36542D01*
X36936Y324468D01*
Y324074D01*
X36542Y323681D01*
X36149D01*
X36542D01*
X36936Y323287D01*
Y322894D01*
X36542Y322500D01*
X35755D01*
X35361Y322894D01*
X37723Y324468D02*
X38116Y324861D01*
X38904D01*
X39297Y324468D01*
Y324074D01*
X38904Y323681D01*
X39297Y323287D01*
Y322894D01*
X38904Y322500D01*
X38116D01*
X37723Y322894D01*
Y323287D01*
X38116Y323681D01*
X37723Y324074D01*
Y324468D01*
X38116Y323681D02*
X38904D01*
X54500Y321361D02*
Y319000D01*
X55681D01*
X56074Y319394D01*
Y320968D01*
X55681Y321361D01*
X54500D01*
X56861Y320968D02*
X57255Y321361D01*
X58042D01*
X58436Y320968D01*
Y320574D01*
X58042Y320181D01*
X57649D01*
X58042D01*
X58436Y319787D01*
Y319394D01*
X58042Y319000D01*
X57255D01*
X56861Y319394D01*
X59223D02*
X59616Y319000D01*
X60404D01*
X60797Y319394D01*
Y320968D01*
X60404Y321361D01*
X59616D01*
X59223Y320968D01*
Y320574D01*
X59616Y320181D01*
X60797D01*
X77500Y314861D02*
Y312500D01*
X78681D01*
X79074Y312894D01*
Y314468D01*
X78681Y314861D01*
X77500D01*
X81042Y312500D02*
Y314861D01*
X79861Y313681D01*
X81436D01*
X82223Y314468D02*
X82616Y314861D01*
X83404D01*
X83797Y314468D01*
Y312894D01*
X83404Y312500D01*
X82616D01*
X82223Y312894D01*
Y314468D01*
X-171900Y-180400D02*
Y-178039D01*
X-170719D01*
X-170326Y-178432D01*
Y-179219D01*
X-170719Y-179613D01*
X-171900D01*
X-171113D02*
X-170326Y-180400D01*
X-169539D02*
X-168751D01*
X-169145D01*
Y-178039D01*
X-169539Y-178432D01*
X-167571Y-180400D02*
X-166783D01*
X-167177D01*
Y-178039D01*
X-167571Y-178432D01*
X-165603Y-178039D02*
X-164029D01*
Y-178432D01*
X-165603Y-180006D01*
Y-180400D01*
X161600Y-145400D02*
Y-143039D01*
X162781D01*
X163174Y-143432D01*
Y-144219D01*
X162781Y-144613D01*
X161600D01*
X162387D02*
X163174Y-145400D01*
X163961D02*
X164749D01*
X164355D01*
Y-143039D01*
X163961Y-143432D01*
X165929Y-145400D02*
X166717D01*
X166323D01*
Y-143039D01*
X165929Y-143432D01*
X167897Y-145006D02*
X168291Y-145400D01*
X169078D01*
X169472Y-145006D01*
Y-143432D01*
X169078Y-143039D01*
X168291D01*
X167897Y-143432D01*
Y-143826D01*
X168291Y-144219D01*
X169472D01*
X-18000Y167000D02*
Y169361D01*
X-16819D01*
X-16426Y168968D01*
Y168181D01*
X-16819Y167787D01*
X-18000D01*
X-17213D02*
X-16426Y167000D01*
X-14458D02*
Y169361D01*
X-15639Y168181D01*
X-14064D01*
D73*
X34908Y167165D02*
G03*
X32021Y167165I-1444J0D01*
G01*
X4500Y233000D02*
G03*
X4500Y238000I0J2500D01*
G01*
X-94500Y233000D02*
G03*
X-94500Y238000I0J2500D01*
G01*
X-34908Y186850D02*
G03*
X-32021Y186850I1444J0D01*
G01*
X-222043Y-89315D02*
X-214957D01*
X-222043Y-128685D02*
X-214957D01*
X-222043D02*
Y-89315D01*
X-214957Y-128685D02*
Y-89315D01*
X-212921Y-166618D02*
Y-156382D01*
X-195598D01*
Y-166618D02*
Y-156382D01*
X-212921Y-166618D02*
X-195598D01*
X-212921Y-156618D02*
Y-146382D01*
X-195598D01*
Y-156618D02*
Y-146382D01*
X-212921Y-156618D02*
X-195598D01*
X-136173Y-217303D02*
X-125937D01*
Y-234626D02*
Y-217303D01*
X-136173Y-234626D02*
X-125937D01*
X-136173D02*
Y-217303D01*
X96161Y-222532D02*
X106398D01*
Y-239854D02*
Y-222532D01*
X96161Y-239854D02*
X106398D01*
X96161D02*
Y-222532D01*
X262421Y-99236D02*
Y-89000D01*
X245098Y-99236D02*
X262421D01*
X245098D02*
Y-89000D01*
X262421D01*
X262171Y-111986D02*
Y-101750D01*
X244848Y-111986D02*
X262171D01*
X244848D02*
Y-101750D01*
X262171D01*
X118457Y251685D02*
X125543D01*
X118457Y212315D02*
X125543D01*
X118457D02*
Y251685D01*
X125543Y212315D02*
Y251685D01*
X29134Y167165D02*
Y186850D01*
X37795Y167165D02*
Y186850D01*
X29134D02*
X37795D01*
X29134Y167165D02*
X32021D01*
X34908D02*
X37795D01*
X4500Y213709D02*
Y233000D01*
Y238000D02*
Y257291D01*
X94500D01*
Y213709D02*
Y257291D01*
X4500Y213709D02*
X94500D01*
X-94500D02*
X-4500D01*
Y257291D01*
X-94500D02*
X-4500D01*
X-94500Y238000D02*
Y257291D01*
Y213709D02*
Y233000D01*
X-121043Y207315D02*
X-113957D01*
X-121043Y246685D02*
X-113957D01*
Y207315D02*
Y246685D01*
X-121043Y207315D02*
Y246685D01*
X-18685Y289957D02*
X20685D01*
X-18685Y297043D02*
X20685D01*
X-18685Y289957D02*
Y297043D01*
X20685Y289957D02*
Y297043D01*
X-29134Y167165D02*
Y186850D01*
X-37795Y167165D02*
Y186850D01*
Y167165D02*
X-29134D01*
X-32021Y186850D02*
X-29134D01*
X-37795D02*
X-34908D01*
X158673Y-194012D02*
Y-186925D01*
X198043Y-194012D02*
Y-186925D01*
X158673Y-194012D02*
X198043D01*
X158673Y-186925D02*
X198043D01*
X135110Y-265933D02*
Y-250972D01*
X121783Y-258453D02*
Y-250972D01*
X139835D01*
Y-265933D02*
Y-250972D01*
X121783Y-265933D02*
X139835D01*
X121783D02*
Y-258453D01*
X-102224Y-265705D02*
Y-250744D01*
X-115551Y-258224D02*
Y-250744D01*
X-97500D01*
Y-265705D02*
Y-250744D01*
X-115551Y-265705D02*
X-97500D01*
X-115551D02*
Y-258224D01*
D74*
X76750Y293903D02*
X80411D01*
X75060Y293762D02*
X80552D01*
X73933Y293621D02*
X78862D01*
X73370Y293480D02*
X77031D01*
X72525Y293340D02*
X75764D01*
X71961Y293199D02*
X75060D01*
X71257Y293058D02*
X74215D01*
X70835Y292917D02*
X73510D01*
X69990Y292776D02*
X73088D01*
X69567Y292635D02*
X72243D01*
X69145Y292495D02*
X71680D01*
X68722Y292354D02*
X71398D01*
X68300Y292213D02*
X70553D01*
X67877Y292072D02*
X70130D01*
X67314Y291931D02*
X69849D01*
X66891Y291790D02*
X69567D01*
X66469Y291650D02*
X69145D01*
X66187Y291509D02*
X68722D01*
X65905Y291368D02*
X68300D01*
X65483Y291227D02*
X68018D01*
X65060Y291086D02*
X67595D01*
X64638Y290945D02*
X67314D01*
X64356Y290805D02*
X67032D01*
X63934Y290664D02*
X66610D01*
X63793Y290523D02*
X66328D01*
X63511Y290382D02*
X66046D01*
X63089Y290241D02*
X65624D01*
X62807Y290100D02*
X65342D01*
X62385Y289960D02*
X65060D01*
X62103Y289819D02*
X64779D01*
X61821Y289678D02*
X64497D01*
X61399Y289537D02*
X64215D01*
X61117Y289396D02*
X63934D01*
X60835Y289255D02*
X63652D01*
X60554Y289114D02*
X63511D01*
X60131Y288974D02*
X63230D01*
X88580D02*
X89988D01*
X59990Y288833D02*
X63089D01*
X88298D02*
X90270D01*
X59709Y288692D02*
X62807D01*
X88157D02*
X90411D01*
X59568Y288551D02*
X62525D01*
X88016D02*
X90551D01*
X59286Y288410D02*
X62244D01*
X87875D02*
X90551D01*
X59145Y288269D02*
X61962D01*
X87875D02*
X90692D01*
X58864Y288129D02*
X61821D01*
X87735D02*
X90692D01*
X58582Y287988D02*
X61540D01*
X87594D02*
X90692D01*
X58441Y287847D02*
X61399D01*
X87594D02*
X90833D01*
X58160Y287706D02*
X61117D01*
X87594D02*
X90833D01*
X58019Y287565D02*
X60976D01*
X87594D02*
X89143D01*
X89284D02*
X90833D01*
X57737Y287424D02*
X60694D01*
X87594D02*
X90833D01*
X57596Y287284D02*
X60554D01*
X87594D02*
X90692D01*
X57314Y287143D02*
X60413D01*
X87594D02*
X90692D01*
X57174Y287002D02*
X60131D01*
X87594D02*
X90692D01*
X57033Y286861D02*
X59990D01*
X87688D02*
X90551D01*
X56892Y286720D02*
X59850D01*
X87735D02*
X90551D01*
X56751Y286579D02*
X59709D01*
X87875D02*
X90551D01*
X56610Y286439D02*
X59568D01*
X88016D02*
X90411D01*
X56329Y286298D02*
X59427D01*
X88016D02*
X90270D01*
X56188Y286157D02*
X59286D01*
X88298D02*
X89988D01*
X56047Y286016D02*
X59004D01*
X88439D02*
X89847D01*
X55906Y285875D02*
X58864D01*
X55765Y285735D02*
X58723D01*
X55625Y285594D02*
X58582D01*
X55484Y285453D02*
X58441D01*
X88861D02*
X89706D01*
X49709Y285312D02*
X52667D01*
X52949D02*
X54498D01*
X55343D02*
X58300D01*
X59709D02*
X61258D01*
X62525D02*
X68722D01*
X75200D02*
X78440D01*
X78580D02*
X80130D01*
X81960D02*
X83510D01*
X85200D02*
X86890D01*
X88016D02*
X89847D01*
X91678D02*
X98861D01*
X99001D02*
X107874D01*
X49287Y285171D02*
X52667D01*
X52949D02*
X54498D01*
X55202D02*
X58160D01*
X59709D02*
X61399D01*
X62103D02*
X69145D01*
X74778D02*
X80130D01*
X81820D02*
X83510D01*
X85200D02*
X86890D01*
X88016D02*
X89706D01*
X91256D02*
X98861D01*
X99001D02*
X107874D01*
X49005Y285030D02*
X52667D01*
X52808D02*
X54357D01*
X55061D02*
X58019D01*
X59568D02*
X61258D01*
X61821D02*
X69285D01*
X74496D02*
X78299D01*
X78440D02*
X79989D01*
X81820D02*
X83369D01*
X85200D02*
X86890D01*
X88016D02*
X89706D01*
X91115D02*
X98861D01*
X99001D02*
X107733D01*
X48864Y284890D02*
X52667D01*
X52808D02*
X54357D01*
X54920D02*
X57878D01*
X59568D02*
X61258D01*
X61680D02*
X69426D01*
X74356D02*
X79989D01*
X81679D02*
X83369D01*
X85200D02*
X86749D01*
X87875D02*
X89566D01*
X90974D02*
X98720D01*
X98861D02*
X107592D01*
X48724Y284749D02*
X52526D01*
X52667D02*
X54357D01*
X54779D02*
X57737D01*
X59568D02*
X61117D01*
X61540D02*
X69426D01*
X74215D02*
X79848D01*
X81679D02*
X83369D01*
X85059D02*
X86749D01*
X87875D02*
X89566D01*
X90833D02*
X98720D01*
X98861D02*
X107592D01*
X48583Y284608D02*
X52526D01*
X52667D02*
X54357D01*
X54639D02*
X57596D01*
X59427D02*
X61117D01*
X61399D02*
X69426D01*
X74074D02*
X78158D01*
X78299D02*
X79848D01*
X81679D02*
X83369D01*
X85059D02*
X86749D01*
X87875D02*
X89566D01*
X90692D02*
X98579D01*
X98720D02*
X107592D01*
X48442Y284467D02*
X52526D01*
X52667D02*
X54216D01*
X54498D02*
X57455D01*
X59427D02*
X61117D01*
X61399D02*
X69567D01*
X73933D02*
X78158D01*
X78299D02*
X79848D01*
X81538D02*
X83228D01*
X85059D02*
X86749D01*
X87735D02*
X89566D01*
X90551D02*
X98579D01*
X98720D02*
X107451D01*
X48301Y284326D02*
X52385D01*
X52526D02*
X54216D01*
X54357D02*
X57314D01*
X59427D02*
X61117D01*
X61258D02*
X69567D01*
X73792D02*
X78017D01*
X78158D02*
X79707D01*
X81538D02*
X83228D01*
X85059D02*
X86749D01*
X87735D02*
X89425D01*
X90551D02*
X98579D01*
X98720D02*
X107451D01*
X48301Y284185D02*
X52385D01*
X52526D02*
X57174D01*
X59286D02*
X60976D01*
X61117D02*
X69567D01*
X73651D02*
X78017D01*
X78158D02*
X79707D01*
X81538D02*
X83228D01*
X84918D02*
X86608D01*
X87594D02*
X89425D01*
X90411D02*
X98438D01*
X98579D02*
X107311D01*
X48160Y284045D02*
X52385D01*
X52526D02*
X57033D01*
X59286D02*
X60976D01*
X61117D02*
X69567D01*
X73651D02*
X78017D01*
X78158D02*
X79707D01*
X81397D02*
X83087D01*
X84918D02*
X86608D01*
X87594D02*
X89425D01*
X90411D02*
X98438D01*
X98579D02*
X107311D01*
X48019Y283904D02*
X52245D01*
X52526D02*
X57033D01*
X59286D02*
X60835D01*
X61117D02*
X69426D01*
X73510D02*
X77876D01*
X78017D02*
X79566D01*
X81397D02*
X83087D01*
X84777D02*
X86467D01*
X87594D02*
X89284D01*
X90270D02*
X98297D01*
X98438D02*
X107311D01*
X48019Y283763D02*
X49850D01*
X52385D02*
X56892D01*
X59286D02*
X60835D01*
X60976D02*
X69426D01*
X73510D02*
X75200D01*
X78017D02*
X79566D01*
X81397D02*
X83087D01*
X84777D02*
X86467D01*
X87453D02*
X89284D01*
X90270D02*
X98297D01*
X98438D02*
X107170D01*
X47879Y283622D02*
X49569D01*
X52385D02*
X56751D01*
X59145D02*
X60835D01*
X60976D02*
X63230D01*
X67173D02*
X69426D01*
X73370D02*
X75060D01*
X77876D02*
X79566D01*
X81397D02*
X82946D01*
X84777D02*
X86467D01*
X87453D02*
X89143D01*
X90270D02*
X92101D01*
X99847D02*
X107029D01*
X47879Y283481D02*
X49428D01*
X52385D02*
X56610D01*
X59145D02*
X62807D01*
X67455D02*
X69426D01*
X73370D02*
X74919D01*
X77876D02*
X79426D01*
X81256D02*
X82946D01*
X84777D02*
X86326D01*
X87453D02*
X89143D01*
X90129D02*
X91819D01*
X101396D02*
X103226D01*
X47738Y283340D02*
X49428D01*
X52245D02*
X56610D01*
X59145D02*
X60694D01*
X60835D02*
X62666D01*
X67595D02*
X69285D01*
X73229D02*
X74919D01*
X77876D02*
X79426D01*
X81256D02*
X82946D01*
X84636D02*
X86326D01*
X87312D02*
X89143D01*
X90129D02*
X91819D01*
X101396D02*
X103086D01*
X47738Y283200D02*
X49428D01*
X52245D02*
X56470D01*
X59145D02*
X60694D01*
X60835D02*
X62666D01*
X67595D02*
X69285D01*
X73229D02*
X74919D01*
X77736D02*
X79426D01*
X81256D02*
X82946D01*
X84636D02*
X86326D01*
X87312D02*
X89002D01*
X90129D02*
X91678D01*
X101396D02*
X103086D01*
X47738Y283059D02*
X49287D01*
X52245D02*
X56329D01*
X59004D02*
X62525D01*
X67595D02*
X69285D01*
X73229D02*
X74778D01*
X77736D02*
X79285D01*
X81256D02*
X82806D01*
X84496D02*
X86185D01*
X87171D02*
X89002D01*
X89988D02*
X91678D01*
X101396D02*
X102945D01*
X47738Y282918D02*
X49287D01*
X52104D02*
X56188D01*
X59004D02*
X60554D01*
X60694D02*
X62385D01*
X67455D02*
X69145D01*
X73229D02*
X74778D01*
X77736D02*
X79285D01*
X81116D02*
X82806D01*
X84496D02*
X86185D01*
X87171D02*
X88861D01*
X89988D02*
X91537D01*
X101255D02*
X102945D01*
X47597Y282777D02*
X49287D01*
X52104D02*
X56188D01*
X58864D02*
X60554D01*
X60694D02*
X62385D01*
X67455D02*
X69145D01*
X73088D02*
X74637D01*
X77595D02*
X79285D01*
X81116D02*
X82806D01*
X84496D02*
X86185D01*
X87171D02*
X88861D01*
X89988D02*
X96607D01*
X101255D02*
X102804D01*
X47597Y282636D02*
X49146D01*
X51963D02*
X56047D01*
X58864D02*
X62244D01*
X67455D02*
X69145D01*
X73088D02*
X74637D01*
X77595D02*
X79285D01*
X80975D02*
X82665D01*
X84355D02*
X86045D01*
X87031D02*
X88861D01*
X89847D02*
X96607D01*
X101114D02*
X102804D01*
X47597Y282495D02*
X49146D01*
X51963D02*
X56047D01*
X58864D02*
X60413D01*
X60554D02*
X62244D01*
X67314D02*
X69004D01*
X73088D02*
X74637D01*
X77595D02*
X79144D01*
X80975D02*
X82665D01*
X84355D02*
X86045D01*
X86890D02*
X88861D01*
X89847D02*
X96466D01*
X101114D02*
X102804D01*
X47456Y282354D02*
X49005D01*
X51963D02*
X55906D01*
X58723D02*
X60413D01*
X60554D02*
X62244D01*
X67314D02*
X69004D01*
X72947D02*
X74637D01*
X77595D02*
X79144D01*
X80975D02*
X82665D01*
X84355D02*
X86045D01*
X86749D02*
X88721D01*
X89847D02*
X96466D01*
X101114D02*
X102663D01*
X47456Y282214D02*
X49005D01*
X51963D02*
X55906D01*
X58723D02*
X62103D01*
X67314D02*
X68863D01*
X72947D02*
X74496D01*
X77454D02*
X79144D01*
X80834D02*
X82524D01*
X84355D02*
X85904D01*
X86608D02*
X88721D01*
X89847D02*
X96326D01*
X100973D02*
X102663D01*
X47456Y282073D02*
X49005D01*
X51963D02*
X55765D01*
X58723D02*
X60272D01*
X60413D02*
X62103D01*
X67314D02*
X68863D01*
X72947D02*
X74496D01*
X77454D02*
X79144D01*
X80834D02*
X82524D01*
X84214D02*
X85904D01*
X86467D02*
X88721D01*
X89706D02*
X96326D01*
X100973D02*
X102663D01*
X47315Y281932D02*
X48864D01*
X51963D02*
X55625D01*
X58582D02*
X60272D01*
X60413D02*
X61962D01*
X67173D02*
X68863D01*
X72806D02*
X74496D01*
X77454D02*
X79144D01*
X80693D02*
X82524D01*
X84214D02*
X85904D01*
X86326D02*
X88580D01*
X89706D02*
X96326D01*
X100832D02*
X102522D01*
X47315Y281791D02*
X48864D01*
X51822D02*
X55625D01*
X58582D02*
X60131D01*
X60272D02*
X61962D01*
X67173D02*
X68722D01*
X72806D02*
X74496D01*
X77454D02*
X79003D01*
X80693D02*
X82383D01*
X84214D02*
X85904D01*
X86185D02*
X88580D01*
X89706D02*
X96326D01*
X100832D02*
X102522D01*
X47175Y281650D02*
X48724D01*
X51822D02*
X55484D01*
X58441D02*
X60131D01*
X60272D02*
X61962D01*
X67173D02*
X68722D01*
X72806D02*
X74356D01*
X77454D02*
X79003D01*
X80552D02*
X82383D01*
X84073D02*
X85763D01*
X86045D02*
X88580D01*
X89566D02*
X96185D01*
X100832D02*
X102382D01*
X47175Y281509D02*
X48724D01*
X51822D02*
X55484D01*
X58300D02*
X60131D01*
X60272D02*
X61962D01*
X67032D02*
X68722D01*
X72665D02*
X74356D01*
X77313D02*
X79003D01*
X80552D02*
X82383D01*
X83932D02*
X85763D01*
X86045D02*
X88439D01*
X89566D02*
X91115D01*
X100691D02*
X102382D01*
X47034Y281369D02*
X48724D01*
X51681D02*
X55343D01*
X58160D02*
X59990D01*
X60131D02*
X61821D01*
X67032D02*
X68581D01*
X72665D02*
X74215D01*
X77313D02*
X79144D01*
X80270D02*
X82524D01*
X83791D02*
X85763D01*
X85904D02*
X86608D01*
X86749D02*
X88439D01*
X89566D02*
X91115D01*
X100691D02*
X102382D01*
X46752Y281228D02*
X48583D01*
X51681D02*
X55202D01*
X57878D02*
X59990D01*
X60131D02*
X61821D01*
X67032D02*
X68581D01*
X68863D02*
X74215D01*
X77172D02*
X88439D01*
X89425D02*
X90974D01*
X100691D02*
X102241D01*
X43231Y281087D02*
X48583D01*
X51681D02*
X59850D01*
X60131D02*
X61821D01*
X67032D02*
X68581D01*
X68722D02*
X74215D01*
X77172D02*
X86467D01*
X86608D02*
X88298D01*
X89425D02*
X90974D01*
X100551D02*
X102241D01*
X43090Y280946D02*
X48442D01*
X51540D02*
X59850D01*
X59990D02*
X61680D01*
X66891D02*
X68440D01*
X68581D02*
X74215D01*
X77172D02*
X86326D01*
X86608D02*
X88298D01*
X89284D02*
X90833D01*
X100551D02*
X102241D01*
X43090Y280805D02*
X48442D01*
X51540D02*
X59850D01*
X59990D02*
X61680D01*
X66891D02*
X68440D01*
X68581D02*
X74074D01*
X77172D02*
X86045D01*
X86467D02*
X88157D01*
X89284D02*
X90833D01*
X100551D02*
X102100D01*
X43090Y280664D02*
X48442D01*
X51540D02*
X59850D01*
X59990D02*
X61680D01*
X66891D02*
X68440D01*
X68581D02*
X74074D01*
X77172D02*
X86045D01*
X86467D02*
X88157D01*
X89284D02*
X90833D01*
X100410D02*
X102100D01*
X42949Y280524D02*
X48442D01*
X51540D02*
X59709D01*
X59850D02*
X61540D01*
X66750D02*
X68440D01*
X68581D02*
X73933D01*
X77172D02*
X85904D01*
X86467D02*
X88157D01*
X89143D02*
X90833D01*
X100410D02*
X102100D01*
X42949Y280383D02*
X48301D01*
X51540D02*
X59709D01*
X59850D02*
X61540D01*
X66750D02*
X68300D01*
X68440D02*
X73792D01*
X77172D02*
X85763D01*
X86467D02*
X88157D01*
X89143D02*
X90692D01*
X100410D02*
X102100D01*
X42949Y280242D02*
X48301D01*
X51540D02*
X59568D01*
X59850D02*
X61540D01*
X66750D02*
X68300D01*
X68440D02*
X73792D01*
X77172D02*
X85622D01*
X86467D02*
X88016D01*
X89002D02*
X90692D01*
X100269D02*
X101959D01*
X42949Y280101D02*
X48160D01*
X51681D02*
X59427D01*
X59709D02*
X61540D01*
X66750D02*
X68300D01*
X68440D02*
X73651D01*
X77172D02*
X85481D01*
X86326D02*
X88016D01*
X89002D02*
X90551D01*
X100269D02*
X101959D01*
X42809Y279960D02*
X48019D01*
X51681D02*
X59286D01*
X59709D02*
X61399D01*
X66610D02*
X68159D01*
X68300D02*
X73510D01*
X77313D02*
X85340D01*
X86326D02*
X88016D01*
X89002D02*
X90551D01*
X100269D02*
X101959D01*
X42809Y279819D02*
X47879D01*
X51822D02*
X59145D01*
X59709D02*
X61399D01*
X66610D02*
X68159D01*
X68300D02*
X73229D01*
X77454D02*
X85059D01*
X86185D02*
X88016D01*
X88861D02*
X90551D01*
X100128D02*
X101818D01*
X42668Y279679D02*
X47597D01*
X51963D02*
X59004D01*
X59709D02*
X61399D01*
X66469D02*
X68159D01*
X68300D02*
X73088D01*
X77595D02*
X84918D01*
X86185D02*
X87875D01*
X88861D02*
X90551D01*
X100128D02*
X101818D01*
X42668Y279538D02*
X47315D01*
X51963D02*
X58723D01*
X59709D02*
X61258D01*
X66469D02*
X68018D01*
X68300D02*
X72806D01*
X77736D02*
X84918D01*
X86185D02*
X87875D01*
X88861D02*
X90551D01*
X100128D02*
X101818D01*
X42668Y279397D02*
X47034D01*
X51963D02*
X58441D01*
X59709D02*
X61258D01*
X66610D02*
X68018D01*
X68300D02*
X72384D01*
X78158D02*
X84636D01*
X86185D02*
X87735D01*
X89002D02*
X90411D01*
X100128D02*
X101677D01*
X51963Y279256D02*
X54920D01*
X82946D02*
X84496D01*
X51963Y279115D02*
X54920D01*
X82806D02*
X84214D01*
X51963Y278975D02*
X54920D01*
X82665D02*
X84073D01*
X51963Y278834D02*
X54920D01*
X82383D02*
X83932D01*
X51963Y278693D02*
X55061D01*
X81960D02*
X83650D01*
X52104Y278552D02*
X55061D01*
X81820D02*
X83510D01*
X52104Y278411D02*
X55061D01*
X81538D02*
X83369D01*
X52104Y278270D02*
X55061D01*
X81397D02*
X83087D01*
X52104Y278130D02*
X55061D01*
X81116D02*
X82946D01*
X52104Y277989D02*
X55343D01*
X80693D02*
X82806D01*
X52245Y277848D02*
X55202D01*
X80552D02*
X82665D01*
X52245Y277707D02*
X55202D01*
X80270D02*
X82383D01*
X52245Y277566D02*
X55343D01*
X80130D02*
X82242D01*
X52245Y277425D02*
X55343D01*
X79707D02*
X81960D01*
X52385Y277285D02*
X55484D01*
X79426D02*
X81679D01*
X52385Y277144D02*
X55484D01*
X79285D02*
X81397D01*
X52526Y277003D02*
X55625D01*
X78862D02*
X81116D01*
X52526Y276862D02*
X55765D01*
X78580D02*
X80975D01*
X52526Y276721D02*
X55765D01*
X78299D02*
X80693D01*
X52667Y276580D02*
X55906D01*
X78017D02*
X80552D01*
X52667Y276439D02*
X56047D01*
X77595D02*
X80270D01*
X52808Y276299D02*
X56188D01*
X77313D02*
X79989D01*
X52949Y276158D02*
X56188D01*
X76890D02*
X79707D01*
X52949Y276017D02*
X56329D01*
X76468D02*
X79426D01*
X53089Y275876D02*
X56610D01*
X76046D02*
X79144D01*
X53230Y275735D02*
X56751D01*
X75764D02*
X79003D01*
X53371Y275594D02*
X56892D01*
X75341D02*
X78721D01*
X53371Y275454D02*
X57033D01*
X75060D02*
X78440D01*
X53512Y275313D02*
X57174D01*
X74637D02*
X78158D01*
X53653Y275172D02*
X57455D01*
X74074D02*
X77876D01*
X53794Y275031D02*
X57737D01*
X73651D02*
X77454D01*
X53935Y274890D02*
X58019D01*
X73088D02*
X77172D01*
X54216Y274749D02*
X58300D01*
X72665D02*
X76890D01*
X54357Y274609D02*
X58582D01*
X72384D02*
X76468D01*
X54357Y274468D02*
X58723D01*
X71961D02*
X76327D01*
X54639Y274327D02*
X59145D01*
X71398D02*
X75905D01*
X54779Y274186D02*
X59568D01*
X70835D02*
X75482D01*
X55061Y274045D02*
X60272D01*
X69708D02*
X75200D01*
X55202Y273904D02*
X60976D01*
X68863D02*
X74919D01*
X55343Y273764D02*
X61962D01*
X67455D02*
X74637D01*
X55625Y273623D02*
X63793D01*
X65765D02*
X74074D01*
X55906Y273482D02*
X73792D01*
X56373Y273341D02*
X73414D01*
X56654Y273200D02*
X72991D01*
X56936Y273059D02*
X72569D01*
X57218Y272919D02*
X72146D01*
X57640Y272778D02*
X71583D01*
X58063Y272637D02*
X70879D01*
X58485Y272496D02*
X70315D01*
X59048Y272355D02*
X69470D01*
X59894Y272214D02*
X68484D01*
X60457Y272074D02*
X67780D01*
X61302Y271933D02*
X66794D01*
X62569Y271792D02*
X65527D01*
D75*
X-284768Y-87594D02*
Y-49406D01*
X-318232D02*
X-284768D01*
X-318232Y-87594D02*
Y-49406D01*
Y-87594D02*
X-284768D01*
X-239768Y-185594D02*
Y-147406D01*
X-273232D02*
X-239768D01*
X-273232Y-185594D02*
Y-147406D01*
Y-185594D02*
X-239768D01*
X-167268Y-262595D02*
Y-224406D01*
X-200732D02*
X-167268D01*
X-200732Y-262595D02*
Y-224406D01*
Y-262595D02*
X-167268D01*
X167268D02*
Y-224406D01*
Y-262595D02*
X200732D01*
Y-224406D01*
X167268D02*
X200732D01*
X284768Y-87594D02*
Y-49406D01*
Y-87594D02*
X318232D01*
Y-49406D01*
X284768D02*
X318232D01*
X211268Y184906D02*
Y223095D01*
Y184906D02*
X244732D01*
Y223095D01*
X211268D02*
X244732D01*
X152268Y184906D02*
Y223095D01*
Y184906D02*
X185732D01*
Y223095D01*
X152268D02*
X185732D01*
X152268Y236906D02*
Y275095D01*
Y236906D02*
X185732D01*
Y275095D01*
X152268D02*
X185732D01*
X-152268Y236906D02*
Y275095D01*
X-185732D02*
X-152268D01*
X-185732Y236906D02*
Y275095D01*
Y236906D02*
X-152268D01*
Y184906D02*
Y223095D01*
X-185732D02*
X-152268D01*
X-185732Y184906D02*
Y223095D01*
Y184906D02*
X-152268D01*
X-211268D02*
Y223095D01*
X-244732D02*
X-211268D01*
X-244732Y184906D02*
Y223095D01*
Y184906D02*
X-211268D01*
X239768Y-185594D02*
Y-147406D01*
Y-185594D02*
X273232D01*
Y-147406D01*
X239768D02*
X273232D01*
D76*
X-221862Y-158126D02*
X-217138D01*
X-221862Y-168362D02*
X-217138D01*
X-221862Y-162063D02*
Y-158126D01*
X-217138Y-162063D02*
Y-158126D01*
Y-168362D02*
Y-164819D01*
X-221862Y-168362D02*
Y-164819D01*
Y-155374D02*
X-217138D01*
X-221862Y-145138D02*
X-217138D01*
Y-155374D02*
Y-151437D01*
X-221862Y-155374D02*
Y-151437D01*
Y-148681D02*
Y-145138D01*
X-217138Y-148681D02*
Y-145138D01*
X-113638Y-217719D02*
X-108914D01*
X-113638Y-207482D02*
X-108914D01*
Y-217719D02*
Y-213782D01*
X-113638Y-217719D02*
Y-213782D01*
Y-211026D02*
Y-207482D01*
X-108914Y-211026D02*
Y-207482D01*
X-113417Y-219362D02*
X-108693D01*
X-113417Y-229598D02*
X-108693D01*
X-113417Y-223299D02*
Y-219362D01*
X-108693Y-223299D02*
Y-219362D01*
Y-229598D02*
Y-226055D01*
X-113417Y-229598D02*
Y-226055D01*
X-142374Y-177362D02*
Y-172638D01*
X-132138Y-177362D02*
Y-172638D01*
X-142374Y-177362D02*
X-138437D01*
X-142374Y-172638D02*
X-138437D01*
X-135681D02*
X-132138D01*
X-135681Y-177362D02*
X-132138D01*
X-142374Y-170362D02*
Y-165638D01*
X-132138Y-170362D02*
Y-165638D01*
X-142374Y-170362D02*
X-138437D01*
X-142374Y-165638D02*
X-138437D01*
X-135681D02*
X-132138D01*
X-135681Y-170362D02*
X-132138D01*
X-118374Y-200362D02*
Y-195638D01*
X-108138Y-200362D02*
Y-195638D01*
X-118374Y-200362D02*
X-114437D01*
X-118374Y-195638D02*
X-114437D01*
X-111681D02*
X-108138D01*
X-111681Y-200362D02*
X-108138D01*
X-118374Y-194362D02*
Y-189638D01*
X-108138Y-194362D02*
Y-189638D01*
X-118374Y-194362D02*
X-114437D01*
X-118374Y-189638D02*
X-114437D01*
X-111681D02*
X-108138D01*
X-111681Y-194362D02*
X-108138D01*
X-118374Y-188362D02*
Y-183638D01*
X-108138Y-188362D02*
Y-183638D01*
X-118374Y-188362D02*
X-114437D01*
X-118374Y-183638D02*
X-114437D01*
X-111681D02*
X-108138D01*
X-111681Y-188362D02*
X-108138D01*
X-118374Y-182362D02*
Y-177638D01*
X-108138Y-182362D02*
Y-177638D01*
X-118374Y-182362D02*
X-114437D01*
X-118374Y-177638D02*
X-114437D01*
X-111681D02*
X-108138D01*
X-111681Y-182362D02*
X-108138D01*
X118917Y-219591D02*
X123642D01*
X118917Y-229827D02*
X123642D01*
X118917Y-223528D02*
Y-219591D01*
X123642Y-223528D02*
Y-219591D01*
Y-229827D02*
Y-226284D01*
X118917Y-229827D02*
Y-226284D01*
X133823Y-225815D02*
Y-219516D01*
X126736Y-226209D02*
Y-219516D01*
Y-236445D02*
Y-229752D01*
X133823Y-236445D02*
Y-229752D01*
X126736Y-219516D02*
X133823D01*
X126736Y-236445D02*
X133823D01*
X123374Y-216862D02*
Y-212138D01*
X113138Y-216862D02*
Y-212138D01*
X119437D02*
X123374D01*
X119437Y-216862D02*
X123374D01*
X113138D02*
X116681D01*
X113138Y-212138D02*
X116681D01*
X113126Y-209362D02*
Y-204638D01*
X123362Y-209362D02*
Y-204638D01*
X113126Y-209362D02*
X117063D01*
X113126Y-204638D02*
X117063D01*
X119819D02*
X123362D01*
X119819Y-209362D02*
X123362D01*
X113230Y-202685D02*
Y-197961D01*
X123467Y-202685D02*
Y-197961D01*
X113230Y-202685D02*
X117167D01*
X113230Y-197961D02*
X117167D01*
X119923D02*
X123467D01*
X119923Y-202685D02*
X123467D01*
X234138Y-110362D02*
X238862D01*
X234138Y-100126D02*
X238862D01*
Y-110362D02*
Y-106425D01*
X234138Y-110362D02*
Y-106425D01*
Y-103669D02*
Y-100126D01*
X238862Y-103669D02*
Y-100126D01*
X234138Y-113626D02*
X238862D01*
X234138Y-123862D02*
X238862D01*
X234138Y-117563D02*
Y-113626D01*
X238862Y-117563D02*
Y-113626D01*
Y-123862D02*
Y-120319D01*
X234138Y-123862D02*
Y-120319D01*
X137153Y-164583D02*
Y-159858D01*
X126917Y-164583D02*
Y-159858D01*
X133217D02*
X137153D01*
X133217Y-164583D02*
X137153D01*
X126917D02*
X130461D01*
X126917Y-159858D02*
X130461D01*
X105126Y-172362D02*
Y-167638D01*
X115362Y-172362D02*
Y-167638D01*
X105126Y-172362D02*
X109063D01*
X105126Y-167638D02*
X109063D01*
X111819D02*
X115362D01*
X111819Y-172362D02*
X115362D01*
X137153Y-180583D02*
Y-175858D01*
X126917Y-180583D02*
Y-175858D01*
X133217D02*
X137153D01*
X133217Y-180583D02*
X137153D01*
X126917D02*
X130461D01*
X126917Y-175858D02*
X130461D01*
X115173Y-180429D02*
Y-175705D01*
X104937Y-180429D02*
Y-175705D01*
X111236D02*
X115173D01*
X111236Y-180429D02*
X115173D01*
X104937D02*
X108480D01*
X104937Y-175705D02*
X108480D01*
X115173Y-164429D02*
Y-159705D01*
X104937Y-164429D02*
Y-159705D01*
X111236D02*
X115173D01*
X111236Y-164429D02*
X115173D01*
X104937D02*
X108480D01*
X104937Y-159705D02*
X108480D01*
X142000Y-142500D02*
Y-140500D01*
X151000Y-137000D02*
Y-136500D01*
X142000Y-133000D02*
Y-131000D01*
Y-142500D02*
X146500D01*
X142000Y-131000D02*
X146500D01*
X50138Y182374D02*
X54862D01*
X50138Y172138D02*
X54862D01*
X50138Y178437D02*
Y182374D01*
X54862Y178437D02*
Y182374D01*
Y172138D02*
Y175681D01*
X50138Y172138D02*
Y175681D01*
X42626Y188638D02*
Y193362D01*
X52862Y188638D02*
Y193362D01*
X42626Y188638D02*
X46563D01*
X42626Y193362D02*
X46563D01*
X49319D02*
X52862D01*
X49319Y188638D02*
X52862D01*
X23626D02*
Y193362D01*
X33862Y188638D02*
Y193362D01*
X23626Y188638D02*
X27563D01*
X23626Y193362D02*
X27563D01*
X30319D02*
X33862D01*
X30319Y188638D02*
X33862D01*
X13874D02*
Y193362D01*
X3638Y188638D02*
Y193362D01*
X9937D02*
X13874D01*
X9937Y188638D02*
X13874D01*
X3638D02*
X7181D01*
X3638Y193362D02*
X7181D01*
X-4126Y188638D02*
Y193362D01*
X-14362Y188638D02*
Y193362D01*
X-8063D02*
X-4126D01*
X-8063Y188638D02*
X-4126D01*
X-14362D02*
X-10819D01*
X-14362Y193362D02*
X-10819D01*
X-47626Y160138D02*
Y164862D01*
X-57862Y160138D02*
Y164862D01*
X-51563D02*
X-47626D01*
X-51563Y160138D02*
X-47626D01*
X-57862D02*
X-54319D01*
X-57862Y164862D02*
X-54319D01*
X-28376Y188638D02*
Y193362D01*
X-38612Y188638D02*
Y193362D01*
X-32313D02*
X-28376D01*
X-32313Y188638D02*
X-28376D01*
X-38612D02*
X-35069D01*
X-38612Y193362D02*
X-35069D01*
X8638Y160138D02*
Y164862D01*
X18874Y160138D02*
Y164862D01*
X8638Y160138D02*
X12575D01*
X8638Y164862D02*
X12575D01*
X15331D02*
X18874D01*
X15331Y160138D02*
X18874D01*
X-141681Y206138D02*
X-138138D01*
X-141681Y210862D02*
X-138138D01*
X-148374D02*
X-144437D01*
X-148374Y206138D02*
X-144437D01*
X-138138D02*
Y210862D01*
X-148374Y206138D02*
Y210862D01*
X-55862Y172126D02*
X-51138D01*
X-55862Y182362D02*
X-51138D01*
Y172126D02*
Y176063D01*
X-55862Y172126D02*
Y176063D01*
Y178819D02*
Y182362D01*
X-51138Y178819D02*
Y182362D01*
X-28126Y160138D02*
Y164862D01*
X-38362Y160138D02*
Y164862D01*
X-32063D02*
X-28126D01*
X-32063Y160138D02*
X-28126D01*
X-38362D02*
X-34819D01*
X-38362Y164862D02*
X-34819D01*
X23626Y160138D02*
Y164862D01*
X33862Y160138D02*
Y164862D01*
X23626Y160138D02*
X27563D01*
X23626Y164862D02*
X27563D01*
X30319D02*
X33862D01*
X30319Y160138D02*
X33862D01*
X-281593Y-66521D02*
Y-61796D01*
X-271356Y-66521D02*
Y-61796D01*
X-281593Y-66521D02*
X-277656D01*
X-281593Y-61796D02*
X-277656D01*
X-274900D02*
X-271356D01*
X-274900Y-66521D02*
X-271356D01*
X-236862Y-163874D02*
X-232138D01*
X-236862Y-153638D02*
X-232138D01*
Y-163874D02*
Y-159937D01*
X-236862Y-163874D02*
Y-159937D01*
Y-157181D02*
Y-153638D01*
X-232138Y-157181D02*
Y-153638D01*
X-169126Y-216862D02*
Y-212138D01*
X-179362Y-216862D02*
Y-212138D01*
X-173063D02*
X-169126D01*
X-173063Y-216862D02*
X-169126D01*
X-179362D02*
X-175819D01*
X-179362Y-212138D02*
X-175819D01*
X164514Y-250202D02*
Y-245477D01*
X154278Y-250202D02*
Y-245477D01*
X160577D02*
X164514D01*
X160577Y-250202D02*
X164514D01*
X154278D02*
X157821D01*
X154278Y-245477D02*
X157821D01*
X230638Y-170626D02*
X235362D01*
X230638Y-180862D02*
X235362D01*
X230638Y-174563D02*
Y-170626D01*
X235362Y-174563D02*
Y-170626D01*
Y-180862D02*
Y-177319D01*
X230638Y-180862D02*
Y-177319D01*
X275638Y-68126D02*
X280362D01*
X275638Y-78362D02*
X280362D01*
X275638Y-72063D02*
Y-68126D01*
X280362Y-72063D02*
Y-68126D01*
Y-78362D02*
Y-74819D01*
X275638Y-78362D02*
Y-74819D01*
X208283Y197111D02*
Y201836D01*
X198047Y197111D02*
Y201836D01*
X204346D02*
X208283D01*
X204346Y197111D02*
X208283D01*
X198047D02*
X201591D01*
X198047Y201836D02*
X201591D01*
X149095Y197109D02*
Y201834D01*
X138858Y197109D02*
Y201834D01*
X145158D02*
X149095D01*
X145158Y197109D02*
X149095D01*
X138858D02*
X142402D01*
X138858Y201834D02*
X142402D01*
X144138Y256874D02*
X148862D01*
X144138Y246638D02*
X148862D01*
X144138Y252937D02*
Y256874D01*
X148862Y252937D02*
Y256874D01*
Y246638D02*
Y250181D01*
X144138Y246638D02*
Y250181D01*
X-148093Y257977D02*
Y262702D01*
X-137856Y257977D02*
Y262702D01*
X-148093Y257977D02*
X-144156D01*
X-148093Y262702D02*
X-144156D01*
X-141400D02*
X-137856D01*
X-141400Y257977D02*
X-137856D01*
X-208283Y206164D02*
Y210889D01*
X-198047Y206164D02*
Y210889D01*
X-208283Y206164D02*
X-204346D01*
X-208283Y210889D02*
X-204346D01*
X-201591D02*
X-198047D01*
X-201591Y206164D02*
X-198047D01*
X109374Y-216862D02*
Y-212138D01*
X99138Y-216862D02*
Y-212138D01*
X105437D02*
X109374D01*
X105437Y-216862D02*
X109374D01*
X99138D02*
X102681D01*
X99138Y-212138D02*
X102681D01*
X-133417Y-203850D02*
X-128693D01*
X-133417Y-214087D02*
X-128693D01*
X-133417Y-207787D02*
Y-203850D01*
X-128693Y-207787D02*
Y-203850D01*
Y-214087D02*
Y-210543D01*
X-133417Y-214087D02*
Y-210543D01*
X136874Y-173362D02*
Y-168638D01*
X126638Y-173362D02*
Y-168638D01*
X132937D02*
X136874D01*
X132937Y-173362D02*
X136874D01*
X126638D02*
X130181D01*
X126638Y-168638D02*
X130181D01*
X275874Y-107862D02*
Y-103138D01*
X265638Y-107862D02*
Y-103138D01*
X271937D02*
X275874D01*
X271937Y-107862D02*
X275874D01*
X265638D02*
X269181D01*
X265638Y-103138D02*
X269181D01*
X275874Y-96362D02*
Y-91638D01*
X265638Y-96362D02*
Y-91638D01*
X271937D02*
X275874D01*
X271937Y-96362D02*
X275874D01*
X265638D02*
X269181D01*
X265638Y-91638D02*
X269181D01*
X194799Y-155744D02*
X199524D01*
X194799Y-145508D02*
X199524D01*
Y-155744D02*
Y-151807D01*
X194799Y-155744D02*
Y-151807D01*
Y-149051D02*
Y-145508D01*
X199524Y-149051D02*
Y-145508D01*
X186299Y-155744D02*
X191024D01*
X186299Y-145508D02*
X191024D01*
Y-155744D02*
Y-151807D01*
X186299Y-155744D02*
Y-151807D01*
Y-149051D02*
Y-145508D01*
X191024Y-149051D02*
Y-145508D01*
X130899Y-133476D02*
X135624D01*
X130899Y-143712D02*
X135624D01*
X130899Y-137413D02*
Y-133476D01*
X135624Y-137413D02*
Y-133476D01*
Y-143712D02*
Y-140169D01*
X130899Y-143712D02*
Y-140169D01*
X178138Y-145626D02*
X182862D01*
X178138Y-155862D02*
X182862D01*
X178138Y-149563D02*
Y-145626D01*
X182862Y-149563D02*
Y-145626D01*
Y-155862D02*
Y-152319D01*
X178138Y-155862D02*
Y-152319D01*
X170138Y-155874D02*
X174862D01*
X170138Y-145638D02*
X174862D01*
Y-155874D02*
Y-151937D01*
X170138Y-155874D02*
Y-151937D01*
Y-149181D02*
Y-145638D01*
X174862Y-149181D02*
Y-145638D01*
X-158862Y-277374D02*
X-154138D01*
X-158862Y-267138D02*
X-154138D01*
Y-277374D02*
Y-273437D01*
X-158862Y-277374D02*
Y-273437D01*
Y-270681D02*
Y-267138D01*
X-154138Y-270681D02*
Y-267138D01*
X-150362Y-277374D02*
X-145638D01*
X-150362Y-267138D02*
X-145638D01*
Y-277374D02*
Y-273437D01*
X-150362Y-277374D02*
Y-273437D01*
Y-270681D02*
Y-267138D01*
X-145638Y-270681D02*
Y-267138D01*
X-150362Y-245626D02*
X-145638D01*
X-150362Y-255862D02*
X-145638D01*
X-150362Y-249563D02*
Y-245626D01*
X-145638Y-249563D02*
Y-245626D01*
Y-255862D02*
Y-252319D01*
X-150362Y-255862D02*
Y-252319D01*
X-158362Y-255874D02*
X-153638D01*
X-158362Y-245638D02*
X-153638D01*
Y-255874D02*
Y-251937D01*
X-158362Y-255874D02*
Y-251937D01*
Y-249181D02*
Y-245638D01*
X-153638Y-249181D02*
Y-245638D01*
X-126862Y273874D02*
X-122138D01*
X-126862Y263638D02*
X-122138D01*
X-126862Y269937D02*
Y273874D01*
X-122138Y269937D02*
Y273874D01*
Y263638D02*
Y267181D01*
X-126862Y263638D02*
Y267181D01*
X240138Y-72874D02*
X244862D01*
X240138Y-62638D02*
X244862D01*
Y-72874D02*
Y-68937D01*
X240138Y-72874D02*
Y-68937D01*
Y-66181D02*
Y-62638D01*
X244862Y-66181D02*
Y-62638D01*
X-242374Y-75862D02*
Y-71138D01*
X-232138Y-75862D02*
Y-71138D01*
X-242374Y-75862D02*
X-238437D01*
X-242374Y-71138D02*
X-238437D01*
X-235681D02*
X-232138D01*
X-235681Y-75862D02*
X-232138D01*
X-98512Y-225587D02*
Y-219287D01*
X-105598Y-225980D02*
Y-219287D01*
Y-236216D02*
Y-229524D01*
X-98512Y-236216D02*
Y-229524D01*
X-105598Y-219287D02*
X-98512D01*
X-105598Y-236216D02*
X-98512D01*
X124399Y-133476D02*
X129124D01*
X124399Y-143712D02*
X129124D01*
X124399Y-137413D02*
Y-133476D01*
X129124Y-137413D02*
Y-133476D01*
Y-143712D02*
Y-140169D01*
X124399Y-143712D02*
Y-140169D01*
X152374Y-128362D02*
Y-123638D01*
X142138Y-128362D02*
Y-123638D01*
X148437D02*
X152374D01*
X148437Y-128362D02*
X152374D01*
X142138D02*
X145681D01*
X142138Y-123638D02*
X145681D01*
X181138Y-107126D02*
X185862D01*
X181138Y-117362D02*
X185862D01*
X181138Y-111063D02*
Y-107126D01*
X185862Y-111063D02*
Y-107126D01*
Y-117362D02*
Y-113819D01*
X181138Y-117362D02*
Y-113819D01*
X174804Y-107126D02*
X179529D01*
X174804Y-117362D02*
X179529D01*
X174804Y-111063D02*
Y-107126D01*
X179529Y-111063D02*
Y-107126D01*
Y-117362D02*
Y-113819D01*
X174804Y-117362D02*
Y-113819D01*
X168471Y-107126D02*
X173196D01*
X168471Y-117362D02*
X173196D01*
X168471Y-111063D02*
Y-107126D01*
X173196Y-111063D02*
Y-107126D01*
Y-117362D02*
Y-113819D01*
X168471Y-117362D02*
Y-113819D01*
X162138Y-107126D02*
X166862D01*
X162138Y-117362D02*
X166862D01*
X162138Y-111063D02*
Y-107126D01*
X166862Y-111063D02*
Y-107126D01*
Y-117362D02*
Y-113819D01*
X162138Y-117362D02*
Y-113819D01*
X-157862Y-155626D02*
X-153138D01*
X-157862Y-165862D02*
X-153138D01*
X-157862Y-159563D02*
Y-155626D01*
X-153138Y-159563D02*
Y-155626D01*
Y-165862D02*
Y-162319D01*
X-157862Y-165862D02*
Y-162319D01*
X-165196Y-155626D02*
X-160471D01*
X-165196Y-165862D02*
X-160471D01*
X-165196Y-159563D02*
Y-155626D01*
X-160471Y-159563D02*
Y-155626D01*
Y-165862D02*
Y-162319D01*
X-165196Y-165862D02*
Y-162319D01*
X-172529Y-155626D02*
X-167805D01*
X-172529Y-165862D02*
X-167805D01*
X-172529Y-159563D02*
Y-155626D01*
X-167805Y-159563D02*
Y-155626D01*
Y-165862D02*
Y-162319D01*
X-172529Y-165862D02*
Y-162319D01*
X-179862Y-155626D02*
X-175138D01*
X-179862Y-165862D02*
X-175138D01*
X-179862Y-159563D02*
Y-155626D01*
X-175138Y-159563D02*
Y-155626D01*
Y-165862D02*
Y-162319D01*
X-179862Y-165862D02*
Y-162319D01*
X-171862Y-183626D02*
X-167138D01*
X-171862Y-193862D02*
X-167138D01*
X-171862Y-187563D02*
Y-183626D01*
X-167138Y-187563D02*
Y-183626D01*
Y-193862D02*
Y-190319D01*
X-171862Y-193862D02*
Y-190319D01*
X161638Y-158874D02*
X166362D01*
X161638Y-148638D02*
X166362D01*
Y-158874D02*
Y-154937D01*
X161638Y-158874D02*
Y-154937D01*
Y-152181D02*
Y-148638D01*
X166362Y-152181D02*
Y-148638D01*
X-20874Y160138D02*
Y164862D01*
X-10638Y160138D02*
Y164862D01*
X-20874Y160138D02*
X-16937D01*
X-20874Y164862D02*
X-16937D01*
X-14181D02*
X-10638D01*
X-14181Y160138D02*
X-10638D01*
M02*
