M48
;Layer_Color=9474304
;FILE_FORMAT=2:5
INCH,LZ
;TYPE=PLATED
T6F00S00C0.03937
%
G90
G05
T06
G00X-0191559Y-0262595
M15
G01X-019652
M16
G00X-0182622Y-0262595
M15
G01X-0185378
M16
G00X-017148Y-0262595
M15
G01X-0176441
M16
G00X-017148Y-0224406
M15
G01X-0176441
M16
G00X-0182622Y-0224406
M15
G01X-0185378
M16
G00X-0191559Y-0224406
M15
G01X-019652
M16
G00X017148Y-0224406
M15
G01X0176441
M16
G00X0182622Y-0224406
M15
G01X0185378
M16
G00X0191559Y-0224406
M15
G01X019652
M16
G00X0191559Y-0262595
M15
G01X019652
M16
G00X0182622Y-0262595
M15
G01X0185378
M16
G00X017148Y-0262595
M15
G01X0176441
M16
G00X024398Y-0185594
M15
G01X0248941
M16
G00X0255122Y-0185594
M15
G01X0257878
M16
G00X0264059Y-0185594
M15
G01X026902
M16
G00X0264059Y-0147406
M15
G01X026902
M16
G00X0255122Y-0147406
M15
G01X0257878
M16
G00X024398Y-0147406
M15
G01X0248941
M16
G00X028898Y-0087594
M15
G01X0293941
M16
G00X0300122Y-0087594
M15
G01X0302878
M16
G00X0309059Y-0087594
M15
G01X031402
M16
G00X-024398Y-0147406
M15
G01X-0248941
M16
G00X-0255122Y-0147406
M15
G01X-0257878
M16
G00X-0255122Y-0185594
M15
G01X-0257878
M16
G00X-024398Y-0185594
M15
G01X-0248941
M16
G00X-0264059Y-0185594
M15
G01X-026902
M16
G00X-0264059Y-0147406
M15
G01X-026902
M16
G00X-028898Y-0087594
M15
G01X-0293941
M16
G00X-0300122Y-0087594
M15
G01X-0302878
M16
G00X-0309059Y-0087594
M15
G01X-031402
M16
G00X-0309059Y-0049406
M15
G01X-031402
M16
G00X-0300122Y-0049406
M15
G01X-0302878
M16
G00X-028898Y-0049406
M15
G01X-0293941
M16
G00X028898Y-0049406
M15
G01X0293941
M16
G00X0300122Y-0049406
M15
G01X0302878
M16
G00X0309059Y-0049406
M15
G01X031402
M16
G00X0235559Y0184906
M15
G01X024052
M16
G00X0226622Y0184906
M15
G01X0229378
M16
G00X021548Y0184906
M15
G01X0220441
M16
G00X021548Y0223095
M15
G01X0220441
M16
G00X0226622Y0223095
M15
G01X0229378
M16
G00X0235559Y0223095
M15
G01X024052
M16
G00X0176559Y0223095
M15
G01X018152
M16
G00X0167622Y0223095
M15
G01X0170378
M16
G00X015648Y0223095
M15
G01X0161441
M16
G00X015648Y0236906
M15
G01X0161441
M16
G00X0167622Y0236906
M15
G01X0170378
M16
G00X0176559Y0236906
M15
G01X018152
M16
G00X0176559Y0184906
M15
G01X018152
M16
G00X0167622Y0184906
M15
G01X0170378
M16
G00X015648Y0184906
M15
G01X0161441
M16
G00X-015648Y0184906
M15
G01X-0161441
M16
G00X-0167622Y0184906
M15
G01X-0170378
M16
G00X-0176559Y0184906
M15
G01X-018152
M16
G00X-0176559Y0223095
M15
G01X-018152
M16
G00X-0167622Y0223095
M15
G01X-0170378
M16
G00X-015648Y0223095
M15
G01X-0161441
M16
G00X-015648Y0236906
M15
G01X-0161441
M16
G00X-0167622Y0236906
M15
G01X-0170378
M16
G00X-0176559Y0236906
M15
G01X-018152
M16
G00X-021548Y0223095
M15
G01X-0220441
M16
G00X-0226622Y0223095
M15
G01X-0229378
M16
G00X-0235559Y0223095
M15
G01X-024052
M16
G00X-0235559Y0184906
M15
G01X-024052
M16
G00X-0226622Y0184906
M15
G01X-0229378
M16
G00X-021548Y0184906
M15
G01X-0220441
M16
G00X-0176559Y0275095
M15
G01X-018152
M16
G00X-0167622Y0275095
M15
G01X-0170378
M16
G00X-015648Y0275095
M15
G01X-0161441
M16
G00X015648Y0275095
M15
G01X0161441
M16
G00X0167622Y0275095
M15
G01X0170378
M16
G00X0176559Y0275095
M15
G01X018152
M16
M17
M30
