M48
;Layer_Color=9474304
;FILE_FORMAT=2:5
INCH,LZ
;TYPE=PLATED
T1F00S00C0.01968
T2F00S00C0.02799
T3F00S00C0.02800
T4F00S00C0.03543
T5F00S00C0.03937
T7F00S00C0.11811
T8F00S00C0.12598
T9F00S00C2.75591
%
T01
X0229Y-0121854
Y-0102642
X-01165Y-0152142
Y-0171354
T02
X-01565Y-02785
X-0148
Y-0257
X-0156
X-0157Y-0238
X-01445
X-0203Y-021
X-0091Y-0239
X-01035Y-0255
Y-02605
X0095Y-0226
X01415Y-0239
X01485Y-0255
Y-0261
X021Y-01745
X0233Y-0115
Y-011
X02455Y-01065
X0245599Y-0094118
X0277Y-00945
X02775Y-0105
X02275Y-00785
X0192Y-00885
X0178Y-0085
X01845Y-0106
X01705Y-0119
X0159Y-01335
X01495Y-01295
X015Y-0146
X0141
X0138Y-0136
X0121Y-01375
X0112986Y-0140474
X01165Y-01545
X0126Y-01535
X01205Y-0162535
X01005Y-01615
X01035Y-01545
X00935Y-01375
X00695Y-0131
X00645
X00595
X00545
X0075Y-0153
X00785Y-0158
X00655Y-01715
X006
X0063Y-01775
X0059Y-0182
X00545Y-01865
X01145Y-01895
X0125Y-02005
Y-0207
X0143Y-02005
X0146Y-01665
X01745
X01805
X0197Y-0167
Y-01575
X019Y-01365
X0164Y-0147
X0156Y-0057
X0026Y-01625
Y-01685
X-0029Y-0169
X-0026Y-01735
X-003Y-0178
X-0043Y-01585
X-0047Y-0155398
X-0045Y-0143
X-00625Y-01325
X-0086Y-0171
Y-0205
X-0133Y-01915
X-01315Y-0175
Y-0168
X-01215Y-01785
X-01425Y-0181
X-0154919Y-0149
X-01645Y-0137
X-01965Y-01515
Y-01615
X-02195Y-01565
X-0203Y-0203
X-0183Y-0194
X-0175
X-0167Y-0202
X-0144248Y-0089
X-0139
X-013
X-01585Y-00575
X-0172Y-0054
X-01695Y-0049
X-01705Y-0038
Y-00325
X-01585Y-0052
X01515Y-00525
X01045Y01485
X0098
X0089Y0154
X00525Y01705
Y0184
X00745Y0218
Y0225
X0126Y0172
X00335Y01865
X-00525Y01835
X-00535Y01705
X-00965Y01965
X-00245Y0222
X-0027561Y0247439
X-00125Y02465
X-00065
X-0039Y02365
X-0135Y02315
X-012215Y0184726
Y017961
X-0126972Y0177307
X-0121Y01535
T03
X-01885Y-025
X-0188909Y-0238474
Y-0231474
X-0118555Y-0228224
X-0120055Y-0220724
X-0114055Y-0233224
X-0113555Y-0240224
X-0108055
X-01345Y-02715
X-0105051Y-0215728
X0112279Y-0220953
X0113779Y-0228453
X0119Y-02345
X011878Y-0240453
X0124279
X0127284Y-0215957
X01435Y-0211
X0154
X0170858Y-0210358
X0189494Y-0235278
X018914Y-0248339
Y-0255339
X0103Y-02735
X02075Y-01345
X0211Y-01245
Y-01185
X02125Y-01065
Y-01
X0211Y-00785
X02255Y-0056
X02425Y-00615
X0257264Y-00835
X030641Y-0080526
Y-0073526
X0307743Y-0060893
X0263668Y-015772
X026314Y-0171339
Y-0178339
X0225Y-0147
X02205Y-01425
X02015Y-01345
X0195Y-013
X0189
X019Y-0144
X0177Y-0142
X01675Y-014
X0166Y-0124
X0177475Y-0124975
X01775Y-0119
Y-0099326
X0167297Y-0106358
X01615Y-0088
X01645Y-00815
X0183Y-0081
X01875Y-0077
X0186Y-00685
X0191Y-0065
X02045
X02035Y-0085
X02025Y-00955
X01995Y-01015
X01965Y-00805
X0173Y-00685
X0168Y-01665
X01605
X0152
X0158Y-0181
X0180858Y-0190469
X0176Y-02065
X0186
X0195858Y-0205968
X02015Y-01965
X0165858Y-0206469
X0108Y-01915
X0102Y-0189
X0096Y-01865
X009Y-0184
X0084Y-0182
X0078Y-01865
X00735Y-0192
X00695Y-0198
X-00295Y-01425
X-0097Y-0175
X-0111Y-0206
X-01215Y-01955
X-01415Y-02075
X-01505
X-01465Y-0203
X-01645Y-01955
X-0163Y-01675
Y-01525
X-017Y-0154
X-0171Y-013725
X-01775Y-0137
X-02005Y-01375
X-0208Y-0142
X-02085Y-01705
Y-01765
X-019041Y-015991
X-0146787Y-0142713
X-01405Y-01445
X-01335Y-01495
X-01295Y-0155
X-0132Y-01095
X-01375
X-01465
X-01515
X-01595
X-0165
X-01705
X-02015Y-00915
X-02335Y-00965
X-02385Y-01015
X-0244Y-01065
X-02505Y-0104
X-02595Y-0089
X-0244Y-0074
X-0231Y-00735
X-0212Y-00605
X-01865Y-00635
X-018Y-0067
X-0189Y-00535
X-0221Y-01115
X-0237Y-01175
X-02335Y-01265
X-0261409Y-0154474
Y-0161474
X-0262743Y-0174107
X-0269Y-0104
X-0306994Y-0076722
X-0306219Y-0063659
Y-0056659
X-0148Y-00385
Y-00335
X01895Y-00415
X0186Y-0047
X0232909Y0191974
Y0198974
X0232639Y0212679
X01945Y0212
Y01995
X0173721Y0198972
Y0191972
X0177436Y0213878
X017364Y0244161
Y0251161
X0141Y0244
X01455Y02385
Y0222
X0141Y02155
X0118Y02245
X01225Y02355
X01025Y02395
X0107Y0244
X0104Y02175
X011Y0211331
X0125Y01875
X0131Y0178
X0125Y0154
X00925Y01875
X00635Y02165
Y023
X00525Y0231
X00535Y02425
X01335Y0252
X0204Y01785
X00385Y0191
X004Y0217
X00405Y0225
X0047Y0231
X00485Y02425
X00405Y0256
X00305Y0236
X00235
X00095Y0239
Y02325
X00055Y0228
X00025Y0209
Y0191
X-0003
X0Y0161
X00075Y01625
X00355Y0163
X00495Y0214
X-0023Y0242
X-00345Y0253
X-00395Y0191
Y01625
X-0097Y02195
X-0102Y02345
X-0102736Y02445
X-01095Y0252
X-0109Y02595
X-0113957Y02295
X-01405Y0227
Y0237
X-01475Y02235
X-01405Y0215
X-01325Y02095
X-0118Y0195
X-0139374Y0165693
X-0172Y01955
X-0172719Y0208839
Y0215839
X-01865Y02085
X-0197
X-0232909Y0209026
Y0216026
X-0233494Y0195778
X-0172784Y0246865
X-0173219Y0260839
Y0267839
X-01405Y0272
X-014Y0287
X-01055Y03045
X-00925
X-00855Y03035
X-00755
X-0062429Y03095
X-0052429
X-0039357Y0313
X-0029357
X-0016286Y0314
X-0006286
X0Y0316
X0006786Y0314
X0016786
X0012Y0309
X00235Y0307
X0029857Y0313
X0039857
X0033Y0288
X0026
X00295Y0283
X0041Y0282
X0005Y0295
X-00015
X-001
X-00115Y03075
X-00015
X-0019669Y03035
X-00215Y02885
X-004Y02915
X-0039Y0277134
X-0067Y02915
X-00865
X-00845Y0273
X-00975Y02685
X-00035Y027
X0001Y02625
X0057Y02915
X0075
X0076Y03035
X0086
X00905Y0309
X0099Y0302
X0097Y0267
X01335
X01485
Y02785
X01265Y02795
Y0287
X0174Y02655
X0062928Y03095
X0052929
T04
X-0138055Y-0256724
X-0128055
Y-0246724
X-0138055
X0094279Y-0246953
X0104279
Y-0256953
X0094279
X01005Y-01265
Y-01165
X01105
Y-01265
X01205
Y-01165
X01305
Y-01265
X-01935Y-01825
X-02035
X-02135
X-02235
Y-01925
X-02135
X-02035
X-01935
X00595Y02055
X00695
X00795
X00895
X00495
X00395
X00295
X00195
X00095
X-00095
X-00195
X-00295
X-00395
X-00495
X-00595
X-00695
X-00795
X-00895
Y02655
X-00795
X-00695
X-00595
X-00495
X-00395
X-00295
X-00195
X-00095
X00095
X00195
X00295
X00395
X00495
X00595
X00695
X00795
X00895
T05
X0083189Y02365
Y0248311
X0095
Y02365
X0106811Y0252012
X0071378
X-0056689Y0252512
X-00685Y0248811
Y0237
X-0080311
Y0248811
X-0092122Y0252512
X-0005847Y0178642
X-0007291Y0172311
X0Y0173976
Y0181457
X0005847Y0178642
X0007291Y0172311
X0003244Y0167236
X-0003244
X-0014Y0168
T07
X-02215Y-0211437
X02215
X0284Y-01175
X-0284
X0069055Y0173976
X02025Y02395
X-0069055Y0173976
X-02025Y02395
T08
X-003937Y-0212598
X003937
X-0165354Y0059055
X0165354
Y011811
X-0165354
T09
X0Y-0
M30
