%FSLAX25Y25*%
%MOIN*%
G70*
G01*
G75*
G04 Layer_Physical_Order=1*
G04 Layer_Color=255*
%ADD10O,0.08661X0.02362*%
%ADD11R,0.03000X0.03543*%
%ADD12R,0.05118X0.05512*%
%ADD13R,0.05512X0.05118*%
%ADD14R,0.03543X0.03000*%
%ADD15R,0.05000X0.06693*%
%ADD16R,0.04921X0.03937*%
%ADD17R,0.08661X0.02362*%
%ADD18O,0.08661X0.02362*%
%ADD19O,0.02362X0.08661*%
%ADD20R,0.09449X0.09843*%
%ADD21C,0.01575*%
%ADD22C,0.01181*%
%ADD23C,0.00984*%
%ADD24C,0.01000*%
%ADD25C,0.03150*%
%ADD26C,0.03937*%
%ADD27C,0.02756*%
%ADD28C,0.02362*%
%ADD29C,0.00591*%
%ADD30C,0.05906*%
%ADD31R,0.05906X0.05906*%
%ADD32C,0.05118*%
%ADD33C,0.07874*%
%ADD34O,0.10236X0.07874*%
%ADD35O,0.08268X0.07874*%
%ADD36R,0.05118X0.09843*%
%ADD37O,0.05118X0.09843*%
%ADD38C,0.05500*%
%ADD39C,0.06693*%
%ADD40R,0.06299X0.06299*%
%ADD41C,0.06299*%
%ADD42C,2.75591*%
%ADD43C,0.39370*%
%ADD44C,0.19685*%
%ADD45C,0.05000*%
D10*
X-227949Y-91500D02*
D03*
Y-96500D02*
D03*
Y-101500D02*
D03*
Y-106500D02*
D03*
Y-111500D02*
D03*
Y-116500D02*
D03*
Y-121500D02*
D03*
Y-126500D02*
D03*
X-209051Y-91500D02*
D03*
Y-96500D02*
D03*
Y-101500D02*
D03*
Y-106500D02*
D03*
Y-111500D02*
D03*
Y-116500D02*
D03*
Y-121500D02*
D03*
Y-126500D02*
D03*
X112551Y249500D02*
D03*
Y244500D02*
D03*
Y239500D02*
D03*
Y234500D02*
D03*
Y229500D02*
D03*
Y224500D02*
D03*
Y219500D02*
D03*
Y214500D02*
D03*
X131449Y249500D02*
D03*
Y244500D02*
D03*
Y239500D02*
D03*
Y234500D02*
D03*
Y229500D02*
D03*
Y224500D02*
D03*
Y219500D02*
D03*
Y214500D02*
D03*
X-108051Y209500D02*
D03*
Y214500D02*
D03*
Y219500D02*
D03*
Y224500D02*
D03*
Y229500D02*
D03*
Y234500D02*
D03*
Y239500D02*
D03*
Y244500D02*
D03*
X-126949Y209500D02*
D03*
Y214500D02*
D03*
Y219500D02*
D03*
Y224500D02*
D03*
Y229500D02*
D03*
Y234500D02*
D03*
Y239500D02*
D03*
Y244500D02*
D03*
D11*
X-219500Y-160500D02*
D03*
Y-166000D02*
D03*
Y-153000D02*
D03*
Y-147500D02*
D03*
X-111276Y-215345D02*
D03*
Y-209845D02*
D03*
X-111055Y-221736D02*
D03*
Y-227236D02*
D03*
X121280Y-221965D02*
D03*
Y-227465D02*
D03*
X236500Y-107988D02*
D03*
Y-102488D02*
D03*
Y-116000D02*
D03*
Y-121500D02*
D03*
X52500Y180000D02*
D03*
Y174500D02*
D03*
X-213000Y-66500D02*
D03*
Y-72000D02*
D03*
X-53500Y174500D02*
D03*
Y180000D02*
D03*
X-234500Y-161500D02*
D03*
Y-156000D02*
D03*
X233000Y-173000D02*
D03*
Y-178500D02*
D03*
X278000Y-70500D02*
D03*
Y-76000D02*
D03*
X146500Y254500D02*
D03*
Y249000D02*
D03*
X-131055Y-206224D02*
D03*
Y-211724D02*
D03*
X197161Y-153370D02*
D03*
Y-147870D02*
D03*
X188661Y-153370D02*
D03*
Y-147870D02*
D03*
X133261Y-135850D02*
D03*
Y-141350D02*
D03*
X180500Y-148000D02*
D03*
Y-153500D02*
D03*
X172500D02*
D03*
Y-148000D02*
D03*
X-156500Y-275000D02*
D03*
Y-269500D02*
D03*
X-148000Y-275000D02*
D03*
Y-269500D02*
D03*
Y-248000D02*
D03*
Y-253500D02*
D03*
X-156000D02*
D03*
Y-248000D02*
D03*
X-124500Y271500D02*
D03*
Y266000D02*
D03*
X242500Y-70500D02*
D03*
Y-65000D02*
D03*
X126761Y-135850D02*
D03*
Y-141350D02*
D03*
X183500Y-109500D02*
D03*
Y-115000D02*
D03*
X177167Y-109500D02*
D03*
Y-115000D02*
D03*
X170833Y-109500D02*
D03*
Y-115000D02*
D03*
X164500Y-109500D02*
D03*
Y-115000D02*
D03*
X-155500Y-158000D02*
D03*
Y-163500D02*
D03*
X-162833Y-158000D02*
D03*
Y-163500D02*
D03*
X-170167Y-158000D02*
D03*
Y-163500D02*
D03*
X-177500Y-158000D02*
D03*
Y-163500D02*
D03*
X-169500Y-186000D02*
D03*
Y-191500D02*
D03*
X164000Y-156500D02*
D03*
Y-151000D02*
D03*
D12*
X-200520Y-161500D02*
D03*
X-208000D02*
D03*
X-200520Y-151500D02*
D03*
X-208000D02*
D03*
X250020Y-94118D02*
D03*
X257500D02*
D03*
X249770Y-106868D02*
D03*
X257250D02*
D03*
D13*
X-131055Y-229705D02*
D03*
Y-222224D02*
D03*
X101279Y-234933D02*
D03*
Y-227453D02*
D03*
D14*
X-140000Y-175000D02*
D03*
X-134500D02*
D03*
X-140000Y-168000D02*
D03*
X-134500D02*
D03*
X-116000Y-198000D02*
D03*
X-110500D02*
D03*
X-116000Y-192000D02*
D03*
X-110500D02*
D03*
X-116000Y-186000D02*
D03*
X-110500D02*
D03*
X-116000Y-180000D02*
D03*
X-110500D02*
D03*
X121000Y-214500D02*
D03*
X115500D02*
D03*
Y-207000D02*
D03*
X121000D02*
D03*
X115604Y-200323D02*
D03*
X121104D02*
D03*
X134780Y-162221D02*
D03*
X129279D02*
D03*
X107500Y-170000D02*
D03*
X113000D02*
D03*
X134780Y-178220D02*
D03*
X129279D02*
D03*
X112799Y-178067D02*
D03*
X107299D02*
D03*
X112799Y-162067D02*
D03*
X107299D02*
D03*
X45000Y191000D02*
D03*
X50500D02*
D03*
X26000D02*
D03*
X31500D02*
D03*
X11500D02*
D03*
X6000D02*
D03*
X-6500D02*
D03*
X-12000D02*
D03*
X-50000Y162500D02*
D03*
X-55500D02*
D03*
X-30750Y191000D02*
D03*
X-36250D02*
D03*
X11012Y162500D02*
D03*
X16512D02*
D03*
X160000Y-216000D02*
D03*
X154500D02*
D03*
X-250500Y-100500D02*
D03*
X-256000D02*
D03*
X-269000D02*
D03*
X-263500D02*
D03*
X-256000Y-107500D02*
D03*
X-250500D02*
D03*
X-263500D02*
D03*
X-269000D02*
D03*
X-114000Y195000D02*
D03*
X-108500D02*
D03*
X-140500Y208500D02*
D03*
X-146000D02*
D03*
X-30500Y162500D02*
D03*
X-36000D02*
D03*
X26000D02*
D03*
X31500D02*
D03*
X-279219Y-64159D02*
D03*
X-273719D02*
D03*
X-171500Y-214500D02*
D03*
X-177000D02*
D03*
X162140Y-247839D02*
D03*
X156640D02*
D03*
X205909Y199474D02*
D03*
X200410D02*
D03*
X146721Y199472D02*
D03*
X141221D02*
D03*
X-145719Y260339D02*
D03*
X-140219D02*
D03*
X-205909Y208526D02*
D03*
X-200410D02*
D03*
X107000Y-214500D02*
D03*
X101500D02*
D03*
X134500Y-171000D02*
D03*
X129000D02*
D03*
X273500Y-105500D02*
D03*
X268000D02*
D03*
X273500Y-94000D02*
D03*
X268000D02*
D03*
X-240000Y-73500D02*
D03*
X-234500D02*
D03*
X150000Y-126000D02*
D03*
X144500D02*
D03*
X-18500Y162500D02*
D03*
X-13000D02*
D03*
D15*
X130280Y-223453D02*
D03*
Y-232453D02*
D03*
X-102055Y-223224D02*
D03*
Y-232224D02*
D03*
D16*
X150500Y-140500D02*
D03*
Y-133000D02*
D03*
X142500Y-136700D02*
D03*
D17*
X43701Y169508D02*
D03*
X-43701Y184508D02*
D03*
D18*
X23228D02*
D03*
Y179508D02*
D03*
Y174508D02*
D03*
Y169508D02*
D03*
X43701Y184508D02*
D03*
Y179508D02*
D03*
Y174508D02*
D03*
X-23228Y169508D02*
D03*
Y174508D02*
D03*
Y179508D02*
D03*
Y184508D02*
D03*
X-43701Y169508D02*
D03*
Y174508D02*
D03*
Y179508D02*
D03*
D19*
X-16500Y284051D02*
D03*
X-11500D02*
D03*
X-6500D02*
D03*
X-1500D02*
D03*
X3500D02*
D03*
X8500D02*
D03*
X13500D02*
D03*
X18500D02*
D03*
X-16500Y302949D02*
D03*
X-11500D02*
D03*
X-6500D02*
D03*
X-1500D02*
D03*
X3500D02*
D03*
X8500D02*
D03*
X13500D02*
D03*
X18500D02*
D03*
X160858Y-199917D02*
D03*
X165858D02*
D03*
X170858D02*
D03*
X175858D02*
D03*
X180858D02*
D03*
X185858D02*
D03*
X190858D02*
D03*
X195858D02*
D03*
X160858Y-181020D02*
D03*
X165858D02*
D03*
X170858D02*
D03*
X175858D02*
D03*
X180858D02*
D03*
X185858D02*
D03*
X190858D02*
D03*
X195858D02*
D03*
D20*
X121390Y-258453D02*
D03*
X140169D02*
D03*
X-115945Y-258224D02*
D03*
X-97165D02*
D03*
D21*
X-253500Y-73500D02*
X-240000D01*
X144500Y259661D02*
X159704D01*
X146500Y254500D02*
X156917D01*
X159757Y251661D01*
X301732Y-87689D02*
Y-82232D01*
X290000Y-70500D02*
X301732Y-82232D01*
X278000Y-70500D02*
X290000D01*
X177167Y-115000D02*
X183500D01*
X170833D02*
X177167D01*
X164500D02*
X170833D01*
X251417Y-173000D02*
X258463Y-180045D01*
X233000Y-173000D02*
X251417D01*
X120721Y-178220D02*
X129279D01*
X-105059Y-215728D02*
X-105051D01*
X-110892D02*
X-105059D01*
X-111276Y-215345D02*
X-110892Y-215728D01*
X-168803Y-214500D02*
X-166000Y-217303D01*
Y-229000D02*
Y-217303D01*
X-171000Y-234000D02*
X-166000Y-229000D01*
X-180000Y-234000D02*
X-171000D01*
X-247474Y-169974D02*
X-236474D01*
X133261Y-135850D02*
X137850D01*
X126761Y-130239D02*
X130500Y-126500D01*
X126761Y-135850D02*
Y-130239D01*
X137850Y-135850D02*
X138000Y-136000D01*
X126000Y-153500D02*
X129279Y-156780D01*
Y-162221D02*
Y-156780D01*
X112799Y-178067D02*
X114500Y-179768D01*
Y-189500D02*
Y-179768D01*
X134780Y-178220D02*
X146500Y-166500D01*
X134780Y-162221D02*
X142720D01*
X-121500Y-185000D02*
Y-178500D01*
Y-185000D02*
X-120500Y-186000D01*
X-116000D01*
X35500Y163000D02*
Y171000D01*
X39008Y174508D01*
X43701D01*
X156640Y-239839D02*
X175204D01*
X-292283Y-72159D02*
X-273719D01*
X-13000Y162500D02*
Y167000D01*
X-14000Y168000D02*
X-13000Y167000D01*
X-48425Y162500D02*
X-47201D01*
X-43701Y166000D01*
Y169508D01*
X-28888Y191000D02*
X-25750D01*
X-23228Y188478D01*
X-36000Y182000D02*
Y187500D01*
X-38492Y179508D02*
X-36000Y182000D01*
X-171500Y-214500D02*
X-168803D01*
X-184232Y-229768D02*
X-180000Y-234000D01*
X-4000Y161000D02*
X0D01*
X-7378Y164378D02*
X-4000Y161000D01*
X-7378Y164378D02*
Y172224D01*
X-7291Y172311D01*
X-177500Y-158000D02*
X-170167D01*
X-162833D01*
X-155500D01*
X169041Y223000D02*
X169043Y222998D01*
Y216730D02*
Y222998D01*
X-168041Y217545D02*
Y223002D01*
X-158835Y208339D02*
X-145719D01*
X-168041Y217545D02*
X-158835Y208339D01*
X-168041Y191081D02*
X-158783Y200339D01*
X-168041Y184813D02*
Y191081D01*
X121280Y-221953D02*
X127276Y-215957D01*
X130280Y-223453D02*
Y-218953D01*
X127284Y-215957D02*
X130280Y-218953D01*
X123284Y-215957D02*
X127276D01*
X127284D01*
X-111055Y-221724D02*
X-105059Y-215728D01*
X-102055Y-223224D02*
Y-218724D01*
X-105051Y-215728D02*
X-102055Y-218724D01*
X228232Y184811D02*
Y190268D01*
X219026Y199474D02*
X228232Y190268D01*
X205909Y199474D02*
X219026D01*
X228232Y216732D02*
Y223000D01*
X218974Y207474D02*
X228232Y216732D01*
X-292335Y-64159D02*
X-279219D01*
X-301541Y-54953D02*
X-292335Y-64159D01*
X-301541Y-54953D02*
Y-49496D01*
Y-81417D02*
X-292283Y-72159D01*
X-301541Y-87685D02*
Y-81417D01*
X-247526Y-161974D02*
X-234409D01*
X-256732Y-152768D02*
X-247526Y-161974D01*
X-256732Y-152768D02*
Y-147311D01*
Y-179232D02*
X-247474Y-169974D01*
X-256732Y-185500D02*
Y-179232D01*
X-184232Y-229768D02*
Y-224311D01*
Y-262500D02*
Y-256232D01*
X175257Y-247839D02*
X184463Y-257045D01*
Y-262502D02*
Y-257045D01*
X162140Y-247839D02*
X175257D01*
X184463Y-230581D02*
Y-224313D01*
X175204Y-239839D02*
X184463Y-230581D01*
X258463Y-185502D02*
Y-180045D01*
Y-153581D02*
Y-147313D01*
X249204Y-162839D02*
X258463Y-153581D01*
X301732Y-55768D02*
Y-49500D01*
X292474Y-65026D02*
X301732Y-55768D01*
X169043Y184809D02*
Y190266D01*
X159837Y199472D02*
X169043Y190266D01*
X146721Y199472D02*
X159837D01*
X159785Y207472D02*
X169043Y216730D01*
X146721Y207472D02*
X159785D01*
X168963Y236998D02*
Y242455D01*
X159757Y251661D02*
X168963Y242455D01*
Y268919D02*
Y275187D01*
X159704Y259661D02*
X168963Y268919D01*
X-168541Y243081D02*
X-159283Y252339D01*
X-168541Y236813D02*
Y243081D01*
Y269545D02*
X-159335Y260339D01*
X-146219D01*
X-168541Y269545D02*
Y275002D01*
X-219026Y208526D02*
X-205909D01*
X-228232Y217732D02*
X-219026Y208526D01*
X-228232Y217732D02*
Y223189D01*
Y191268D02*
X-218974Y200526D01*
X-228232Y185000D02*
Y191268D01*
X-23228Y184508D02*
Y188478D01*
Y184508D02*
X-16736Y191000D01*
X-12000D01*
X-43701Y179508D02*
X-38492D01*
X-53500Y180000D02*
X-53008Y179508D01*
X-43701D01*
X43701Y174508D02*
X52492D01*
X52500Y174500D01*
X180858Y-201417D02*
Y-199917D01*
X236500Y-116000D02*
Y-107988D01*
X-259500Y-79500D02*
X-253500Y-73500D01*
X-259500Y-89000D02*
Y-79500D01*
X18500Y284051D02*
X19551D01*
X23500Y288000D02*
X26000D01*
X19551Y284051D02*
X23500Y288000D01*
X180858Y-199917D02*
Y-190469D01*
X112551Y229500D02*
X116500D01*
X122500Y235500D01*
X238500Y-162839D02*
X249204D01*
X280500Y-65026D02*
X292474D01*
X180500Y-166500D02*
Y-153500D01*
X112799Y-162067D02*
Y-158201D01*
X116500Y-154500D01*
X146500Y-166500D02*
X147000D01*
X142720Y-162221D02*
X147000Y-166500D01*
X207000Y207474D02*
X218974D01*
X-218974Y200526D02*
X-200410D01*
X-158783Y200339D02*
X-140219D01*
X-159283Y252339D02*
X-140219D01*
X164500Y-109500D02*
X170833D01*
X177167D01*
X183500D01*
X-39500Y191000D02*
X-36000Y187500D01*
X121280Y-213953D02*
X123284Y-215957D01*
X150500Y-133000D02*
Y-126500D01*
D22*
X-25784Y232500D02*
X9500D01*
X-51468Y258185D02*
X-25784Y232500D01*
X8500Y247000D02*
X19500D01*
X185Y238685D02*
X8500Y247000D01*
X-19685Y238685D02*
X185D01*
X19500Y262000D02*
Y265500D01*
X-1846Y240653D02*
X19500Y262000D01*
X-15154Y240653D02*
X-1846D01*
X14500Y261000D02*
Y272437D01*
X-3878Y242622D02*
X14500Y261000D01*
X-14106Y242622D02*
X-3878D01*
X-20484Y249000D02*
Y256484D01*
Y249000D02*
X-14106Y242622D01*
X-48051Y284051D02*
X-16500D01*
X-62429Y298429D02*
X-48051Y284051D01*
X-62429Y298429D02*
Y309429D01*
X-121043Y207772D02*
Y216043D01*
X-125315Y203500D02*
X-121043Y207772D01*
X-135500Y203500D02*
X-125315D01*
X-118500Y207331D02*
Y221000D01*
X-125491Y200339D02*
X-118500Y207331D01*
X-140219Y200339D02*
X-125491D01*
X-115728Y206272D02*
Y223272D01*
X-125500Y196500D02*
X-115728Y206272D01*
X-136500Y196500D02*
X-125500D01*
X-113760Y204740D02*
Y217740D01*
X-124461Y194039D02*
X-113760Y204740D01*
X-135461Y194039D02*
X-124461D01*
X-108051Y195449D02*
Y209500D01*
X-108500Y195000D02*
X-108051Y195449D01*
X89000Y195500D02*
X94000Y200500D01*
X-9500Y195500D02*
X89000D01*
X-19500Y205500D02*
X-9500Y195500D01*
X83500Y198000D02*
X89500Y204000D01*
X-3784Y198000D02*
X83500D01*
X-10392Y204608D02*
X-3784Y198000D01*
X1000Y203500D02*
X7500D01*
X-9209Y213709D02*
X1000Y203500D01*
X-29791Y213709D02*
X-9209D01*
X7500Y203500D02*
X9500Y205500D01*
X-31000Y217500D02*
X-7000D01*
X-35500Y213000D02*
X-31000Y217500D01*
X-35500Y200500D02*
Y213000D01*
X-33500Y210000D02*
X-29791Y213709D01*
X-38500Y197500D02*
X-35500Y200500D01*
X-51500Y197500D02*
X-38500D01*
X-37000Y195500D02*
X-33500Y199000D01*
X-81500Y195500D02*
X-37000D01*
X-33500Y199000D02*
Y210000D01*
X-59500Y205500D02*
X-51500Y197500D01*
X-89500Y203500D02*
X-81500Y195500D01*
X-1500Y226000D02*
X500Y224000D01*
X-29606Y226000D02*
X-1500D01*
X-39500Y216106D02*
X-29606Y226000D01*
X144300Y259661D02*
X144500D01*
X141140Y256500D02*
X144300Y259661D01*
X141140Y244140D02*
Y256500D01*
X141000Y244000D02*
X141140Y244140D01*
X145500Y238500D02*
X146500Y239500D01*
Y249000D01*
X273974Y-65026D02*
X280500D01*
X269000Y-70000D02*
X273974Y-65026D01*
X269000Y-80000D02*
Y-70000D01*
X278000Y-84091D02*
X301909Y-108000D01*
X278000Y-84091D02*
Y-76000D01*
X299000Y-125500D02*
Y-110000D01*
X269000Y-80000D02*
X299000Y-110000D01*
X238333Y-139167D02*
X290333D01*
X233687Y-143813D02*
X238333Y-139167D01*
X233687Y-161313D02*
Y-143813D01*
X211036Y-186748D02*
X212752D01*
X208847Y-188937D02*
X211036Y-186748D01*
X207322Y-188937D02*
X208847D01*
X206290Y-189969D02*
X207322Y-188937D01*
X208032Y-186969D02*
X233687Y-161313D01*
X194358Y-186969D02*
X208032D01*
X212752Y-186748D02*
X236661Y-162839D01*
X238500D01*
X219032Y-192469D02*
X233000Y-178500D01*
X215011Y-192469D02*
X219032D01*
X110500Y-128000D02*
Y-126500D01*
X101000Y-137500D02*
X110500Y-128000D01*
X93500Y-137500D02*
X101000D01*
X121000Y-142000D02*
Y-137500D01*
Y-142000D02*
X125000Y-146000D01*
X141000D01*
X117500Y-175000D02*
X120721Y-178220D01*
X110366Y-175000D02*
X117500D01*
X98000Y-170000D02*
X107500D01*
X86120Y-158120D02*
X98000Y-170000D01*
X86120Y-158120D02*
Y-150620D01*
X148878Y-204122D02*
Y-199122D01*
X147500Y-205500D02*
X148878Y-204122D01*
X147500Y-240222D02*
Y-205500D01*
X152000Y-206000D02*
Y-200500D01*
X150000Y-208000D02*
X152000Y-206000D01*
X150000Y-233200D02*
Y-208000D01*
X152000Y-200500D02*
X161531Y-190969D01*
X160031Y-187969D02*
X167858D01*
X148878Y-199122D02*
X160031Y-187969D01*
X161531Y-190969D02*
X169358D01*
X111000Y-248177D02*
Y-242500D01*
X107177Y-252000D02*
X111000Y-248177D01*
X100000Y-252000D02*
X107177D01*
X111000Y-242500D02*
X119000Y-234500D01*
X104279Y-246953D02*
Y-243000D01*
X107280Y-240000D01*
Y-228500D01*
X119953Y-227453D02*
X121280D01*
X113453Y-220953D02*
X119953Y-227453D01*
X112279Y-220953D02*
X113453D01*
X-230500Y-228000D02*
X-209000D01*
X-238000Y-220500D02*
X-230500Y-228000D01*
X-238000Y-220500D02*
Y-176000D01*
X-228000Y-166000D01*
X-161500Y-229500D02*
Y-215000D01*
X-166000Y-210500D02*
X-161500Y-215000D01*
X-196000Y-210500D02*
X-166000D01*
X-184232Y-252232D02*
X-161500Y-229500D01*
X-184232Y-256232D02*
Y-252232D01*
X-194000Y-131000D02*
Y-53000D01*
X-200500Y-137500D02*
X-194000Y-131000D01*
X-208000Y-137500D02*
X-197000Y-126500D01*
Y-54500D01*
X-195500Y-214500D02*
X-177000D01*
X-209000Y-228000D02*
X-195500Y-214500D01*
X-228000Y-166000D02*
Y-142500D01*
X-230500Y-164000D02*
Y-141500D01*
X-236474Y-169974D02*
X-230500Y-164000D01*
X-209051Y-129051D02*
Y-126500D01*
X-225500Y-145500D02*
X-209051Y-129051D01*
X-225500Y-168000D02*
Y-145500D01*
X-203500Y-43500D02*
X-194000Y-53000D01*
X-203500Y-43500D02*
Y126000D01*
X-205621Y-45879D02*
X-197000Y-54500D01*
X-210000Y-49500D02*
X-202500Y-57000D01*
Y-77500D02*
Y-57000D01*
X-214957Y-89957D02*
X-202500Y-77500D01*
X200000Y-49000D02*
Y160500D01*
X185500Y175000D02*
X200000Y160500D01*
X150000Y175000D02*
X185500D01*
X128500Y196500D02*
X150000Y175000D01*
X190250Y210250D02*
Y222250D01*
X183500Y229000D02*
X190250Y222250D01*
X142500Y229000D02*
X183500D01*
X194500Y212000D02*
Y224000D01*
X187000Y231500D02*
X194500Y224000D01*
X145500Y231500D02*
X187000D01*
X137000Y234500D02*
X142500Y229000D01*
X131449Y234500D02*
X137000D01*
X110000Y239500D02*
X112551D01*
X97031Y226532D02*
X110000Y239500D01*
X97031Y214968D02*
Y226532D01*
X106500Y196500D02*
X128500D01*
X151000Y177500D02*
X186828D01*
X129500Y199000D02*
X151000Y177500D01*
X108000Y199000D02*
X129500D01*
X103138Y203862D02*
X108000Y199000D01*
X100500Y202500D02*
X106500Y196500D01*
X100500Y202500D02*
Y211500D01*
X103138Y203862D02*
Y212362D01*
X99106Y216394D02*
X103138Y212362D01*
X99106Y216394D02*
Y224106D01*
X97031Y214968D02*
X100500Y211500D01*
X94000Y200500D02*
Y209500D01*
X91701Y211799D02*
X94000Y209500D01*
X85799Y211799D02*
X91701D01*
X99106Y224106D02*
X109500Y234500D01*
X112551D01*
X122126Y240626D02*
Y260374D01*
X97500Y285000D02*
X122126Y260374D01*
X53500Y285000D02*
X97500D01*
X96500Y281000D02*
X120000Y257500D01*
X53634Y281000D02*
X96500D01*
X52634Y282000D02*
X53634Y281000D01*
X51500Y287000D02*
X53500Y285000D01*
X36000Y308000D02*
X51429D01*
X21500Y293500D02*
X36000Y308000D01*
X13500Y293500D02*
X21500D01*
X35500Y303500D02*
X76000D01*
X23000Y291000D02*
X35500Y303500D01*
X16500Y291000D02*
X23000D01*
X13500Y288000D02*
X16500Y291000D01*
X8500Y288500D02*
X13500Y293500D01*
X20000Y296500D02*
X30000Y306500D01*
X12000Y296500D02*
X20000D01*
X3500Y288000D02*
X12000Y296500D01*
X4750Y294250D02*
Y295250D01*
X-1500Y288000D02*
X4750Y294250D01*
X-1500Y284051D02*
Y288000D01*
X-20500Y296000D02*
X-16500D01*
X-25000Y300500D02*
X-20500Y296000D01*
X-25000Y300500D02*
Y309500D01*
X-18000Y293500D02*
X-11500Y287000D01*
X-28500Y293500D02*
X-18000D01*
X-39357Y304357D02*
X-28500Y293500D01*
X-16500Y296000D02*
X-6500Y286000D01*
X-11500Y284051D02*
Y287000D01*
X-29500Y265500D02*
X-20484Y256484D01*
X-37250Y246750D02*
Y249250D01*
X-49500Y261500D02*
X-37250Y249250D01*
X-49500Y261500D02*
Y265500D01*
X-37250Y246750D02*
X-25000Y234500D01*
X-41750Y258250D02*
X-32750D01*
X-45000Y261500D02*
X-41750Y258250D01*
X-45000Y261500D02*
Y269000D01*
X-39500Y205500D02*
Y216106D01*
X-97000Y231003D02*
Y245000D01*
X-105000Y253000D02*
X-97000Y245000D01*
X-105000Y253000D02*
Y273000D01*
X-103503Y224500D02*
X-97000Y231003D01*
X-101874Y253658D02*
X-94000Y245784D01*
Y229000D02*
Y245784D01*
X-103500Y219500D02*
X-94000Y229000D01*
X-101122Y276878D02*
X-39256D01*
X-105000Y273000D02*
X-101122Y276878D01*
X-118000Y-151000D02*
X-116500Y-152142D01*
X-112675Y-209845D02*
X-111055Y-208224D01*
X-120175Y-209845D02*
X-112675D01*
X-121331Y-211000D02*
X-120175Y-209845D01*
X237442Y-135942D02*
X288558D01*
X299000Y-125500D01*
X231055Y-142329D02*
X237442Y-135942D01*
X290333Y-139167D02*
X301909Y-127591D01*
Y-108000D01*
X-6500Y246500D02*
Y252500D01*
X-19500Y265500D02*
X-6500Y252500D01*
X58000Y240500D02*
Y257000D01*
X49500Y252606D02*
Y265500D01*
X44378Y247484D02*
X49500Y252606D01*
X44378Y238378D02*
Y247484D01*
X54500Y237000D02*
X58000Y240500D01*
X47000Y237000D02*
X54500D01*
X19500Y247000D02*
X30500Y236000D01*
X15500Y244000D02*
X23500Y236000D01*
X9016Y244000D02*
X15500D01*
X1732Y236717D02*
X9016Y244000D01*
X-1063Y272437D02*
X22563D01*
X36500Y226500D02*
X47000Y237000D01*
X39000Y287000D02*
X51500D01*
X41000Y282000D02*
X52634D01*
X81532Y274969D02*
X88500Y268000D01*
X-9500Y271500D02*
X-6032Y274969D01*
X81532D01*
X52000Y273000D02*
X54500Y270500D01*
X43000Y273000D02*
X52000D01*
X39500Y269500D02*
X43000Y273000D01*
X54500Y260500D02*
Y270500D01*
X-34500Y247000D02*
X-24217Y236717D01*
X-23000Y242000D02*
X-19685Y238685D01*
X-32750Y258250D02*
X-15154Y240653D01*
X-24217Y236717D02*
X1732D01*
X31500Y188500D02*
X33500Y186500D01*
X31500Y188500D02*
Y191000D01*
X32508Y179508D02*
X37992Y184992D01*
Y190492D01*
X38500Y191000D01*
X39500Y224000D02*
X40500D01*
X500D02*
X39500D01*
X-34500Y247000D02*
Y253000D01*
X5000Y234500D02*
X9500Y239000D01*
X-25000Y234500D02*
X5000D01*
X-51468Y258185D02*
Y258469D01*
X-58500Y265500D02*
X-51468Y258469D01*
X-55500Y259000D02*
X-25000Y228500D01*
X5000D01*
X-227949Y-111500D02*
X-221000D01*
X107280Y-228500D02*
X107327Y-228453D01*
X113779D01*
X108000Y-214500D02*
X115500D01*
X107280Y-215220D02*
X108000Y-214500D01*
X107280Y-228500D02*
Y-215220D01*
X-45000Y-143256D02*
Y-143000D01*
Y-143256D02*
X-41878Y-146378D01*
X13500Y302949D02*
Y307500D01*
Y301449D02*
Y302949D01*
X-149270Y233730D02*
Y241230D01*
X-144500Y246000D01*
X-136000D01*
X-129500Y239500D01*
X-126949D01*
X-151238Y234545D02*
Y242262D01*
X-144669Y248831D01*
X-131280D01*
X-126949Y244500D01*
X195858Y-181020D02*
X209480D01*
X142500Y-136700D02*
X144500Y-134700D01*
Y-126000D01*
X143862Y-125362D02*
X144500Y-126000D01*
X141000Y-146000D02*
Y-144500D01*
X-19508Y162500D02*
X-18500D01*
X-21008Y164000D02*
X-19508Y162500D01*
X-21008Y164000D02*
Y169508D01*
X-23228D02*
X-21008D01*
X-27992D02*
X-23228D01*
X-30500Y167000D02*
X-27992Y169508D01*
X-30500Y162500D02*
Y167000D01*
X-36300Y162800D02*
X-36000Y162500D01*
X-36300Y162800D02*
Y171000D01*
X-39808Y174508D02*
X-36300Y171000D01*
X-213000Y-61500D02*
X-212000Y-60500D01*
X-213000Y-66500D02*
Y-61500D01*
X-234500Y-156000D02*
Y-141000D01*
X-210500Y-225000D02*
X-196000Y-210500D01*
X-235000Y-177500D02*
X-225500Y-168000D01*
X-127535Y-233224D02*
X-114055D01*
X-131055Y-229705D02*
X-127535Y-233224D01*
X-136173Y-238606D02*
X-128055Y-246724D01*
X-136173Y-238606D02*
Y-208673D01*
X-133724Y-206224D01*
X-131055D01*
X-126106D02*
X-121331Y-211000D01*
X-131055Y-206224D02*
X-126106D01*
X-125055Y-214724D02*
X-121331Y-211000D01*
X101000Y241000D02*
Y263000D01*
Y241000D02*
X102500Y239500D01*
X97000Y267000D02*
X101000Y263000D01*
X-190410Y-54910D02*
X-189000Y-53500D01*
X23228Y179508D02*
X32508D01*
X-108051Y214500D02*
X-102000D01*
X-97000Y219500D01*
X200000Y-49000D02*
X221500Y-70500D01*
Y-124000D02*
Y-70500D01*
Y-124000D02*
X223031Y-125531D01*
Y-139969D02*
Y-125531D01*
X220500Y-142500D02*
X223031Y-139969D01*
X223500Y-123036D02*
Y-69672D01*
Y-123036D02*
X225000Y-124536D01*
Y-147000D02*
Y-124536D01*
X-177500Y-163500D02*
X-170167D01*
X-162833D01*
X-155500D01*
X-215500Y-130000D02*
Y-124000D01*
X-234500Y-141000D02*
X-221500Y-128000D01*
X-218500Y-129500D02*
Y-121500D01*
X-230500Y-141500D02*
X-218500Y-129500D01*
X-221500Y-128000D02*
Y-119500D01*
X-48500Y272500D02*
X-45000Y269000D01*
X-72500Y272500D02*
X-48500D01*
X-39357Y304357D02*
Y313000D01*
X51429Y308000D02*
X52929Y309500D01*
X49500Y214000D02*
Y216000D01*
X40500Y225000D02*
X49500Y216000D01*
X39500Y224000D02*
X40500Y225000D01*
Y224000D02*
Y225000D01*
X5000Y228500D02*
X5500Y228000D01*
X48500Y214000D02*
X49500D01*
X40500Y238500D02*
Y254500D01*
X33500Y231500D02*
X40500Y238500D01*
X35000Y229000D02*
X44378Y238378D01*
X15500Y226500D02*
X36500D01*
X9500Y232500D02*
X15500Y226500D01*
X19500Y229000D02*
X35000D01*
X9500Y239000D02*
X19500Y229000D01*
X28000Y231500D02*
X33500D01*
X23500Y236000D02*
X28000Y231500D01*
X-125055Y-221724D02*
Y-214724D01*
Y-221724D02*
X-118555Y-228224D01*
X-120055Y-220724D02*
X-113555Y-227224D01*
X-111055D01*
X99000Y-237213D02*
X101279Y-234933D01*
X99000Y-251000D02*
Y-237213D01*
Y-251000D02*
X100000Y-252000D01*
X101279Y-227453D02*
Y-214721D01*
X101500Y-214500D01*
X-9500Y265500D02*
X-5500Y261500D01*
X2000D01*
X-89500Y203500D02*
Y205500D01*
X39500D02*
Y210000D01*
X35791Y213709D02*
X39500Y210000D01*
Y265500D02*
Y269500D01*
X6500Y213709D02*
X35791D01*
X2500Y209000D02*
Y209709D01*
X6500Y213709D01*
X1500Y209000D02*
X2500D01*
X-7000Y217500D02*
X1500Y209000D01*
X89500Y204000D02*
Y205500D01*
X79500D02*
X85799Y211799D01*
X-3500Y270000D02*
X-1063Y272437D01*
X22563D02*
X29500Y265500D01*
X-9500D02*
Y271500D01*
X13500Y284051D02*
Y288000D01*
X8500Y284051D02*
Y288500D01*
X3500Y284051D02*
Y288000D01*
X-79500Y265500D02*
X-72500Y272500D01*
X-79500Y265500D02*
X-73000Y259000D01*
X54500Y260500D02*
X58000Y257000D01*
X-59500Y265500D02*
X-58500D01*
X-73000Y259000D02*
X-55500D01*
X-23228Y174508D02*
X-14992D01*
X-10858Y178642D01*
X-5847D01*
X-23228Y179508D02*
X-15992D01*
X-11500Y184000D01*
X-2543D01*
X0Y181457D01*
X5847Y178642D02*
X6713Y179508D01*
X23228D01*
X7291Y172311D02*
X11311D01*
X13508Y174508D01*
X23228D01*
X-53492D02*
X-43701D01*
X-140219Y252339D02*
X-127154D01*
X-120500Y245685D01*
Y236500D02*
Y245685D01*
X-122500Y234500D02*
X-120500Y236500D01*
X-126949Y234500D02*
X-122500D01*
X-140219Y260339D02*
X-131670D01*
X-118500Y247169D01*
Y233000D02*
Y247169D01*
X-122000Y229500D02*
X-118500Y233000D01*
X-126949Y229500D02*
X-122000D01*
X-200410Y208526D02*
Y209591D01*
Y200526D02*
X-196974D01*
X-140500Y208500D02*
X-135500Y203500D01*
X-126949Y224500D02*
X-122000D01*
X148500Y267000D02*
Y278500D01*
X127000Y224500D02*
X131449D01*
X133528Y199472D02*
X141221D01*
X123000Y210000D02*
X133528Y199472D01*
X123000Y210000D02*
X123031Y210032D01*
Y226031D01*
X126500Y229500D01*
X131449D01*
Y219500D02*
X138000D01*
X131449Y239500D02*
X137500D01*
X145500Y231500D01*
X190250Y210250D02*
X193026Y207474D01*
X207000D01*
X204000Y178500D02*
X231957D01*
X140000Y214500D02*
X141000Y215500D01*
X131449Y214500D02*
X140000D01*
X138000Y219500D02*
X140500Y222000D01*
X145500D01*
X-212000Y-101500D02*
X-209051D01*
X-214957Y-98543D02*
X-212000Y-101500D01*
X-218000D02*
X-213000Y-106500D01*
X-209051D01*
X-213000Y-121500D02*
X-209051D01*
X-215500Y-124000D02*
X-213000Y-121500D01*
X-218500D02*
X-213500Y-116500D01*
X-209051D01*
X-221500Y-119500D02*
X-213500Y-111500D01*
X-209051D01*
X190858Y-183468D02*
Y-181020D01*
Y-183468D02*
X194358Y-186969D01*
X185858Y-184968D02*
Y-181020D01*
Y-184968D02*
X190858Y-189969D01*
X180858Y-183968D02*
Y-181020D01*
Y-183968D02*
X189358Y-192469D01*
X170858Y-184968D02*
Y-181020D01*
X167858Y-187969D02*
X170858Y-184968D01*
X175858Y-184468D02*
Y-181020D01*
X169358Y-190969D02*
X175858Y-184468D01*
X155117Y-247839D02*
X156640D01*
X229153Y-102488D02*
X236500D01*
X229354Y-121500D02*
X236500D01*
X189358Y-192469D02*
X215011D01*
X190858Y-189969D02*
X206290D01*
X-214957Y-98543D02*
Y-89957D01*
X-218000Y-87500D02*
X-206500Y-76000D01*
X-218000Y-101500D02*
Y-87500D01*
X-273719Y-64159D02*
X-259060Y-49500D01*
X-210000D01*
X-213000Y-52500D02*
X-206500Y-59000D01*
Y-76000D02*
Y-59000D01*
X-273719Y-72159D02*
X-254060Y-52500D01*
X-213000D01*
Y-76551D02*
Y-72000D01*
X-227949Y-91500D02*
X-213000Y-76551D01*
X30000Y306500D02*
Y313000D01*
X-25000Y309500D02*
X-20500Y314000D01*
X-16286D01*
X18500Y301449D02*
Y302000D01*
X23500Y307000D01*
X108736Y224500D02*
X112551D01*
X125543Y211787D02*
X129859Y207472D01*
X125543Y211787D02*
Y223043D01*
X127000Y224500D01*
X108500Y244500D02*
X112551D01*
X106843Y243843D02*
X107000Y244000D01*
X12000Y309000D02*
X13500Y307500D01*
X-11500Y301449D02*
Y308784D01*
X-11142Y309142D01*
X-124500Y219500D02*
X-121043Y216043D01*
X-122000Y224500D02*
X-118500Y221000D01*
X-205621Y-45879D02*
Y127379D01*
X-115728Y223272D02*
X-114500Y224500D01*
X-108051D01*
X112551Y234500D02*
X116000D01*
X122126Y240626D01*
X202000Y-48172D02*
X223500Y-69672D01*
X202000Y-48172D02*
Y162328D01*
X186828Y177500D02*
X202000Y162328D01*
X-244000Y-106500D02*
X-227949D01*
X-227449D01*
X-113760Y217740D02*
X-112000Y219500D01*
X-108051D01*
X170858Y-210358D02*
X171500Y-211000D01*
X170858Y-210358D02*
Y-199917D01*
X112551Y239500D02*
X117000D01*
X120000Y242500D01*
Y257500D01*
X-238500Y-101500D02*
X-227949D01*
X-227449D01*
X-244000Y-96000D02*
X-238500Y-101500D01*
X-253000Y-96000D02*
X-244000D01*
X-256000Y-99000D02*
X-253000Y-96000D01*
X-256000Y-100500D02*
Y-99000D01*
X-262500Y-100500D02*
X-256000D01*
X-249500Y-112000D02*
X-244000Y-106500D01*
X-251500Y-112000D02*
X-249500D01*
X-256000Y-107500D02*
X-251500Y-112000D01*
X-263500Y-107500D02*
X-256000D01*
X-101874Y253658D02*
Y271619D01*
X-108051Y224500D02*
X-103503D01*
X194526Y199474D02*
X200410D01*
X194500Y199500D02*
X194526Y199474D01*
X3500Y300000D02*
Y302949D01*
X-1500Y295000D02*
X3500Y300000D01*
X8500Y302949D02*
Y306000D01*
X0Y314500D02*
X8500Y306000D01*
X0Y314500D02*
Y316000D01*
X29500Y283000D02*
X35000D01*
X39000Y287000D01*
X-62429Y309429D02*
Y309500D01*
X-62500D02*
X-62429Y309429D01*
X-6500Y284051D02*
Y286000D01*
Y298500D02*
Y302949D01*
X-10000Y295000D02*
X-6500Y298500D01*
X-100493Y273000D02*
X-84500D01*
X-101874Y271619D02*
X-100493Y273000D01*
X-39256Y276878D02*
X-39000Y277134D01*
X-108051Y219500D02*
X-103500D01*
X-205621Y127379D02*
X-136500Y196500D01*
X-203500Y126000D02*
X-135461Y194039D01*
X-208000Y-142000D02*
Y-137500D01*
X-237000Y-117500D02*
X-236000Y-116500D01*
X-227949D01*
X-213500Y-182500D02*
Y-172000D01*
X-212000Y-170500D02*
X-210000D01*
X-213500Y-172000D02*
X-212000Y-170500D01*
X-190410Y-159910D02*
Y-54910D01*
X-228000Y-142500D02*
X-215500Y-130000D01*
X188661Y-153370D02*
X197161D01*
X147500Y-240222D02*
X155117Y-247839D01*
X150000Y-233200D02*
X156640Y-239839D01*
X154500Y-216000D02*
Y-211500D01*
X154000Y-211000D02*
X154500Y-211500D01*
X160000Y-216000D02*
X160858Y-215142D01*
Y-199917D01*
X172500Y-164500D02*
Y-153500D01*
Y-164500D02*
X174500Y-166500D01*
X-118000Y-151000D02*
X-117858Y-151142D01*
X-41878Y-146378D02*
X81878D01*
X107299Y-162067D02*
Y-158299D01*
X103500Y-154500D02*
X107299Y-158299D01*
X81878Y-146378D02*
X86120Y-150620D01*
X107299Y-178067D02*
X110366Y-175000D01*
X129859Y207472D02*
X146721D01*
X209480Y-181020D02*
X231055Y-159445D01*
Y-142329D01*
X-196974Y200526D02*
X-192000Y205500D01*
X-154284Y231500D02*
X-151238Y234545D01*
X-192000Y205500D02*
Y222500D01*
X-183000Y231500D01*
X-154284D01*
X-186500Y208500D02*
Y225000D01*
X-182000Y229500D01*
X-153500D01*
X-149270Y233730D01*
X231957Y178500D02*
X238270Y184813D01*
X-235000Y-219500D02*
Y-177500D01*
Y-219500D02*
X-229500Y-225000D01*
X-210500D01*
D23*
X-102500Y190000D02*
Y206500D01*
X-119500Y173000D02*
X-102500Y190000D01*
X-153143Y173000D02*
X-119500D01*
X-201630Y124513D02*
X-153143Y173000D01*
X-153272Y170228D02*
X-118272D01*
X-100279Y188221D02*
Y205221D01*
X-118272Y170228D02*
X-100279Y188221D01*
X-199858Y123642D02*
X-153272Y170228D01*
X-80311Y228689D02*
Y237000D01*
X-102500Y206500D02*
X-80311Y228689D01*
X-100279Y205221D02*
X-68500Y237000D01*
X261000Y-106868D02*
X262368Y-105500D01*
X268000D01*
X257250Y-106868D02*
X261000D01*
X100500Y-126500D02*
X105500Y-121500D01*
Y-108000D01*
X100500Y-126500D02*
Y-124609D01*
X80000Y-149000D02*
X83228Y-152228D01*
Y-161728D02*
Y-152228D01*
Y-161728D02*
X94500Y-173000D01*
X-89000Y-202000D02*
X-86000Y-205000D01*
X-122500Y-202000D02*
X-89000D01*
X-104370Y-182130D02*
X41370D01*
X-106500Y-180000D02*
X-104370Y-182130D01*
X-110500Y-180000D02*
X-106500D01*
X-121500Y-160000D02*
X-119000Y-162500D01*
X-115000D01*
X-110500Y-167000D01*
Y-174500D02*
Y-167000D01*
X-116000Y-180000D02*
X-110500Y-174500D01*
X-121500Y-160000D02*
Y-146000D01*
X-123500Y-174000D02*
Y-149000D01*
X-125721Y-176221D02*
X-123500Y-174000D01*
X-125721Y-185780D02*
Y-176221D01*
X-128000Y-144500D02*
X-123500Y-149000D01*
X-139000Y-128500D02*
X-121500Y-146000D01*
X-162500Y-206000D02*
X-155500Y-199000D01*
Y-171796D01*
X-187000Y-206000D02*
X-162500D01*
X-198500Y-194500D02*
X-187000Y-206000D01*
X-198500Y-194500D02*
Y-189500D01*
X-200500Y-187500D02*
X-198500Y-189500D01*
X-206500Y-187500D02*
X-200500D01*
X-208500Y-189500D02*
X-206500Y-187500D01*
X-208500Y-196000D02*
Y-189500D01*
X-180000Y-67000D02*
Y-51500D01*
X-199858Y-31642D02*
X-180000Y-51500D01*
X-199858Y-31642D02*
Y123642D01*
X-185221Y-55066D02*
Y-50279D01*
X-201630Y-33870D02*
X-185221Y-50279D01*
X-201630Y-33870D02*
Y124513D01*
X-141779Y43220D02*
Y72737D01*
X-157000Y28000D02*
X-141779Y43220D01*
X-157000Y-43517D02*
Y28000D01*
X198130Y-43091D02*
Y158870D01*
X184500Y172500D02*
X198130Y158870D01*
X149000Y172500D02*
X184500D01*
X127693Y193807D02*
X149000Y172500D01*
X105693Y193807D02*
X127693D01*
X126693Y191807D02*
X148000Y170500D01*
X104193Y191807D02*
X126693D01*
X148000Y170500D02*
X183500D01*
X98500Y201000D02*
X105693Y193807D01*
X98500Y201000D02*
Y210855D01*
X96500Y199500D02*
X104193Y191807D01*
X96500Y199500D02*
Y210000D01*
X95000Y214355D02*
Y236500D01*
Y214355D02*
X98500Y210855D01*
X83189Y223311D02*
X96500Y210000D01*
X83189Y223311D02*
Y236500D01*
X-89000Y258500D02*
X-86500Y256000D01*
X-92563Y258500D02*
X-89000D01*
X-97500Y263437D02*
X-92563Y258500D01*
X94500Y-173000D02*
X127000D01*
X120280Y-156500D02*
Y-147767D01*
X112986Y-140474D02*
X120280Y-147767D01*
X-125721Y-185780D02*
X-119500Y-192000D01*
X-116000D01*
X-133000Y-191500D02*
X-122500Y-202000D01*
X267882Y-94118D02*
X268000Y-94000D01*
X257500Y-94118D02*
X267882D01*
X-151000Y-145000D02*
X-148721Y-147280D01*
X-151000Y-145000D02*
Y-137000D01*
X-155000Y-133000D02*
X-151000Y-137000D01*
X-170000Y-133000D02*
X-155000D01*
X-148721Y-165017D02*
Y-147280D01*
X-171000Y-134000D02*
X-170000Y-133000D01*
X-171000Y-137250D02*
Y-134000D01*
X-177500Y-137000D02*
Y-132500D01*
X-173500Y-128500D01*
X-139000D01*
X-188279Y-154160D02*
X-183876Y-158563D01*
Y-171624D02*
Y-158563D01*
Y-171624D02*
X-169500Y-186000D01*
X-86000Y-171000D02*
X-64000Y-149000D01*
X46000Y-177500D02*
X63000D01*
X41370Y-182130D02*
X46000Y-177500D01*
X189500Y-41500D02*
X196000Y-35000D01*
Y158000D01*
X-58551Y165279D02*
X-57500Y166331D01*
X-58551Y155965D02*
Y165279D01*
X-141779Y72737D02*
X-58551Y155965D01*
X-157000Y-43517D02*
X-124279Y-76237D01*
Y-110263D02*
Y-76237D01*
X-128737Y-114720D02*
X-124279Y-110263D01*
X-176737Y-114720D02*
X-128737D01*
X-188279Y-126263D02*
X-176737Y-114720D01*
X-188279Y-154160D02*
Y-126263D01*
X-169500Y-199500D02*
X-167000Y-202000D01*
X-169500Y-199500D02*
Y-192500D01*
X105500Y-108000D02*
X132000Y-81500D01*
X164500D01*
X-223500Y-192500D02*
X-218500Y-197500D01*
X-210000D01*
X-208500Y-196000D01*
X-155500Y-171796D02*
X-148721Y-165017D01*
X-131055Y-222224D02*
Y-211724D01*
X183500Y170500D02*
X196000Y158000D01*
X-86500Y243500D02*
X-80311Y237311D01*
X-86500Y243500D02*
Y256000D01*
X-80311Y237000D02*
Y237311D01*
X-97500Y263437D02*
Y268500D01*
X-185253Y-55098D02*
X-185221Y-55066D01*
X-185253Y-62253D02*
Y-55098D01*
X-186500Y-63500D02*
X-185253Y-62253D01*
X161500Y-88000D02*
X161779Y-88279D01*
X-140500Y-144500D02*
X-128000D01*
X-212000Y-147500D02*
X-208000Y-151500D01*
X-219500Y-147500D02*
X-212000D01*
X-212500Y-166000D02*
X-208000Y-161500D01*
X-219500Y-166000D02*
X-212500D01*
X187000Y-47500D02*
X193720D01*
X198130Y-43091D01*
X-64000Y-149000D02*
X80000D01*
X127000Y-173000D02*
X129000Y-171000D01*
X113000Y-170000D02*
X116640Y-166360D01*
X116598Y-160181D02*
X120280Y-156500D01*
X116598Y-166319D02*
Y-160181D01*
Y-166319D02*
X116640Y-166360D01*
X-46693Y187500D02*
X-43701Y184508D01*
X-57500Y166331D02*
Y185500D01*
X-55500Y187500D01*
X-46693D01*
D24*
X150986Y-32014D02*
Y34486D01*
X141213Y-41787D02*
X150986Y-32014D01*
X141213Y-51713D02*
Y-41787D01*
X144406Y-42594D02*
X153000Y-34000D01*
X144406Y-51906D02*
Y-42594D01*
X153000Y-34000D02*
Y35000D01*
X144406Y-51906D02*
X171500Y-79000D01*
X212500Y-106500D02*
X215500Y-109500D01*
Y-133000D02*
Y-109500D01*
X211000Y-137500D02*
X215500Y-133000D01*
X214500Y-101000D02*
X217500Y-104000D01*
Y-135000D02*
Y-104000D01*
X213500Y-139000D02*
X217500Y-135000D01*
X204500Y-65000D02*
X216500Y-77000D01*
Y-87500D02*
Y-77000D01*
X208500Y-95500D02*
X216500Y-87500D01*
X208500Y-116000D02*
Y-95500D01*
X169500Y-57000D02*
X178000Y-65500D01*
Y-85000D02*
Y-65500D01*
X192750Y-77250D02*
Y-72994D01*
X191000Y-71244D02*
X192750Y-72994D01*
X191000Y-71244D02*
Y-65000D01*
X182213Y-87787D02*
X192750Y-77250D01*
X169213Y-90787D02*
Y-79713D01*
X141213Y-51713D02*
X169213Y-79713D01*
X171500Y-92500D02*
Y-79000D01*
X158787Y-105213D02*
X171500Y-92500D01*
X173000Y-68500D02*
X174000Y-69500D01*
Y-93555D02*
Y-69500D01*
X160575Y-106981D02*
X174000Y-93555D01*
X158787Y-122287D02*
Y-105213D01*
X157000Y-103000D02*
X169213Y-90787D01*
X157000Y-124500D02*
Y-103000D01*
X177475Y-124975D02*
X189025D01*
X195000Y-135839D02*
X197161Y-138000D01*
X195000Y-135839D02*
Y-130000D01*
X197161Y-147870D02*
Y-138000D01*
X219622Y-136378D02*
Y-73622D01*
X216000Y-140000D02*
X219622Y-136378D01*
X216000Y-162000D02*
Y-140000D01*
X213500Y-160500D02*
Y-139000D01*
X211000Y-159500D02*
Y-137500D01*
X201000Y-173000D02*
X213500Y-160500D01*
X199500Y-171000D02*
X211000Y-159500D01*
X203213Y-174787D02*
X216000Y-162000D01*
X158713Y-174787D02*
X203213D01*
X157500Y-173000D02*
X201000D01*
X156500Y-171000D02*
X199500D01*
X133356Y-197144D02*
X157500Y-173000D01*
X132575Y-194925D02*
X156500Y-171000D01*
X157000Y-124500D02*
X164500Y-132000D01*
Y-135500D02*
Y-132000D01*
X151748Y-121500D02*
X155000Y-124752D01*
Y-136000D02*
Y-124752D01*
X150500Y-140500D02*
X155000Y-136000D01*
X125500Y-121500D02*
X151748D01*
X135500Y-149000D02*
X139000Y-152500D01*
X123000Y-149000D02*
X135500D01*
X139000Y-152500D02*
X143500D01*
X122213Y-149787D02*
X123000Y-149000D01*
X122213Y-156000D02*
Y-149787D01*
X138000Y-205500D02*
Y-195500D01*
X127809Y-194925D02*
X132575D01*
X127500Y-197144D02*
X133356D01*
X138000Y-195500D02*
X158713Y-174787D01*
X138000Y-205500D02*
X143500Y-211000D01*
X111441Y-198559D02*
X114925Y-195075D01*
X111441Y-202941D02*
Y-198559D01*
Y-202941D02*
X115500Y-207000D01*
X117000Y-193287D02*
X117362Y-192925D01*
X114185Y-193287D02*
X117000D01*
X117362Y-192925D02*
X128337D01*
X118138Y-195075D02*
X118500Y-194713D01*
X114925Y-195075D02*
X118138D01*
X118500Y-194713D02*
X127597D01*
X119500Y-196500D02*
X126856D01*
X116677Y-199323D02*
X119500Y-196500D01*
X115104Y-199323D02*
X116677D01*
X128550Y-193138D02*
X131059D01*
X128337Y-192925D02*
X128550Y-193138D01*
X127597Y-194713D02*
X127809Y-194925D01*
X126856Y-196500D02*
X127500Y-197144D01*
X53500Y-187500D02*
X54500Y-186500D01*
X-89500Y-187500D02*
X53500D01*
X-100000Y-198000D02*
X-89500Y-187500D01*
X43780Y-184500D02*
X45779Y-182500D01*
X-100500Y-184500D02*
X43780D01*
X-108000Y-192000D02*
X-100500Y-184500D01*
X-110500Y-192000D02*
X-108000D01*
X-88500Y-175000D02*
X-83361D01*
X-100000Y-163500D02*
X-88500Y-175000D01*
X-100000Y-163500D02*
Y-139500D01*
X-101787Y-164713D02*
X-89713Y-176787D01*
X-101787Y-164713D02*
Y-140240D01*
X-89713Y-176787D02*
X-53787D01*
X-59972Y-151610D02*
X73610D01*
X-83361Y-175000D02*
X-59972Y-151610D01*
X-35000Y-158000D02*
X78500D01*
X-53787Y-176787D02*
X-35000Y-158000D01*
X73610Y-151610D02*
X75000Y-153000D01*
X-165500Y-260500D02*
Y-239925D01*
X-152713Y-153787D02*
X-151500Y-155000D01*
Y-162500D02*
Y-155000D01*
X-152500Y-163500D02*
X-151500Y-162500D01*
X-127500Y-177000D02*
Y-165000D01*
X-158500Y-208000D02*
X-127500Y-177000D01*
X-190500Y-208000D02*
X-158500D01*
X-158000Y-232425D02*
Y-215000D01*
X-165500Y-239925D02*
X-158000Y-232425D01*
Y-215000D02*
X-150500Y-207500D01*
X-157750Y-262250D02*
X-151564D01*
X-147814Y-266000D01*
Y-269314D02*
Y-266000D01*
X-161000Y-259000D02*
Y-246500D01*
Y-259000D02*
X-157750Y-262250D01*
X-161000Y-246500D02*
X-157500Y-243000D01*
X-203500Y-195000D02*
X-190500Y-208000D01*
X-203500Y-195000D02*
Y-192500D01*
X-209063Y-185563D02*
Y-177063D01*
X-213500Y-190000D02*
X-209063Y-185563D01*
X-213500Y-192500D02*
Y-190000D01*
X200287Y-82713D02*
Y-75213D01*
X194500Y-88500D02*
X200287Y-82713D01*
X192000Y-88500D02*
X194500D01*
X126761Y-141350D02*
X133261D01*
X134111Y-140500D01*
X150500D01*
X143500Y-152500D02*
X150000Y-146000D01*
X122213Y-156000D02*
X126221Y-160008D01*
Y-165220D02*
Y-160008D01*
Y-165220D02*
X128000Y-167000D01*
X131059Y-193138D02*
X156500Y-167697D01*
Y-146500D01*
X150500Y-140500D02*
X156500Y-146500D01*
X-110500Y-192000D02*
Y-186000D01*
X-127500Y-165000D02*
X-125500Y-163000D01*
X-140000Y-166500D02*
X-136500Y-163000D01*
X-140000Y-168000D02*
Y-166500D01*
X-136500Y-163000D02*
X-125500D01*
X-136000Y-155000D02*
X-132000D01*
X-144500Y-163500D02*
X-136000Y-155000D01*
X-144500Y-170500D02*
Y-163500D01*
Y-170500D02*
X-140000Y-175000D01*
X-110500Y-198000D02*
X-100000D01*
X-119000D02*
X-116000D01*
X-121500Y-195500D02*
X-119000Y-198000D01*
X203500Y-85000D02*
X206000Y-82500D01*
Y-73000D01*
X185216Y-98826D02*
X189000Y-102610D01*
X179000Y-98826D02*
X185216D01*
X189000Y-114000D02*
Y-102610D01*
X194000Y-120000D02*
Y-103500D01*
X189025Y-124975D02*
X194000Y-120000D01*
X182213Y-91713D02*
X194000Y-103500D01*
X182213Y-91713D02*
Y-87787D01*
X43701Y168272D02*
Y169508D01*
X32500Y174000D02*
X38008Y179508D01*
X43701D01*
X-165500Y-137500D02*
X-164500Y-138500D01*
Y-140000D02*
Y-138500D01*
X-171000Y-146500D02*
X-164500Y-140000D01*
X-175925Y-146500D02*
X-171000D01*
X-178681Y-124500D02*
X-115000D01*
X-184500Y-142000D02*
Y-130319D01*
X-178681Y-124500D01*
X-177941Y-126287D02*
X-115740D01*
X-182500Y-130847D02*
X-177941Y-126287D01*
X-182500Y-139925D02*
Y-130847D01*
Y-139925D02*
X-175925Y-146500D01*
X-115740Y-126287D02*
X-113740Y-128287D01*
X-184500Y-142000D02*
X-177787Y-148713D01*
X-155207D01*
X-181787Y-167660D02*
X-164500Y-184947D01*
X-181787Y-167660D02*
Y-158136D01*
X-186500Y-153423D02*
X-181787Y-158136D01*
X-115000Y-124500D02*
X-100000Y-139500D01*
X-136696Y-128287D02*
X-113740D01*
X-101787Y-140240D01*
X-155207Y-148713D02*
X-154919Y-149000D01*
X-163000Y-152500D02*
X-161713Y-153787D01*
X-152713D01*
X58500Y-182500D02*
X59000Y-182000D01*
X45779Y-182500D02*
X58500D01*
X137213Y48260D02*
X150986Y34486D01*
X137213Y48260D02*
Y74760D01*
X139000Y49000D02*
X153000Y35000D01*
X139000Y49000D02*
Y75500D01*
X-155220Y27000D02*
X-140000Y42221D01*
X-155220Y-42779D02*
Y27000D01*
X-140000Y42221D02*
Y72000D01*
X159147Y-140853D02*
X164500Y-135500D01*
X159147Y-151647D02*
Y-140853D01*
Y-151647D02*
X164000Y-156500D01*
X43701Y168272D02*
X137213Y74760D01*
X-164500Y-195500D02*
Y-184947D01*
X120500Y-126500D02*
X125500Y-121500D01*
X108713Y-205305D02*
X114195Y-210787D01*
X160575Y-121075D02*
Y-106981D01*
Y-121075D02*
X163500Y-124000D01*
X158787Y-122287D02*
X176000Y-139500D01*
X-140000Y72000D02*
X-55500Y156500D01*
Y162500D01*
X-147500Y223500D02*
X-140500Y216500D01*
Y215000D02*
Y216500D01*
X-143000Y-232500D02*
X-140000Y-235500D01*
Y-240000D02*
Y-235500D01*
X-148000Y-248000D02*
X-140000Y-240000D01*
X-153500Y-243000D02*
X-151500Y-241000D01*
Y-218000D01*
X-157500Y-243000D02*
X-153500D01*
X-146787Y-176713D02*
Y-142713D01*
Y-176713D02*
X-142500Y-181000D01*
X-165500Y-260500D02*
X-156500Y-269500D01*
X-148000D02*
X-147814Y-269314D01*
X-151500Y-218000D02*
X-146500Y-213000D01*
Y-203000D01*
X-156000Y-248000D02*
X-148000D01*
X-143000Y-232500D02*
Y-209000D01*
X-141500Y-207500D01*
X-209063Y-177063D02*
X-208500Y-176500D01*
X163500Y-124000D02*
X166000D01*
X207000Y-61000D02*
X219622Y-73622D01*
X189000Y-131528D02*
Y-130000D01*
X206500Y-120000D02*
X211000Y-124500D01*
X208500Y-116000D02*
X210445Y-117945D01*
X211000Y-85500D02*
Y-78500D01*
X-128000Y-116500D02*
X-122500Y-111000D01*
X-155500Y-163500D02*
X-152500D01*
X-133500Y-149500D02*
X-129644D01*
X-43701Y174508D02*
X-39808D01*
X-53500Y174500D02*
X-53492Y174508D01*
X11500Y191000D02*
X16736D01*
X23228Y184508D01*
X26000Y187279D01*
Y191000D01*
X43701Y189701D02*
X45000Y191000D01*
X43701Y184508D02*
Y189701D01*
X23228Y169508D02*
X26000Y166736D01*
Y162500D02*
Y166736D01*
X16220Y162500D02*
X23228Y169508D01*
X43701Y179508D02*
X52008D01*
X52500Y180000D01*
X57000Y157500D02*
Y188000D01*
X50500Y191000D02*
X54000D01*
X57000Y188000D01*
X185000Y-115000D02*
X188000D01*
X57000Y157500D02*
X139000Y75500D01*
X-155220Y-42779D02*
X-122500Y-75500D01*
Y-111000D02*
Y-75500D01*
X-176000Y-116500D02*
X-128000D01*
X-186500Y-127000D02*
X-176000Y-116500D01*
X-186500Y-153423D02*
Y-127000D01*
X188000Y-115000D02*
X189000Y-114000D01*
X200500Y-63000D02*
X202500Y-61000D01*
X207000D01*
X206500Y-90000D02*
X211000Y-85500D01*
X206500Y-120000D02*
Y-90000D01*
X183000Y-81000D02*
Y-71500D01*
X186000Y-68500D01*
X156000Y-57000D02*
X169500D01*
X200500Y-67500D02*
Y-63000D01*
Y-67500D02*
X206000Y-73000D01*
X197500Y-72425D02*
X200287Y-75213D01*
X197500Y-72425D02*
Y-65500D01*
X184500Y-52500D02*
X197500Y-65500D01*
X151500Y-52500D02*
X184500D01*
X188661Y-144000D02*
X190000D01*
X188661Y-147870D02*
Y-144000D01*
X172500Y-148000D02*
X180500D01*
X182500Y-146000D01*
Y-140528D01*
X186528Y-136500D01*
X190000D01*
X-129644Y-149500D02*
X-125500Y-153644D01*
Y-163000D02*
Y-153644D01*
X114195Y-210787D02*
X126569D01*
X128787Y-208569D01*
Y-198431D01*
X108713Y-205305D02*
Y-198760D01*
X127500Y-197144D02*
X128787Y-198431D01*
X130500Y-167000D02*
X134500Y-171000D01*
X128000Y-167000D02*
X130500D01*
X108713Y-198760D02*
X114185Y-193287D01*
D25*
X91929Y-178067D02*
X107299D01*
X85362Y-171500D02*
X91929Y-178067D01*
X65500Y-171500D02*
X85362D01*
D26*
X145047Y-258453D02*
X148500Y-255000D01*
X148000Y-261000D02*
X148500D01*
X145453Y-258453D02*
X148000Y-261000D01*
X145047Y-258453D02*
X145453D01*
X140169D02*
X145047D01*
X249000Y-83500D02*
X257264D01*
X242500Y-77000D02*
X249000Y-83500D01*
X-110500Y252000D02*
X-109500D01*
X-124500Y266000D02*
X-110500Y252000D01*
X-140000Y287000D02*
X-124500Y271500D01*
X242500Y-77000D02*
Y-70500D01*
X-208551Y-91500D02*
X-202000D01*
X225500Y-62500D02*
Y-56000D01*
Y-62500D02*
X233500Y-70500D01*
X242500D01*
X195858Y-205968D02*
Y-201457D01*
X201500Y-195815D01*
D27*
X122280Y-240453D02*
X130280Y-232453D01*
X121280Y-227453D02*
X126279Y-232453D01*
X118780Y-240453D02*
X122280D01*
X126279Y-232453D02*
X130280D01*
X-113555Y-240224D02*
X-110055D01*
X-102055Y-232224D01*
X-106055D02*
X-102055D01*
X-111055Y-227224D02*
X-106055Y-232224D01*
X118780Y-246953D02*
Y-240453D01*
X104279Y-256953D02*
X108780D01*
X118780Y-246953D01*
X-128055Y-256724D02*
X-113555Y-242224D01*
Y-240224D01*
D28*
X-138055Y-256724D02*
X-130555Y-264224D01*
X94279Y-256953D02*
X101779Y-264453D01*
X115390D01*
X121390Y-258453D01*
X-121945Y-264224D02*
X-115945Y-258224D01*
X-130555Y-264224D02*
X-121945D01*
D29*
X-132500Y13500D02*
Y16124D01*
X-130532D01*
X-129876Y15468D01*
Y13500D01*
X-127908D02*
X-126596D01*
X-125940Y14156D01*
Y15468D01*
X-126596Y16124D01*
X-127908D01*
X-128564Y15468D01*
Y14156D01*
X-127908Y13500D01*
X-120037Y16780D02*
Y16124D01*
X-120693D01*
X-119381D01*
X-120037D01*
Y14156D01*
X-119381Y13500D01*
X-116757D02*
X-115445D01*
X-114789Y14156D01*
Y15468D01*
X-115445Y16124D01*
X-116757D01*
X-117413Y15468D01*
Y14156D01*
X-116757Y13500D01*
X-113477Y12188D02*
Y16124D01*
X-111509D01*
X-110853Y15468D01*
Y14156D01*
X-111509Y13500D01*
X-113477D01*
X-109541Y15468D02*
X-106918D01*
X-105606Y13500D02*
X-103638D01*
X-102982Y14156D01*
X-103638Y14812D01*
X-104950D01*
X-105606Y15468D01*
X-104950Y16124D01*
X-102982D01*
X-101670Y13500D02*
X-100358D01*
X-101014D01*
Y16124D01*
X-101670D01*
X-95766Y17436D02*
Y13500D01*
X-97734D01*
X-98390Y14156D01*
Y15468D01*
X-97734Y16124D01*
X-95766D01*
X-92487Y13500D02*
X-93799D01*
X-94454Y14156D01*
Y15468D01*
X-93799Y16124D01*
X-92487D01*
X-91831Y15468D01*
Y14812D01*
X-94454D01*
X-83959Y16124D02*
X-85927D01*
X-86583Y15468D01*
Y14156D01*
X-85927Y13500D01*
X-83959D01*
X-81991D02*
X-80679D01*
X-80023Y14156D01*
Y15468D01*
X-80679Y16124D01*
X-81991D01*
X-82647Y15468D01*
Y14156D01*
X-81991Y13500D01*
X-78712D02*
Y16124D01*
X-78056D01*
X-77400Y15468D01*
Y13500D01*
Y15468D01*
X-76744Y16124D01*
X-76088Y15468D01*
Y13500D01*
X-74776Y12188D02*
Y16124D01*
X-72808D01*
X-72152Y15468D01*
Y14156D01*
X-72808Y13500D01*
X-74776D01*
X-70184D02*
X-68872D01*
X-68216Y14156D01*
Y15468D01*
X-68872Y16124D01*
X-70184D01*
X-70840Y15468D01*
Y14156D01*
X-70184Y13500D01*
X-66904D02*
Y16124D01*
X-64937D01*
X-64280Y15468D01*
Y13500D01*
X-61001D02*
X-62313D01*
X-62969Y14156D01*
Y15468D01*
X-62313Y16124D01*
X-61001D01*
X-60345Y15468D01*
Y14812D01*
X-62969D01*
X-59033Y13500D02*
Y16124D01*
X-57065D01*
X-56409Y15468D01*
Y13500D01*
X-54441Y16780D02*
Y16124D01*
X-55097D01*
X-53785D01*
X-54441D01*
Y14156D01*
X-53785Y13500D01*
X-51817D02*
X-49850D01*
X-49194Y14156D01*
X-49850Y14812D01*
X-51161D01*
X-51817Y15468D01*
X-51161Y16124D01*
X-49194D01*
X-40010Y13500D02*
X-38698D01*
X-39354D01*
Y16124D01*
X-40010D01*
X-36730Y13500D02*
Y16124D01*
X-34762D01*
X-34106Y15468D01*
Y13500D01*
X-28203Y16780D02*
Y16124D01*
X-28859D01*
X-27547D01*
X-28203D01*
Y14156D01*
X-27547Y13500D01*
X-25579Y17436D02*
Y13500D01*
Y15468D01*
X-24923Y16124D01*
X-23611D01*
X-22955Y15468D01*
Y13500D01*
X-20987Y16124D02*
X-19676D01*
X-19019Y15468D01*
Y13500D01*
X-20987D01*
X-21643Y14156D01*
X-20987Y14812D01*
X-19019D01*
X-17052Y16780D02*
Y16124D01*
X-17708D01*
X-16396D01*
X-17052D01*
Y14156D01*
X-16396Y13500D01*
X-9836Y16780D02*
Y16124D01*
X-10492D01*
X-9180D01*
X-9836D01*
Y14156D01*
X-9180Y13500D01*
X-7212Y16124D02*
Y13500D01*
Y14812D01*
X-6556Y15468D01*
X-5900Y16124D01*
X-5244D01*
X-3277Y13500D02*
X-1965D01*
X-2621D01*
Y16124D01*
X-3277D01*
X659D02*
X1971D01*
X2627Y15468D01*
Y13500D01*
X659D01*
X3Y14156D01*
X659Y14812D01*
X2627D01*
X3939Y13500D02*
Y16124D01*
X5907D01*
X6563Y15468D01*
Y13500D01*
X9187Y12188D02*
X9843D01*
X10498Y12844D01*
Y16124D01*
X8531D01*
X7875Y15468D01*
Y14156D01*
X8531Y13500D01*
X10498D01*
X11810Y16124D02*
Y14156D01*
X12466Y13500D01*
X14434D01*
Y16124D01*
X15746Y13500D02*
X17058D01*
X16402D01*
Y17436D01*
X15746D01*
X19682Y16124D02*
X20994D01*
X21650Y15468D01*
Y13500D01*
X19682D01*
X19026Y14156D01*
X19682Y14812D01*
X21650D01*
X22962Y16124D02*
Y13500D01*
Y14812D01*
X23618Y15468D01*
X24274Y16124D01*
X24930D01*
X31489D02*
X32801D01*
X33457Y15468D01*
Y13500D01*
X31489D01*
X30833Y14156D01*
X31489Y14812D01*
X33457D01*
X34769Y16124D02*
Y13500D01*
Y14812D01*
X35425Y15468D01*
X36081Y16124D01*
X36737D01*
X40672Y13500D02*
X39361D01*
X38705Y14156D01*
Y15468D01*
X39361Y16124D01*
X40672D01*
X41328Y15468D01*
Y14812D01*
X38705D01*
X43296Y16124D02*
X44608D01*
X45264Y15468D01*
Y13500D01*
X43296D01*
X42640Y14156D01*
X43296Y14812D01*
X45264D01*
X54448Y13500D02*
X55760D01*
X55104D01*
Y16124D01*
X54448D01*
X57727Y13500D02*
Y16124D01*
X59695D01*
X60351Y15468D01*
Y13500D01*
X66255Y16780D02*
Y16124D01*
X65599D01*
X66911D01*
X66255D01*
Y14156D01*
X66911Y13500D01*
X68879Y17436D02*
Y13500D01*
Y15468D01*
X69535Y16124D01*
X70846D01*
X71503Y15468D01*
Y13500D01*
X74782D02*
X73470D01*
X72814Y14156D01*
Y15468D01*
X73470Y16124D01*
X74782D01*
X75438Y15468D01*
Y14812D01*
X72814D01*
X83310Y16124D02*
X81342D01*
X80686Y15468D01*
Y14156D01*
X81342Y13500D01*
X83310D01*
X86589D02*
X85278D01*
X84622Y14156D01*
Y15468D01*
X85278Y16124D01*
X86589D01*
X87245Y15468D01*
Y14812D01*
X84622D01*
X88557Y13500D02*
Y16124D01*
X90525D01*
X91181Y15468D01*
Y13500D01*
X93149Y16780D02*
Y16124D01*
X92493D01*
X93805D01*
X93149D01*
Y14156D01*
X93805Y13500D01*
X95773Y16124D02*
Y13500D01*
Y14812D01*
X96429Y15468D01*
X97085Y16124D01*
X97741D01*
X101676Y13500D02*
X100365D01*
X99709Y14156D01*
Y15468D01*
X100365Y16124D01*
X101676D01*
X102332Y15468D01*
Y14812D01*
X99709D01*
D30*
X-138055Y-256724D02*
D03*
Y-246724D02*
D03*
X94279Y-246953D02*
D03*
Y-256953D02*
D03*
D31*
X-128055Y-256724D02*
D03*
Y-246724D02*
D03*
X104279Y-246953D02*
D03*
Y-256953D02*
D03*
D32*
X0Y173976D02*
D03*
X5847Y178642D02*
D03*
X7291Y172311D02*
D03*
X3244Y167236D02*
D03*
X-3244D02*
D03*
X-7291Y172311D02*
D03*
X-5847Y178642D02*
D03*
X0Y181457D02*
D03*
D33*
X83189Y236500D02*
D03*
Y248311D02*
D03*
X106811Y252012D02*
D03*
X71378D02*
D03*
X95000Y248311D02*
D03*
Y236500D02*
D03*
X-68500Y237000D02*
D03*
Y248811D02*
D03*
X-92122Y252512D02*
D03*
X-56689D02*
D03*
X-80311Y248811D02*
D03*
Y237000D02*
D03*
X-14000Y168000D02*
D03*
D34*
X-311539Y-49406D02*
D03*
X-291461D02*
D03*
X-311539Y-87594D02*
D03*
X-291461D02*
D03*
X-266539Y-147406D02*
D03*
X-246461D02*
D03*
X-266539Y-185594D02*
D03*
X-246461D02*
D03*
X-194039Y-224406D02*
D03*
X-173961D02*
D03*
X-194039Y-262595D02*
D03*
X-173961D02*
D03*
X194039D02*
D03*
X173961D02*
D03*
X194039Y-224406D02*
D03*
X173961D02*
D03*
X311539Y-87594D02*
D03*
X291461D02*
D03*
X311539Y-49406D02*
D03*
X291461D02*
D03*
X238039Y184906D02*
D03*
X217961D02*
D03*
X238039Y223095D02*
D03*
X217961D02*
D03*
X179039Y184906D02*
D03*
X158961D02*
D03*
X179039Y223095D02*
D03*
X158961D02*
D03*
X179039Y236906D02*
D03*
X158961D02*
D03*
X179039Y275095D02*
D03*
X158961D02*
D03*
X-179039D02*
D03*
X-158961D02*
D03*
X-179039Y236906D02*
D03*
X-158961D02*
D03*
X-179039Y223095D02*
D03*
X-158961D02*
D03*
X-179039Y184906D02*
D03*
X-158961D02*
D03*
X-238039Y223095D02*
D03*
X-217961D02*
D03*
X-238039Y184906D02*
D03*
X-217961D02*
D03*
X266539Y-185594D02*
D03*
X246461D02*
D03*
X266539Y-147406D02*
D03*
X246461D02*
D03*
D35*
X-301500Y-49406D02*
D03*
Y-87594D02*
D03*
X-256500Y-147406D02*
D03*
Y-185594D02*
D03*
X-184000Y-224406D02*
D03*
Y-262595D02*
D03*
X184000D02*
D03*
Y-224406D02*
D03*
X301500Y-87594D02*
D03*
Y-49406D02*
D03*
X228000Y184906D02*
D03*
Y223095D02*
D03*
X169000Y184906D02*
D03*
Y223095D02*
D03*
Y236906D02*
D03*
Y275095D02*
D03*
X-169000D02*
D03*
Y236906D02*
D03*
Y223095D02*
D03*
Y184906D02*
D03*
X-228000Y223095D02*
D03*
Y184906D02*
D03*
X256500Y-185594D02*
D03*
Y-147406D02*
D03*
D36*
X9500Y205500D02*
D03*
X-89500D02*
D03*
D37*
X19500D02*
D03*
X29500D02*
D03*
X39500D02*
D03*
X49500D02*
D03*
X59500D02*
D03*
X69500D02*
D03*
X79500D02*
D03*
X89500D02*
D03*
X9500Y265500D02*
D03*
X19500D02*
D03*
X29500D02*
D03*
X39500D02*
D03*
X49500D02*
D03*
X59500D02*
D03*
X69500D02*
D03*
X79500D02*
D03*
X89500D02*
D03*
X-9500D02*
D03*
X-19500D02*
D03*
X-29500D02*
D03*
X-39500D02*
D03*
X-49500D02*
D03*
X-59500D02*
D03*
X-69500D02*
D03*
X-79500D02*
D03*
X-89500D02*
D03*
X-9500Y205500D02*
D03*
X-19500D02*
D03*
X-29500D02*
D03*
X-39500D02*
D03*
X-49500D02*
D03*
X-59500D02*
D03*
X-69500D02*
D03*
X-79500D02*
D03*
D38*
X-140500Y237000D02*
D03*
Y227000D02*
D03*
X-75500Y303500D02*
D03*
X-85500D02*
D03*
X-52429Y309500D02*
D03*
X-62429D02*
D03*
X-29357Y313000D02*
D03*
X-39357D02*
D03*
X-6286Y314000D02*
D03*
X-16286D02*
D03*
X16786D02*
D03*
X6786D02*
D03*
X39857Y313000D02*
D03*
X29857D02*
D03*
X62928Y309500D02*
D03*
X52929D02*
D03*
X86000Y303500D02*
D03*
X76000D02*
D03*
D39*
X-116500Y-152142D02*
D03*
Y-171354D02*
D03*
X229000Y-102642D02*
D03*
Y-121854D02*
D03*
D40*
X-223500Y-182500D02*
D03*
X100500Y-116500D02*
D03*
D41*
X-223500Y-192500D02*
D03*
X-213500Y-182500D02*
D03*
Y-192500D02*
D03*
X-203500Y-182500D02*
D03*
Y-192500D02*
D03*
X-193500Y-182500D02*
D03*
Y-192500D02*
D03*
X100500Y-126500D02*
D03*
X110500Y-116500D02*
D03*
Y-126500D02*
D03*
X120500Y-116500D02*
D03*
Y-126500D02*
D03*
X130500Y-116500D02*
D03*
Y-126500D02*
D03*
D42*
X0Y-0D02*
D03*
D43*
X-39370Y-212598D02*
D03*
X39370D02*
D03*
X165354Y118110D02*
D03*
Y59055D02*
D03*
X-165354D02*
D03*
Y118110D02*
D03*
D44*
X69055Y173976D02*
D03*
X-69055D02*
D03*
X202500Y239500D02*
D03*
X-202500D02*
D03*
X284000Y-117500D02*
D03*
X-284000D02*
D03*
X221500Y-211437D02*
D03*
X-221500D02*
D03*
D45*
X-118000Y195000D02*
D03*
X-122150Y184726D02*
D03*
Y179610D02*
D03*
X-126972Y177307D02*
D03*
X170500Y-119000D02*
D03*
X146000Y-166500D02*
D03*
X-111000Y-206000D02*
D03*
X245599Y-94118D02*
D03*
X245500Y-106500D02*
D03*
X184500Y-106000D02*
D03*
X233000Y-115000D02*
D03*
X277500Y-105000D02*
D03*
X104500Y148500D02*
D03*
X126000Y172000D02*
D03*
X89000Y154000D02*
D03*
X74500Y225000D02*
D03*
Y218000D02*
D03*
X-6500Y246500D02*
D03*
X33500Y186500D02*
D03*
X-24500Y222000D02*
D03*
X-12500Y246500D02*
D03*
X-27561Y247439D02*
D03*
X-39000Y236500D02*
D03*
X-121000Y153500D02*
D03*
X233000Y-110000D02*
D03*
X149500Y-129500D02*
D03*
X138000Y-136000D02*
D03*
X95000Y-226000D02*
D03*
X141500Y-239000D02*
D03*
X-91000D02*
D03*
X-121500Y-178500D02*
D03*
X26000Y-162500D02*
D03*
Y-168500D02*
D03*
X-164500Y-137000D02*
D03*
X-171000Y-137250D02*
D03*
X-86000Y-171000D02*
D03*
X78500Y-158000D02*
D03*
X-154919Y-149000D02*
D03*
X-146787Y-142713D02*
D03*
X75000Y-153000D02*
D03*
X143000Y-200500D02*
D03*
X59000Y-182000D02*
D03*
X63000Y-177500D02*
D03*
X54500Y-186500D02*
D03*
X-86000Y-205000D02*
D03*
X-45000Y-143000D02*
D03*
X93500Y-137500D02*
D03*
X54500Y-131000D02*
D03*
X59500D02*
D03*
X64500D02*
D03*
X-62500Y-132500D02*
D03*
X-43000Y-158500D02*
D03*
X-47000Y-155398D02*
D03*
X148500Y-261000D02*
D03*
Y-255000D02*
D03*
X-103500Y-260500D02*
D03*
Y-255000D02*
D03*
X65500Y-171500D02*
D03*
X60000D02*
D03*
X-30000Y-178000D02*
D03*
X-26000Y-173500D02*
D03*
X-29000Y-169000D02*
D03*
X-130000Y-89000D02*
D03*
X-139000D02*
D03*
X-144248D02*
D03*
X-172000Y-54000D02*
D03*
X-158500Y-57500D02*
D03*
Y-52000D02*
D03*
X-169500Y-49000D02*
D03*
X-170500Y-38000D02*
D03*
Y-32500D02*
D03*
X98000Y148500D02*
D03*
X131000Y178000D02*
D03*
X69500Y-131000D02*
D03*
X-96500Y196500D02*
D03*
X-135000Y231500D02*
D03*
X164000Y-147000D02*
D03*
X-167000Y-202000D02*
D03*
X-164500Y-195500D02*
D03*
X210000Y-174500D02*
D03*
X197000Y-167000D02*
D03*
X141000Y-146000D02*
D03*
X277000Y-94500D02*
D03*
X-102000Y234500D02*
D03*
X-212000Y-60500D02*
D03*
X-140500Y215000D02*
D03*
X-147500Y223500D02*
D03*
X202500Y-95500D02*
D03*
X-157000Y-238000D02*
D03*
X-144500D02*
D03*
X-175000Y-194000D02*
D03*
X-183000D02*
D03*
X-131500Y-175000D02*
D03*
Y-168000D02*
D03*
X-148000Y-278500D02*
D03*
X-156500D02*
D03*
X-156000Y-257000D02*
D03*
X-148000D02*
D03*
X-141500Y-207500D02*
D03*
X-133000Y-191500D02*
D03*
X-142500Y-181000D02*
D03*
X189500Y-41500D02*
D03*
X186000Y-47000D02*
D03*
X-180000Y-67000D02*
D03*
X-97500Y268500D02*
D03*
X-186500Y-63500D02*
D03*
X-159500Y-109500D02*
D03*
X-201500Y-91500D02*
D03*
X-92500Y304500D02*
D03*
X97000Y267000D02*
D03*
X102500Y239500D02*
D03*
X125000Y154000D02*
D03*
X-39500Y191000D02*
D03*
X35500Y163000D02*
D03*
X0Y161000D02*
D03*
X-139374Y165693D02*
D03*
X-189000Y-53500D02*
D03*
X38500Y191000D02*
D03*
X125000Y187500D02*
D03*
X92500D02*
D03*
X-29500Y-142500D02*
D03*
X143500Y-211000D02*
D03*
X69500Y-198000D02*
D03*
X190000Y-144000D02*
D03*
X73500Y-192000D02*
D03*
X160500Y-166500D02*
D03*
X152000D02*
D03*
X211000Y-78500D02*
D03*
X161500Y-88000D02*
D03*
X199500Y-101500D02*
D03*
X189000Y-130000D02*
D03*
X-177500Y-137000D02*
D03*
X-97000Y-175000D02*
D03*
X-163000Y-167500D02*
D03*
X-121500Y-195500D02*
D03*
X-163000Y-152500D02*
D03*
X-170000Y-154000D02*
D03*
X-208500Y-170500D02*
D03*
X-146500Y-203000D02*
D03*
X-129500Y-155000D02*
D03*
X-208500Y-176500D02*
D03*
X-150500Y-207500D02*
D03*
X-133500Y-149500D02*
D03*
X257264Y-83500D02*
D03*
X-113957Y229500D02*
D03*
X-109000Y259500D02*
D03*
X-140500Y272000D02*
D03*
X-140000Y287000D02*
D03*
X-109500Y252000D02*
D03*
X26000Y288000D02*
D03*
X12000Y309000D02*
D03*
X-10000Y295000D02*
D03*
X-19669Y303500D02*
D03*
X75000Y291500D02*
D03*
X-86500D02*
D03*
X-172000Y195500D02*
D03*
X-105500Y304500D02*
D03*
X104000Y217500D02*
D03*
X99000Y302000D02*
D03*
X90500Y309000D02*
D03*
X180858Y-190469D02*
D03*
X103000Y-273500D02*
D03*
X124279Y-240453D02*
D03*
X118780D02*
D03*
X119000Y-234500D02*
D03*
X112279Y-220953D02*
D03*
X113779Y-228453D02*
D03*
X63500Y230000D02*
D03*
X52500Y231000D02*
D03*
X47000D02*
D03*
X225500Y-56000D02*
D03*
X242500Y-61500D02*
D03*
X-233500Y-96500D02*
D03*
X-221000Y-111500D02*
D03*
X-233500Y-126500D02*
D03*
X-259500Y-89000D02*
D03*
X-231000Y-73500D02*
D03*
X-244000Y-74000D02*
D03*
X40000Y217000D02*
D03*
X5500Y228000D02*
D03*
X40500Y225000D02*
D03*
Y256000D02*
D03*
X30500Y236000D02*
D03*
X49500Y214000D02*
D03*
X-23000Y242000D02*
D03*
X9500Y232500D02*
D03*
Y239000D02*
D03*
X23500Y236000D02*
D03*
X1000Y262500D02*
D03*
X167297Y-106358D02*
D03*
X177500Y-119000D02*
D03*
Y-99326D02*
D03*
X-105051Y-215728D02*
D03*
X-118555Y-228224D02*
D03*
X-113555Y-240224D02*
D03*
X-108055D02*
D03*
X-120055Y-220724D02*
D03*
X-134500Y-271500D02*
D03*
X-114055Y-233224D02*
D03*
X164500Y-81500D02*
D03*
X166000Y-124000D02*
D03*
X167500Y-140000D02*
D03*
X211000Y-124500D02*
D03*
X212500Y-106500D02*
D03*
Y-100000D02*
D03*
X-172719Y215839D02*
D03*
Y208839D02*
D03*
X203500Y-85000D02*
D03*
X187500Y-77000D02*
D03*
X-34500Y253000D02*
D03*
X232909Y198974D02*
D03*
Y191974D02*
D03*
X232639Y212679D02*
D03*
X-306219Y-56659D02*
D03*
Y-63659D02*
D03*
X-306994Y-76722D02*
D03*
X-261409Y-154474D02*
D03*
Y-161474D02*
D03*
X-262743Y-174107D02*
D03*
X-188909Y-231474D02*
D03*
Y-238474D02*
D03*
X-188500Y-250000D02*
D03*
X189140Y-248339D02*
D03*
Y-255339D02*
D03*
X189494Y-235278D02*
D03*
X263140Y-178339D02*
D03*
Y-171339D02*
D03*
X263668Y-157720D02*
D03*
X306410Y-73526D02*
D03*
Y-80526D02*
D03*
X307743Y-60893D02*
D03*
X173721Y198972D02*
D03*
Y191972D02*
D03*
X177436Y213878D02*
D03*
X173640Y251161D02*
D03*
Y244161D02*
D03*
X174000Y265500D02*
D03*
X-173219Y260839D02*
D03*
Y267839D02*
D03*
X-172784Y246865D02*
D03*
X-232909Y216026D02*
D03*
Y209026D02*
D03*
X-233494Y195778D02*
D03*
X2500Y209000D02*
D03*
X-3500Y270000D02*
D03*
X48500Y242500D02*
D03*
X53500D02*
D03*
X63500Y216500D02*
D03*
X-39500Y162500D02*
D03*
X-3000Y191000D02*
D03*
X7500Y162500D02*
D03*
X2500Y191000D02*
D03*
X177000Y-142000D02*
D03*
X57000Y291500D02*
D03*
X-21500Y288500D02*
D03*
X-40000Y291500D02*
D03*
X-67000D02*
D03*
X-197000Y208500D02*
D03*
X-186500D02*
D03*
X148500Y267000D02*
D03*
Y278500D02*
D03*
X194500Y212000D02*
D03*
Y199500D02*
D03*
X204000Y178500D02*
D03*
X145500Y238500D02*
D03*
X141000Y244000D02*
D03*
Y215500D02*
D03*
X145500Y222000D02*
D03*
X195858Y-205968D02*
D03*
X-132500Y209500D02*
D03*
X-102736Y244500D02*
D03*
X165858Y-206469D02*
D03*
X107000Y244000D02*
D03*
X186000Y-206500D02*
D03*
X5000Y295000D02*
D03*
X118000Y224500D02*
D03*
X158000Y-181000D02*
D03*
X201500Y-196500D02*
D03*
X-1500Y295000D02*
D03*
X-11500Y307500D02*
D03*
X0Y316000D02*
D03*
X176000Y-206500D02*
D03*
X225000Y-147000D02*
D03*
X-244000Y-106500D02*
D03*
X170858Y-210358D02*
D03*
X220500Y-142500D02*
D03*
X-238500Y-101500D02*
D03*
X-250500Y-104000D02*
D03*
X-269000D02*
D03*
X33000Y288000D02*
D03*
X133500Y267000D02*
D03*
X126500Y279500D02*
D03*
Y287000D02*
D03*
X133500Y252000D02*
D03*
X-148000Y-33500D02*
D03*
Y-38500D02*
D03*
X-165000Y-109500D02*
D03*
X-170500D02*
D03*
X-97000Y219500D02*
D03*
X122500Y235500D02*
D03*
X110000Y211331D02*
D03*
X-1500Y307500D02*
D03*
X23500Y307000D02*
D03*
X29500Y283000D02*
D03*
X-39000Y277134D02*
D03*
X41000Y282000D02*
D03*
X-84500Y273000D02*
D03*
X211000Y-118500D02*
D03*
X-151500Y-109500D02*
D03*
X-146500D02*
D03*
X-137500D02*
D03*
X-132000D02*
D03*
X-140500Y-144500D02*
D03*
X-208000Y-142000D02*
D03*
X-200500Y-137500D02*
D03*
X183000Y-81000D02*
D03*
X186000Y-68500D02*
D03*
X191000Y-65000D02*
D03*
X204500D02*
D03*
X-237000Y-117500D02*
D03*
X154000Y-211000D02*
D03*
X201500Y-134500D02*
D03*
X207500D02*
D03*
X195000Y-130000D02*
D03*
X168000Y-166500D02*
D03*
X-203000Y-203000D02*
D03*
Y-210000D02*
D03*
X-190410Y-159910D02*
D03*
X-196500Y-151500D02*
D03*
Y-161500D02*
D03*
X-219500Y-156500D02*
D03*
X112986Y-140474D02*
D03*
X196500Y-80500D02*
D03*
X192000Y-88500D02*
D03*
X178000Y-85000D02*
D03*
X173000Y-68500D02*
D03*
X156000Y-57000D02*
D03*
X151500Y-52500D02*
D03*
X159000Y-133500D02*
D03*
X150000Y-146000D02*
D03*
X121000Y-137500D02*
D03*
X197000Y-157500D02*
D03*
X190000Y-136500D02*
D03*
X227500Y-78500D02*
D03*
X180500Y-166500D02*
D03*
X174500D02*
D03*
X127284Y-215957D02*
D03*
X102000Y-189000D02*
D03*
X108000Y-191500D02*
D03*
X125000Y-207000D02*
D03*
X78000Y-186500D02*
D03*
X84000Y-182000D02*
D03*
X90000Y-184000D02*
D03*
X125000Y-200500D02*
D03*
X114500Y-189500D02*
D03*
X96000Y-186500D02*
D03*
X103500Y-154500D02*
D03*
X116500D02*
D03*
X100500Y-161500D02*
D03*
X126000Y-153500D02*
D03*
X120500Y-162535D02*
D03*
X177475Y-124975D02*
D03*
X52500Y184000D02*
D03*
Y170500D02*
D03*
X-53500D02*
D03*
X-52500Y183500D02*
D03*
M02*
