%FSLAX25Y25*%
%MOIN*%
G70*
G01*
G75*
G04 Layer_Color=16711935*
%ADD10O,0.08661X0.02362*%
%ADD11R,0.03000X0.03543*%
%ADD12R,0.05118X0.05512*%
%ADD13R,0.05512X0.05118*%
%ADD14R,0.03543X0.03000*%
%ADD15R,0.05000X0.06693*%
%ADD16R,0.04921X0.03937*%
%ADD17R,0.08661X0.02362*%
%ADD18O,0.08661X0.02362*%
%ADD19O,0.02362X0.08661*%
%ADD20R,0.09449X0.09843*%
%ADD21C,0.01575*%
%ADD22C,0.01181*%
%ADD23C,0.00984*%
%ADD24C,0.01000*%
%ADD25C,0.03150*%
%ADD26C,0.03937*%
%ADD27C,0.02756*%
%ADD28C,0.02362*%
%ADD29C,0.00591*%
%ADD30C,0.05906*%
%ADD31R,0.05906X0.05906*%
%ADD32C,0.05118*%
%ADD33C,0.07874*%
%ADD34O,0.10236X0.07874*%
%ADD35O,0.08268X0.07874*%
%ADD36R,0.05118X0.09843*%
%ADD37O,0.05118X0.09843*%
%ADD38C,0.05500*%
%ADD39C,0.06693*%
%ADD40R,0.06299X0.06299*%
%ADD41C,0.06299*%
%ADD42C,2.75591*%
%ADD43C,0.39370*%
%ADD44C,0.19685*%
%ADD45C,0.05000*%
%ADD46C,0.01969*%
%ADD47R,0.09646X0.09843*%
%ADD48R,0.09843X0.09449*%
%ADD49R,0.02362X0.08661*%
%ADD50O,0.02362X0.08661*%
%ADD51R,0.20866X0.07087*%
%ADD52O,0.03937X0.01024*%
%ADD53O,0.01024X0.03937*%
%ADD54R,0.03937X0.01024*%
%ADD55R,0.03543X0.01575*%
%ADD56R,0.09449X0.12598*%
%ADD57R,0.06693X0.05000*%
%ADD58R,0.09843X0.14961*%
%ADD59R,0.01969X0.05512*%
%ADD60O,0.08661X0.01575*%
%ADD61R,0.08661X0.01575*%
%ADD62R,0.18110X0.09252*%
%ADD63O,0.01378X0.06299*%
%ADD64R,0.07087X0.07874*%
%ADD65R,0.03543X0.01575*%
%ADD66R,0.09843X0.09646*%
%ADD67R,0.03937X0.04921*%
%ADD68O,0.02165X0.07874*%
%ADD69R,0.15000X0.19685*%
%ADD70R,0.01575X0.03543*%
%ADD71R,0.06000X0.06299*%
%ADD72R,0.06299X0.06000*%
%ADD73C,0.00787*%
%ADD74C,0.00141*%
%ADD75C,0.01378*%
%ADD76C,0.01200*%
%ADD77O,0.09461X0.03162*%
%ADD78R,0.03800X0.04343*%
%ADD79R,0.05918X0.06312*%
%ADD80R,0.06312X0.05918*%
%ADD81R,0.04343X0.03800*%
%ADD82R,0.05800X0.07493*%
%ADD83R,0.05721X0.04737*%
%ADD84R,0.09461X0.03162*%
%ADD85O,0.09461X0.03162*%
%ADD86O,0.03162X0.09461*%
%ADD87R,0.10249X0.10642*%
%ADD88C,0.06706*%
%ADD89R,0.06706X0.06706*%
%ADD90C,0.05918*%
%ADD91C,0.08674*%
%ADD92O,0.11036X0.08674*%
%ADD93O,0.09068X0.08674*%
%ADD94R,0.05918X0.10642*%
%ADD95O,0.05918X0.10642*%
%ADD96C,0.06300*%
%ADD97C,0.07493*%
%ADD98R,0.07099X0.07099*%
%ADD99C,0.07099*%
%ADD100C,2.76391*%
%ADD101C,0.40170*%
%ADD102C,0.20485*%
%ADD103C,0.05800*%
%ADD104R,0.10446X0.10642*%
%ADD105R,0.10642X0.10249*%
%ADD106R,0.03162X0.09461*%
%ADD107O,0.03162X0.09461*%
%ADD108R,0.21666X0.07887*%
%ADD109O,0.04737X0.01824*%
%ADD110O,0.01824X0.04737*%
%ADD111R,0.04737X0.01824*%
%ADD112R,0.04343X0.02375*%
%ADD113R,0.10249X0.13398*%
%ADD114R,0.07493X0.05800*%
%ADD115O,0.09461X0.02375*%
%ADD116R,0.09461X0.02375*%
%ADD117R,0.18910X0.10052*%
%ADD118O,0.02178X0.07099*%
%ADD119R,0.07887X0.08674*%
%ADD120R,0.04343X0.02375*%
%ADD121R,0.10642X0.10446*%
%ADD122R,0.04737X0.05721*%
%ADD123O,0.02965X0.08674*%
%ADD124R,0.15800X0.20485*%
%ADD125R,0.02375X0.04343*%
%ADD126R,0.06800X0.07099*%
%ADD127R,0.07099X0.06800*%
%ADD128C,0.00394*%
%ADD129C,0.00800*%
%ADD130C,0.00150*%
%ADD131C,0.00500*%
D24*
X137795Y0D02*
G03*
X137795Y0I-137795J0D01*
G01*
D46*
X208661Y-39370D02*
Y169291D01*
Y-39370D02*
X323338D01*
X325014Y-39551D01*
X326613Y-40084D01*
X328063Y-40945D01*
X329295Y-42095D01*
X330255Y-43480D01*
X330897Y-45039D01*
X331193Y-46698D01*
X331130Y-48383D02*
X331193Y-46698D01*
X329216Y-60039D02*
X331130Y-48383D01*
X326892Y-71620D02*
X329216Y-60039D01*
X324161Y-83112D02*
X326892Y-71620D01*
X321026Y-94500D02*
X324161Y-83112D01*
X317491Y-105771D02*
X321026Y-94500D01*
X313560Y-116910D02*
X317491Y-105771D01*
X309239Y-127903D02*
X313560Y-116910D01*
X304532Y-138737D02*
X309239Y-127903D01*
X299446Y-149398D02*
X304532Y-138737D01*
X293987Y-159873D02*
X299446Y-149398D01*
X288162Y-170148D02*
X293987Y-159873D01*
X281978Y-180212D02*
X288162Y-170148D01*
X275442Y-190051D02*
X281978Y-180212D01*
X268563Y-199654D02*
X275442Y-190051D01*
X261350Y-209007D02*
X268563Y-199654D01*
X253811Y-218101D02*
X261350Y-209007D01*
X245955Y-226922D02*
X253811Y-218101D01*
X237794Y-235461D02*
X245955Y-226922D01*
X229336Y-243706D02*
X237794Y-235461D01*
X220592Y-251648D02*
X229336Y-243706D01*
X211574Y-259277D02*
X220592Y-251648D01*
X202292Y-266582D02*
X211574Y-259277D01*
X192757Y-273555D02*
X202292Y-266582D01*
X182983Y-280187D02*
X192757Y-273555D01*
X172981Y-286471D02*
X182983Y-280187D01*
X162763Y-292397D02*
X172981Y-286471D01*
X152343Y-297959D02*
X162763Y-292397D01*
X141732Y-303150D02*
X152343Y-297959D01*
X86614Y-303150D02*
X141732D01*
X86614D02*
Y-255906D01*
X-86614D02*
X86614D01*
X-86614Y-303150D02*
Y-255906D01*
X-141732Y-303150D02*
X-86614D01*
X-152343Y-297959D02*
X-141732Y-303150D01*
X-162763Y-292397D02*
X-152343Y-297959D01*
X-172981Y-286471D02*
X-162763Y-292397D01*
X-182983Y-280187D02*
X-172981Y-286471D01*
X-192757Y-273555D02*
X-182983Y-280187D01*
X-202292Y-266582D02*
X-192757Y-273555D01*
X-211574Y-259277D02*
X-202292Y-266582D01*
X-220592Y-251648D02*
X-211574Y-259277D01*
X-229336Y-243706D02*
X-220592Y-251648D01*
X-237794Y-235461D02*
X-229336Y-243706D01*
X-245955Y-226922D02*
X-237794Y-235461D01*
X-253811Y-218101D02*
X-245955Y-226922D01*
X-261350Y-209007D02*
X-253811Y-218101D01*
X-268563Y-199654D02*
X-261350Y-209007D01*
X-275442Y-190051D02*
X-268563Y-199654D01*
X-281978Y-180212D02*
X-275442Y-190051D01*
X-288162Y-170148D02*
X-281978Y-180212D01*
X-293987Y-159873D02*
X-288162Y-170148D01*
X-299446Y-149398D02*
X-293987Y-159873D01*
X-304532Y-138737D02*
X-299446Y-149398D01*
X-309239Y-127903D02*
X-304532Y-138737D01*
X-313560Y-116910D02*
X-309239Y-127903D01*
X-317491Y-105771D02*
X-313560Y-116910D01*
X-321026Y-94500D02*
X-317491Y-105771D01*
X-324161Y-83112D02*
X-321026Y-94500D01*
X-326892Y-71620D02*
X-324161Y-83112D01*
X-329216Y-60039D02*
X-326892Y-71620D01*
X-331130Y-48383D02*
X-329216Y-60039D01*
X-331193Y-46698D02*
X-331130Y-48383D01*
X-331193Y-46698D02*
X-330897Y-45039D01*
X-330255Y-43480D01*
X-329295Y-42095D01*
X-328063Y-40945D01*
X-326613Y-40084D01*
X-325014Y-39551D01*
X-323338Y-39370D01*
X-208661D01*
Y169291D01*
X-274576D02*
X-208661D01*
X-276251Y169472D02*
X-274576Y169291D01*
X-277850Y170004D02*
X-276251Y169472D01*
X-279298Y170864D02*
X-277850Y170004D01*
X-280531Y172013D02*
X-279298Y170864D01*
X-281491Y173398D02*
X-280531Y172013D01*
X-282134Y174955D02*
X-281491Y173398D01*
X-282431Y176614D02*
X-282134Y174955D01*
X-282431Y176614D02*
X-282369Y178297D01*
X-281949Y179929D01*
X-281193Y181434D01*
X-274670Y191166D01*
X-267810Y200663D01*
X-260622Y209914D01*
X-253115Y218908D01*
X-245297Y227633D01*
X-237179Y236080D01*
X-228771Y244237D01*
X-220081Y252095D01*
X-211123Y259644D01*
X-201905Y266875D01*
X-192440Y273778D01*
X-182739Y280346D01*
X-172814Y286571D01*
X-162677Y292444D01*
X-152341Y297959D01*
X-141819Y303109D01*
X-131122Y307887D01*
X-120265Y312288D01*
X-109260Y316307D01*
X-98122Y319937D01*
X-86863Y323176D01*
X-75498Y326018D01*
X-64040Y328461D01*
X-52504Y330501D01*
X-40903Y332137D01*
X-29252Y333365D01*
X-17566Y334184D01*
X-5858Y334594D01*
X5858D01*
X17566Y334184D01*
X29252Y333365D01*
X40903Y332137D01*
X52504Y330501D01*
X64040Y328461D01*
X75498Y326018D01*
X86863Y323176D01*
X98122Y319937D01*
X109260Y316307D01*
X120265Y312288D01*
X131122Y307887D01*
X141819Y303109D01*
X152341Y297959D01*
X162677Y292444D01*
X172814Y286571D01*
X182739Y280346D01*
X192440Y273778D01*
X201905Y266875D01*
X211123Y259644D01*
X220081Y252095D01*
X228771Y244237D01*
X237179Y236080D01*
X245297Y227633D01*
X253115Y218908D01*
X260622Y209914D01*
X267810Y200663D01*
X274670Y191166D01*
X281193Y181434D01*
X281949Y179929D01*
X282369Y178297D01*
X282431Y176614D01*
X282134Y174955D02*
X282431Y176614D01*
X281491Y173398D02*
X282134Y174955D01*
X280531Y172013D02*
X281491Y173398D01*
X279298Y170864D02*
X280531Y172013D01*
X277850Y170004D02*
X279298Y170864D01*
X276251Y169472D02*
X277850Y170004D01*
X274576Y169291D02*
X276251Y169472D01*
X208661Y169291D02*
X274576D01*
M02*
