%FSLAX25Y25*%
%MOIN*%
G70*
G01*
G75*
G04 Layer_Color=2752767*
%ADD10O,0.08661X0.02362*%
%ADD11R,0.03000X0.03543*%
%ADD12R,0.05118X0.05512*%
%ADD13R,0.05512X0.05118*%
%ADD14R,0.03543X0.03000*%
%ADD15R,0.05000X0.06693*%
%ADD16R,0.04921X0.03937*%
%ADD17R,0.08661X0.02362*%
%ADD18O,0.08661X0.02362*%
%ADD19O,0.02362X0.08661*%
%ADD20R,0.09449X0.09843*%
%ADD21C,0.01575*%
%ADD22C,0.01181*%
%ADD23C,0.00984*%
%ADD24C,0.01000*%
%ADD25C,0.03150*%
%ADD26C,0.03937*%
%ADD27C,0.02756*%
%ADD28C,0.02362*%
%ADD29C,0.00591*%
%ADD30C,0.05906*%
%ADD31R,0.05906X0.05906*%
%ADD32C,0.05118*%
%ADD33C,0.07874*%
%ADD34O,0.10236X0.07874*%
%ADD35O,0.08268X0.07874*%
%ADD36R,0.05118X0.09843*%
%ADD37O,0.05118X0.09843*%
%ADD38C,0.05500*%
%ADD39C,0.06693*%
%ADD40R,0.06299X0.06299*%
%ADD41C,0.06299*%
%ADD42C,2.75591*%
%ADD43C,0.39370*%
%ADD44C,0.19685*%
%ADD45C,0.05000*%
%ADD46C,0.01969*%
%ADD47R,0.09646X0.09843*%
%ADD48R,0.09843X0.09449*%
%ADD49R,0.02362X0.08661*%
%ADD50O,0.02362X0.08661*%
%ADD51R,0.20866X0.07087*%
%ADD52O,0.03937X0.01024*%
%ADD53O,0.01024X0.03937*%
%ADD54R,0.03937X0.01024*%
%ADD55R,0.03543X0.01575*%
%ADD56R,0.09449X0.12598*%
%ADD57R,0.06693X0.05000*%
%ADD58R,0.09843X0.14961*%
%ADD59R,0.01969X0.05512*%
%ADD60O,0.08661X0.01575*%
%ADD61R,0.08661X0.01575*%
%ADD62R,0.18110X0.09252*%
%ADD63O,0.01378X0.06299*%
%ADD64R,0.07087X0.07874*%
%ADD65R,0.03543X0.01575*%
%ADD66R,0.09843X0.09646*%
%ADD67R,0.03937X0.04921*%
%ADD68O,0.02165X0.07874*%
%ADD69R,0.15000X0.19685*%
%ADD70R,0.01575X0.03543*%
%ADD71R,0.06000X0.06299*%
%ADD72R,0.06299X0.06000*%
%ADD73C,0.00787*%
%ADD74C,0.00141*%
%ADD75C,0.01378*%
%ADD76C,0.01200*%
%ADD77O,0.09461X0.03162*%
%ADD78R,0.03800X0.04343*%
%ADD79R,0.05918X0.06312*%
%ADD80R,0.06312X0.05918*%
%ADD81R,0.04343X0.03800*%
%ADD82R,0.05800X0.07493*%
%ADD83R,0.05721X0.04737*%
%ADD84R,0.09461X0.03162*%
%ADD85O,0.09461X0.03162*%
%ADD86O,0.03162X0.09461*%
%ADD87R,0.10249X0.10642*%
%ADD88C,0.06706*%
%ADD89R,0.06706X0.06706*%
%ADD90C,0.05918*%
%ADD91C,0.08674*%
%ADD92O,0.11036X0.08674*%
%ADD93O,0.09068X0.08674*%
%ADD94R,0.05918X0.10642*%
%ADD95O,0.05918X0.10642*%
%ADD96C,0.06300*%
%ADD97C,0.07493*%
%ADD98R,0.07099X0.07099*%
%ADD99C,0.07099*%
%ADD100C,2.76391*%
%ADD101C,0.40170*%
%ADD102C,0.20485*%
%ADD103C,0.05800*%
%ADD104R,0.10446X0.10642*%
%ADD105R,0.10642X0.10249*%
%ADD106R,0.03162X0.09461*%
%ADD107O,0.03162X0.09461*%
%ADD108R,0.21666X0.07887*%
%ADD109O,0.04737X0.01824*%
%ADD110O,0.01824X0.04737*%
%ADD111R,0.04737X0.01824*%
%ADD112R,0.04343X0.02375*%
%ADD113R,0.10249X0.13398*%
%ADD114R,0.07493X0.05800*%
%ADD115O,0.09461X0.02375*%
%ADD116R,0.09461X0.02375*%
%ADD117R,0.18910X0.10052*%
%ADD118O,0.02178X0.07099*%
%ADD119R,0.07887X0.08674*%
%ADD120R,0.04343X0.02375*%
%ADD121R,0.10642X0.10446*%
%ADD122R,0.04737X0.05721*%
%ADD123O,0.02965X0.08674*%
%ADD124R,0.15800X0.20485*%
%ADD125R,0.02375X0.04343*%
%ADD126R,0.06800X0.07099*%
%ADD127R,0.07099X0.06800*%
%ADD128C,0.00394*%
%ADD129C,0.00800*%
%ADD130C,0.00150*%
%ADD131C,0.00500*%
%ADD132C,0.00667*%
%ADD133C,0.00400*%
D131*
X-140055Y-258724D02*
Y-254724D01*
X-136055D01*
Y-258724D01*
X-140055D01*
X-130055D02*
Y-254724D01*
X-126055D01*
Y-258724D01*
X-130055D01*
X-140055Y-248724D02*
Y-244724D01*
X-136055D01*
Y-248724D01*
X-140055D01*
X-130055D02*
Y-244724D01*
X-126055D01*
Y-248724D01*
X-130055D01*
X92279Y-248953D02*
Y-244953D01*
X96280D01*
Y-248953D01*
X92279D01*
X102279D02*
Y-244953D01*
X106280D01*
Y-248953D01*
X102279D01*
X92279Y-258953D02*
Y-254953D01*
X96280D01*
Y-258953D01*
X92279D01*
X102279D02*
Y-254953D01*
X106280D01*
Y-258953D01*
X102279D01*
X-311539Y-51406D02*
X-313539Y-47405D01*
X-309539D01*
X-311539Y-51406D01*
X-301500D02*
X-300500Y-50406D01*
X-299500D01*
X-300500Y-49406D01*
X-299500Y-48406D01*
X-300500D01*
X-301500Y-47405D01*
X-302500Y-48406D01*
X-303500D01*
X-302500Y-49406D01*
X-303500Y-50406D01*
X-302500D01*
X-301500Y-51406D01*
X-291461D02*
X-293461Y-47405D01*
X-289461D01*
X-291461Y-51406D01*
X-311539Y-89595D02*
X-313539Y-85594D01*
X-309539D01*
X-311539Y-89595D01*
X-301500D02*
X-300500Y-88595D01*
X-299500D01*
X-300500Y-87594D01*
X-299500Y-86594D01*
X-300500D01*
X-301500Y-85594D01*
X-302500Y-86594D01*
X-303500D01*
X-302500Y-87594D01*
X-303500Y-88595D01*
X-302500D01*
X-301500Y-89595D01*
X-291461D02*
X-293461Y-85594D01*
X-289461D01*
X-291461Y-89595D01*
X-266539Y-149406D02*
X-268539Y-145405D01*
X-264539D01*
X-266539Y-149406D01*
X-256500D02*
X-255500Y-148406D01*
X-254500D01*
X-255500Y-147406D01*
X-254500Y-146405D01*
X-255500D01*
X-256500Y-145405D01*
X-257500Y-146405D01*
X-258500D01*
X-257500Y-147406D01*
X-258500Y-148406D01*
X-257500D01*
X-256500Y-149406D01*
X-246461D02*
X-248461Y-145405D01*
X-244461D01*
X-246461Y-149406D01*
X-266539Y-187594D02*
X-268539Y-183595D01*
X-264539D01*
X-266539Y-187594D01*
X-256500D02*
X-255500Y-186594D01*
X-254500D01*
X-255500Y-185594D01*
X-254500Y-184595D01*
X-255500D01*
X-256500Y-183595D01*
X-257500Y-184595D01*
X-258500D01*
X-257500Y-185594D01*
X-258500Y-186594D01*
X-257500D01*
X-256500Y-187594D01*
X-246461D02*
X-248461Y-183595D01*
X-244461D01*
X-246461Y-187594D01*
X-194039Y-226406D02*
X-196039Y-222406D01*
X-192039D01*
X-194039Y-226406D01*
X-184000D02*
X-183000Y-225406D01*
X-182000D01*
X-183000Y-224406D01*
X-182000Y-223406D01*
X-183000D01*
X-184000Y-222406D01*
X-185000Y-223406D01*
X-186000D01*
X-185000Y-224406D01*
X-186000Y-225406D01*
X-185000D01*
X-184000Y-226406D01*
X-173961D02*
X-175961Y-222406D01*
X-171961D01*
X-173961Y-226406D01*
X-194039Y-264595D02*
X-196039Y-260595D01*
X-192039D01*
X-194039Y-264595D01*
X-184000D02*
X-183000Y-263595D01*
X-182000D01*
X-183000Y-262595D01*
X-182000Y-261595D01*
X-183000D01*
X-184000Y-260595D01*
X-185000Y-261595D01*
X-186000D01*
X-185000Y-262595D01*
X-186000Y-263595D01*
X-185000D01*
X-184000Y-264595D01*
X-173961D02*
X-175961Y-260595D01*
X-171961D01*
X-173961Y-264595D01*
X194039D02*
X192039Y-260595D01*
X196039D01*
X194039Y-264595D01*
X184000D02*
X185000Y-263595D01*
X186000D01*
X185000Y-262595D01*
X186000Y-261595D01*
X185000D01*
X184000Y-260595D01*
X183000Y-261595D01*
X182000D01*
X183000Y-262595D01*
X182000Y-263595D01*
X183000D01*
X184000Y-264595D01*
X173961D02*
X171961Y-260595D01*
X175961D01*
X173961Y-264595D01*
X194039Y-226406D02*
X192039Y-222406D01*
X196039D01*
X194039Y-226406D01*
X184000D02*
X185000Y-225406D01*
X186000D01*
X185000Y-224406D01*
X186000Y-223406D01*
X185000D01*
X184000Y-222406D01*
X183000Y-223406D01*
X182000D01*
X183000Y-224406D01*
X182000Y-225406D01*
X183000D01*
X184000Y-226406D01*
X173961D02*
X171961Y-222406D01*
X175961D01*
X173961Y-226406D01*
X311539Y-89595D02*
X309539Y-85594D01*
X313539D01*
X311539Y-89595D01*
X301500D02*
X302500Y-88595D01*
X303500D01*
X302500Y-87594D01*
X303500Y-86594D01*
X302500D01*
X301500Y-85594D01*
X300500Y-86594D01*
X299500D01*
X300500Y-87594D01*
X299500Y-88595D01*
X300500D01*
X301500Y-89595D01*
X291461D02*
X289461Y-85594D01*
X293461D01*
X291461Y-89595D01*
X311539Y-51406D02*
X309539Y-47405D01*
X313539D01*
X311539Y-51406D01*
X301500D02*
X302500Y-50406D01*
X303500D01*
X302500Y-49406D01*
X303500Y-48406D01*
X302500D01*
X301500Y-47405D01*
X300500Y-48406D01*
X299500D01*
X300500Y-49406D01*
X299500Y-50406D01*
X300500D01*
X301500Y-51406D01*
X291461D02*
X289461Y-47405D01*
X293461D01*
X291461Y-51406D01*
X238039Y182905D02*
X236039Y186906D01*
X240039D01*
X238039Y182905D01*
X228000D02*
X229000Y183905D01*
X230000D01*
X229000Y184906D01*
X230000Y185906D01*
X229000D01*
X228000Y186906D01*
X227000Y185906D01*
X226000D01*
X227000Y184906D01*
X226000Y183905D01*
X227000D01*
X228000Y182905D01*
X217961D02*
X215961Y186906D01*
X219961D01*
X217961Y182905D01*
X238039Y221094D02*
X236039Y225095D01*
X240039D01*
X238039Y221094D01*
X228000D02*
X229000Y222094D01*
X230000D01*
X229000Y223095D01*
X230000Y224095D01*
X229000D01*
X228000Y225095D01*
X227000Y224095D01*
X226000D01*
X227000Y223095D01*
X226000Y222094D01*
X227000D01*
X228000Y221094D01*
X217961D02*
X215961Y225095D01*
X219961D01*
X217961Y221094D01*
X179039Y182905D02*
X177039Y186906D01*
X181039D01*
X179039Y182905D01*
X169000D02*
X170000Y183905D01*
X171000D01*
X170000Y184906D01*
X171000Y185906D01*
X170000D01*
X169000Y186906D01*
X168000Y185906D01*
X167000D01*
X168000Y184906D01*
X167000Y183905D01*
X168000D01*
X169000Y182905D01*
X158961D02*
X156961Y186906D01*
X160961D01*
X158961Y182905D01*
X179039Y221094D02*
X177039Y225095D01*
X181039D01*
X179039Y221094D01*
X169000D02*
X170000Y222094D01*
X171000D01*
X170000Y223095D01*
X171000Y224095D01*
X170000D01*
X169000Y225095D01*
X168000Y224095D01*
X167000D01*
X168000Y223095D01*
X167000Y222094D01*
X168000D01*
X169000Y221094D01*
X158961D02*
X156961Y225095D01*
X160961D01*
X158961Y221094D01*
X179039Y234906D02*
X177039Y238906D01*
X181039D01*
X179039Y234906D01*
X169000D02*
X170000Y235906D01*
X171000D01*
X170000Y236906D01*
X171000Y237906D01*
X170000D01*
X169000Y238906D01*
X168000Y237906D01*
X167000D01*
X168000Y236906D01*
X167000Y235906D01*
X168000D01*
X169000Y234906D01*
X158961D02*
X156961Y238906D01*
X160961D01*
X158961Y234906D01*
X179039Y273095D02*
X177039Y277095D01*
X181039D01*
X179039Y273095D01*
X169000D02*
X170000Y274095D01*
X171000D01*
X170000Y275095D01*
X171000Y276095D01*
X170000D01*
X169000Y277095D01*
X168000Y276095D01*
X167000D01*
X168000Y275095D01*
X167000Y274095D01*
X168000D01*
X169000Y273095D01*
X158961D02*
X156961Y277095D01*
X160961D01*
X158961Y273095D01*
X7500Y203500D02*
Y207500D01*
X11500D01*
Y203500D01*
X7500D01*
X17500D02*
Y207500D01*
X21500D01*
Y203500D01*
X17500D01*
X27500D02*
Y207500D01*
X31500D01*
Y203500D01*
X27500D01*
X37500D02*
Y207500D01*
X41500D01*
Y203500D01*
X37500D01*
X47500D02*
Y207500D01*
X51500D01*
Y203500D01*
X47500D01*
X57500D02*
Y207500D01*
X61500D01*
Y203500D01*
X57500D01*
X67500D02*
Y207500D01*
X71500D01*
Y203500D01*
X67500D01*
X77500D02*
Y207500D01*
X81500D01*
Y203500D01*
X77500D01*
X87500D02*
Y207500D01*
X91500D01*
Y203500D01*
X87500D01*
X7500Y263500D02*
Y267500D01*
X11500D01*
Y263500D01*
X7500D01*
X17500D02*
Y267500D01*
X21500D01*
Y263500D01*
X17500D01*
X27500D02*
Y267500D01*
X31500D01*
Y263500D01*
X27500D01*
X37500D02*
Y267500D01*
X41500D01*
Y263500D01*
X37500D01*
X47500D02*
Y267500D01*
X51500D01*
Y263500D01*
X47500D01*
X57500D02*
Y267500D01*
X61500D01*
Y263500D01*
X57500D01*
X67500D02*
Y267500D01*
X71500D01*
Y263500D01*
X67500D01*
X77500D02*
Y267500D01*
X81500D01*
Y263500D01*
X77500D01*
X87500D02*
Y267500D01*
X91500D01*
Y263500D01*
X87500D01*
X-11500D02*
Y267500D01*
X-7500D01*
Y263500D01*
X-11500D01*
X-21500D02*
Y267500D01*
X-17500D01*
Y263500D01*
X-21500D01*
X-31500D02*
Y267500D01*
X-27500D01*
Y263500D01*
X-31500D01*
X-41500D02*
Y267500D01*
X-37500D01*
Y263500D01*
X-41500D01*
X-51500D02*
Y267500D01*
X-47500D01*
Y263500D01*
X-51500D01*
X-61500D02*
Y267500D01*
X-57500D01*
Y263500D01*
X-61500D01*
X-71500D02*
Y267500D01*
X-67500D01*
Y263500D01*
X-71500D01*
X-81500D02*
Y267500D01*
X-77500D01*
Y263500D01*
X-81500D01*
X-91500D02*
Y267500D01*
X-87500D01*
Y263500D01*
X-91500D01*
X-11500Y203500D02*
Y207500D01*
X-7500D01*
Y203500D01*
X-11500D01*
X-21500D02*
Y207500D01*
X-17500D01*
Y203500D01*
X-21500D01*
X-31500D02*
Y207500D01*
X-27500D01*
Y203500D01*
X-31500D01*
X-41500D02*
Y207500D01*
X-37500D01*
Y203500D01*
X-41500D01*
X-51500D02*
Y207500D01*
X-47500D01*
Y203500D01*
X-51500D01*
X-61500D02*
Y207500D01*
X-57500D01*
Y203500D01*
X-61500D01*
X-71500D02*
Y207500D01*
X-67500D01*
Y203500D01*
X-71500D01*
X-81500D02*
Y207500D01*
X-77500D01*
Y203500D01*
X-81500D01*
X-91500D02*
Y207500D01*
X-87500D01*
Y203500D01*
X-91500D01*
X-142500Y235000D02*
X-141500Y237000D01*
X-142500Y239000D01*
X-140500Y238000D01*
X-138500Y239000D01*
X-139500Y237000D01*
X-138500Y235000D01*
X-140500Y236000D01*
X-142500Y235000D01*
Y225000D02*
X-141500Y227000D01*
X-142500Y229000D01*
X-140500Y228000D01*
X-138500Y229000D01*
X-139500Y227000D01*
X-138500Y225000D01*
X-140500Y226000D01*
X-142500Y225000D01*
X-179039Y273095D02*
X-181039Y277095D01*
X-177039D01*
X-179039Y273095D01*
X-169000D02*
X-168000Y274095D01*
X-167000D01*
X-168000Y275095D01*
X-167000Y276095D01*
X-168000D01*
X-169000Y277095D01*
X-170000Y276095D01*
X-171000D01*
X-170000Y275095D01*
X-171000Y274095D01*
X-170000D01*
X-169000Y273095D01*
X-158961D02*
X-160961Y277095D01*
X-156961D01*
X-158961Y273095D01*
X-179039Y234906D02*
X-181039Y238906D01*
X-177039D01*
X-179039Y234906D01*
X-169000D02*
X-168000Y235906D01*
X-167000D01*
X-168000Y236906D01*
X-167000Y237906D01*
X-168000D01*
X-169000Y238906D01*
X-170000Y237906D01*
X-171000D01*
X-170000Y236906D01*
X-171000Y235906D01*
X-170000D01*
X-169000Y234906D01*
X-158961D02*
X-160961Y238906D01*
X-156961D01*
X-158961Y234906D01*
X-179039Y221094D02*
X-181039Y225095D01*
X-177039D01*
X-179039Y221094D01*
X-169000D02*
X-168000Y222094D01*
X-167000D01*
X-168000Y223095D01*
X-167000Y224095D01*
X-168000D01*
X-169000Y225095D01*
X-170000Y224095D01*
X-171000D01*
X-170000Y223095D01*
X-171000Y222094D01*
X-170000D01*
X-169000Y221094D01*
X-158961D02*
X-160961Y225095D01*
X-156961D01*
X-158961Y221094D01*
X-179039Y182905D02*
X-181039Y186906D01*
X-177039D01*
X-179039Y182905D01*
X-169000D02*
X-168000Y183905D01*
X-167000D01*
X-168000Y184906D01*
X-167000Y185906D01*
X-168000D01*
X-169000Y186906D01*
X-170000Y185906D01*
X-171000D01*
X-170000Y184906D01*
X-171000Y183905D01*
X-170000D01*
X-169000Y182905D01*
X-158961D02*
X-160961Y186906D01*
X-156961D01*
X-158961Y182905D01*
X-238039Y221094D02*
X-240039Y225095D01*
X-236039D01*
X-238039Y221094D01*
X-228000D02*
X-227000Y222094D01*
X-226000D01*
X-227000Y223095D01*
X-226000Y224095D01*
X-227000D01*
X-228000Y225095D01*
X-229000Y224095D01*
X-230000D01*
X-229000Y223095D01*
X-230000Y222094D01*
X-229000D01*
X-228000Y221094D01*
X-217961D02*
X-219961Y225095D01*
X-215961D01*
X-217961Y221094D01*
X-238039Y182905D02*
X-240039Y186906D01*
X-236039D01*
X-238039Y182905D01*
X-228000D02*
X-227000Y183905D01*
X-226000D01*
X-227000Y184906D01*
X-226000Y185906D01*
X-227000D01*
X-228000Y186906D01*
X-229000Y185906D01*
X-230000D01*
X-229000Y184906D01*
X-230000Y183905D01*
X-229000D01*
X-228000Y182905D01*
X-217961D02*
X-219961Y186906D01*
X-215961D01*
X-217961Y182905D01*
X-117500Y-153142D02*
Y-154142D01*
X-115500D01*
Y-153142D01*
X-114500D01*
Y-151142D01*
X-115500D01*
Y-150142D01*
X-117500D01*
Y-151142D01*
X-118500D01*
Y-153142D01*
X-117500D01*
Y-172354D02*
Y-173354D01*
X-115500D01*
Y-172354D01*
X-114500D01*
Y-170354D01*
X-115500D01*
Y-169354D01*
X-117500D01*
Y-170354D01*
X-118500D01*
Y-172354D01*
X-117500D01*
X-225500Y-184500D02*
Y-180500D01*
X-221500D01*
Y-184500D01*
X-225500D01*
Y-194500D02*
Y-190500D01*
X-221500D01*
Y-194500D01*
X-225500D01*
X-215500Y-184500D02*
Y-180500D01*
X-211500D01*
Y-184500D01*
X-215500D01*
Y-194500D02*
Y-190500D01*
X-211500D01*
Y-194500D01*
X-215500D01*
X-205500Y-184500D02*
Y-180500D01*
X-201500D01*
Y-184500D01*
X-205500D01*
Y-194500D02*
Y-190500D01*
X-201500D01*
Y-194500D01*
X-205500D01*
X-195500Y-184500D02*
Y-180500D01*
X-191500D01*
Y-184500D01*
X-195500D01*
Y-194500D02*
Y-190500D01*
X-191500D01*
Y-194500D01*
X-195500D01*
X228000Y-103642D02*
Y-104642D01*
X230000D01*
Y-103642D01*
X231000D01*
Y-101642D01*
X230000D01*
Y-100642D01*
X228000D01*
Y-101642D01*
X227000D01*
Y-103642D01*
X228000D01*
Y-122854D02*
Y-123854D01*
X230000D01*
Y-122854D01*
X231000D01*
Y-120854D01*
X230000D01*
Y-119854D01*
X228000D01*
Y-120854D01*
X227000D01*
Y-122854D01*
X228000D01*
X98500Y-118500D02*
Y-114500D01*
X102500D01*
Y-118500D01*
X98500D01*
Y-128500D02*
Y-124500D01*
X102500D01*
Y-128500D01*
X98500D01*
X108500Y-118500D02*
Y-114500D01*
X112500D01*
Y-118500D01*
X108500D01*
Y-128500D02*
Y-124500D01*
X112500D01*
Y-128500D01*
X108500D01*
X118500Y-118500D02*
Y-114500D01*
X122500D01*
Y-118500D01*
X118500D01*
Y-128500D02*
Y-124500D01*
X122500D01*
Y-128500D01*
X118500D01*
X128500Y-118500D02*
Y-114500D01*
X132500D01*
Y-118500D01*
X128500D01*
Y-128500D02*
Y-124500D01*
X132500D01*
Y-128500D01*
X128500D01*
X-77500Y301500D02*
X-76500Y303500D01*
X-77500Y305500D01*
X-75500Y304500D01*
X-73500Y305500D01*
X-74500Y303500D01*
X-73500Y301500D01*
X-75500Y302500D01*
X-77500Y301500D01*
X-87500D02*
X-86500Y303500D01*
X-87500Y305500D01*
X-85500Y304500D01*
X-83500Y305500D01*
X-84500Y303500D01*
X-83500Y301500D01*
X-85500Y302500D01*
X-87500Y301500D01*
X266539Y-187594D02*
X264539Y-183595D01*
X268539D01*
X266539Y-187594D01*
X256500D02*
X257500Y-186594D01*
X258500D01*
X257500Y-185594D01*
X258500Y-184595D01*
X257500D01*
X256500Y-183595D01*
X255500Y-184595D01*
X254500D01*
X255500Y-185594D01*
X254500Y-186594D01*
X255500D01*
X256500Y-187594D01*
X246461D02*
X244461Y-183595D01*
X248461D01*
X246461Y-187594D01*
X266539Y-149406D02*
X264539Y-145405D01*
X268539D01*
X266539Y-149406D01*
X256500D02*
X257500Y-148406D01*
X258500D01*
X257500Y-147406D01*
X258500Y-146405D01*
X257500D01*
X256500Y-145405D01*
X255500Y-146405D01*
X254500D01*
X255500Y-147406D01*
X254500Y-148406D01*
X255500D01*
X256500Y-149406D01*
X246461D02*
X244461Y-145405D01*
X248461D01*
X246461Y-149406D01*
X-54429Y307500D02*
X-53429Y309500D01*
X-54429Y311500D01*
X-52429Y310500D01*
X-50429Y311500D01*
X-51429Y309500D01*
X-50429Y307500D01*
X-52429Y308500D01*
X-54429Y307500D01*
X-64429D02*
X-63429Y309500D01*
X-64429Y311500D01*
X-62429Y310500D01*
X-60429Y311500D01*
X-61429Y309500D01*
X-60429Y307500D01*
X-62429Y308500D01*
X-64429Y307500D01*
X-31357Y311000D02*
X-30357Y313000D01*
X-31357Y315000D01*
X-29357Y314000D01*
X-27357Y315000D01*
X-28357Y313000D01*
X-27357Y311000D01*
X-29357Y312000D01*
X-31357Y311000D01*
X-41357D02*
X-40357Y313000D01*
X-41357Y315000D01*
X-39357Y314000D01*
X-37357Y315000D01*
X-38357Y313000D01*
X-37357Y311000D01*
X-39357Y312000D01*
X-41357Y311000D01*
X-8286Y312000D02*
X-7286Y314000D01*
X-8286Y316000D01*
X-6286Y315000D01*
X-4286Y316000D01*
X-5286Y314000D01*
X-4286Y312000D01*
X-6286Y313000D01*
X-8286Y312000D01*
X-18286D02*
X-17286Y314000D01*
X-18286Y316000D01*
X-16286Y315000D01*
X-14286Y316000D01*
X-15286Y314000D01*
X-14286Y312000D01*
X-16286Y313000D01*
X-18286Y312000D01*
X14786D02*
X15786Y314000D01*
X14786Y316000D01*
X16786Y315000D01*
X18786Y316000D01*
X17786Y314000D01*
X18786Y312000D01*
X16786Y313000D01*
X14786Y312000D01*
X4786D02*
X5786Y314000D01*
X4786Y316000D01*
X6786Y315000D01*
X8786Y316000D01*
X7786Y314000D01*
X8786Y312000D01*
X6786Y313000D01*
X4786Y312000D01*
X37857Y311000D02*
X38857Y313000D01*
X37857Y315000D01*
X39857Y314000D01*
X41857Y315000D01*
X40857Y313000D01*
X41857Y311000D01*
X39857Y312000D01*
X37857Y311000D01*
X27857D02*
X28857Y313000D01*
X27857Y315000D01*
X29857Y314000D01*
X31857Y315000D01*
X30857Y313000D01*
X31857Y311000D01*
X29857Y312000D01*
X27857Y311000D01*
X60928Y307500D02*
X61928Y309500D01*
X60928Y311500D01*
X62928Y310500D01*
X64929Y311500D01*
X63929Y309500D01*
X64929Y307500D01*
X62928Y308500D01*
X60928Y307500D01*
X50928D02*
X51929Y309500D01*
X50928Y311500D01*
X52929Y310500D01*
X54928Y311500D01*
X53929Y309500D01*
X54928Y307500D01*
X52929Y308500D01*
X50928Y307500D01*
X84000Y301500D02*
X85000Y303500D01*
X84000Y305500D01*
X86000Y304500D01*
X88000Y305500D01*
X87000Y303500D01*
X88000Y301500D01*
X86000Y302500D01*
X84000Y301500D01*
X74000D02*
X75000Y303500D01*
X74000Y305500D01*
X76000Y304500D01*
X78000Y305500D01*
X77000Y303500D01*
X78000Y301500D01*
X76000Y302500D01*
X74000Y301500D01*
X-2000Y-2000D02*
X-1000D01*
X0Y-1000D01*
X1000Y-2000D01*
X2000D01*
Y-1000D01*
X1000Y-0D01*
X2000Y1000D01*
Y2000D01*
X1000D01*
X0Y1000D01*
X-1000Y2000D01*
X-2000D01*
Y1000D01*
X-1000Y-0D01*
X-2000Y-1000D01*
Y-2000D01*
X-41370Y-212598D02*
X-39370Y-210598D01*
X-37370Y-212598D01*
X-39370Y-214598D01*
X-41370Y-212598D01*
X37370D02*
X39370Y-210598D01*
X41370Y-212598D01*
X39370Y-214598D01*
X37370Y-212598D01*
X67055Y171976D02*
Y175976D01*
X71055D01*
Y171976D01*
X67055D01*
X67855Y172776D02*
Y175176D01*
X70255D01*
Y172776D01*
X67855D01*
X-71055Y171976D02*
Y175976D01*
X-67055D01*
Y171976D01*
X-71055D01*
X-70255Y172776D02*
Y175176D01*
X-67855D01*
Y172776D01*
X-70255D01*
X163354Y118110D02*
X165354Y120110D01*
X167354Y118110D01*
X165354Y116110D01*
X163354Y118110D01*
Y59055D02*
X165354Y61055D01*
X167354Y59055D01*
X165354Y57055D01*
X163354Y59055D01*
X-167354D02*
X-165354Y61055D01*
X-163354Y59055D01*
X-165354Y57055D01*
X-167354Y59055D01*
Y118110D02*
X-165354Y120110D01*
X-163354Y118110D01*
X-165354Y116110D01*
X-167354Y118110D01*
X200500Y237500D02*
Y241500D01*
X204500D01*
Y237500D01*
X200500D01*
X201300Y238300D02*
Y240700D01*
X203700D01*
Y238300D01*
X201300D01*
X-204500Y237500D02*
Y241500D01*
X-200500D01*
Y237500D01*
X-204500D01*
X-203700Y238300D02*
Y240700D01*
X-201300D01*
Y238300D01*
X-203700D01*
X282000Y-119500D02*
Y-115500D01*
X286000D01*
Y-119500D01*
X282000D01*
X282800Y-118700D02*
Y-116300D01*
X285200D01*
Y-118700D01*
X282800D01*
X-286000Y-119500D02*
Y-115500D01*
X-282000D01*
Y-119500D01*
X-286000D01*
X-285200Y-118700D02*
Y-116300D01*
X-282800D01*
Y-118700D01*
X-285200D01*
X219500Y-213437D02*
Y-209437D01*
X223500D01*
Y-213437D01*
X219500D01*
X220300Y-212637D02*
Y-210237D01*
X222700D01*
Y-212637D01*
X220300D01*
X-223500Y-213437D02*
Y-209437D01*
X-219500D01*
Y-213437D01*
X-223500D01*
X-222700Y-212637D02*
Y-210237D01*
X-220300D01*
Y-212637D01*
X-222700D01*
X-120000Y193000D02*
X-119000Y195000D01*
X-120000Y197000D01*
X-118000Y196000D01*
X-116000Y197000D01*
X-117000Y195000D01*
X-116000Y193000D01*
X-118000Y194000D01*
X-120000Y193000D01*
X-113000Y-208000D02*
X-112000Y-206000D01*
X-113000Y-204000D01*
X-111000Y-205000D01*
X-109000Y-204000D01*
X-110000Y-206000D01*
X-109000Y-208000D01*
X-111000Y-207000D01*
X-113000Y-208000D01*
X-173000Y-139250D02*
X-172000Y-137250D01*
X-173000Y-135250D01*
X-171000Y-136250D01*
X-169000Y-135250D01*
X-170000Y-137250D01*
X-169000Y-139250D01*
X-171000Y-138250D01*
X-173000Y-139250D01*
X-148787Y-144713D02*
X-147787Y-142713D01*
X-148787Y-140713D01*
X-146787Y-141713D01*
X-144787Y-140713D01*
X-145787Y-142713D01*
X-144787Y-144713D01*
X-146787Y-143713D01*
X-148787Y-144713D01*
X129000Y176000D02*
X130000Y178000D01*
X129000Y180000D01*
X131000Y179000D01*
X133000Y180000D01*
X132000Y178000D01*
X133000Y176000D01*
X131000Y177000D01*
X129000Y176000D01*
X-166500Y-197500D02*
X-165500Y-195500D01*
X-166500Y-193500D01*
X-164500Y-194500D01*
X-162500Y-193500D01*
X-163500Y-195500D01*
X-162500Y-197500D01*
X-164500Y-196500D01*
X-166500Y-197500D01*
X-104000Y232500D02*
X-103000Y234500D01*
X-104000Y236500D01*
X-102000Y235500D01*
X-100000Y236500D01*
X-101000Y234500D01*
X-100000Y232500D01*
X-102000Y233500D01*
X-104000Y232500D01*
X-214000Y-62500D02*
X-213000Y-60500D01*
X-214000Y-58500D01*
X-212000Y-59500D01*
X-210000Y-58500D01*
X-211000Y-60500D01*
X-210000Y-62500D01*
X-212000Y-61500D01*
X-214000Y-62500D01*
X-142500Y213000D02*
X-141500Y215000D01*
X-142500Y217000D01*
X-140500Y216000D01*
X-138500Y217000D01*
X-139500Y215000D01*
X-138500Y213000D01*
X-140500Y214000D01*
X-142500Y213000D01*
X-149500Y221500D02*
X-148500Y223500D01*
X-149500Y225500D01*
X-147500Y224500D01*
X-145500Y225500D01*
X-146500Y223500D01*
X-145500Y221500D01*
X-147500Y222500D01*
X-149500Y221500D01*
X200500Y-97500D02*
X201500Y-95500D01*
X200500Y-93500D01*
X202500Y-94500D01*
X204500Y-93500D01*
X203500Y-95500D01*
X204500Y-97500D01*
X202500Y-96500D01*
X200500Y-97500D01*
X-143500Y-209500D02*
X-142500Y-207500D01*
X-143500Y-205500D01*
X-141500Y-206500D01*
X-139500Y-205500D01*
X-140500Y-207500D01*
X-139500Y-209500D01*
X-141500Y-208500D01*
X-143500Y-209500D01*
X187500Y-43500D02*
X188500Y-41500D01*
X187500Y-39500D01*
X189500Y-40500D01*
X191500Y-39500D01*
X190500Y-41500D01*
X191500Y-43500D01*
X189500Y-42500D01*
X187500Y-43500D01*
X184000Y-49000D02*
X185000Y-47000D01*
X184000Y-45000D01*
X186000Y-46000D01*
X188000Y-45000D01*
X187000Y-47000D01*
X188000Y-49000D01*
X186000Y-48000D01*
X184000Y-49000D01*
X-182000Y-69000D02*
X-181000Y-67000D01*
X-182000Y-65000D01*
X-180000Y-66000D01*
X-178000Y-65000D01*
X-179000Y-67000D01*
X-178000Y-69000D01*
X-180000Y-68000D01*
X-182000Y-69000D01*
X-99500Y266500D02*
X-98500Y268500D01*
X-99500Y270500D01*
X-97500Y269500D01*
X-95500Y270500D01*
X-96500Y268500D01*
X-95500Y266500D01*
X-97500Y267500D01*
X-99500Y266500D01*
X-188500Y-65500D02*
X-187500Y-63500D01*
X-188500Y-61500D01*
X-186500Y-62500D01*
X-184500Y-61500D01*
X-185500Y-63500D01*
X-184500Y-65500D01*
X-186500Y-64500D01*
X-188500Y-65500D01*
X-161500Y-111500D02*
X-160500Y-109500D01*
X-161500Y-107500D01*
X-159500Y-108500D01*
X-157500Y-107500D01*
X-158500Y-109500D01*
X-157500Y-111500D01*
X-159500Y-110500D01*
X-161500Y-111500D01*
X-203500Y-93500D02*
X-202500Y-91500D01*
X-203500Y-89500D01*
X-201500Y-90500D01*
X-199500Y-89500D01*
X-200500Y-91500D01*
X-199500Y-93500D01*
X-201500Y-92500D01*
X-203500Y-93500D01*
X-94500Y302500D02*
X-93500Y304500D01*
X-94500Y306500D01*
X-92500Y305500D01*
X-90500Y306500D01*
X-91500Y304500D01*
X-90500Y302500D01*
X-92500Y303500D01*
X-94500Y302500D01*
X95000Y265000D02*
X96000Y267000D01*
X95000Y269000D01*
X97000Y268000D01*
X99000Y269000D01*
X98000Y267000D01*
X99000Y265000D01*
X97000Y266000D01*
X95000Y265000D01*
X100500Y237500D02*
X101500Y239500D01*
X100500Y241500D01*
X102500Y240500D01*
X104500Y241500D01*
X103500Y239500D01*
X104500Y237500D01*
X102500Y238500D01*
X100500Y237500D01*
X123000Y152000D02*
X124000Y154000D01*
X123000Y156000D01*
X125000Y155000D01*
X127000Y156000D01*
X126000Y154000D01*
X127000Y152000D01*
X125000Y153000D01*
X123000Y152000D01*
X-41500Y189000D02*
X-40500Y191000D01*
X-41500Y193000D01*
X-39500Y192000D01*
X-37500Y193000D01*
X-38500Y191000D01*
X-37500Y189000D01*
X-39500Y190000D01*
X-41500Y189000D01*
X33500Y161000D02*
X34500Y163000D01*
X33500Y165000D01*
X35500Y164000D01*
X37500Y165000D01*
X36500Y163000D01*
X37500Y161000D01*
X35500Y162000D01*
X33500Y161000D01*
X-2000Y159000D02*
X-1000Y161000D01*
X-2000Y163000D01*
X0Y162000D01*
X2000Y163000D01*
X1000Y161000D01*
X2000Y159000D01*
X0Y160000D01*
X-2000Y159000D01*
X-141374Y163693D02*
X-140374Y165693D01*
X-141374Y167693D01*
X-139374Y166693D01*
X-137374Y167693D01*
X-138374Y165693D01*
X-137374Y163693D01*
X-139374Y164693D01*
X-141374Y163693D01*
X-191000Y-55500D02*
X-190000Y-53500D01*
X-191000Y-51500D01*
X-189000Y-52500D01*
X-187000Y-51500D01*
X-188000Y-53500D01*
X-187000Y-55500D01*
X-189000Y-54500D01*
X-191000Y-55500D01*
X36500Y189000D02*
X37500Y191000D01*
X36500Y193000D01*
X38500Y192000D01*
X40500Y193000D01*
X39500Y191000D01*
X40500Y189000D01*
X38500Y190000D01*
X36500Y189000D01*
X123000Y185500D02*
X124000Y187500D01*
X123000Y189500D01*
X125000Y188500D01*
X127000Y189500D01*
X126000Y187500D01*
X127000Y185500D01*
X125000Y186500D01*
X123000Y185500D01*
X90500D02*
X91500Y187500D01*
X90500Y189500D01*
X92500Y188500D01*
X94500Y189500D01*
X93500Y187500D01*
X94500Y185500D01*
X92500Y186500D01*
X90500Y185500D01*
X-31500Y-144500D02*
X-30500Y-142500D01*
X-31500Y-140500D01*
X-29500Y-141500D01*
X-27500Y-140500D01*
X-28500Y-142500D01*
X-27500Y-144500D01*
X-29500Y-143500D01*
X-31500Y-144500D01*
X141500Y-213000D02*
X142500Y-211000D01*
X141500Y-209000D01*
X143500Y-210000D01*
X145500Y-209000D01*
X144500Y-211000D01*
X145500Y-213000D01*
X143500Y-212000D01*
X141500Y-213000D01*
X67500Y-200000D02*
X68500Y-198000D01*
X67500Y-196000D01*
X69500Y-197000D01*
X71500Y-196000D01*
X70500Y-198000D01*
X71500Y-200000D01*
X69500Y-199000D01*
X67500Y-200000D01*
X188000Y-146000D02*
X189000Y-144000D01*
X188000Y-142000D01*
X190000Y-143000D01*
X192000Y-142000D01*
X191000Y-144000D01*
X192000Y-146000D01*
X190000Y-145000D01*
X188000Y-146000D01*
X71500Y-194000D02*
X72500Y-192000D01*
X71500Y-190000D01*
X73500Y-191000D01*
X75500Y-190000D01*
X74500Y-192000D01*
X75500Y-194000D01*
X73500Y-193000D01*
X71500Y-194000D01*
X158500Y-168500D02*
X159500Y-166500D01*
X158500Y-164500D01*
X160500Y-165500D01*
X162500Y-164500D01*
X161500Y-166500D01*
X162500Y-168500D01*
X160500Y-167500D01*
X158500Y-168500D01*
X150000D02*
X151000Y-166500D01*
X150000Y-164500D01*
X152000Y-165500D01*
X154000Y-164500D01*
X153000Y-166500D01*
X154000Y-168500D01*
X152000Y-167500D01*
X150000Y-168500D01*
X209000Y-80500D02*
X210000Y-78500D01*
X209000Y-76500D01*
X211000Y-77500D01*
X213000Y-76500D01*
X212000Y-78500D01*
X213000Y-80500D01*
X211000Y-79500D01*
X209000Y-80500D01*
X159500Y-90000D02*
X160500Y-88000D01*
X159500Y-86000D01*
X161500Y-87000D01*
X163500Y-86000D01*
X162500Y-88000D01*
X163500Y-90000D01*
X161500Y-89000D01*
X159500Y-90000D01*
X197500Y-103500D02*
X198500Y-101500D01*
X197500Y-99500D01*
X199500Y-100500D01*
X201500Y-99500D01*
X200500Y-101500D01*
X201500Y-103500D01*
X199500Y-102500D01*
X197500Y-103500D01*
X187000Y-132000D02*
X188000Y-130000D01*
X187000Y-128000D01*
X189000Y-129000D01*
X191000Y-128000D01*
X190000Y-130000D01*
X191000Y-132000D01*
X189000Y-131000D01*
X187000Y-132000D01*
X-179500Y-139000D02*
X-178500Y-137000D01*
X-179500Y-135000D01*
X-177500Y-136000D01*
X-175500Y-135000D01*
X-176500Y-137000D01*
X-175500Y-139000D01*
X-177500Y-138000D01*
X-179500Y-139000D01*
X-99000Y-177000D02*
X-98000Y-175000D01*
X-99000Y-173000D01*
X-97000Y-174000D01*
X-95000Y-173000D01*
X-96000Y-175000D01*
X-95000Y-177000D01*
X-97000Y-176000D01*
X-99000Y-177000D01*
X-165000Y-169500D02*
X-164000Y-167500D01*
X-165000Y-165500D01*
X-163000Y-166500D01*
X-161000Y-165500D01*
X-162000Y-167500D01*
X-161000Y-169500D01*
X-163000Y-168500D01*
X-165000Y-169500D01*
X-123500Y-197500D02*
X-122500Y-195500D01*
X-123500Y-193500D01*
X-121500Y-194500D01*
X-119500Y-193500D01*
X-120500Y-195500D01*
X-119500Y-197500D01*
X-121500Y-196500D01*
X-123500Y-197500D01*
X-165000Y-154500D02*
X-164000Y-152500D01*
X-165000Y-150500D01*
X-163000Y-151500D01*
X-161000Y-150500D01*
X-162000Y-152500D01*
X-161000Y-154500D01*
X-163000Y-153500D01*
X-165000Y-154500D01*
X-172000Y-156000D02*
X-171000Y-154000D01*
X-172000Y-152000D01*
X-170000Y-153000D01*
X-168000Y-152000D01*
X-169000Y-154000D01*
X-168000Y-156000D01*
X-170000Y-155000D01*
X-172000Y-156000D01*
X-210500Y-172500D02*
X-209500Y-170500D01*
X-210500Y-168500D01*
X-208500Y-169500D01*
X-206500Y-168500D01*
X-207500Y-170500D01*
X-206500Y-172500D01*
X-208500Y-171500D01*
X-210500Y-172500D01*
X-148500Y-205000D02*
X-147500Y-203000D01*
X-148500Y-201000D01*
X-146500Y-202000D01*
X-144500Y-201000D01*
X-145500Y-203000D01*
X-144500Y-205000D01*
X-146500Y-204000D01*
X-148500Y-205000D01*
X-131500Y-157000D02*
X-130500Y-155000D01*
X-131500Y-153000D01*
X-129500Y-154000D01*
X-127500Y-153000D01*
X-128500Y-155000D01*
X-127500Y-157000D01*
X-129500Y-156000D01*
X-131500Y-157000D01*
X-210500Y-178500D02*
X-209500Y-176500D01*
X-210500Y-174500D01*
X-208500Y-175500D01*
X-206500Y-174500D01*
X-207500Y-176500D01*
X-206500Y-178500D01*
X-208500Y-177500D01*
X-210500Y-178500D01*
X-152500Y-209500D02*
X-151500Y-207500D01*
X-152500Y-205500D01*
X-150500Y-206500D01*
X-148500Y-205500D01*
X-149500Y-207500D01*
X-148500Y-209500D01*
X-150500Y-208500D01*
X-152500Y-209500D01*
X-135500Y-151500D02*
X-134500Y-149500D01*
X-135500Y-147500D01*
X-133500Y-148500D01*
X-131500Y-147500D01*
X-132500Y-149500D01*
X-131500Y-151500D01*
X-133500Y-150500D01*
X-135500Y-151500D01*
X255264Y-85500D02*
X256264Y-83500D01*
X255264Y-81500D01*
X257264Y-82500D01*
X259264Y-81500D01*
X258264Y-83500D01*
X259264Y-85500D01*
X257264Y-84500D01*
X255264Y-85500D01*
X-115957Y227500D02*
X-114957Y229500D01*
X-115957Y231500D01*
X-113957Y230500D01*
X-111957Y231500D01*
X-112957Y229500D01*
X-111957Y227500D01*
X-113957Y228500D01*
X-115957Y227500D01*
X-111000Y257500D02*
X-110000Y259500D01*
X-111000Y261500D01*
X-109000Y260500D01*
X-107000Y261500D01*
X-108000Y259500D01*
X-107000Y257500D01*
X-109000Y258500D01*
X-111000Y257500D01*
X-142500Y270000D02*
X-141500Y272000D01*
X-142500Y274000D01*
X-140500Y273000D01*
X-138500Y274000D01*
X-139500Y272000D01*
X-138500Y270000D01*
X-140500Y271000D01*
X-142500Y270000D01*
X-142000Y285000D02*
X-141000Y287000D01*
X-142000Y289000D01*
X-140000Y288000D01*
X-138000Y289000D01*
X-139000Y287000D01*
X-138000Y285000D01*
X-140000Y286000D01*
X-142000Y285000D01*
X-111500Y250000D02*
X-110500Y252000D01*
X-111500Y254000D01*
X-109500Y253000D01*
X-107500Y254000D01*
X-108500Y252000D01*
X-107500Y250000D01*
X-109500Y251000D01*
X-111500Y250000D01*
X24000Y286000D02*
X25000Y288000D01*
X24000Y290000D01*
X26000Y289000D01*
X28000Y290000D01*
X27000Y288000D01*
X28000Y286000D01*
X26000Y287000D01*
X24000Y286000D01*
X10000Y307000D02*
X11000Y309000D01*
X10000Y311000D01*
X12000Y310000D01*
X14000Y311000D01*
X13000Y309000D01*
X14000Y307000D01*
X12000Y308000D01*
X10000Y307000D01*
X-12000Y293000D02*
X-11000Y295000D01*
X-12000Y297000D01*
X-10000Y296000D01*
X-8000Y297000D01*
X-9000Y295000D01*
X-8000Y293000D01*
X-10000Y294000D01*
X-12000Y293000D01*
X-21669Y301500D02*
X-20669Y303500D01*
X-21669Y305500D01*
X-19669Y304500D01*
X-17669Y305500D01*
X-18669Y303500D01*
X-17669Y301500D01*
X-19669Y302500D01*
X-21669Y301500D01*
X73000Y289500D02*
X74000Y291500D01*
X73000Y293500D01*
X75000Y292500D01*
X77000Y293500D01*
X76000Y291500D01*
X77000Y289500D01*
X75000Y290500D01*
X73000Y289500D01*
X-88500D02*
X-87500Y291500D01*
X-88500Y293500D01*
X-86500Y292500D01*
X-84500Y293500D01*
X-85500Y291500D01*
X-84500Y289500D01*
X-86500Y290500D01*
X-88500Y289500D01*
X-174000Y193500D02*
X-173000Y195500D01*
X-174000Y197500D01*
X-172000Y196500D01*
X-170000Y197500D01*
X-171000Y195500D01*
X-170000Y193500D01*
X-172000Y194500D01*
X-174000Y193500D01*
X-107500Y302500D02*
X-106500Y304500D01*
X-107500Y306500D01*
X-105500Y305500D01*
X-103500Y306500D01*
X-104500Y304500D01*
X-103500Y302500D01*
X-105500Y303500D01*
X-107500Y302500D01*
X102000Y215500D02*
X103000Y217500D01*
X102000Y219500D01*
X104000Y218500D01*
X106000Y219500D01*
X105000Y217500D01*
X106000Y215500D01*
X104000Y216500D01*
X102000Y215500D01*
X97000Y300000D02*
X98000Y302000D01*
X97000Y304000D01*
X99000Y303000D01*
X101000Y304000D01*
X100000Y302000D01*
X101000Y300000D01*
X99000Y301000D01*
X97000Y300000D01*
X88500Y307000D02*
X89500Y309000D01*
X88500Y311000D01*
X90500Y310000D01*
X92500Y311000D01*
X91500Y309000D01*
X92500Y307000D01*
X90500Y308000D01*
X88500Y307000D01*
X178858Y-192469D02*
X179858Y-190469D01*
X178858Y-188469D01*
X180858Y-189469D01*
X182858Y-188469D01*
X181858Y-190469D01*
X182858Y-192469D01*
X180858Y-191469D01*
X178858Y-192469D01*
X101000Y-275500D02*
X102000Y-273500D01*
X101000Y-271500D01*
X103000Y-272500D01*
X105000Y-271500D01*
X104000Y-273500D01*
X105000Y-275500D01*
X103000Y-274500D01*
X101000Y-275500D01*
X122280Y-242453D02*
X123280Y-240453D01*
X122280Y-238453D01*
X124279Y-239453D01*
X126279Y-238453D01*
X125279Y-240453D01*
X126279Y-242453D01*
X124279Y-241453D01*
X122280Y-242453D01*
X116779D02*
X117780Y-240453D01*
X116779Y-238453D01*
X118780Y-239453D01*
X120780Y-238453D01*
X119780Y-240453D01*
X120780Y-242453D01*
X118780Y-241453D01*
X116779Y-242453D01*
X117000Y-236500D02*
X118000Y-234500D01*
X117000Y-232500D01*
X119000Y-233500D01*
X121000Y-232500D01*
X120000Y-234500D01*
X121000Y-236500D01*
X119000Y-235500D01*
X117000Y-236500D01*
X110280Y-222953D02*
X111279Y-220953D01*
X110280Y-218953D01*
X112279Y-219953D01*
X114279Y-218953D01*
X113279Y-220953D01*
X114279Y-222953D01*
X112279Y-221953D01*
X110280Y-222953D01*
X111779Y-230453D02*
X112779Y-228453D01*
X111779Y-226453D01*
X113779Y-227453D01*
X115779Y-226453D01*
X114779Y-228453D01*
X115779Y-230453D01*
X113779Y-229453D01*
X111779Y-230453D01*
X61500Y228000D02*
X62500Y230000D01*
X61500Y232000D01*
X63500Y231000D01*
X65500Y232000D01*
X64500Y230000D01*
X65500Y228000D01*
X63500Y229000D01*
X61500Y228000D01*
X50500Y229000D02*
X51500Y231000D01*
X50500Y233000D01*
X52500Y232000D01*
X54500Y233000D01*
X53500Y231000D01*
X54500Y229000D01*
X52500Y230000D01*
X50500Y229000D01*
X45000D02*
X46000Y231000D01*
X45000Y233000D01*
X47000Y232000D01*
X49000Y233000D01*
X48000Y231000D01*
X49000Y229000D01*
X47000Y230000D01*
X45000Y229000D01*
X223500Y-58000D02*
X224500Y-56000D01*
X223500Y-54000D01*
X225500Y-55000D01*
X227500Y-54000D01*
X226500Y-56000D01*
X227500Y-58000D01*
X225500Y-57000D01*
X223500Y-58000D01*
X240500Y-63500D02*
X241500Y-61500D01*
X240500Y-59500D01*
X242500Y-60500D01*
X244500Y-59500D01*
X243500Y-61500D01*
X244500Y-63500D01*
X242500Y-62500D01*
X240500Y-63500D01*
X-235500Y-98500D02*
X-234500Y-96500D01*
X-235500Y-94500D01*
X-233500Y-95500D01*
X-231500Y-94500D01*
X-232500Y-96500D01*
X-231500Y-98500D01*
X-233500Y-97500D01*
X-235500Y-98500D01*
X-223000Y-113500D02*
X-222000Y-111500D01*
X-223000Y-109500D01*
X-221000Y-110500D01*
X-219000Y-109500D01*
X-220000Y-111500D01*
X-219000Y-113500D01*
X-221000Y-112500D01*
X-223000Y-113500D01*
X-235500Y-128500D02*
X-234500Y-126500D01*
X-235500Y-124500D01*
X-233500Y-125500D01*
X-231500Y-124500D01*
X-232500Y-126500D01*
X-231500Y-128500D01*
X-233500Y-127500D01*
X-235500Y-128500D01*
X-261500Y-91000D02*
X-260500Y-89000D01*
X-261500Y-87000D01*
X-259500Y-88000D01*
X-257500Y-87000D01*
X-258500Y-89000D01*
X-257500Y-91000D01*
X-259500Y-90000D01*
X-261500Y-91000D01*
X-233000Y-75500D02*
X-232000Y-73500D01*
X-233000Y-71500D01*
X-231000Y-72500D01*
X-229000Y-71500D01*
X-230000Y-73500D01*
X-229000Y-75500D01*
X-231000Y-74500D01*
X-233000Y-75500D01*
X-246000Y-76000D02*
X-245000Y-74000D01*
X-246000Y-72000D01*
X-244000Y-73000D01*
X-242000Y-72000D01*
X-243000Y-74000D01*
X-242000Y-76000D01*
X-244000Y-75000D01*
X-246000Y-76000D01*
X38000Y215000D02*
X39000Y217000D01*
X38000Y219000D01*
X40000Y218000D01*
X42000Y219000D01*
X41000Y217000D01*
X42000Y215000D01*
X40000Y216000D01*
X38000Y215000D01*
X3500Y226000D02*
X4500Y228000D01*
X3500Y230000D01*
X5500Y229000D01*
X7500Y230000D01*
X6500Y228000D01*
X7500Y226000D01*
X5500Y227000D01*
X3500Y226000D01*
X38500Y223000D02*
X39500Y225000D01*
X38500Y227000D01*
X40500Y226000D01*
X42500Y227000D01*
X41500Y225000D01*
X42500Y223000D01*
X40500Y224000D01*
X38500Y223000D01*
Y254000D02*
X39500Y256000D01*
X38500Y258000D01*
X40500Y257000D01*
X42500Y258000D01*
X41500Y256000D01*
X42500Y254000D01*
X40500Y255000D01*
X38500Y254000D01*
X28500Y234000D02*
X29500Y236000D01*
X28500Y238000D01*
X30500Y237000D01*
X32500Y238000D01*
X31500Y236000D01*
X32500Y234000D01*
X30500Y235000D01*
X28500Y234000D01*
X47500Y212000D02*
X48500Y214000D01*
X47500Y216000D01*
X49500Y215000D01*
X51500Y216000D01*
X50500Y214000D01*
X51500Y212000D01*
X49500Y213000D01*
X47500Y212000D01*
X-25000Y240000D02*
X-24000Y242000D01*
X-25000Y244000D01*
X-23000Y243000D01*
X-21000Y244000D01*
X-22000Y242000D01*
X-21000Y240000D01*
X-23000Y241000D01*
X-25000Y240000D01*
X7500Y230500D02*
X8500Y232500D01*
X7500Y234500D01*
X9500Y233500D01*
X11500Y234500D01*
X10500Y232500D01*
X11500Y230500D01*
X9500Y231500D01*
X7500Y230500D01*
Y237000D02*
X8500Y239000D01*
X7500Y241000D01*
X9500Y240000D01*
X11500Y241000D01*
X10500Y239000D01*
X11500Y237000D01*
X9500Y238000D01*
X7500Y237000D01*
X21500Y234000D02*
X22500Y236000D01*
X21500Y238000D01*
X23500Y237000D01*
X25500Y238000D01*
X24500Y236000D01*
X25500Y234000D01*
X23500Y235000D01*
X21500Y234000D01*
X-1000Y260500D02*
X0Y262500D01*
X-1000Y264500D01*
X1000Y263500D01*
X3000Y264500D01*
X2000Y262500D01*
X3000Y260500D01*
X1000Y261500D01*
X-1000Y260500D01*
X165297Y-108358D02*
X166297Y-106358D01*
X165297Y-104358D01*
X167297Y-105358D01*
X169297Y-104358D01*
X168297Y-106358D01*
X169297Y-108358D01*
X167297Y-107358D01*
X165297Y-108358D01*
X175500Y-121000D02*
X176500Y-119000D01*
X175500Y-117000D01*
X177500Y-118000D01*
X179500Y-117000D01*
X178500Y-119000D01*
X179500Y-121000D01*
X177500Y-120000D01*
X175500Y-121000D01*
Y-101326D02*
X176500Y-99326D01*
X175500Y-97326D01*
X177500Y-98326D01*
X179500Y-97326D01*
X178500Y-99326D01*
X179500Y-101326D01*
X177500Y-100326D01*
X175500Y-101326D01*
X-107051Y-217728D02*
X-106051Y-215728D01*
X-107051Y-213728D01*
X-105051Y-214728D01*
X-103051Y-213728D01*
X-104051Y-215728D01*
X-103051Y-217728D01*
X-105051Y-216728D01*
X-107051Y-217728D01*
X-120555Y-230224D02*
X-119555Y-228224D01*
X-120555Y-226224D01*
X-118555Y-227224D01*
X-116555Y-226224D01*
X-117555Y-228224D01*
X-116555Y-230224D01*
X-118555Y-229224D01*
X-120555Y-230224D01*
X-115555Y-242224D02*
X-114555Y-240224D01*
X-115555Y-238224D01*
X-113555Y-239224D01*
X-111555Y-238224D01*
X-112555Y-240224D01*
X-111555Y-242224D01*
X-113555Y-241224D01*
X-115555Y-242224D01*
X-110055D02*
X-109055Y-240224D01*
X-110055Y-238224D01*
X-108055Y-239224D01*
X-106055Y-238224D01*
X-107055Y-240224D01*
X-106055Y-242224D01*
X-108055Y-241224D01*
X-110055Y-242224D01*
X-122055Y-222724D02*
X-121055Y-220724D01*
X-122055Y-218724D01*
X-120055Y-219724D01*
X-118055Y-218724D01*
X-119055Y-220724D01*
X-118055Y-222724D01*
X-120055Y-221724D01*
X-122055Y-222724D01*
X-136500Y-273500D02*
X-135500Y-271500D01*
X-136500Y-269500D01*
X-134500Y-270500D01*
X-132500Y-269500D01*
X-133500Y-271500D01*
X-132500Y-273500D01*
X-134500Y-272500D01*
X-136500Y-273500D01*
X-116055Y-235224D02*
X-115055Y-233224D01*
X-116055Y-231224D01*
X-114055Y-232224D01*
X-112055Y-231224D01*
X-113055Y-233224D01*
X-112055Y-235224D01*
X-114055Y-234224D01*
X-116055Y-235224D01*
X162500Y-83500D02*
X163500Y-81500D01*
X162500Y-79500D01*
X164500Y-80500D01*
X166500Y-79500D01*
X165500Y-81500D01*
X166500Y-83500D01*
X164500Y-82500D01*
X162500Y-83500D01*
X164000Y-126000D02*
X165000Y-124000D01*
X164000Y-122000D01*
X166000Y-123000D01*
X168000Y-122000D01*
X167000Y-124000D01*
X168000Y-126000D01*
X166000Y-125000D01*
X164000Y-126000D01*
X165500Y-142000D02*
X166500Y-140000D01*
X165500Y-138000D01*
X167500Y-139000D01*
X169500Y-138000D01*
X168500Y-140000D01*
X169500Y-142000D01*
X167500Y-141000D01*
X165500Y-142000D01*
X209000Y-126500D02*
X210000Y-124500D01*
X209000Y-122500D01*
X211000Y-123500D01*
X213000Y-122500D01*
X212000Y-124500D01*
X213000Y-126500D01*
X211000Y-125500D01*
X209000Y-126500D01*
X210500Y-108500D02*
X211500Y-106500D01*
X210500Y-104500D01*
X212500Y-105500D01*
X214500Y-104500D01*
X213500Y-106500D01*
X214500Y-108500D01*
X212500Y-107500D01*
X210500Y-108500D01*
Y-102000D02*
X211500Y-100000D01*
X210500Y-98000D01*
X212500Y-99000D01*
X214500Y-98000D01*
X213500Y-100000D01*
X214500Y-102000D01*
X212500Y-101000D01*
X210500Y-102000D01*
X-174719Y213839D02*
X-173719Y215839D01*
X-174719Y217839D01*
X-172719Y216839D01*
X-170719Y217839D01*
X-171719Y215839D01*
X-170719Y213839D01*
X-172719Y214839D01*
X-174719Y213839D01*
Y206839D02*
X-173719Y208839D01*
X-174719Y210839D01*
X-172719Y209839D01*
X-170719Y210839D01*
X-171719Y208839D01*
X-170719Y206839D01*
X-172719Y207839D01*
X-174719Y206839D01*
X201500Y-87000D02*
X202500Y-85000D01*
X201500Y-83000D01*
X203500Y-84000D01*
X205500Y-83000D01*
X204500Y-85000D01*
X205500Y-87000D01*
X203500Y-86000D01*
X201500Y-87000D01*
X185500Y-79000D02*
X186500Y-77000D01*
X185500Y-75000D01*
X187500Y-76000D01*
X189500Y-75000D01*
X188500Y-77000D01*
X189500Y-79000D01*
X187500Y-78000D01*
X185500Y-79000D01*
X-36500Y251000D02*
X-35500Y253000D01*
X-36500Y255000D01*
X-34500Y254000D01*
X-32500Y255000D01*
X-33500Y253000D01*
X-32500Y251000D01*
X-34500Y252000D01*
X-36500Y251000D01*
X230909Y196974D02*
X231909Y198974D01*
X230909Y200974D01*
X232909Y199974D01*
X234910Y200974D01*
X233910Y198974D01*
X234910Y196974D01*
X232909Y197974D01*
X230909Y196974D01*
Y189974D02*
X231909Y191974D01*
X230909Y193974D01*
X232909Y192974D01*
X234910Y193974D01*
X233910Y191974D01*
X234910Y189974D01*
X232909Y190974D01*
X230909Y189974D01*
X230639Y210679D02*
X231639Y212679D01*
X230639Y214679D01*
X232639Y213679D01*
X234639Y214679D01*
X233639Y212679D01*
X234639Y210679D01*
X232639Y211679D01*
X230639Y210679D01*
X-308219Y-58659D02*
X-307219Y-56659D01*
X-308219Y-54659D01*
X-306219Y-55659D01*
X-304219Y-54659D01*
X-305219Y-56659D01*
X-304219Y-58659D01*
X-306219Y-57659D01*
X-308219Y-58659D01*
Y-65659D02*
X-307219Y-63659D01*
X-308219Y-61659D01*
X-306219Y-62659D01*
X-304219Y-61659D01*
X-305219Y-63659D01*
X-304219Y-65659D01*
X-306219Y-64659D01*
X-308219Y-65659D01*
X-308994Y-78722D02*
X-307994Y-76722D01*
X-308994Y-74722D01*
X-306994Y-75722D01*
X-304994Y-74722D01*
X-305994Y-76722D01*
X-304994Y-78722D01*
X-306994Y-77722D01*
X-308994Y-78722D01*
X-263409Y-156474D02*
X-262409Y-154474D01*
X-263409Y-152474D01*
X-261409Y-153474D01*
X-259409Y-152474D01*
X-260409Y-154474D01*
X-259409Y-156474D01*
X-261409Y-155474D01*
X-263409Y-156474D01*
Y-163474D02*
X-262409Y-161474D01*
X-263409Y-159474D01*
X-261409Y-160474D01*
X-259409Y-159474D01*
X-260409Y-161474D01*
X-259409Y-163474D01*
X-261409Y-162474D01*
X-263409Y-163474D01*
X-264743Y-176107D02*
X-263743Y-174107D01*
X-264743Y-172107D01*
X-262743Y-173107D01*
X-260743Y-172107D01*
X-261743Y-174107D01*
X-260743Y-176107D01*
X-262743Y-175107D01*
X-264743Y-176107D01*
X-190910Y-233474D02*
X-189910Y-231474D01*
X-190910Y-229474D01*
X-188909Y-230474D01*
X-186909Y-229474D01*
X-187909Y-231474D01*
X-186909Y-233474D01*
X-188909Y-232474D01*
X-190910Y-233474D01*
Y-240474D02*
X-189910Y-238474D01*
X-190910Y-236474D01*
X-188909Y-237474D01*
X-186909Y-236474D01*
X-187909Y-238474D01*
X-186909Y-240474D01*
X-188909Y-239474D01*
X-190910Y-240474D01*
X-190500Y-252000D02*
X-189500Y-250000D01*
X-190500Y-248000D01*
X-188500Y-249000D01*
X-186500Y-248000D01*
X-187500Y-250000D01*
X-186500Y-252000D01*
X-188500Y-251000D01*
X-190500Y-252000D01*
X187140Y-250339D02*
X188140Y-248339D01*
X187140Y-246339D01*
X189140Y-247339D01*
X191140Y-246339D01*
X190140Y-248339D01*
X191140Y-250339D01*
X189140Y-249339D01*
X187140Y-250339D01*
Y-257339D02*
X188140Y-255339D01*
X187140Y-253339D01*
X189140Y-254339D01*
X191140Y-253339D01*
X190140Y-255339D01*
X191140Y-257339D01*
X189140Y-256339D01*
X187140Y-257339D01*
X187494Y-237278D02*
X188494Y-235278D01*
X187494Y-233278D01*
X189494Y-234278D01*
X191494Y-233278D01*
X190494Y-235278D01*
X191494Y-237278D01*
X189494Y-236278D01*
X187494Y-237278D01*
X261140Y-180339D02*
X262140Y-178339D01*
X261140Y-176339D01*
X263140Y-177339D01*
X265140Y-176339D01*
X264140Y-178339D01*
X265140Y-180339D01*
X263140Y-179339D01*
X261140Y-180339D01*
Y-173339D02*
X262140Y-171339D01*
X261140Y-169339D01*
X263140Y-170339D01*
X265140Y-169339D01*
X264140Y-171339D01*
X265140Y-173339D01*
X263140Y-172339D01*
X261140Y-173339D01*
X261668Y-159720D02*
X262668Y-157720D01*
X261668Y-155720D01*
X263668Y-156720D01*
X265668Y-155720D01*
X264668Y-157720D01*
X265668Y-159720D01*
X263668Y-158720D01*
X261668Y-159720D01*
X304410Y-75526D02*
X305410Y-73526D01*
X304410Y-71526D01*
X306410Y-72526D01*
X308410Y-71526D01*
X307410Y-73526D01*
X308410Y-75526D01*
X306410Y-74526D01*
X304410Y-75526D01*
Y-82526D02*
X305410Y-80526D01*
X304410Y-78526D01*
X306410Y-79526D01*
X308410Y-78526D01*
X307410Y-80526D01*
X308410Y-82526D01*
X306410Y-81526D01*
X304410Y-82526D01*
X305743Y-62893D02*
X306743Y-60893D01*
X305743Y-58893D01*
X307743Y-59893D01*
X309743Y-58893D01*
X308743Y-60893D01*
X309743Y-62893D01*
X307743Y-61893D01*
X305743Y-62893D01*
X171721Y196972D02*
X172721Y198972D01*
X171721Y200972D01*
X173721Y199972D01*
X175721Y200972D01*
X174721Y198972D01*
X175721Y196972D01*
X173721Y197972D01*
X171721Y196972D01*
Y189972D02*
X172721Y191972D01*
X171721Y193972D01*
X173721Y192972D01*
X175721Y193972D01*
X174721Y191972D01*
X175721Y189972D01*
X173721Y190972D01*
X171721Y189972D01*
X175436Y211878D02*
X176436Y213878D01*
X175436Y215878D01*
X177436Y214878D01*
X179436Y215878D01*
X178436Y213878D01*
X179436Y211878D01*
X177436Y212878D01*
X175436Y211878D01*
X171640Y249161D02*
X172640Y251161D01*
X171640Y253161D01*
X173640Y252161D01*
X175640Y253161D01*
X174640Y251161D01*
X175640Y249161D01*
X173640Y250161D01*
X171640Y249161D01*
Y242161D02*
X172640Y244161D01*
X171640Y246161D01*
X173640Y245161D01*
X175640Y246161D01*
X174640Y244161D01*
X175640Y242161D01*
X173640Y243161D01*
X171640Y242161D01*
X172000Y263500D02*
X173000Y265500D01*
X172000Y267500D01*
X174000Y266500D01*
X176000Y267500D01*
X175000Y265500D01*
X176000Y263500D01*
X174000Y264500D01*
X172000Y263500D01*
X-175219Y258839D02*
X-174219Y260839D01*
X-175219Y262839D01*
X-173219Y261839D01*
X-171219Y262839D01*
X-172219Y260839D01*
X-171219Y258839D01*
X-173219Y259839D01*
X-175219Y258839D01*
Y265839D02*
X-174219Y267839D01*
X-175219Y269839D01*
X-173219Y268839D01*
X-171219Y269839D01*
X-172219Y267839D01*
X-171219Y265839D01*
X-173219Y266839D01*
X-175219Y265839D01*
X-174784Y244865D02*
X-173784Y246865D01*
X-174784Y248865D01*
X-172784Y247865D01*
X-170784Y248865D01*
X-171784Y246865D01*
X-170784Y244865D01*
X-172784Y245865D01*
X-174784Y244865D01*
X-234910Y214026D02*
X-233910Y216026D01*
X-234910Y218026D01*
X-232909Y217026D01*
X-230909Y218026D01*
X-231909Y216026D01*
X-230909Y214026D01*
X-232909Y215026D01*
X-234910Y214026D01*
Y207026D02*
X-233910Y209026D01*
X-234910Y211026D01*
X-232909Y210026D01*
X-230909Y211026D01*
X-231909Y209026D01*
X-230909Y207026D01*
X-232909Y208026D01*
X-234910Y207026D01*
X-235494Y193778D02*
X-234494Y195778D01*
X-235494Y197778D01*
X-233494Y196778D01*
X-231494Y197778D01*
X-232494Y195778D01*
X-231494Y193778D01*
X-233494Y194778D01*
X-235494Y193778D01*
X500Y207000D02*
X1500Y209000D01*
X500Y211000D01*
X2500Y210000D01*
X4500Y211000D01*
X3500Y209000D01*
X4500Y207000D01*
X2500Y208000D01*
X500Y207000D01*
X-5500Y268000D02*
X-4500Y270000D01*
X-5500Y272000D01*
X-3500Y271000D01*
X-1500Y272000D01*
X-2500Y270000D01*
X-1500Y268000D01*
X-3500Y269000D01*
X-5500Y268000D01*
X46500Y240500D02*
X47500Y242500D01*
X46500Y244500D01*
X48500Y243500D01*
X50500Y244500D01*
X49500Y242500D01*
X50500Y240500D01*
X48500Y241500D01*
X46500Y240500D01*
X51500D02*
X52500Y242500D01*
X51500Y244500D01*
X53500Y243500D01*
X55500Y244500D01*
X54500Y242500D01*
X55500Y240500D01*
X53500Y241500D01*
X51500Y240500D01*
X61500Y214500D02*
X62500Y216500D01*
X61500Y218500D01*
X63500Y217500D01*
X65500Y218500D01*
X64500Y216500D01*
X65500Y214500D01*
X63500Y215500D01*
X61500Y214500D01*
X-41500Y160500D02*
X-40500Y162500D01*
X-41500Y164500D01*
X-39500Y163500D01*
X-37500Y164500D01*
X-38500Y162500D01*
X-37500Y160500D01*
X-39500Y161500D01*
X-41500Y160500D01*
X-5000Y189000D02*
X-4000Y191000D01*
X-5000Y193000D01*
X-3000Y192000D01*
X-1000Y193000D01*
X-2000Y191000D01*
X-1000Y189000D01*
X-3000Y190000D01*
X-5000Y189000D01*
X5500Y160500D02*
X6500Y162500D01*
X5500Y164500D01*
X7500Y163500D01*
X9500Y164500D01*
X8500Y162500D01*
X9500Y160500D01*
X7500Y161500D01*
X5500Y160500D01*
X500Y189000D02*
X1500Y191000D01*
X500Y193000D01*
X2500Y192000D01*
X4500Y193000D01*
X3500Y191000D01*
X4500Y189000D01*
X2500Y190000D01*
X500Y189000D01*
X175000Y-144000D02*
X176000Y-142000D01*
X175000Y-140000D01*
X177000Y-141000D01*
X179000Y-140000D01*
X178000Y-142000D01*
X179000Y-144000D01*
X177000Y-143000D01*
X175000Y-144000D01*
X55000Y289500D02*
X56000Y291500D01*
X55000Y293500D01*
X57000Y292500D01*
X59000Y293500D01*
X58000Y291500D01*
X59000Y289500D01*
X57000Y290500D01*
X55000Y289500D01*
X-23500Y286500D02*
X-22500Y288500D01*
X-23500Y290500D01*
X-21500Y289500D01*
X-19500Y290500D01*
X-20500Y288500D01*
X-19500Y286500D01*
X-21500Y287500D01*
X-23500Y286500D01*
X-42000Y289500D02*
X-41000Y291500D01*
X-42000Y293500D01*
X-40000Y292500D01*
X-38000Y293500D01*
X-39000Y291500D01*
X-38000Y289500D01*
X-40000Y290500D01*
X-42000Y289500D01*
X-69000D02*
X-68000Y291500D01*
X-69000Y293500D01*
X-67000Y292500D01*
X-65000Y293500D01*
X-66000Y291500D01*
X-65000Y289500D01*
X-67000Y290500D01*
X-69000Y289500D01*
X-199000Y206500D02*
X-198000Y208500D01*
X-199000Y210500D01*
X-197000Y209500D01*
X-195000Y210500D01*
X-196000Y208500D01*
X-195000Y206500D01*
X-197000Y207500D01*
X-199000Y206500D01*
X-188500D02*
X-187500Y208500D01*
X-188500Y210500D01*
X-186500Y209500D01*
X-184500Y210500D01*
X-185500Y208500D01*
X-184500Y206500D01*
X-186500Y207500D01*
X-188500Y206500D01*
X146500Y265000D02*
X147500Y267000D01*
X146500Y269000D01*
X148500Y268000D01*
X150500Y269000D01*
X149500Y267000D01*
X150500Y265000D01*
X148500Y266000D01*
X146500Y265000D01*
Y276500D02*
X147500Y278500D01*
X146500Y280500D01*
X148500Y279500D01*
X150500Y280500D01*
X149500Y278500D01*
X150500Y276500D01*
X148500Y277500D01*
X146500Y276500D01*
X192500Y210000D02*
X193500Y212000D01*
X192500Y214000D01*
X194500Y213000D01*
X196500Y214000D01*
X195500Y212000D01*
X196500Y210000D01*
X194500Y211000D01*
X192500Y210000D01*
Y197500D02*
X193500Y199500D01*
X192500Y201500D01*
X194500Y200500D01*
X196500Y201500D01*
X195500Y199500D01*
X196500Y197500D01*
X194500Y198500D01*
X192500Y197500D01*
X202000Y176500D02*
X203000Y178500D01*
X202000Y180500D01*
X204000Y179500D01*
X206000Y180500D01*
X205000Y178500D01*
X206000Y176500D01*
X204000Y177500D01*
X202000Y176500D01*
X143500Y236500D02*
X144500Y238500D01*
X143500Y240500D01*
X145500Y239500D01*
X147500Y240500D01*
X146500Y238500D01*
X147500Y236500D01*
X145500Y237500D01*
X143500Y236500D01*
X139000Y242000D02*
X140000Y244000D01*
X139000Y246000D01*
X141000Y245000D01*
X143000Y246000D01*
X142000Y244000D01*
X143000Y242000D01*
X141000Y243000D01*
X139000Y242000D01*
Y213500D02*
X140000Y215500D01*
X139000Y217500D01*
X141000Y216500D01*
X143000Y217500D01*
X142000Y215500D01*
X143000Y213500D01*
X141000Y214500D01*
X139000Y213500D01*
X143500Y220000D02*
X144500Y222000D01*
X143500Y224000D01*
X145500Y223000D01*
X147500Y224000D01*
X146500Y222000D01*
X147500Y220000D01*
X145500Y221000D01*
X143500Y220000D01*
X193858Y-207968D02*
X194858Y-205968D01*
X193858Y-203969D01*
X195858Y-204969D01*
X197858Y-203969D01*
X196858Y-205968D01*
X197858Y-207968D01*
X195858Y-206968D01*
X193858Y-207968D01*
X-134500Y207500D02*
X-133500Y209500D01*
X-134500Y211500D01*
X-132500Y210500D01*
X-130500Y211500D01*
X-131500Y209500D01*
X-130500Y207500D01*
X-132500Y208500D01*
X-134500Y207500D01*
X-104736Y242500D02*
X-103736Y244500D01*
X-104736Y246500D01*
X-102736Y245500D01*
X-100736Y246500D01*
X-101736Y244500D01*
X-100736Y242500D01*
X-102736Y243500D01*
X-104736Y242500D01*
X163858Y-208469D02*
X164858Y-206469D01*
X163858Y-204468D01*
X165858Y-205469D01*
X167858Y-204468D01*
X166858Y-206469D01*
X167858Y-208469D01*
X165858Y-207469D01*
X163858Y-208469D01*
X105000Y242000D02*
X106000Y244000D01*
X105000Y246000D01*
X107000Y245000D01*
X109000Y246000D01*
X108000Y244000D01*
X109000Y242000D01*
X107000Y243000D01*
X105000Y242000D01*
X184000Y-208500D02*
X185000Y-206500D01*
X184000Y-204500D01*
X186000Y-205500D01*
X188000Y-204500D01*
X187000Y-206500D01*
X188000Y-208500D01*
X186000Y-207500D01*
X184000Y-208500D01*
X3000Y293000D02*
X4000Y295000D01*
X3000Y297000D01*
X5000Y296000D01*
X7000Y297000D01*
X6000Y295000D01*
X7000Y293000D01*
X5000Y294000D01*
X3000Y293000D01*
X116000Y222500D02*
X117000Y224500D01*
X116000Y226500D01*
X118000Y225500D01*
X120000Y226500D01*
X119000Y224500D01*
X120000Y222500D01*
X118000Y223500D01*
X116000Y222500D01*
X156000Y-183000D02*
X157000Y-181000D01*
X156000Y-179000D01*
X158000Y-180000D01*
X160000Y-179000D01*
X159000Y-181000D01*
X160000Y-183000D01*
X158000Y-182000D01*
X156000Y-183000D01*
X199500Y-198500D02*
X200500Y-196500D01*
X199500Y-194500D01*
X201500Y-195500D01*
X203500Y-194500D01*
X202500Y-196500D01*
X203500Y-198500D01*
X201500Y-197500D01*
X199500Y-198500D01*
X-3500Y293000D02*
X-2500Y295000D01*
X-3500Y297000D01*
X-1500Y296000D01*
X500Y297000D01*
X-500Y295000D01*
X500Y293000D01*
X-1500Y294000D01*
X-3500Y293000D01*
X-13500Y305500D02*
X-12500Y307500D01*
X-13500Y309500D01*
X-11500Y308500D01*
X-9500Y309500D01*
X-10500Y307500D01*
X-9500Y305500D01*
X-11500Y306500D01*
X-13500Y305500D01*
X-2000Y314000D02*
X-1000Y316000D01*
X-2000Y318000D01*
X0Y317000D01*
X2000Y318000D01*
X1000Y316000D01*
X2000Y314000D01*
X0Y315000D01*
X-2000Y314000D01*
X174000Y-208500D02*
X175000Y-206500D01*
X174000Y-204500D01*
X176000Y-205500D01*
X178000Y-204500D01*
X177000Y-206500D01*
X178000Y-208500D01*
X176000Y-207500D01*
X174000Y-208500D01*
X223000Y-149000D02*
X224000Y-147000D01*
X223000Y-145000D01*
X225000Y-146000D01*
X227000Y-145000D01*
X226000Y-147000D01*
X227000Y-149000D01*
X225000Y-148000D01*
X223000Y-149000D01*
X-246000Y-108500D02*
X-245000Y-106500D01*
X-246000Y-104500D01*
X-244000Y-105500D01*
X-242000Y-104500D01*
X-243000Y-106500D01*
X-242000Y-108500D01*
X-244000Y-107500D01*
X-246000Y-108500D01*
X168858Y-212358D02*
X169858Y-210358D01*
X168858Y-208358D01*
X170858Y-209358D01*
X172858Y-208358D01*
X171858Y-210358D01*
X172858Y-212358D01*
X170858Y-211358D01*
X168858Y-212358D01*
X218500Y-144500D02*
X219500Y-142500D01*
X218500Y-140500D01*
X220500Y-141500D01*
X222500Y-140500D01*
X221500Y-142500D01*
X222500Y-144500D01*
X220500Y-143500D01*
X218500Y-144500D01*
X-240500Y-103500D02*
X-239500Y-101500D01*
X-240500Y-99500D01*
X-238500Y-100500D01*
X-236500Y-99500D01*
X-237500Y-101500D01*
X-236500Y-103500D01*
X-238500Y-102500D01*
X-240500Y-103500D01*
X-252500Y-106000D02*
X-251500Y-104000D01*
X-252500Y-102000D01*
X-250500Y-103000D01*
X-248500Y-102000D01*
X-249500Y-104000D01*
X-248500Y-106000D01*
X-250500Y-105000D01*
X-252500Y-106000D01*
X-271000D02*
X-270000Y-104000D01*
X-271000Y-102000D01*
X-269000Y-103000D01*
X-267000Y-102000D01*
X-268000Y-104000D01*
X-267000Y-106000D01*
X-269000Y-105000D01*
X-271000Y-106000D01*
X31000Y286000D02*
X32000Y288000D01*
X31000Y290000D01*
X33000Y289000D01*
X35000Y290000D01*
X34000Y288000D01*
X35000Y286000D01*
X33000Y287000D01*
X31000Y286000D01*
X131500Y265000D02*
X132500Y267000D01*
X131500Y269000D01*
X133500Y268000D01*
X135500Y269000D01*
X134500Y267000D01*
X135500Y265000D01*
X133500Y266000D01*
X131500Y265000D01*
X124500Y277500D02*
X125500Y279500D01*
X124500Y281500D01*
X126500Y280500D01*
X128500Y281500D01*
X127500Y279500D01*
X128500Y277500D01*
X126500Y278500D01*
X124500Y277500D01*
Y285000D02*
X125500Y287000D01*
X124500Y289000D01*
X126500Y288000D01*
X128500Y289000D01*
X127500Y287000D01*
X128500Y285000D01*
X126500Y286000D01*
X124500Y285000D01*
X131500Y250000D02*
X132500Y252000D01*
X131500Y254000D01*
X133500Y253000D01*
X135500Y254000D01*
X134500Y252000D01*
X135500Y250000D01*
X133500Y251000D01*
X131500Y250000D01*
X-150000Y-35500D02*
X-149000Y-33500D01*
X-150000Y-31500D01*
X-148000Y-32500D01*
X-146000Y-31500D01*
X-147000Y-33500D01*
X-146000Y-35500D01*
X-148000Y-34500D01*
X-150000Y-35500D01*
Y-40500D02*
X-149000Y-38500D01*
X-150000Y-36500D01*
X-148000Y-37500D01*
X-146000Y-36500D01*
X-147000Y-38500D01*
X-146000Y-40500D01*
X-148000Y-39500D01*
X-150000Y-40500D01*
X-167000Y-111500D02*
X-166000Y-109500D01*
X-167000Y-107500D01*
X-165000Y-108500D01*
X-163000Y-107500D01*
X-164000Y-109500D01*
X-163000Y-111500D01*
X-165000Y-110500D01*
X-167000Y-111500D01*
X-172500D02*
X-171500Y-109500D01*
X-172500Y-107500D01*
X-170500Y-108500D01*
X-168500Y-107500D01*
X-169500Y-109500D01*
X-168500Y-111500D01*
X-170500Y-110500D01*
X-172500Y-111500D01*
X-99000Y217500D02*
X-98000Y219500D01*
X-99000Y221500D01*
X-97000Y220500D01*
X-95000Y221500D01*
X-96000Y219500D01*
X-95000Y217500D01*
X-97000Y218500D01*
X-99000Y217500D01*
X120500Y233500D02*
X121500Y235500D01*
X120500Y237500D01*
X122500Y236500D01*
X124500Y237500D01*
X123500Y235500D01*
X124500Y233500D01*
X122500Y234500D01*
X120500Y233500D01*
X108000Y209331D02*
X109000Y211331D01*
X108000Y213331D01*
X110000Y212331D01*
X112000Y213331D01*
X111000Y211331D01*
X112000Y209331D01*
X110000Y210331D01*
X108000Y209331D01*
X-3500Y305500D02*
X-2500Y307500D01*
X-3500Y309500D01*
X-1500Y308500D01*
X500Y309500D01*
X-500Y307500D01*
X500Y305500D01*
X-1500Y306500D01*
X-3500Y305500D01*
X21500Y305000D02*
X22500Y307000D01*
X21500Y309000D01*
X23500Y308000D01*
X25500Y309000D01*
X24500Y307000D01*
X25500Y305000D01*
X23500Y306000D01*
X21500Y305000D01*
X27500Y281000D02*
X28500Y283000D01*
X27500Y285000D01*
X29500Y284000D01*
X31500Y285000D01*
X30500Y283000D01*
X31500Y281000D01*
X29500Y282000D01*
X27500Y281000D01*
X-41000Y275134D02*
X-40000Y277134D01*
X-41000Y279134D01*
X-39000Y278134D01*
X-37000Y279134D01*
X-38000Y277134D01*
X-37000Y275134D01*
X-39000Y276134D01*
X-41000Y275134D01*
X39000Y280000D02*
X40000Y282000D01*
X39000Y284000D01*
X41000Y283000D01*
X43000Y284000D01*
X42000Y282000D01*
X43000Y280000D01*
X41000Y281000D01*
X39000Y280000D01*
X-86500Y271000D02*
X-85500Y273000D01*
X-86500Y275000D01*
X-84500Y274000D01*
X-82500Y275000D01*
X-83500Y273000D01*
X-82500Y271000D01*
X-84500Y272000D01*
X-86500Y271000D01*
X209000Y-120500D02*
X210000Y-118500D01*
X209000Y-116500D01*
X211000Y-117500D01*
X213000Y-116500D01*
X212000Y-118500D01*
X213000Y-120500D01*
X211000Y-119500D01*
X209000Y-120500D01*
X-153500Y-111500D02*
X-152500Y-109500D01*
X-153500Y-107500D01*
X-151500Y-108500D01*
X-149500Y-107500D01*
X-150500Y-109500D01*
X-149500Y-111500D01*
X-151500Y-110500D01*
X-153500Y-111500D01*
X-148500D02*
X-147500Y-109500D01*
X-148500Y-107500D01*
X-146500Y-108500D01*
X-144500Y-107500D01*
X-145500Y-109500D01*
X-144500Y-111500D01*
X-146500Y-110500D01*
X-148500Y-111500D01*
X-139500D02*
X-138500Y-109500D01*
X-139500Y-107500D01*
X-137500Y-108500D01*
X-135500Y-107500D01*
X-136500Y-109500D01*
X-135500Y-111500D01*
X-137500Y-110500D01*
X-139500Y-111500D01*
X-134000D02*
X-133000Y-109500D01*
X-134000Y-107500D01*
X-132000Y-108500D01*
X-130000Y-107500D01*
X-131000Y-109500D01*
X-130000Y-111500D01*
X-132000Y-110500D01*
X-134000Y-111500D01*
X-142500Y-146500D02*
X-141500Y-144500D01*
X-142500Y-142500D01*
X-140500Y-143500D01*
X-138500Y-142500D01*
X-139500Y-144500D01*
X-138500Y-146500D01*
X-140500Y-145500D01*
X-142500Y-146500D01*
X-210000Y-144000D02*
X-209000Y-142000D01*
X-210000Y-140000D01*
X-208000Y-141000D01*
X-206000Y-140000D01*
X-207000Y-142000D01*
X-206000Y-144000D01*
X-208000Y-143000D01*
X-210000Y-144000D01*
X-202500Y-139500D02*
X-201500Y-137500D01*
X-202500Y-135500D01*
X-200500Y-136500D01*
X-198500Y-135500D01*
X-199500Y-137500D01*
X-198500Y-139500D01*
X-200500Y-138500D01*
X-202500Y-139500D01*
X181000Y-83000D02*
X182000Y-81000D01*
X181000Y-79000D01*
X183000Y-80000D01*
X185000Y-79000D01*
X184000Y-81000D01*
X185000Y-83000D01*
X183000Y-82000D01*
X181000Y-83000D01*
X184000Y-70500D02*
X185000Y-68500D01*
X184000Y-66500D01*
X186000Y-67500D01*
X188000Y-66500D01*
X187000Y-68500D01*
X188000Y-70500D01*
X186000Y-69500D01*
X184000Y-70500D01*
X189000Y-67000D02*
X190000Y-65000D01*
X189000Y-63000D01*
X191000Y-64000D01*
X193000Y-63000D01*
X192000Y-65000D01*
X193000Y-67000D01*
X191000Y-66000D01*
X189000Y-67000D01*
X202500D02*
X203500Y-65000D01*
X202500Y-63000D01*
X204500Y-64000D01*
X206500Y-63000D01*
X205500Y-65000D01*
X206500Y-67000D01*
X204500Y-66000D01*
X202500Y-67000D01*
X-239000Y-119500D02*
X-238000Y-117500D01*
X-239000Y-115500D01*
X-237000Y-116500D01*
X-235000Y-115500D01*
X-236000Y-117500D01*
X-235000Y-119500D01*
X-237000Y-118500D01*
X-239000Y-119500D01*
X152000Y-213000D02*
X153000Y-211000D01*
X152000Y-209000D01*
X154000Y-210000D01*
X156000Y-209000D01*
X155000Y-211000D01*
X156000Y-213000D01*
X154000Y-212000D01*
X152000Y-213000D01*
X199500Y-136500D02*
X200500Y-134500D01*
X199500Y-132500D01*
X201500Y-133500D01*
X203500Y-132500D01*
X202500Y-134500D01*
X203500Y-136500D01*
X201500Y-135500D01*
X199500Y-136500D01*
X205500D02*
X206500Y-134500D01*
X205500Y-132500D01*
X207500Y-133500D01*
X209500Y-132500D01*
X208500Y-134500D01*
X209500Y-136500D01*
X207500Y-135500D01*
X205500Y-136500D01*
X193000Y-132000D02*
X194000Y-130000D01*
X193000Y-128000D01*
X195000Y-129000D01*
X197000Y-128000D01*
X196000Y-130000D01*
X197000Y-132000D01*
X195000Y-131000D01*
X193000Y-132000D01*
X166000Y-168500D02*
X167000Y-166500D01*
X166000Y-164500D01*
X168000Y-165500D01*
X170000Y-164500D01*
X169000Y-166500D01*
X170000Y-168500D01*
X168000Y-167500D01*
X166000Y-168500D01*
X-192410Y-161910D02*
X-191410Y-159910D01*
X-192410Y-157910D01*
X-190410Y-158910D01*
X-188410Y-157910D01*
X-189410Y-159910D01*
X-188410Y-161910D01*
X-190410Y-160910D01*
X-192410Y-161910D01*
X194500Y-82500D02*
X195500Y-80500D01*
X194500Y-78500D01*
X196500Y-79500D01*
X198500Y-78500D01*
X197500Y-80500D01*
X198500Y-82500D01*
X196500Y-81500D01*
X194500Y-82500D01*
X171000Y-70500D02*
X172000Y-68500D01*
X171000Y-66500D01*
X173000Y-67500D01*
X175000Y-66500D01*
X174000Y-68500D01*
X175000Y-70500D01*
X173000Y-69500D01*
X171000Y-70500D01*
X125284Y-217957D02*
X126284Y-215957D01*
X125284Y-213957D01*
X127284Y-214957D01*
X129283Y-213957D01*
X128284Y-215957D01*
X129283Y-217957D01*
X127284Y-216957D01*
X125284Y-217957D01*
X100000Y-191000D02*
X101000Y-189000D01*
X100000Y-187000D01*
X102000Y-188000D01*
X104000Y-187000D01*
X103000Y-189000D01*
X104000Y-191000D01*
X102000Y-190000D01*
X100000Y-191000D01*
X106000Y-193500D02*
X107000Y-191500D01*
X106000Y-189500D01*
X108000Y-190500D01*
X110000Y-189500D01*
X109000Y-191500D01*
X110000Y-193500D01*
X108000Y-192500D01*
X106000Y-193500D01*
X76000Y-188500D02*
X77000Y-186500D01*
X76000Y-184500D01*
X78000Y-185500D01*
X80000Y-184500D01*
X79000Y-186500D01*
X80000Y-188500D01*
X78000Y-187500D01*
X76000Y-188500D01*
X82000Y-184000D02*
X83000Y-182000D01*
X82000Y-180000D01*
X84000Y-181000D01*
X86000Y-180000D01*
X85000Y-182000D01*
X86000Y-184000D01*
X84000Y-183000D01*
X82000Y-184000D01*
X88000Y-186000D02*
X89000Y-184000D01*
X88000Y-182000D01*
X90000Y-183000D01*
X92000Y-182000D01*
X91000Y-184000D01*
X92000Y-186000D01*
X90000Y-185000D01*
X88000Y-186000D01*
X94000Y-188500D02*
X95000Y-186500D01*
X94000Y-184500D01*
X96000Y-185500D01*
X98000Y-184500D01*
X97000Y-186500D01*
X98000Y-188500D01*
X96000Y-187500D01*
X94000Y-188500D01*
X175475Y-126975D02*
X176475Y-124975D01*
X175475Y-122975D01*
X177475Y-123975D01*
X179475Y-122975D01*
X178475Y-124975D01*
X179475Y-126975D01*
X177475Y-125975D01*
X175475Y-126975D01*
D132*
X2000Y173976D02*
G03*
X2000Y173976I-2000J0D01*
G01*
X7846Y178642D02*
G03*
X7846Y178642I-2000J0D01*
G01*
X9291Y172311D02*
G03*
X9291Y172311I-2000J0D01*
G01*
X5244Y167236D02*
G03*
X5244Y167236I-2000J0D01*
G01*
X-1244D02*
G03*
X-1244Y167236I-2000J0D01*
G01*
X-5291Y172311D02*
G03*
X-5291Y172311I-2000J0D01*
G01*
X-3847Y178642D02*
G03*
X-3847Y178642I-2000J0D01*
G01*
X2000Y181457D02*
G03*
X2000Y181457I-2000J0D01*
G01*
X85189Y236500D02*
G03*
X85189Y236500I-2000J0D01*
G01*
Y248311D02*
G03*
X85189Y248311I-2000J0D01*
G01*
X108811Y252012D02*
G03*
X108811Y252012I-2000J0D01*
G01*
X73378D02*
G03*
X73378Y252012I-2000J0D01*
G01*
X97000Y248311D02*
G03*
X97000Y248311I-2000J0D01*
G01*
Y236500D02*
G03*
X97000Y236500I-2000J0D01*
G01*
X-66500Y237000D02*
G03*
X-66500Y237000I-2000J0D01*
G01*
Y248811D02*
G03*
X-66500Y248811I-2000J0D01*
G01*
X-90122Y252512D02*
G03*
X-90122Y252512I-2000J0D01*
G01*
X-54689D02*
G03*
X-54689Y252512I-2000J0D01*
G01*
X-78311Y248811D02*
G03*
X-78311Y248811I-2000J0D01*
G01*
Y237000D02*
G03*
X-78311Y237000I-2000J0D01*
G01*
X-120150Y184726D02*
G03*
X-120150Y184726I-2000J0D01*
G01*
Y179610D02*
G03*
X-120150Y179610I-2000J0D01*
G01*
X-124972Y177307D02*
G03*
X-124972Y177307I-2000J0D01*
G01*
X172500Y-119000D02*
G03*
X172500Y-119000I-2000J0D01*
G01*
X148000Y-166500D02*
G03*
X148000Y-166500I-2000J0D01*
G01*
X247599Y-94118D02*
G03*
X247599Y-94118I-2000J0D01*
G01*
X247500Y-106500D02*
G03*
X247500Y-106500I-2000J0D01*
G01*
X186500Y-106000D02*
G03*
X186500Y-106000I-2000J0D01*
G01*
X235000Y-115000D02*
G03*
X235000Y-115000I-2000J0D01*
G01*
X279500Y-105000D02*
G03*
X279500Y-105000I-2000J0D01*
G01*
X106500Y148500D02*
G03*
X106500Y148500I-2000J0D01*
G01*
X128000Y172000D02*
G03*
X128000Y172000I-2000J0D01*
G01*
X91000Y154000D02*
G03*
X91000Y154000I-2000J0D01*
G01*
X76500Y225000D02*
G03*
X76500Y225000I-2000J0D01*
G01*
Y218000D02*
G03*
X76500Y218000I-2000J0D01*
G01*
X-4500Y246500D02*
G03*
X-4500Y246500I-2000J0D01*
G01*
X35500Y186500D02*
G03*
X35500Y186500I-2000J0D01*
G01*
X-22500Y222000D02*
G03*
X-22500Y222000I-2000J0D01*
G01*
X-10500Y246500D02*
G03*
X-10500Y246500I-2000J0D01*
G01*
X-25561Y247439D02*
G03*
X-25561Y247439I-2000J0D01*
G01*
X-37000Y236500D02*
G03*
X-37000Y236500I-2000J0D01*
G01*
X-119000Y153500D02*
G03*
X-119000Y153500I-2000J0D01*
G01*
X235000Y-110000D02*
G03*
X235000Y-110000I-2000J0D01*
G01*
X151500Y-129500D02*
G03*
X151500Y-129500I-2000J0D01*
G01*
X140000Y-136000D02*
G03*
X140000Y-136000I-2000J0D01*
G01*
X97000Y-226000D02*
G03*
X97000Y-226000I-2000J0D01*
G01*
X143500Y-239000D02*
G03*
X143500Y-239000I-2000J0D01*
G01*
X-89000D02*
G03*
X-89000Y-239000I-2000J0D01*
G01*
X-119500Y-178500D02*
G03*
X-119500Y-178500I-2000J0D01*
G01*
X28000Y-162500D02*
G03*
X28000Y-162500I-2000J0D01*
G01*
Y-168500D02*
G03*
X28000Y-168500I-2000J0D01*
G01*
X-162500Y-137000D02*
G03*
X-162500Y-137000I-2000J0D01*
G01*
X-84000Y-171000D02*
G03*
X-84000Y-171000I-2000J0D01*
G01*
X80500Y-158000D02*
G03*
X80500Y-158000I-2000J0D01*
G01*
X-152919Y-149000D02*
G03*
X-152919Y-149000I-2000J0D01*
G01*
X77000Y-153000D02*
G03*
X77000Y-153000I-2000J0D01*
G01*
X145000Y-200500D02*
G03*
X145000Y-200500I-2000J0D01*
G01*
X61000Y-182000D02*
G03*
X61000Y-182000I-2000J0D01*
G01*
X65000Y-177500D02*
G03*
X65000Y-177500I-2000J0D01*
G01*
X56500Y-186500D02*
G03*
X56500Y-186500I-2000J0D01*
G01*
X-84000Y-205000D02*
G03*
X-84000Y-205000I-2000J0D01*
G01*
X-43000Y-143000D02*
G03*
X-43000Y-143000I-2000J0D01*
G01*
X95500Y-137500D02*
G03*
X95500Y-137500I-2000J0D01*
G01*
X56500Y-131000D02*
G03*
X56500Y-131000I-2000J0D01*
G01*
X61500D02*
G03*
X61500Y-131000I-2000J0D01*
G01*
X66500D02*
G03*
X66500Y-131000I-2000J0D01*
G01*
X-60500Y-132500D02*
G03*
X-60500Y-132500I-2000J0D01*
G01*
X-41000Y-158500D02*
G03*
X-41000Y-158500I-2000J0D01*
G01*
X-45000Y-155398D02*
G03*
X-45000Y-155398I-2000J0D01*
G01*
X150500Y-261000D02*
G03*
X150500Y-261000I-2000J0D01*
G01*
Y-255000D02*
G03*
X150500Y-255000I-2000J0D01*
G01*
X-101500Y-260500D02*
G03*
X-101500Y-260500I-2000J0D01*
G01*
Y-255000D02*
G03*
X-101500Y-255000I-2000J0D01*
G01*
X67500Y-171500D02*
G03*
X67500Y-171500I-2000J0D01*
G01*
X62000D02*
G03*
X62000Y-171500I-2000J0D01*
G01*
X-28000Y-178000D02*
G03*
X-28000Y-178000I-2000J0D01*
G01*
X-24000Y-173500D02*
G03*
X-24000Y-173500I-2000J0D01*
G01*
X-27000Y-169000D02*
G03*
X-27000Y-169000I-2000J0D01*
G01*
X-128000Y-89000D02*
G03*
X-128000Y-89000I-2000J0D01*
G01*
X-137000D02*
G03*
X-137000Y-89000I-2000J0D01*
G01*
X-142248D02*
G03*
X-142248Y-89000I-2000J0D01*
G01*
X-170000Y-54000D02*
G03*
X-170000Y-54000I-2000J0D01*
G01*
X-156500Y-57500D02*
G03*
X-156500Y-57500I-2000J0D01*
G01*
Y-52000D02*
G03*
X-156500Y-52000I-2000J0D01*
G01*
X-167500Y-49000D02*
G03*
X-167500Y-49000I-2000J0D01*
G01*
X-168500Y-38000D02*
G03*
X-168500Y-38000I-2000J0D01*
G01*
Y-32500D02*
G03*
X-168500Y-32500I-2000J0D01*
G01*
X100000Y148500D02*
G03*
X100000Y148500I-2000J0D01*
G01*
X71500Y-131000D02*
G03*
X71500Y-131000I-2000J0D01*
G01*
X-94500Y196500D02*
G03*
X-94500Y196500I-2000J0D01*
G01*
X-133000Y231500D02*
G03*
X-133000Y231500I-2000J0D01*
G01*
X166000Y-147000D02*
G03*
X166000Y-147000I-2000J0D01*
G01*
X-165000Y-202000D02*
G03*
X-165000Y-202000I-2000J0D01*
G01*
X212000Y-174500D02*
G03*
X212000Y-174500I-2000J0D01*
G01*
X199000Y-167000D02*
G03*
X199000Y-167000I-2000J0D01*
G01*
X143000Y-146000D02*
G03*
X143000Y-146000I-2000J0D01*
G01*
X279000Y-94500D02*
G03*
X279000Y-94500I-2000J0D01*
G01*
X-155000Y-238000D02*
G03*
X-155000Y-238000I-2000J0D01*
G01*
X-142500D02*
G03*
X-142500Y-238000I-2000J0D01*
G01*
X-173000Y-194000D02*
G03*
X-173000Y-194000I-2000J0D01*
G01*
X-181000D02*
G03*
X-181000Y-194000I-2000J0D01*
G01*
X-129500Y-175000D02*
G03*
X-129500Y-175000I-2000J0D01*
G01*
Y-168000D02*
G03*
X-129500Y-168000I-2000J0D01*
G01*
X-146000Y-278500D02*
G03*
X-146000Y-278500I-2000J0D01*
G01*
X-154500D02*
G03*
X-154500Y-278500I-2000J0D01*
G01*
X-154000Y-257000D02*
G03*
X-154000Y-257000I-2000J0D01*
G01*
X-146000D02*
G03*
X-146000Y-257000I-2000J0D01*
G01*
X-131000Y-191500D02*
G03*
X-131000Y-191500I-2000J0D01*
G01*
X-140500Y-181000D02*
G03*
X-140500Y-181000I-2000J0D01*
G01*
X-12000Y168000D02*
G03*
X-12000Y168000I-2000J0D01*
G01*
X-201000Y-203000D02*
G03*
X-201000Y-203000I-2000J0D01*
G01*
Y-210000D02*
G03*
X-201000Y-210000I-2000J0D01*
G01*
X-194500Y-151500D02*
G03*
X-194500Y-151500I-2000J0D01*
G01*
Y-161500D02*
G03*
X-194500Y-161500I-2000J0D01*
G01*
X-217500Y-156500D02*
G03*
X-217500Y-156500I-2000J0D01*
G01*
X114986Y-140474D02*
G03*
X114986Y-140474I-2000J0D01*
G01*
X194000Y-88500D02*
G03*
X194000Y-88500I-2000J0D01*
G01*
X180000Y-85000D02*
G03*
X180000Y-85000I-2000J0D01*
G01*
X158000Y-57000D02*
G03*
X158000Y-57000I-2000J0D01*
G01*
X153500Y-52500D02*
G03*
X153500Y-52500I-2000J0D01*
G01*
X161000Y-133500D02*
G03*
X161000Y-133500I-2000J0D01*
G01*
X152000Y-146000D02*
G03*
X152000Y-146000I-2000J0D01*
G01*
X123000Y-137500D02*
G03*
X123000Y-137500I-2000J0D01*
G01*
X199000Y-157500D02*
G03*
X199000Y-157500I-2000J0D01*
G01*
X192000Y-136500D02*
G03*
X192000Y-136500I-2000J0D01*
G01*
X229500Y-78500D02*
G03*
X229500Y-78500I-2000J0D01*
G01*
X182500Y-166500D02*
G03*
X182500Y-166500I-2000J0D01*
G01*
X176500D02*
G03*
X176500Y-166500I-2000J0D01*
G01*
X127000Y-207000D02*
G03*
X127000Y-207000I-2000J0D01*
G01*
Y-200500D02*
G03*
X127000Y-200500I-2000J0D01*
G01*
X116500Y-189500D02*
G03*
X116500Y-189500I-2000J0D01*
G01*
X105500Y-154500D02*
G03*
X105500Y-154500I-2000J0D01*
G01*
X118500D02*
G03*
X118500Y-154500I-2000J0D01*
G01*
X102500Y-161500D02*
G03*
X102500Y-161500I-2000J0D01*
G01*
X128000Y-153500D02*
G03*
X128000Y-153500I-2000J0D01*
G01*
X122500Y-162535D02*
G03*
X122500Y-162535I-2000J0D01*
G01*
X54500Y184000D02*
G03*
X54500Y184000I-2000J0D01*
G01*
Y170500D02*
G03*
X54500Y170500I-2000J0D01*
G01*
X-51500D02*
G03*
X-51500Y170500I-2000J0D01*
G01*
X-50500Y183500D02*
G03*
X-50500Y183500I-2000J0D01*
G01*
D133*
X-120950Y184726D02*
G03*
X-120950Y184726I-1200J0D01*
G01*
Y179610D02*
G03*
X-120950Y179610I-1200J0D01*
G01*
X-125772Y177307D02*
G03*
X-125772Y177307I-1200J0D01*
G01*
X171700Y-119000D02*
G03*
X171700Y-119000I-1200J0D01*
G01*
X147200Y-166500D02*
G03*
X147200Y-166500I-1200J0D01*
G01*
X246798Y-94118D02*
G03*
X246798Y-94118I-1200J0D01*
G01*
X246700Y-106500D02*
G03*
X246700Y-106500I-1200J0D01*
G01*
X185700Y-106000D02*
G03*
X185700Y-106000I-1200J0D01*
G01*
X234200Y-115000D02*
G03*
X234200Y-115000I-1200J0D01*
G01*
X278700Y-105000D02*
G03*
X278700Y-105000I-1200J0D01*
G01*
X105700Y148500D02*
G03*
X105700Y148500I-1200J0D01*
G01*
X127200Y172000D02*
G03*
X127200Y172000I-1200J0D01*
G01*
X90200Y154000D02*
G03*
X90200Y154000I-1200J0D01*
G01*
X75700Y225000D02*
G03*
X75700Y225000I-1200J0D01*
G01*
Y218000D02*
G03*
X75700Y218000I-1200J0D01*
G01*
X-5300Y246500D02*
G03*
X-5300Y246500I-1200J0D01*
G01*
X34700Y186500D02*
G03*
X34700Y186500I-1200J0D01*
G01*
X-23300Y222000D02*
G03*
X-23300Y222000I-1200J0D01*
G01*
X-11300Y246500D02*
G03*
X-11300Y246500I-1200J0D01*
G01*
X-26361Y247439D02*
G03*
X-26361Y247439I-1200J0D01*
G01*
X-37800Y236500D02*
G03*
X-37800Y236500I-1200J0D01*
G01*
X-119800Y153500D02*
G03*
X-119800Y153500I-1200J0D01*
G01*
X234200Y-110000D02*
G03*
X234200Y-110000I-1200J0D01*
G01*
X150700Y-129500D02*
G03*
X150700Y-129500I-1200J0D01*
G01*
X139200Y-136000D02*
G03*
X139200Y-136000I-1200J0D01*
G01*
X96200Y-226000D02*
G03*
X96200Y-226000I-1200J0D01*
G01*
X142700Y-239000D02*
G03*
X142700Y-239000I-1200J0D01*
G01*
X-89800D02*
G03*
X-89800Y-239000I-1200J0D01*
G01*
X-120300Y-178500D02*
G03*
X-120300Y-178500I-1200J0D01*
G01*
X27200Y-162500D02*
G03*
X27200Y-162500I-1200J0D01*
G01*
Y-168500D02*
G03*
X27200Y-168500I-1200J0D01*
G01*
X-163300Y-137000D02*
G03*
X-163300Y-137000I-1200J0D01*
G01*
X-84800Y-171000D02*
G03*
X-84800Y-171000I-1200J0D01*
G01*
X79700Y-158000D02*
G03*
X79700Y-158000I-1200J0D01*
G01*
X-153719Y-149000D02*
G03*
X-153719Y-149000I-1200J0D01*
G01*
X76200Y-153000D02*
G03*
X76200Y-153000I-1200J0D01*
G01*
X144200Y-200500D02*
G03*
X144200Y-200500I-1200J0D01*
G01*
X60200Y-182000D02*
G03*
X60200Y-182000I-1200J0D01*
G01*
X64200Y-177500D02*
G03*
X64200Y-177500I-1200J0D01*
G01*
X55700Y-186500D02*
G03*
X55700Y-186500I-1200J0D01*
G01*
X-84800Y-205000D02*
G03*
X-84800Y-205000I-1200J0D01*
G01*
X-43800Y-143000D02*
G03*
X-43800Y-143000I-1200J0D01*
G01*
X94700Y-137500D02*
G03*
X94700Y-137500I-1200J0D01*
G01*
X55700Y-131000D02*
G03*
X55700Y-131000I-1200J0D01*
G01*
X60700D02*
G03*
X60700Y-131000I-1200J0D01*
G01*
X65700D02*
G03*
X65700Y-131000I-1200J0D01*
G01*
X-61300Y-132500D02*
G03*
X-61300Y-132500I-1200J0D01*
G01*
X-41800Y-158500D02*
G03*
X-41800Y-158500I-1200J0D01*
G01*
X-45800Y-155398D02*
G03*
X-45800Y-155398I-1200J0D01*
G01*
X149700Y-261000D02*
G03*
X149700Y-261000I-1200J0D01*
G01*
Y-255000D02*
G03*
X149700Y-255000I-1200J0D01*
G01*
X-102300Y-260500D02*
G03*
X-102300Y-260500I-1200J0D01*
G01*
Y-255000D02*
G03*
X-102300Y-255000I-1200J0D01*
G01*
X66700Y-171500D02*
G03*
X66700Y-171500I-1200J0D01*
G01*
X61200D02*
G03*
X61200Y-171500I-1200J0D01*
G01*
X-28800Y-178000D02*
G03*
X-28800Y-178000I-1200J0D01*
G01*
X-24800Y-173500D02*
G03*
X-24800Y-173500I-1200J0D01*
G01*
X-27800Y-169000D02*
G03*
X-27800Y-169000I-1200J0D01*
G01*
X-128800Y-89000D02*
G03*
X-128800Y-89000I-1200J0D01*
G01*
X-137800D02*
G03*
X-137800Y-89000I-1200J0D01*
G01*
X-143048D02*
G03*
X-143048Y-89000I-1200J0D01*
G01*
X-170800Y-54000D02*
G03*
X-170800Y-54000I-1200J0D01*
G01*
X-157300Y-57500D02*
G03*
X-157300Y-57500I-1200J0D01*
G01*
Y-52000D02*
G03*
X-157300Y-52000I-1200J0D01*
G01*
X-168300Y-49000D02*
G03*
X-168300Y-49000I-1200J0D01*
G01*
X-169300Y-38000D02*
G03*
X-169300Y-38000I-1200J0D01*
G01*
Y-32500D02*
G03*
X-169300Y-32500I-1200J0D01*
G01*
X99200Y148500D02*
G03*
X99200Y148500I-1200J0D01*
G01*
X70700Y-131000D02*
G03*
X70700Y-131000I-1200J0D01*
G01*
X-95300Y196500D02*
G03*
X-95300Y196500I-1200J0D01*
G01*
X-133800Y231500D02*
G03*
X-133800Y231500I-1200J0D01*
G01*
X165200Y-147000D02*
G03*
X165200Y-147000I-1200J0D01*
G01*
X-165800Y-202000D02*
G03*
X-165800Y-202000I-1200J0D01*
G01*
X211200Y-174500D02*
G03*
X211200Y-174500I-1200J0D01*
G01*
X198200Y-167000D02*
G03*
X198200Y-167000I-1200J0D01*
G01*
X142200Y-146000D02*
G03*
X142200Y-146000I-1200J0D01*
G01*
X278200Y-94500D02*
G03*
X278200Y-94500I-1200J0D01*
G01*
X-155800Y-238000D02*
G03*
X-155800Y-238000I-1200J0D01*
G01*
X-143300D02*
G03*
X-143300Y-238000I-1200J0D01*
G01*
X-173800Y-194000D02*
G03*
X-173800Y-194000I-1200J0D01*
G01*
X-181800D02*
G03*
X-181800Y-194000I-1200J0D01*
G01*
X-130300Y-175000D02*
G03*
X-130300Y-175000I-1200J0D01*
G01*
Y-168000D02*
G03*
X-130300Y-168000I-1200J0D01*
G01*
X-146800Y-278500D02*
G03*
X-146800Y-278500I-1200J0D01*
G01*
X-155300D02*
G03*
X-155300Y-278500I-1200J0D01*
G01*
X-154800Y-257000D02*
G03*
X-154800Y-257000I-1200J0D01*
G01*
X-146800D02*
G03*
X-146800Y-257000I-1200J0D01*
G01*
X-131800Y-191500D02*
G03*
X-131800Y-191500I-1200J0D01*
G01*
X-141300Y-181000D02*
G03*
X-141300Y-181000I-1200J0D01*
G01*
X-201800Y-203000D02*
G03*
X-201800Y-203000I-1200J0D01*
G01*
Y-210000D02*
G03*
X-201800Y-210000I-1200J0D01*
G01*
X-195300Y-151500D02*
G03*
X-195300Y-151500I-1200J0D01*
G01*
Y-161500D02*
G03*
X-195300Y-161500I-1200J0D01*
G01*
X-218300Y-156500D02*
G03*
X-218300Y-156500I-1200J0D01*
G01*
X114186Y-140474D02*
G03*
X114186Y-140474I-1200J0D01*
G01*
X193200Y-88500D02*
G03*
X193200Y-88500I-1200J0D01*
G01*
X179200Y-85000D02*
G03*
X179200Y-85000I-1200J0D01*
G01*
X157200Y-57000D02*
G03*
X157200Y-57000I-1200J0D01*
G01*
X152700Y-52500D02*
G03*
X152700Y-52500I-1200J0D01*
G01*
X160200Y-133500D02*
G03*
X160200Y-133500I-1200J0D01*
G01*
X151200Y-146000D02*
G03*
X151200Y-146000I-1200J0D01*
G01*
X122200Y-137500D02*
G03*
X122200Y-137500I-1200J0D01*
G01*
X198200Y-157500D02*
G03*
X198200Y-157500I-1200J0D01*
G01*
X191200Y-136500D02*
G03*
X191200Y-136500I-1200J0D01*
G01*
X228700Y-78500D02*
G03*
X228700Y-78500I-1200J0D01*
G01*
X181700Y-166500D02*
G03*
X181700Y-166500I-1200J0D01*
G01*
X175700D02*
G03*
X175700Y-166500I-1200J0D01*
G01*
X126200Y-207000D02*
G03*
X126200Y-207000I-1200J0D01*
G01*
Y-200500D02*
G03*
X126200Y-200500I-1200J0D01*
G01*
X115700Y-189500D02*
G03*
X115700Y-189500I-1200J0D01*
G01*
X104700Y-154500D02*
G03*
X104700Y-154500I-1200J0D01*
G01*
X117700D02*
G03*
X117700Y-154500I-1200J0D01*
G01*
X101700Y-161500D02*
G03*
X101700Y-161500I-1200J0D01*
G01*
X127200Y-153500D02*
G03*
X127200Y-153500I-1200J0D01*
G01*
X121700Y-162535D02*
G03*
X121700Y-162535I-1200J0D01*
G01*
X53700Y184000D02*
G03*
X53700Y184000I-1200J0D01*
G01*
Y170500D02*
G03*
X53700Y170500I-1200J0D01*
G01*
X-52300D02*
G03*
X-52300Y170500I-1200J0D01*
G01*
X-51300Y183500D02*
G03*
X-51300Y183500I-1200J0D01*
G01*
M02*
