%FSAX25Y25*%
%MOIN*%
G70*
G01*
G75*
%ADD10O,0.08661X0.02362*%
%ADD11R,0.03000X0.03543*%
%ADD12R,0.05118X0.05512*%
%ADD13R,0.05512X0.05118*%
%ADD14R,0.03543X0.03000*%
%ADD15R,0.05000X0.06693*%
%ADD16R,0.04921X0.03937*%
%ADD17R,0.08661X0.02362*%
%ADD18O,0.08661X0.02362*%
%ADD19O,0.02362X0.08661*%
%ADD20R,0.09449X0.09843*%
%ADD21C,0.01575*%
%ADD22C,0.01181*%
%ADD23C,0.00984*%
%ADD24C,0.01000*%
%ADD25C,0.03150*%
%ADD26C,0.03937*%
%ADD27C,0.02756*%
%ADD28C,0.02362*%
%ADD29C,0.00591*%
%ADD30C,0.01969*%
%ADD31C,0.05906*%
%ADD32R,0.05906X0.05906*%
%ADD33C,0.05118*%
%ADD34C,0.07874*%
%ADD35O,0.10236X0.07874*%
%ADD36O,0.08268X0.07874*%
%ADD37R,0.05118X0.09843*%
%ADD38O,0.05118X0.09843*%
%ADD39R,0.06299X0.06299*%
%ADD40C,0.06299*%
%ADD41C,2.75591*%
%ADD42C,0.39370*%
%ADD43C,0.19685*%
%ADD44C,0.05500*%
%ADD45C,0.06693*%
%ADD46C,0.05000*%
%ADD47R,0.09646X0.09843*%
%ADD48R,0.09843X0.09449*%
%ADD49R,0.02362X0.08661*%
%ADD50O,0.02362X0.08661*%
%ADD51R,0.20866X0.07087*%
%ADD52O,0.03937X0.01024*%
%ADD53O,0.01024X0.03937*%
%ADD54R,0.03937X0.01024*%
%ADD55R,0.03543X0.01575*%
%ADD56R,0.09449X0.12598*%
%ADD57R,0.06693X0.05000*%
%ADD58R,0.09843X0.14961*%
%ADD59R,0.01969X0.05512*%
%ADD60O,0.08661X0.01575*%
%ADD61R,0.08661X0.01575*%
%ADD62R,0.18110X0.09252*%
%ADD63O,0.01378X0.06299*%
%ADD64R,0.07087X0.07874*%
%ADD65R,0.03543X0.01575*%
%ADD66R,0.09843X0.09646*%
%ADD67R,0.03937X0.04921*%
%ADD68O,0.02165X0.07874*%
%ADD69R,0.15000X0.19685*%
%ADD70R,0.01575X0.03543*%
%ADD71R,0.06000X0.06299*%
%ADD72R,0.06299X0.06000*%
%ADD73C,0.00787*%
%ADD74C,0.00141*%
%ADD75C,0.01378*%
%ADD76C,0.01200*%
G36*
X0739832Y0925099D02*
X0739959Y0925088D01*
X0740109Y0925076D01*
X0740247Y0925053D01*
X0740386Y0925030D01*
X0740397D01*
X0740443Y0925019D01*
X0740512Y0924996D01*
X0740593Y0924973D01*
X0740789Y0924903D01*
X0740881Y0924857D01*
X0740974Y0924800D01*
X0740985Y0924788D01*
X0741008Y0924776D01*
X0741054Y0924742D01*
X0741112Y0924696D01*
X0741227Y0924569D01*
X0741343Y0924408D01*
X0741354Y0924396D01*
X0741366Y0924361D01*
X0741389Y0924315D01*
X0741412Y0924258D01*
X0741435Y0924177D01*
X0741446Y0924073D01*
X0741469Y0923969D01*
Y0923854D01*
Y0923843D01*
Y0923808D01*
Y0923750D01*
X0741458Y0923681D01*
X0741446Y0923600D01*
X0741435Y0923520D01*
X0741389Y0923324D01*
Y0923312D01*
X0741377Y0923278D01*
X0741354Y0923232D01*
X0741331Y0923174D01*
X0741262Y0923036D01*
X0741158Y0922874D01*
X0741147Y0922863D01*
X0741135Y0922840D01*
X0741101Y0922805D01*
X0741054Y0922759D01*
X0740939Y0922643D01*
X0740801Y0922517D01*
X0740789Y0922505D01*
X0740766Y0922494D01*
X0740720Y0922459D01*
X0740662Y0922424D01*
X0740593Y0922390D01*
X0740524Y0922344D01*
X0740340Y0922263D01*
X0740351D01*
X0740374Y0922252D01*
X0740420D01*
X0740466Y0922228D01*
X0740593Y0922194D01*
X0740720Y0922125D01*
X0740731D01*
X0740755Y0922113D01*
X0740824Y0922056D01*
X0740916Y0921986D01*
X0741020Y0921883D01*
X0741031Y0921871D01*
X0741043Y0921859D01*
X0741089Y0921790D01*
X0741158Y0921675D01*
X0741216Y0921537D01*
Y0921525D01*
X0741227Y0921502D01*
X0741239Y0921456D01*
X0741250Y0921410D01*
X0741262Y0921341D01*
X0741273Y0921260D01*
X0741285Y0921087D01*
Y0921075D01*
Y0921052D01*
Y0921006D01*
X0741273Y0920949D01*
X0741262Y0920799D01*
X0741216Y0920626D01*
Y0920614D01*
X0741204Y0920580D01*
X0741193Y0920533D01*
X0741170Y0920476D01*
X0741112Y0920314D01*
X0741020Y0920142D01*
Y0920130D01*
X0740997Y0920107D01*
X0740974Y0920061D01*
X0740928Y0920003D01*
X0740824Y0919865D01*
X0740674Y0919703D01*
X0740662Y0919692D01*
X0740639Y0919669D01*
X0740593Y0919634D01*
X0740535Y0919576D01*
X0740455Y0919519D01*
X0740374Y0919461D01*
X0740167Y0919334D01*
X0740155Y0919323D01*
X0740109Y0919311D01*
X0740051Y0919277D01*
X0739970Y0919242D01*
X0739867Y0919207D01*
X0739751Y0919161D01*
X0739613Y0919115D01*
X0739475Y0919081D01*
X0739452D01*
X0739406Y0919069D01*
X0739325Y0919058D01*
X0739210Y0919046D01*
X0739083Y0919023D01*
X0738921Y0919011D01*
X0738748Y0919000D01*
X0736834D01*
X0736765Y0919011D01*
X0736661Y0919035D01*
X0736581Y0919092D01*
X0736569Y0919115D01*
X0736546Y0919161D01*
X0736535Y0919254D01*
Y0919311D01*
X0736546Y0919380D01*
X0737618Y0924719D01*
Y0924730D01*
X0737630Y0924753D01*
X0737641Y0924788D01*
X0737653Y0924834D01*
X0737699Y0924938D01*
X0737780Y0925019D01*
X0737791D01*
X0737803Y0925030D01*
X0737860Y0925065D01*
X0737964Y0925099D01*
X0738080Y0925111D01*
X0739717D01*
X0739832Y0925099D01*
D02*
G37*
G36*
X0744986Y0923635D02*
X0744998D01*
X0745032Y0923623D01*
X0745113Y0923600D01*
X0745124D01*
X0745159Y0923589D01*
X0745228Y0923566D01*
X0745240D01*
X0745263Y0923554D01*
X0745286Y0923543D01*
X0745309Y0923531D01*
X0745320Y0923520D01*
X0745332Y0923508D01*
X0745343Y0923474D01*
Y0923439D01*
Y0923427D01*
Y0923416D01*
Y0923370D01*
X0745332Y0923312D01*
Y0923301D01*
X0745320Y0923255D01*
X0745309Y0923197D01*
X0745297Y0923116D01*
Y0923093D01*
X0745286Y0923047D01*
X0745274Y0922966D01*
X0745251Y0922874D01*
Y0922851D01*
X0745240Y0922805D01*
X0745217Y0922736D01*
X0745194Y0922655D01*
Y0922643D01*
X0745171Y0922597D01*
X0745148Y0922540D01*
X0745113Y0922482D01*
X0745101Y0922470D01*
X0745078Y0922459D01*
X0745055Y0922436D01*
X0745009Y0922424D01*
X0744986D01*
X0744928Y0922436D01*
X0744917D01*
X0744905Y0922447D01*
X0744836Y0922470D01*
X0744825D01*
X0744802Y0922482D01*
X0744767Y0922494D01*
X0744721Y0922505D01*
X0744709D01*
X0744686Y0922517D01*
X0744640Y0922528D01*
X0744559D01*
X0744525Y0922517D01*
X0744479D01*
X0744363Y0922470D01*
X0744306Y0922447D01*
X0744237Y0922401D01*
X0744225D01*
X0744202Y0922378D01*
X0744168Y0922355D01*
X0744133Y0922309D01*
X0744018Y0922217D01*
X0743891Y0922079D01*
X0743879Y0922067D01*
X0743868Y0922044D01*
X0743833Y0921998D01*
X0743798Y0921952D01*
X0743752Y0921883D01*
X0743695Y0921802D01*
X0743591Y0921606D01*
Y0921594D01*
X0743568Y0921560D01*
X0743545Y0921502D01*
X0743522Y0921433D01*
X0743487Y0921352D01*
X0743464Y0921260D01*
X0743406Y0921052D01*
X0743026Y0919161D01*
Y0919150D01*
Y0919138D01*
X0743014Y0919104D01*
X0742991Y0919081D01*
X0742980D01*
X0742968Y0919058D01*
X0742934Y0919046D01*
X0742876Y0919023D01*
X0742865D01*
X0742830Y0919011D01*
X0742772Y0919000D01*
X0742692Y0918989D01*
X0742611D01*
X0742519Y0918977D01*
X0742207D01*
X0742115Y0918989D01*
X0742092D01*
X0742046Y0919000D01*
X0741988Y0919011D01*
X0741931Y0919023D01*
X0741919D01*
X0741896Y0919035D01*
X0741873Y0919058D01*
X0741850Y0919081D01*
Y0919092D01*
Y0919104D01*
Y0919161D01*
X0742692Y0923381D01*
Y0923393D01*
Y0923405D01*
X0742703Y0923439D01*
X0742726Y0923462D01*
X0742738Y0923474D01*
X0742749Y0923485D01*
X0742818Y0923508D01*
X0742830D01*
X0742865Y0923520D01*
X0742922Y0923531D01*
X0742991Y0923543D01*
X0743014D01*
X0743061Y0923554D01*
X0743141Y0923566D01*
X0743326D01*
X0743395Y0923554D01*
X0743476Y0923543D01*
X0743487D01*
X0743533Y0923531D01*
X0743568Y0923520D01*
X0743614Y0923508D01*
X0743625D01*
X0743649Y0923497D01*
X0743672Y0923485D01*
X0743683Y0923462D01*
X0743695Y0923439D01*
Y0923416D01*
Y0923381D01*
X0743559Y0922716D01*
X0743579Y0922736D01*
X0743603Y0922782D01*
X0743637Y0922828D01*
X0743718Y0922955D01*
X0743822Y0923082D01*
X0743833Y0923093D01*
X0743845Y0923116D01*
X0743914Y0923185D01*
X0744018Y0923278D01*
X0744133Y0923370D01*
X0744144Y0923381D01*
X0744168Y0923393D01*
X0744202Y0923416D01*
X0744237Y0923439D01*
X0744352Y0923508D01*
X0744479Y0923566D01*
X0744490D01*
X0744513Y0923577D01*
X0744548Y0923589D01*
X0744594Y0923612D01*
X0744709Y0923635D01*
X0744848Y0923647D01*
X0744940D01*
X0744986Y0923635D01*
D02*
G37*
G36*
X0820777Y0964726D02*
X0820969Y0964707D01*
X0821180Y0964669D01*
X0821392Y0964630D01*
X0821584Y0964573D01*
X0821603D01*
X0821680Y0964534D01*
X0821757Y0964496D01*
X0821892Y0964457D01*
X0822161Y0964304D01*
X0822430Y0964111D01*
X0822449Y0964092D01*
X0822487Y0964073D01*
X0822545Y0964015D01*
X0822622Y0963938D01*
X0822795Y0963727D01*
X0822929Y0963477D01*
Y0963458D01*
X0822949Y0963420D01*
X0822987Y0963343D01*
X0823026Y0963266D01*
X0823083Y0963016D01*
X0823102Y0962747D01*
Y0962728D01*
Y0962651D01*
X0823083Y0962555D01*
X0823064Y0962420D01*
X0823045Y0962247D01*
X0822987Y0962074D01*
X0822929Y0961901D01*
X0822833Y0961728D01*
X0822814Y0961709D01*
X0822795Y0961651D01*
X0822718Y0961574D01*
X0822641Y0961459D01*
X0822526Y0961325D01*
X0822391Y0961209D01*
X0822237Y0961075D01*
X0822045Y0960940D01*
X0822026Y0960921D01*
X0821949Y0960882D01*
X0821834Y0960825D01*
X0821680Y0960767D01*
X0821469Y0960690D01*
X0821238Y0960613D01*
X0820969Y0960536D01*
X0820662Y0960460D01*
X0820623D01*
X0820508Y0960440D01*
X0820335Y0960402D01*
X0820104Y0960383D01*
X0819816Y0960344D01*
X0819470Y0960306D01*
X0819105Y0960287D01*
X0817971D01*
Y0960248D01*
X0817951Y0960171D01*
X0817932Y0960037D01*
X0817913Y0959902D01*
Y0959883D01*
Y0959806D01*
Y0959691D01*
Y0959595D01*
Y0959575D01*
Y0959479D01*
X0817932Y0959364D01*
X0817951Y0959229D01*
X0817990Y0959076D01*
X0818048Y0958903D01*
X0818124Y0958749D01*
X0818240Y0958615D01*
X0818259Y0958595D01*
X0818297Y0958576D01*
X0818374Y0958518D01*
X0818490Y0958461D01*
X0818643Y0958403D01*
X0818816Y0958365D01*
X0819047Y0958326D01*
X0819297Y0958307D01*
X0819604D01*
X0819912Y0958326D01*
X0820219Y0958365D01*
X0820239D01*
X0820296Y0958384D01*
X0820373Y0958403D01*
X0820469Y0958422D01*
X0820700Y0958480D01*
X0820950Y0958538D01*
X0820969D01*
X0821008Y0958557D01*
X0821065Y0958576D01*
X0821123Y0958595D01*
X0821296Y0958653D01*
X0821469Y0958711D01*
X0821488D01*
X0821507Y0958730D01*
X0821584Y0958749D01*
X0821680Y0958768D01*
X0821757Y0958788D01*
X0821815D01*
X0821853Y0958768D01*
X0821892Y0958730D01*
X0821911Y0958711D01*
X0821930Y0958691D01*
X0821949Y0958634D01*
Y0958557D01*
Y0958538D01*
Y0958461D01*
X0821930Y0958365D01*
X0821911Y0958249D01*
Y0958211D01*
X0821892Y0958134D01*
X0821872Y0958038D01*
X0821853Y0957903D01*
Y0957884D01*
X0821834Y0957807D01*
X0821795Y0957692D01*
X0821738Y0957577D01*
X0821719Y0957557D01*
X0821699Y0957500D01*
X0821642Y0957423D01*
X0821584Y0957365D01*
X0821565Y0957346D01*
X0821507Y0957308D01*
X0821392Y0957250D01*
X0821238Y0957173D01*
X0821219D01*
X0821200Y0957154D01*
X0821142Y0957135D01*
X0821065Y0957115D01*
X0820873Y0957058D01*
X0820623Y0957000D01*
X0820565D01*
X0820488Y0956981D01*
X0820392Y0956962D01*
X0820277Y0956942D01*
X0820143Y0956923D01*
X0819835Y0956885D01*
X0819758D01*
X0819662Y0956866D01*
X0819566D01*
X0819412Y0956846D01*
X0819278D01*
X0818932Y0956827D01*
X0818663D01*
X0818490Y0956846D01*
X0818278Y0956866D01*
X0818067Y0956885D01*
X0817625Y0956981D01*
X0817605D01*
X0817529Y0957019D01*
X0817432Y0957038D01*
X0817298Y0957096D01*
X0816990Y0957250D01*
X0816683Y0957442D01*
X0816664Y0957461D01*
X0816625Y0957500D01*
X0816548Y0957577D01*
X0816471Y0957673D01*
X0816375Y0957788D01*
X0816279Y0957923D01*
X0816183Y0958095D01*
X0816106Y0958269D01*
Y0958288D01*
X0816087Y0958365D01*
X0816049Y0958461D01*
X0816029Y0958615D01*
X0815991Y0958788D01*
X0815953Y0958980D01*
X0815933Y0959210D01*
Y0959460D01*
Y0959479D01*
Y0959556D01*
Y0959672D01*
X0815953Y0959806D01*
Y0959979D01*
X0815972Y0960171D01*
X0816029Y0960594D01*
Y0960613D01*
X0816049Y0960690D01*
X0816068Y0960806D01*
X0816106Y0960959D01*
X0816145Y0961152D01*
X0816203Y0961344D01*
X0816337Y0961767D01*
X0816356Y0961786D01*
X0816375Y0961863D01*
X0816433Y0961978D01*
X0816491Y0962132D01*
X0816587Y0962305D01*
X0816683Y0962497D01*
X0816914Y0962901D01*
X0816933Y0962920D01*
X0816971Y0962997D01*
X0817048Y0963093D01*
X0817144Y0963227D01*
X0817260Y0963362D01*
X0817413Y0963535D01*
X0817740Y0963842D01*
X0817759Y0963861D01*
X0817836Y0963919D01*
X0817932Y0963977D01*
X0818067Y0964073D01*
X0818240Y0964188D01*
X0818432Y0964284D01*
X0818643Y0964400D01*
X0818874Y0964496D01*
X0818913Y0964515D01*
X0818989Y0964534D01*
X0819124Y0964573D01*
X0819297Y0964630D01*
X0819528Y0964669D01*
X0819777Y0964707D01*
X0820047Y0964726D01*
X0820354Y0964746D01*
X0820604D01*
X0820777Y0964726D01*
D02*
G37*
G36*
X0758003Y0923635D02*
X0758119Y0923623D01*
X0758246Y0923600D01*
X0758372Y0923577D01*
X0758488Y0923543D01*
X0758499D01*
X0758545Y0923520D01*
X0758592Y0923497D01*
X0758672Y0923474D01*
X0758834Y0923381D01*
X0758995Y0923266D01*
X0759007Y0923255D01*
X0759030Y0923243D01*
X0759064Y0923209D01*
X0759110Y0923162D01*
X0759214Y0923036D01*
X0759295Y0922886D01*
Y0922874D01*
X0759306Y0922851D01*
X0759329Y0922805D01*
X0759352Y0922759D01*
X0759387Y0922609D01*
X0759399Y0922447D01*
Y0922436D01*
Y0922390D01*
X0759387Y0922332D01*
X0759375Y0922252D01*
X0759364Y0922148D01*
X0759329Y0922044D01*
X0759295Y0921940D01*
X0759237Y0921836D01*
X0759226Y0921825D01*
X0759214Y0921790D01*
X0759168Y0921744D01*
X0759122Y0921675D01*
X0759053Y0921594D01*
X0758972Y0921525D01*
X0758880Y0921444D01*
X0758764Y0921364D01*
X0758753Y0921352D01*
X0758707Y0921329D01*
X0758638Y0921294D01*
X0758545Y0921260D01*
X0758419Y0921214D01*
X0758280Y0921168D01*
X0758119Y0921122D01*
X0757934Y0921075D01*
X0757911D01*
X0757842Y0921064D01*
X0757738Y0921041D01*
X0757600Y0921029D01*
X0757427Y0921006D01*
X0757219Y0920983D01*
X0757000Y0920972D01*
X0756320D01*
Y0920949D01*
X0756309Y0920902D01*
X0756297Y0920822D01*
X0756285Y0920741D01*
Y0920730D01*
Y0920683D01*
Y0920614D01*
Y0920557D01*
Y0920545D01*
Y0920487D01*
X0756297Y0920418D01*
X0756309Y0920337D01*
X0756332Y0920245D01*
X0756366Y0920142D01*
X0756412Y0920049D01*
X0756482Y0919969D01*
X0756493Y0919957D01*
X0756516Y0919946D01*
X0756562Y0919911D01*
X0756631Y0919876D01*
X0756724Y0919842D01*
X0756827Y0919819D01*
X0756966Y0919796D01*
X0757116Y0919784D01*
X0757300D01*
X0757485Y0919796D01*
X0757669Y0919819D01*
X0757681D01*
X0757715Y0919830D01*
X0757761Y0919842D01*
X0757819Y0919853D01*
X0757957Y0919888D01*
X0758107Y0919922D01*
X0758119D01*
X0758142Y0919934D01*
X0758176Y0919946D01*
X0758211Y0919957D01*
X0758315Y0919992D01*
X0758419Y0920026D01*
X0758430D01*
X0758442Y0920038D01*
X0758488Y0920049D01*
X0758545Y0920061D01*
X0758592Y0920072D01*
X0758626D01*
X0758649Y0920061D01*
X0758672Y0920038D01*
X0758684Y0920026D01*
X0758695Y0920015D01*
X0758707Y0919980D01*
Y0919934D01*
Y0919922D01*
Y0919876D01*
X0758695Y0919819D01*
X0758684Y0919750D01*
Y0919726D01*
X0758672Y0919680D01*
X0758661Y0919623D01*
X0758649Y0919542D01*
Y0919530D01*
X0758638Y0919484D01*
X0758614Y0919415D01*
X0758580Y0919346D01*
X0758568Y0919334D01*
X0758557Y0919300D01*
X0758522Y0919254D01*
X0758488Y0919219D01*
X0758476Y0919207D01*
X0758442Y0919184D01*
X0758372Y0919150D01*
X0758280Y0919104D01*
X0758269D01*
X0758257Y0919092D01*
X0758222Y0919081D01*
X0758176Y0919069D01*
X0758061Y0919035D01*
X0757911Y0919000D01*
X0757877D01*
X0757830Y0918989D01*
X0757773Y0918977D01*
X0757704Y0918965D01*
X0757623Y0918954D01*
X0757439Y0918931D01*
X0757392D01*
X0757335Y0918919D01*
X0757277D01*
X0757185Y0918908D01*
X0757104D01*
X0756897Y0918896D01*
X0756735D01*
X0756631Y0918908D01*
X0756505Y0918919D01*
X0756378Y0918931D01*
X0756112Y0918989D01*
X0756101D01*
X0756055Y0919011D01*
X0755997Y0919023D01*
X0755917Y0919058D01*
X0755732Y0919150D01*
X0755548Y0919265D01*
X0755536Y0919277D01*
X0755513Y0919300D01*
X0755467Y0919346D01*
X0755421Y0919403D01*
X0755363Y0919473D01*
X0755305Y0919553D01*
X0755248Y0919657D01*
X0755202Y0919761D01*
Y0919773D01*
X0755190Y0919819D01*
X0755167Y0919876D01*
X0755156Y0919969D01*
X0755132Y0920072D01*
X0755109Y0920188D01*
X0755098Y0920326D01*
Y0920476D01*
Y0920487D01*
Y0920533D01*
Y0920603D01*
X0755109Y0920683D01*
Y0920787D01*
X0755121Y0920902D01*
X0755156Y0921156D01*
Y0921168D01*
X0755167Y0921214D01*
X0755179Y0921283D01*
X0755202Y0921375D01*
X0755225Y0921490D01*
X0755259Y0921606D01*
X0755340Y0921859D01*
X0755352Y0921871D01*
X0755363Y0921917D01*
X0755398Y0921986D01*
X0755432Y0922079D01*
X0755490Y0922182D01*
X0755548Y0922298D01*
X0755686Y0922540D01*
X0755697Y0922551D01*
X0755721Y0922597D01*
X0755767Y0922655D01*
X0755824Y0922736D01*
X0755894Y0922816D01*
X0755986Y0922920D01*
X0756182Y0923105D01*
X0756193Y0923116D01*
X0756239Y0923151D01*
X0756297Y0923185D01*
X0756378Y0923243D01*
X0756482Y0923312D01*
X0756597Y0923370D01*
X0756724Y0923439D01*
X0756862Y0923497D01*
X0756885Y0923508D01*
X0756931Y0923520D01*
X0757012Y0923543D01*
X0757116Y0923577D01*
X0757254Y0923600D01*
X0757404Y0923623D01*
X0757565Y0923635D01*
X0757750Y0923647D01*
X0757900D01*
X0758003Y0923635D01*
D02*
G37*
G36*
X0747811D02*
X0747903Y0923623D01*
X0748019Y0923600D01*
X0748134Y0923577D01*
X0748249Y0923531D01*
X0748364Y0923474D01*
X0748376Y0923462D01*
X0748411Y0923439D01*
X0748468Y0923405D01*
X0748549Y0923358D01*
X0748630Y0923289D01*
X0748710Y0923209D01*
X0748803Y0923116D01*
X0748895Y0923001D01*
X0748976Y0923381D01*
Y0923393D01*
X0748998Y0923439D01*
X0749045Y0923474D01*
X0749114Y0923520D01*
X0749125D01*
X0749137Y0923531D01*
X0749171D01*
X0749218Y0923543D01*
X0749275Y0923554D01*
X0749356D01*
X0749437Y0923566D01*
X0749621D01*
X0749702Y0923554D01*
X0749771Y0923543D01*
X0749794D01*
X0749829Y0923531D01*
X0749875Y0923520D01*
X0749921Y0923508D01*
X0749932D01*
X0749956Y0923497D01*
X0749979Y0923485D01*
X0749990Y0923462D01*
X0750002Y0923439D01*
X0750013Y0923381D01*
X0749171Y0919150D01*
Y0919138D01*
X0749148Y0919104D01*
X0749091Y0919058D01*
X0749010Y0919011D01*
X0748987D01*
X0748952Y0919000D01*
X0748906D01*
X0748849Y0918989D01*
X0748779D01*
X0748699Y0918977D01*
X0748434D01*
X0748353Y0918989D01*
X0748341D01*
X0748295Y0919000D01*
X0748249D01*
X0748203Y0919011D01*
X0748191D01*
X0748180Y0919023D01*
X0748134Y0919069D01*
Y0919081D01*
Y0919092D01*
Y0919150D01*
X0748258Y0919816D01*
X0748249Y0919807D01*
X0748203Y0919738D01*
X0748134Y0919634D01*
X0748030Y0919507D01*
X0748019Y0919496D01*
X0748007Y0919484D01*
X0747972Y0919450D01*
X0747926Y0919415D01*
X0747811Y0919311D01*
X0747661Y0919207D01*
X0747649D01*
X0747626Y0919184D01*
X0747580Y0919161D01*
X0747523Y0919127D01*
X0747453Y0919092D01*
X0747373Y0919058D01*
X0747188Y0918989D01*
X0747177D01*
X0747142Y0918977D01*
X0747096Y0918965D01*
X0747027Y0918942D01*
X0746946Y0918931D01*
X0746854Y0918908D01*
X0746658Y0918896D01*
X0746600D01*
X0746531Y0918908D01*
X0746439D01*
X0746347Y0918931D01*
X0746243Y0918954D01*
X0746139Y0918977D01*
X0746035Y0919023D01*
X0746024Y0919035D01*
X0745989Y0919046D01*
X0745943Y0919081D01*
X0745885Y0919115D01*
X0745759Y0919219D01*
X0745632Y0919369D01*
X0745620Y0919380D01*
X0745609Y0919415D01*
X0745586Y0919461D01*
X0745551Y0919519D01*
X0745516Y0919600D01*
X0745482Y0919680D01*
X0745413Y0919888D01*
Y0919899D01*
X0745401Y0919934D01*
X0745390Y0919992D01*
Y0920072D01*
X0745378Y0920164D01*
X0745367Y0920268D01*
X0745355Y0920499D01*
Y0920510D01*
Y0920557D01*
Y0920614D01*
X0745367Y0920695D01*
Y0920787D01*
X0745378Y0920902D01*
X0745401Y0921145D01*
Y0921156D01*
X0745413Y0921202D01*
X0745424Y0921271D01*
X0745447Y0921364D01*
X0745470Y0921479D01*
X0745493Y0921594D01*
X0745574Y0921848D01*
X0745586Y0921859D01*
X0745597Y0921906D01*
X0745620Y0921975D01*
X0745666Y0922067D01*
X0745701Y0922159D01*
X0745759Y0922274D01*
X0745885Y0922517D01*
X0745897Y0922528D01*
X0745920Y0922574D01*
X0745955Y0922632D01*
X0746012Y0922713D01*
X0746070Y0922805D01*
X0746151Y0922897D01*
X0746324Y0923093D01*
X0746335Y0923105D01*
X0746370Y0923139D01*
X0746427Y0923185D01*
X0746496Y0923243D01*
X0746589Y0923301D01*
X0746693Y0923370D01*
X0746923Y0923497D01*
X0746935Y0923508D01*
X0746981Y0923520D01*
X0747050Y0923543D01*
X0747142Y0923577D01*
X0747258Y0923600D01*
X0747384Y0923623D01*
X0747523Y0923635D01*
X0747673Y0923647D01*
X0747742D01*
X0747811Y0923635D01*
D02*
G37*
G36*
X0752423Y0925561D02*
X0752515Y0925549D01*
X0752538D01*
X0752584Y0925537D01*
X0752642Y0925526D01*
X0752688Y0925515D01*
X0752700D01*
X0752723Y0925503D01*
X0752746Y0925480D01*
X0752769Y0925445D01*
X0752780Y0925422D01*
Y0925399D01*
Y0925365D01*
X0752042Y0921675D01*
X0753622Y0923358D01*
X0753634Y0923370D01*
X0753657Y0923393D01*
X0753714Y0923451D01*
X0753726Y0923462D01*
X0753749Y0923474D01*
X0753795Y0923497D01*
X0753853Y0923520D01*
X0753864D01*
X0753910Y0923531D01*
X0753979Y0923543D01*
X0754060Y0923554D01*
X0754083D01*
X0754152Y0923566D01*
X0754567D01*
X0754660Y0923554D01*
X0754683D01*
X0754729Y0923543D01*
X0754787Y0923531D01*
X0754833Y0923520D01*
X0754844D01*
X0754867Y0923508D01*
X0754902Y0923485D01*
X0754925Y0923462D01*
X0754937D01*
X0754948Y0923439D01*
X0754959Y0923416D01*
Y0923393D01*
Y0923381D01*
X0754948Y0923335D01*
X0754937Y0923278D01*
X0754890Y0923209D01*
X0754879Y0923197D01*
X0754844Y0923139D01*
X0754775Y0923059D01*
X0754683Y0922955D01*
X0753207Y0921548D01*
X0754164Y0919519D01*
X0754176Y0919507D01*
X0754199Y0919461D01*
X0754222Y0919392D01*
X0754233Y0919323D01*
Y0919311D01*
X0754245Y0919277D01*
X0754256Y0919231D01*
Y0919196D01*
Y0919184D01*
Y0919161D01*
X0754245Y0919127D01*
X0754222Y0919092D01*
X0754210Y0919081D01*
X0754199Y0919069D01*
X0754164Y0919046D01*
X0754118Y0919023D01*
X0754106D01*
X0754072Y0919011D01*
X0754003Y0919000D01*
X0753922Y0918989D01*
X0753841D01*
X0753737Y0918977D01*
X0753391D01*
X0753299Y0918989D01*
X0753276D01*
X0753230Y0919000D01*
X0753172D01*
X0753115Y0919011D01*
X0753103D01*
X0753080Y0919023D01*
X0753022Y0919069D01*
Y0919081D01*
X0753011Y0919104D01*
X0752988Y0919173D01*
X0751985Y0921387D01*
X0751547Y0919161D01*
Y0919150D01*
X0751535Y0919138D01*
X0751524Y0919104D01*
X0751489Y0919081D01*
X0751477D01*
X0751466Y0919058D01*
X0751431Y0919046D01*
X0751385Y0919023D01*
X0751374D01*
X0751339Y0919011D01*
X0751270Y0919000D01*
X0751189Y0918989D01*
X0751109D01*
X0751028Y0918977D01*
X0750705D01*
X0750613Y0918989D01*
X0750601D01*
X0750555Y0919000D01*
X0750497D01*
X0750440Y0919011D01*
X0750428D01*
X0750405Y0919023D01*
X0750382Y0919046D01*
X0750359Y0919069D01*
Y0919081D01*
Y0919092D01*
Y0919150D01*
X0751604Y0925365D01*
Y0925376D01*
Y0925388D01*
X0751616Y0925422D01*
X0751639Y0925445D01*
X0751650Y0925457D01*
X0751662Y0925468D01*
X0751696Y0925491D01*
X0751743Y0925515D01*
X0751754D01*
X0751800Y0925526D01*
X0751858Y0925537D01*
X0751939Y0925549D01*
X0751962D01*
X0752019Y0925561D01*
X0752112Y0925572D01*
X0752331D01*
X0752423Y0925561D01*
D02*
G37*
G36*
X0805708Y0967340D02*
X0805958Y0967302D01*
X0805977D01*
X0806016Y0967283D01*
X0806093D01*
X0806170Y0967264D01*
X0806381Y0967206D01*
X0806612Y0967148D01*
X0806631D01*
X0806669Y0967129D01*
X0806785Y0967091D01*
X0806938Y0967033D01*
X0807111Y0966956D01*
X0807131D01*
X0807150Y0966937D01*
X0807227Y0966898D01*
X0807323Y0966841D01*
X0807400Y0966783D01*
X0807419Y0966764D01*
X0807438Y0966725D01*
X0807515Y0966610D01*
Y0966591D01*
X0807534Y0966552D01*
X0807553Y0966495D01*
Y0966418D01*
Y0966399D01*
Y0966360D01*
Y0966302D01*
X0807534Y0966226D01*
Y0966206D01*
X0807515Y0966149D01*
Y0966072D01*
X0807496Y0965956D01*
Y0965937D01*
X0807477Y0965880D01*
X0807457Y0965784D01*
X0807438Y0965668D01*
Y0965649D01*
X0807419Y0965591D01*
X0807380Y0965514D01*
X0807342Y0965418D01*
Y0965399D01*
X0807323Y0965361D01*
X0807227Y0965226D01*
Y0965207D01*
X0807188Y0965188D01*
X0807150Y0965168D01*
X0807111Y0965149D01*
X0807092D01*
X0807034Y0965168D01*
X0806938Y0965188D01*
X0806823Y0965245D01*
X0806804Y0965265D01*
X0806708Y0965303D01*
X0806592Y0965361D01*
X0806419Y0965438D01*
X0806400D01*
X0806381Y0965457D01*
X0806266Y0965514D01*
X0806093Y0965572D01*
X0805862Y0965649D01*
X0805843D01*
X0805804Y0965668D01*
X0805747Y0965687D01*
X0805651Y0965707D01*
X0805420Y0965745D01*
X0805132Y0965764D01*
X0804978D01*
X0804882Y0965745D01*
X0804651Y0965707D01*
X0804401Y0965630D01*
X0804382D01*
X0804363Y0965611D01*
X0804228Y0965553D01*
X0804075Y0965457D01*
X0803921Y0965322D01*
X0803902Y0965284D01*
X0803825Y0965188D01*
X0803729Y0965053D01*
X0803652Y0964880D01*
Y0964861D01*
X0803633Y0964842D01*
X0803613Y0964726D01*
X0803594Y0964573D01*
X0803575Y0964400D01*
Y0964380D01*
Y0964361D01*
X0803594Y0964246D01*
X0803633Y0964073D01*
X0803710Y0963900D01*
X0803729Y0963861D01*
X0803806Y0963765D01*
X0803921Y0963650D01*
X0804075Y0963496D01*
X0804094D01*
X0804113Y0963458D01*
X0804228Y0963381D01*
X0804401Y0963285D01*
X0804613Y0963150D01*
X0804632D01*
X0804671Y0963112D01*
X0804728Y0963093D01*
X0804805Y0963035D01*
X0804997Y0962920D01*
X0805228Y0962785D01*
X0805247D01*
X0805285Y0962747D01*
X0805343Y0962708D01*
X0805420Y0962670D01*
X0805612Y0962535D01*
X0805824Y0962362D01*
X0805843D01*
X0805881Y0962324D01*
X0805939Y0962286D01*
X0806016Y0962228D01*
X0806189Y0962055D01*
X0806362Y0961843D01*
X0806381Y0961824D01*
X0806400Y0961786D01*
X0806458Y0961728D01*
X0806496Y0961651D01*
X0806631Y0961440D01*
X0806746Y0961171D01*
Y0961152D01*
X0806765Y0961113D01*
X0806804Y0961017D01*
X0806823Y0960921D01*
X0806861Y0960786D01*
X0806881Y0960652D01*
X0806900Y0960306D01*
Y0960267D01*
Y0960171D01*
X0806881Y0960037D01*
X0806861Y0959845D01*
X0806823Y0959633D01*
X0806765Y0959402D01*
X0806689Y0959172D01*
X0806592Y0958922D01*
X0806573Y0958903D01*
X0806535Y0958807D01*
X0806458Y0958691D01*
X0806381Y0958538D01*
X0806246Y0958365D01*
X0806112Y0958192D01*
X0805939Y0957999D01*
X0805747Y0957807D01*
X0805728Y0957788D01*
X0805651Y0957730D01*
X0805535Y0957654D01*
X0805382Y0957538D01*
X0805189Y0957423D01*
X0804959Y0957308D01*
X0804709Y0957192D01*
X0804421Y0957077D01*
X0804382Y0957058D01*
X0804286Y0957038D01*
X0804132Y0957000D01*
X0803921Y0956962D01*
X0803671Y0956904D01*
X0803383Y0956866D01*
X0803056Y0956846D01*
X0802710Y0956827D01*
X0802518D01*
X0802402Y0956846D01*
X0802249D01*
X0802095Y0956866D01*
X0801749Y0956923D01*
X0801730D01*
X0801672Y0956942D01*
X0801595Y0956962D01*
X0801499Y0956981D01*
X0801249Y0957038D01*
X0800999Y0957096D01*
X0800980D01*
X0800942Y0957115D01*
X0800884Y0957135D01*
X0800807Y0957173D01*
X0800634Y0957250D01*
X0800442Y0957346D01*
X0800404Y0957365D01*
X0800307Y0957423D01*
X0800192Y0957500D01*
X0800096Y0957596D01*
X0800077Y0957615D01*
X0800058Y0957692D01*
X0800019Y0957807D01*
X0800000Y0957961D01*
Y0957980D01*
Y0957999D01*
Y0958057D01*
Y0958134D01*
Y0958153D01*
X0800019Y0958211D01*
Y0958307D01*
X0800038Y0958403D01*
Y0958422D01*
X0800058Y0958499D01*
X0800096Y0958595D01*
X0800115Y0958711D01*
Y0958730D01*
X0800134Y0958807D01*
X0800173Y0958884D01*
X0800211Y0958980D01*
X0800231Y0958999D01*
X0800250Y0959056D01*
X0800288Y0959133D01*
X0800327Y0959191D01*
X0800346Y0959210D01*
X0800384Y0959249D01*
X0800423Y0959268D01*
X0800480Y0959287D01*
X0800500D01*
X0800577Y0959268D01*
X0800673Y0959229D01*
X0800788Y0959153D01*
X0800826Y0959133D01*
X0800923Y0959076D01*
X0801057Y0958999D01*
X0801249Y0958884D01*
X0801268D01*
X0801307Y0958864D01*
X0801365Y0958826D01*
X0801441Y0958807D01*
X0801653Y0958711D01*
X0801903Y0958615D01*
X0801922D01*
X0801980Y0958595D01*
X0802057Y0958576D01*
X0802153Y0958557D01*
X0802287Y0958538D01*
X0802441Y0958518D01*
X0802806Y0958499D01*
X0802979D01*
X0803075Y0958518D01*
X0803344Y0958557D01*
X0803613Y0958615D01*
X0803633D01*
X0803671Y0958634D01*
X0803729Y0958653D01*
X0803825Y0958691D01*
X0803998Y0958788D01*
X0804190Y0958922D01*
X0804209Y0958941D01*
X0804228Y0958960D01*
X0804325Y0959056D01*
X0804459Y0959210D01*
X0804555Y0959402D01*
Y0959422D01*
X0804574Y0959441D01*
X0804594Y0959499D01*
X0804632Y0959575D01*
X0804671Y0959768D01*
X0804690Y0959998D01*
Y0960017D01*
Y0960056D01*
X0804671Y0960171D01*
X0804632Y0960325D01*
X0804536Y0960498D01*
Y0960517D01*
X0804517Y0960536D01*
X0804440Y0960633D01*
X0804325Y0960767D01*
X0804171Y0960902D01*
X0804152D01*
X0804132Y0960940D01*
X0804017Y0961017D01*
X0803844Y0961132D01*
X0803633Y0961267D01*
X0803613D01*
X0803575Y0961305D01*
X0803517Y0961325D01*
X0803460Y0961382D01*
X0803267Y0961478D01*
X0803037Y0961613D01*
X0803018D01*
X0802979Y0961651D01*
X0802921Y0961690D01*
X0802864Y0961728D01*
X0802672Y0961863D01*
X0802441Y0962016D01*
X0802422Y0962036D01*
X0802402Y0962055D01*
X0802268Y0962170D01*
X0802095Y0962324D01*
X0801922Y0962535D01*
Y0962555D01*
X0801884Y0962593D01*
X0801845Y0962651D01*
X0801787Y0962747D01*
X0801672Y0962958D01*
X0801557Y0963227D01*
Y0963247D01*
X0801538Y0963304D01*
X0801518Y0963381D01*
X0801499Y0963477D01*
X0801461Y0963612D01*
X0801441Y0963765D01*
X0801422Y0964131D01*
Y0964169D01*
Y0964246D01*
X0801441Y0964380D01*
X0801461Y0964554D01*
X0801480Y0964765D01*
X0801538Y0964976D01*
X0801595Y0965207D01*
X0801691Y0965438D01*
X0801711Y0965457D01*
X0801749Y0965534D01*
X0801807Y0965649D01*
X0801903Y0965784D01*
X0802018Y0965956D01*
X0802153Y0966110D01*
X0802306Y0966283D01*
X0802479Y0966456D01*
X0802499Y0966475D01*
X0802575Y0966533D01*
X0802672Y0966610D01*
X0802825Y0966706D01*
X0802998Y0966821D01*
X0803191Y0966937D01*
X0803421Y0967033D01*
X0803671Y0967129D01*
X0803710Y0967148D01*
X0803806Y0967167D01*
X0803940Y0967206D01*
X0804132Y0967264D01*
X0804363Y0967302D01*
X0804632Y0967340D01*
X0804920Y0967360D01*
X0805228Y0967379D01*
X0805459D01*
X0805708Y0967340D01*
D02*
G37*
G36*
X0833462Y0967225D02*
X0833635Y0967206D01*
X0833673D01*
X0833750Y0967187D01*
X0833846Y0967148D01*
X0833904Y0967091D01*
X0833923Y0967071D01*
X0833943Y0967033D01*
Y0966956D01*
X0833923Y0966841D01*
Y0966802D01*
X0833885Y0966725D01*
X0833827Y0966591D01*
X0833731Y0966399D01*
X0828907Y0957365D01*
X0828888Y0957346D01*
X0828868Y0957288D01*
X0828753Y0957135D01*
X0828734Y0957115D01*
X0828695Y0957096D01*
X0828619Y0957058D01*
X0828522Y0957019D01*
X0828503D01*
X0828426Y0957000D01*
X0828311D01*
X0828138Y0956981D01*
X0827965D01*
X0827754Y0956962D01*
X0826966D01*
X0826735Y0956981D01*
X0826697D01*
X0826581Y0957000D01*
X0826447D01*
X0826312Y0957019D01*
X0826293D01*
X0826235Y0957058D01*
X0826178Y0957077D01*
X0826120Y0957135D01*
Y0957154D01*
X0826101Y0957211D01*
X0826081Y0957288D01*
X0826062Y0957384D01*
X0824832Y0966591D01*
Y0966610D01*
Y0966629D01*
X0824813Y0966706D01*
X0824794Y0966821D01*
Y0966918D01*
Y0966937D01*
X0824813Y0966994D01*
X0824852Y0967052D01*
X0824909Y0967110D01*
X0824928Y0967129D01*
X0824986Y0967148D01*
X0825101Y0967187D01*
X0825236Y0967206D01*
X0825274D01*
X0825390Y0967225D01*
X0825582Y0967244D01*
X0826254D01*
X0826447Y0967225D01*
X0826485D01*
X0826562Y0967206D01*
X0826677Y0967187D01*
X0826773Y0967148D01*
X0826793D01*
X0826831Y0967129D01*
X0826889Y0967091D01*
X0826908Y0967033D01*
Y0967014D01*
X0826927Y0966975D01*
X0826946Y0966918D01*
X0826966Y0966841D01*
X0827831Y0958999D01*
X0827850D01*
X0831809Y0966860D01*
Y0966879D01*
X0831847Y0966937D01*
X0831924Y0967052D01*
X0831944Y0967071D01*
X0831982Y0967091D01*
X0832040Y0967129D01*
X0832117Y0967167D01*
X0832136D01*
X0832213Y0967187D01*
X0832328Y0967206D01*
X0832463Y0967225D01*
X0832559D01*
X0832616Y0967244D01*
X0833270D01*
X0833462Y0967225D01*
D02*
G37*
G36*
X0838229Y0964726D02*
X0838421Y0964707D01*
X0838632Y0964669D01*
X0838844Y0964630D01*
X0839036Y0964573D01*
X0839055D01*
X0839132Y0964534D01*
X0839209Y0964496D01*
X0839343Y0964457D01*
X0839612Y0964304D01*
X0839882Y0964111D01*
X0839901Y0964092D01*
X0839939Y0964073D01*
X0839997Y0964015D01*
X0840074Y0963938D01*
X0840247Y0963727D01*
X0840381Y0963477D01*
Y0963458D01*
X0840400Y0963420D01*
X0840439Y0963343D01*
X0840477Y0963266D01*
X0840535Y0963016D01*
X0840554Y0962747D01*
Y0962728D01*
Y0962651D01*
X0840535Y0962555D01*
X0840516Y0962420D01*
X0840497Y0962247D01*
X0840439Y0962074D01*
X0840381Y0961901D01*
X0840285Y0961728D01*
X0840266Y0961709D01*
X0840247Y0961651D01*
X0840170Y0961574D01*
X0840093Y0961459D01*
X0839978Y0961325D01*
X0839843Y0961209D01*
X0839689Y0961075D01*
X0839497Y0960940D01*
X0839478Y0960921D01*
X0839401Y0960882D01*
X0839286Y0960825D01*
X0839132Y0960767D01*
X0838920Y0960690D01*
X0838690Y0960613D01*
X0838421Y0960536D01*
X0838113Y0960460D01*
X0838075D01*
X0837959Y0960440D01*
X0837786Y0960402D01*
X0837556Y0960383D01*
X0837268Y0960344D01*
X0836922Y0960306D01*
X0836556Y0960287D01*
X0835423D01*
Y0960248D01*
X0835403Y0960171D01*
X0835384Y0960037D01*
X0835365Y0959902D01*
Y0959883D01*
Y0959806D01*
Y0959691D01*
Y0959595D01*
Y0959575D01*
Y0959479D01*
X0835384Y0959364D01*
X0835403Y0959229D01*
X0835442Y0959076D01*
X0835499Y0958903D01*
X0835576Y0958749D01*
X0835692Y0958615D01*
X0835711Y0958595D01*
X0835749Y0958576D01*
X0835826Y0958518D01*
X0835941Y0958461D01*
X0836095Y0958403D01*
X0836268Y0958365D01*
X0836499Y0958326D01*
X0836749Y0958307D01*
X0837056D01*
X0837364Y0958326D01*
X0837671Y0958365D01*
X0837690D01*
X0837748Y0958384D01*
X0837825Y0958403D01*
X0837921Y0958422D01*
X0838152Y0958480D01*
X0838402Y0958538D01*
X0838421D01*
X0838459Y0958557D01*
X0838517Y0958576D01*
X0838575Y0958595D01*
X0838748Y0958653D01*
X0838920Y0958711D01*
X0838940D01*
X0838959Y0958730D01*
X0839036Y0958749D01*
X0839132Y0958768D01*
X0839209Y0958788D01*
X0839266D01*
X0839305Y0958768D01*
X0839343Y0958730D01*
X0839363Y0958711D01*
X0839382Y0958691D01*
X0839401Y0958634D01*
Y0958557D01*
Y0958538D01*
Y0958461D01*
X0839382Y0958365D01*
X0839363Y0958249D01*
Y0958211D01*
X0839343Y0958134D01*
X0839324Y0958038D01*
X0839305Y0957903D01*
Y0957884D01*
X0839286Y0957807D01*
X0839247Y0957692D01*
X0839190Y0957577D01*
X0839170Y0957557D01*
X0839151Y0957500D01*
X0839093Y0957423D01*
X0839036Y0957365D01*
X0839017Y0957346D01*
X0838959Y0957308D01*
X0838844Y0957250D01*
X0838690Y0957173D01*
X0838671D01*
X0838651Y0957154D01*
X0838594Y0957135D01*
X0838517Y0957115D01*
X0838325Y0957058D01*
X0838075Y0957000D01*
X0838017D01*
X0837940Y0956981D01*
X0837844Y0956962D01*
X0837729Y0956942D01*
X0837594Y0956923D01*
X0837287Y0956885D01*
X0837210D01*
X0837114Y0956866D01*
X0837018D01*
X0836864Y0956846D01*
X0836729D01*
X0836384Y0956827D01*
X0836114D01*
X0835941Y0956846D01*
X0835730Y0956866D01*
X0835519Y0956885D01*
X0835077Y0956981D01*
X0835057D01*
X0834980Y0957019D01*
X0834884Y0957038D01*
X0834750Y0957096D01*
X0834442Y0957250D01*
X0834135Y0957442D01*
X0834116Y0957461D01*
X0834077Y0957500D01*
X0834000Y0957577D01*
X0833923Y0957673D01*
X0833827Y0957788D01*
X0833731Y0957923D01*
X0833635Y0958095D01*
X0833558Y0958269D01*
Y0958288D01*
X0833539Y0958365D01*
X0833500Y0958461D01*
X0833481Y0958615D01*
X0833443Y0958788D01*
X0833404Y0958980D01*
X0833385Y0959210D01*
Y0959460D01*
Y0959479D01*
Y0959556D01*
Y0959672D01*
X0833404Y0959806D01*
Y0959979D01*
X0833424Y0960171D01*
X0833481Y0960594D01*
Y0960613D01*
X0833500Y0960690D01*
X0833520Y0960806D01*
X0833558Y0960959D01*
X0833597Y0961152D01*
X0833654Y0961344D01*
X0833789Y0961767D01*
X0833808Y0961786D01*
X0833827Y0961863D01*
X0833885Y0961978D01*
X0833943Y0962132D01*
X0834039Y0962305D01*
X0834135Y0962497D01*
X0834365Y0962901D01*
X0834385Y0962920D01*
X0834423Y0962997D01*
X0834500Y0963093D01*
X0834596Y0963227D01*
X0834711Y0963362D01*
X0834865Y0963535D01*
X0835192Y0963842D01*
X0835211Y0963861D01*
X0835288Y0963919D01*
X0835384Y0963977D01*
X0835519Y0964073D01*
X0835692Y0964188D01*
X0835884Y0964284D01*
X0836095Y0964400D01*
X0836326Y0964496D01*
X0836364Y0964515D01*
X0836441Y0964534D01*
X0836576Y0964573D01*
X0836749Y0964630D01*
X0836979Y0964669D01*
X0837229Y0964707D01*
X0837498Y0964726D01*
X0837806Y0964746D01*
X0838056D01*
X0838229Y0964726D01*
D02*
G37*
G36*
X0816414Y0967167D02*
X0816471Y0967148D01*
X0816510Y0967091D01*
X0816529Y0967071D01*
X0816548Y0967033D01*
X0816568Y0966956D01*
Y0966841D01*
Y0966821D01*
Y0966802D01*
Y0966745D01*
X0816548Y0966668D01*
Y0966648D01*
X0816529Y0966591D01*
Y0966514D01*
X0816510Y0966399D01*
Y0966379D01*
X0816491Y0966302D01*
X0816471Y0966187D01*
X0816433Y0966072D01*
Y0966053D01*
X0816414Y0965976D01*
X0816375Y0965880D01*
X0816337Y0965784D01*
X0816318Y0965764D01*
X0816299Y0965707D01*
X0816183Y0965572D01*
X0816164Y0965553D01*
X0816126Y0965534D01*
X0816087Y0965514D01*
X0816010Y0965495D01*
X0813473D01*
X0811839Y0957288D01*
Y0957269D01*
X0811820Y0957250D01*
X0811801Y0957192D01*
X0811743Y0957135D01*
X0811724D01*
X0811705Y0957096D01*
X0811647Y0957077D01*
X0811551Y0957038D01*
X0811532D01*
X0811474Y0957019D01*
X0811359Y0957000D01*
X0811224Y0956981D01*
X0811090D01*
X0810936Y0956962D01*
X0810379D01*
X0810225Y0956981D01*
X0810187D01*
X0810110Y0957000D01*
X0810014Y0957019D01*
X0809918Y0957038D01*
X0809898D01*
X0809860Y0957058D01*
X0809802Y0957096D01*
X0809764Y0957135D01*
Y0957154D01*
Y0957192D01*
Y0957288D01*
X0811397Y0965495D01*
X0808822D01*
X0808784Y0965514D01*
X0808726Y0965534D01*
X0808687Y0965572D01*
Y0965591D01*
X0808668Y0965630D01*
X0808649Y0965707D01*
Y0965803D01*
Y0965822D01*
Y0965860D01*
Y0965918D01*
Y0965995D01*
Y0966014D01*
X0808668Y0966072D01*
Y0966149D01*
X0808687Y0966264D01*
Y0966283D01*
X0808707Y0966360D01*
X0808745Y0966456D01*
X0808764Y0966572D01*
Y0966610D01*
X0808784Y0966668D01*
X0808822Y0966783D01*
X0808860Y0966879D01*
X0808880Y0966898D01*
X0808918Y0966956D01*
X0808957Y0967033D01*
X0809014Y0967091D01*
X0809033Y0967110D01*
X0809072Y0967148D01*
X0809130Y0967167D01*
X0809206Y0967187D01*
X0816375D01*
X0816414Y0967167D01*
D02*
G37*
%LPC*%
G36*
X0820354Y0963343D02*
X0820047D01*
X0819950Y0963323D01*
X0819720Y0963285D01*
X0819470Y0963189D01*
X0819451D01*
X0819412Y0963170D01*
X0819355Y0963131D01*
X0819278Y0963093D01*
X0819105Y0962977D01*
X0818913Y0962804D01*
X0818893Y0962785D01*
X0818874Y0962766D01*
X0818778Y0962651D01*
X0818643Y0962478D01*
X0818509Y0962247D01*
Y0962228D01*
X0818490Y0962189D01*
X0818451Y0962132D01*
X0818413Y0962036D01*
X0818336Y0961824D01*
X0818259Y0961555D01*
X0819143D01*
X0819278Y0961574D01*
X0819451D01*
X0819624Y0961594D01*
X0819797Y0961613D01*
X0819970Y0961632D01*
X0819989D01*
X0820047Y0961651D01*
X0820123Y0961670D01*
X0820219Y0961690D01*
X0820431Y0961747D01*
X0820642Y0961843D01*
X0820662D01*
X0820681Y0961863D01*
X0820796Y0961940D01*
X0820911Y0962055D01*
X0821027Y0962189D01*
X0821046Y0962228D01*
X0821104Y0962305D01*
X0821142Y0962439D01*
X0821161Y0962593D01*
Y0962612D01*
Y0962651D01*
X0821142Y0962708D01*
X0821123Y0962785D01*
X0821065Y0962958D01*
X0820988Y0963054D01*
X0820911Y0963131D01*
X0820892Y0963150D01*
X0820873Y0963170D01*
X0820815Y0963208D01*
X0820719Y0963247D01*
X0820623Y0963285D01*
X0820508Y0963304D01*
X0820354Y0963343D01*
D02*
G37*
G36*
X0837806D02*
X0837498D01*
X0837402Y0963323D01*
X0837171Y0963285D01*
X0836922Y0963189D01*
X0836902D01*
X0836864Y0963170D01*
X0836806Y0963131D01*
X0836729Y0963093D01*
X0836556Y0962977D01*
X0836364Y0962804D01*
X0836345Y0962785D01*
X0836326Y0962766D01*
X0836230Y0962651D01*
X0836095Y0962478D01*
X0835961Y0962247D01*
Y0962228D01*
X0835941Y0962189D01*
X0835903Y0962132D01*
X0835865Y0962036D01*
X0835788Y0961824D01*
X0835711Y0961555D01*
X0836595D01*
X0836729Y0961574D01*
X0836902D01*
X0837075Y0961594D01*
X0837248Y0961613D01*
X0837421Y0961632D01*
X0837441D01*
X0837498Y0961651D01*
X0837575Y0961670D01*
X0837671Y0961690D01*
X0837883Y0961747D01*
X0838094Y0961843D01*
X0838113D01*
X0838132Y0961863D01*
X0838248Y0961940D01*
X0838363Y0962055D01*
X0838478Y0962189D01*
X0838498Y0962228D01*
X0838555Y0962305D01*
X0838594Y0962439D01*
X0838613Y0962593D01*
Y0962612D01*
Y0962651D01*
X0838594Y0962708D01*
X0838575Y0962785D01*
X0838517Y0962958D01*
X0838440Y0963054D01*
X0838363Y0963131D01*
X0838344Y0963150D01*
X0838325Y0963170D01*
X0838267Y0963208D01*
X0838171Y0963247D01*
X0838075Y0963285D01*
X0837959Y0963304D01*
X0837806Y0963343D01*
D02*
G37*
G36*
X0757750Y0922805D02*
X0757565D01*
X0757508Y0922793D01*
X0757369Y0922770D01*
X0757219Y0922713D01*
X0757208D01*
X0757185Y0922701D01*
X0757150Y0922678D01*
X0757104Y0922655D01*
X0757000Y0922586D01*
X0756885Y0922482D01*
X0756874Y0922470D01*
X0756862Y0922459D01*
X0756804Y0922390D01*
X0756724Y0922286D01*
X0756643Y0922148D01*
Y0922136D01*
X0756631Y0922113D01*
X0756608Y0922079D01*
X0756585Y0922021D01*
X0756539Y0921894D01*
X0756493Y0921733D01*
X0757023D01*
X0757104Y0921744D01*
X0757208D01*
X0757312Y0921756D01*
X0757415Y0921767D01*
X0757519Y0921779D01*
X0757531D01*
X0757565Y0921790D01*
X0757611Y0921802D01*
X0757669Y0921813D01*
X0757796Y0921848D01*
X0757923Y0921906D01*
X0757934D01*
X0757946Y0921917D01*
X0758015Y0921963D01*
X0758084Y0922032D01*
X0758153Y0922113D01*
X0758165Y0922136D01*
X0758200Y0922182D01*
X0758222Y0922263D01*
X0758234Y0922355D01*
Y0922367D01*
Y0922390D01*
X0758222Y0922424D01*
X0758211Y0922470D01*
X0758176Y0922574D01*
X0758130Y0922632D01*
X0758084Y0922678D01*
X0758073Y0922690D01*
X0758061Y0922701D01*
X0758027Y0922724D01*
X0757969Y0922747D01*
X0757911Y0922770D01*
X0757842Y0922782D01*
X0757750Y0922805D01*
D02*
G37*
G36*
X0739394Y0924177D02*
X0738725D01*
X0738403Y0922597D01*
X0739198D01*
X0739279Y0922609D01*
X0739440Y0922632D01*
X0739602Y0922690D01*
X0739613D01*
X0739636Y0922701D01*
X0739671Y0922724D01*
X0739717Y0922759D01*
X0739832Y0922828D01*
X0739936Y0922932D01*
X0739948Y0922943D01*
X0739959Y0922955D01*
X0739982Y0922989D01*
X0740005Y0923036D01*
X0740063Y0923151D01*
X0740120Y0923278D01*
Y0923289D01*
X0740132Y0923312D01*
X0740143Y0923347D01*
X0740155Y0923393D01*
X0740178Y0923497D01*
X0740190Y0923623D01*
Y0923635D01*
Y0923647D01*
X0740178Y0923704D01*
X0740167Y0923785D01*
X0740132Y0923854D01*
X0740120Y0923877D01*
X0740097Y0923912D01*
X0740051Y0923969D01*
X0739994Y0924027D01*
X0739982Y0924039D01*
X0739924Y0924062D01*
X0739855Y0924096D01*
X0739751Y0924131D01*
X0739740D01*
X0739728Y0924142D01*
X0739694D01*
X0739659Y0924154D01*
X0739544Y0924165D01*
X0739394Y0924177D01*
D02*
G37*
G36*
X0747834Y0922632D02*
X0747673D01*
X0747626Y0922620D01*
X0747500Y0922586D01*
X0747373Y0922528D01*
X0747361D01*
X0747350Y0922517D01*
X0747281Y0922459D01*
X0747188Y0922378D01*
X0747085Y0922274D01*
Y0922263D01*
X0747061Y0922252D01*
X0747038Y0922217D01*
X0747004Y0922171D01*
X0746935Y0922056D01*
X0746854Y0921917D01*
Y0921906D01*
X0746842Y0921883D01*
X0746819Y0921836D01*
X0746796Y0921790D01*
X0746750Y0921640D01*
X0746693Y0921479D01*
Y0921467D01*
X0746681Y0921444D01*
X0746669Y0921398D01*
X0746658Y0921341D01*
X0746635Y0921202D01*
X0746600Y0921029D01*
Y0921018D01*
Y0920995D01*
X0746589Y0920949D01*
Y0920891D01*
X0746577Y0920753D01*
Y0920603D01*
Y0920591D01*
Y0920580D01*
Y0920522D01*
Y0920430D01*
X0746589Y0920337D01*
Y0920314D01*
X0746612Y0920257D01*
X0746635Y0920188D01*
X0746669Y0920107D01*
X0746681Y0920095D01*
X0746716Y0920049D01*
X0746762Y0920003D01*
X0746819Y0919957D01*
X0746842Y0919946D01*
X0746888Y0919934D01*
X0746969Y0919911D01*
X0747073Y0919899D01*
X0747108D01*
X0747154Y0919911D01*
X0747200D01*
X0747338Y0919946D01*
X0747500Y0920015D01*
X0747511Y0920026D01*
X0747534Y0920038D01*
X0747580Y0920072D01*
X0747638Y0920107D01*
X0747765Y0920211D01*
X0747903Y0920360D01*
X0747915Y0920372D01*
X0747938Y0920395D01*
X0747972Y0920441D01*
X0748019Y0920510D01*
X0748065Y0920580D01*
X0748122Y0920660D01*
X0748238Y0920856D01*
X0748249Y0920868D01*
X0748261Y0920902D01*
X0748284Y0920960D01*
X0748318Y0921041D01*
X0748353Y0921133D01*
X0748387Y0921237D01*
X0748445Y0921479D01*
X0748572Y0922113D01*
X0748560Y0922125D01*
X0748549Y0922159D01*
X0748514Y0922205D01*
X0748468Y0922252D01*
X0748353Y0922378D01*
X0748284Y0922436D01*
X0748203Y0922494D01*
X0748191Y0922505D01*
X0748168Y0922517D01*
X0748122Y0922540D01*
X0748076Y0922563D01*
X0748007Y0922586D01*
X0747926Y0922609D01*
X0747834Y0922632D01*
D02*
G37*
G36*
X0739037Y0921686D02*
X0738218D01*
X0737872Y0919946D01*
X0738864D01*
X0738944Y0919957D01*
X0739129Y0919980D01*
X0739302Y0920038D01*
X0739313D01*
X0739336Y0920049D01*
X0739383Y0920072D01*
X0739440Y0920107D01*
X0739556Y0920176D01*
X0739682Y0920280D01*
X0739694Y0920291D01*
X0739705Y0920303D01*
X0739728Y0920337D01*
X0739763Y0920384D01*
X0739844Y0920487D01*
X0739901Y0920626D01*
Y0920637D01*
X0739913Y0920660D01*
X0739924Y0920695D01*
X0739948Y0920753D01*
X0739970Y0920879D01*
X0739982Y0921029D01*
Y0921041D01*
Y0921075D01*
X0739970Y0921133D01*
X0739959Y0921202D01*
X0739924Y0921271D01*
X0739890Y0921352D01*
X0739832Y0921433D01*
X0739751Y0921502D01*
X0739740Y0921513D01*
X0739705Y0921537D01*
X0739659Y0921560D01*
X0739578Y0921594D01*
X0739486Y0921629D01*
X0739359Y0921663D01*
X0739210Y0921675D01*
X0739037Y0921686D01*
D02*
G37*
%LPD*%
D23*
X0678441Y0547653D02*
G03*
X0678441Y0547653I-0000492J0000000D01*
G01*
X1018941Y0888653D02*
G03*
X1018941Y0888653I-0000492J0000000D01*
G01*
X0931193Y0843661D02*
G03*
X0931193Y0843661I-0000492J0000000D01*
G01*
X0760543Y0925346D02*
G03*
X0760543Y0925346I-0000492J0000000D01*
G01*
X0867646Y0961551D02*
G03*
X0867646Y0961551I-0000492J0000000D01*
G01*
X0843791Y0865354D02*
G03*
X0843791Y0865354I-0000492J0000000D01*
G01*
X1086697Y0496480D02*
G03*
X1086697Y0496480I-0000492J0000000D01*
G01*
D24*
X0918496Y0851476D02*
G03*
X0918496Y0851476I-0031496J0000000D01*
G01*
X0898811Y0577500D02*
G03*
X0898811Y0577500I-0011811J0000000D01*
G01*
X0812209Y0727500D02*
G03*
X0812209Y0727500I-0011811J0000000D01*
G01*
X0985413D02*
G03*
X0985413Y0727500I-0011811J0000000D01*
G01*
X1024795Y0677500D02*
G03*
X1024795Y0677500I-0137795J0000000D01*
G01*
X0963315Y0977252D02*
G03*
X0963315Y0984748I0004685J0003748D01*
G01*
X0824886Y0983252D02*
G03*
X0824886Y0990748I0004685J0003748D01*
G01*
X0847958Y0986752D02*
G03*
X0847958Y0994248I0004685J0003748D01*
G01*
X0871029Y0987752D02*
G03*
X0871029Y0995248I0004685J0003748D01*
G01*
X0894100Y0987752D02*
G03*
X0894100Y0995248I0004685J0003748D01*
G01*
X0917172Y0986752D02*
G03*
X0917172Y0994248I0004685J0003748D01*
G01*
X0940243Y0983252D02*
G03*
X0940243Y0990748I0004685J0003748D01*
G01*
X0801815Y0977252D02*
G03*
X0801815Y0984748I0004685J0003748D01*
G01*
X0742752Y0914185D02*
G03*
X0750248Y0914185I0003748J-0004685D01*
G01*
X0889500Y0885866D02*
X0893500D01*
X0889500D02*
Y0890539D01*
X0884500D02*
X0889500D01*
X0884500Y0885819D02*
Y0890539D01*
X0880500Y0885819D02*
X0884500D01*
X0963000Y0977000D02*
Y0985000D01*
X0824571Y0983000D02*
Y0991000D01*
X0847643Y0986500D02*
Y0994500D01*
X0870714Y0987500D02*
Y0995500D01*
X0893786Y0987500D02*
Y0995500D01*
X0916857Y0986500D02*
Y0994500D01*
X0939929Y0983000D02*
Y0991000D01*
X0801500Y0977000D02*
Y0985000D01*
X0742500Y0914500D02*
X0750500D01*
X1024795Y0677500D02*
G03*
X1024795Y0677500I-0137795J0000000D01*
G01*
D28*
X0669287Y0552752D02*
G03*
X0669287Y0552752I-0001181J0000000D01*
G01*
X1009787Y0893752D02*
G03*
X1009787Y0893752I-0001181J0000000D01*
G01*
X0771075Y0920248D02*
G03*
X0771075Y0920248I-0001181J0000000D01*
G01*
X0873433Y0971394D02*
G03*
X0873433Y0971394I-0001181J0000000D01*
G01*
X1082287Y0486638D02*
G03*
X1082287Y0486638I-0001181J0000000D01*
G01*
D29*
X0889000Y0954830D02*
Y0952468D01*
X0890181D01*
X0890574Y0952862D01*
Y0954436D01*
X0890181Y0954830D01*
X0889000D01*
X0891361Y0952468D02*
X0892149D01*
X0891755D01*
Y0954830D01*
X0891361Y0954436D01*
X0894510Y0952468D02*
Y0954830D01*
X0893329Y0953649D01*
X0894904D01*
X1054074Y0908468D02*
X1053681Y0908861D01*
X1052894D01*
X1052500Y0908468D01*
Y0908074D01*
X1052894Y0907681D01*
X1053681D01*
X1054074Y0907287D01*
Y0906894D01*
X1053681Y0906500D01*
X1052894D01*
X1052500Y0906894D01*
X1054861Y0908861D02*
Y0906500D01*
X1055649Y0907287D01*
X1056436Y0906500D01*
Y0908861D01*
X1058797D02*
X1057223D01*
Y0907681D01*
X1058010Y0908074D01*
X1058404D01*
X1058797Y0907681D01*
Y0906894D01*
X1058404Y0906500D01*
X1057617D01*
X1057223Y0906894D01*
X0753000Y0885000D02*
Y0887361D01*
X0754181D01*
X0754574Y0886968D01*
Y0886181D01*
X0754181Y0885787D01*
X0753000D01*
X0753787D02*
X0754574Y0885000D01*
X0756936Y0887361D02*
X0756149Y0886968D01*
X0755361Y0886181D01*
Y0885394D01*
X0755755Y0885000D01*
X0756542D01*
X0756936Y0885394D01*
Y0885787D01*
X0756542Y0886181D01*
X0755361D01*
X0758904Y0885000D02*
Y0887361D01*
X0757723Y0886181D01*
X0759297D01*
X0857639Y0966500D02*
X0859606D01*
X0860000Y0966894D01*
Y0967681D01*
X0859606Y0968074D01*
X0857639D01*
X0860000Y0970436D02*
Y0968861D01*
X0858426Y0970436D01*
X0858032D01*
X0857639Y0970042D01*
Y0969255D01*
X0858032Y0968861D01*
X0857639Y0972797D02*
Y0971223D01*
X0858819D01*
X0858426Y0972010D01*
Y0972404D01*
X0858819Y0972797D01*
X0859606D01*
X0860000Y0972404D01*
Y0971616D01*
X0859606Y0971223D01*
X0803000Y0992361D02*
Y0990000D01*
X0804181D01*
X0804574Y0990394D01*
Y0991968D01*
X0804181Y0992361D01*
X0803000D01*
X0805361Y0991968D02*
X0805755Y0992361D01*
X0806542D01*
X0806936Y0991968D01*
Y0991574D01*
X0806542Y0991181D01*
X0806149D01*
X0806542D01*
X0806936Y0990787D01*
Y0990394D01*
X0806542Y0990000D01*
X0805755D01*
X0805361Y0990394D01*
X0807723Y0991968D02*
X0808116Y0992361D01*
X0808904D01*
X0809297Y0991968D01*
Y0991574D01*
X0808904Y0991181D01*
X0808510D01*
X0808904D01*
X0809297Y0990787D01*
Y0990394D01*
X0808904Y0990000D01*
X0808116D01*
X0807723Y0990394D01*
X0766532Y0440074D02*
X0766139Y0439681D01*
Y0438894D01*
X0766532Y0438500D01*
X0768106D01*
X0768500Y0438894D01*
Y0439681D01*
X0768106Y0440074D01*
X0768500Y0442436D02*
Y0440861D01*
X0766926Y0442436D01*
X0766532D01*
X0766139Y0442042D01*
Y0441255D01*
X0766532Y0440861D01*
X0766139Y0443223D02*
Y0444797D01*
X0766532D01*
X0768106Y0443223D01*
X0768500D01*
X0832674Y0865068D02*
X0832281Y0865461D01*
X0831494D01*
X0831100Y0865068D01*
Y0863494D01*
X0831494Y0863100D01*
X0832281D01*
X0832674Y0863494D01*
X0833461Y0863100D02*
X0834249D01*
X0833855D01*
Y0865461D01*
X0833461Y0865068D01*
X0939074Y0863968D02*
X0938681Y0864361D01*
X0937894D01*
X0937500Y0863968D01*
Y0862394D01*
X0937894Y0862000D01*
X0938681D01*
X0939074Y0862394D01*
X0941042Y0862000D02*
Y0864361D01*
X0939861Y0863181D01*
X0941436D01*
X0734000Y0909861D02*
Y0907500D01*
X0735181D01*
X0735574Y0907894D01*
Y0909468D01*
X0735181Y0909861D01*
X0734000D01*
X0736361Y0909468D02*
X0736755Y0909861D01*
X0737542D01*
X0737936Y0909468D01*
Y0909074D01*
X0737542Y0908681D01*
X0737149D01*
X0737542D01*
X0737936Y0908287D01*
Y0907894D01*
X0737542Y0907500D01*
X0736755D01*
X0736361Y0907894D01*
X0875000Y0873000D02*
Y0875361D01*
X0876181D01*
X0876574Y0874968D01*
Y0874181D01*
X0876181Y0873787D01*
X0875000D01*
X0875787D02*
X0876574Y0873000D01*
X0878936D02*
X0877361D01*
X0878936Y0874574D01*
Y0874968D01*
X0878542Y0875361D01*
X0877755D01*
X0877361Y0874968D01*
X0852000Y0873000D02*
Y0875361D01*
X0853181D01*
X0853574Y0874968D01*
Y0874181D01*
X0853181Y0873787D01*
X0852000D01*
X0852787D02*
X0853574Y0873000D01*
X0854361Y0874968D02*
X0854755Y0875361D01*
X0855542D01*
X0855936Y0874968D01*
Y0874574D01*
X0855542Y0874181D01*
X0855149D01*
X0855542D01*
X0855936Y0873787D01*
Y0873394D01*
X0855542Y0873000D01*
X0854755D01*
X0854361Y0873394D01*
X0848600Y0845600D02*
Y0847961D01*
X0849781D01*
X0850174Y0847568D01*
Y0846781D01*
X0849781Y0846387D01*
X0848600D01*
X0849387D02*
X0850174Y0845600D01*
X0852536Y0847961D02*
X0850961D01*
Y0846781D01*
X0851749Y0847174D01*
X0852142D01*
X0852536Y0846781D01*
Y0845994D01*
X0852142Y0845600D01*
X0851355D01*
X0850961Y0845994D01*
X0899000Y0844000D02*
Y0846361D01*
X0900181D01*
X0900574Y0845968D01*
Y0845181D01*
X0900181Y0844787D01*
X0899000D01*
X0899787D02*
X0900574Y0844000D01*
X0901361Y0845968D02*
X0901755Y0846361D01*
X0902542D01*
X0902936Y0845968D01*
Y0845574D01*
X0902542Y0845181D01*
X0902936Y0844787D01*
Y0844394D01*
X0902542Y0844000D01*
X0901755D01*
X0901361Y0844394D01*
Y0844787D01*
X0901755Y0845181D01*
X0901361Y0845574D01*
Y0845968D01*
X0901755Y0845181D02*
X0902542D01*
X0910600Y0845600D02*
Y0847961D01*
X0911781D01*
X0912174Y0847568D01*
Y0846781D01*
X0911781Y0846387D01*
X0910600D01*
X0911387D02*
X0912174Y0845600D01*
X0912961D02*
X0913749D01*
X0913355D01*
Y0847961D01*
X0912961Y0847568D01*
X0914929D02*
X0915323Y0847961D01*
X0916110D01*
X0916504Y0847568D01*
Y0845994D01*
X0916110Y0845600D01*
X0915323D01*
X0914929Y0845994D01*
Y0847568D01*
X0913000Y0873000D02*
Y0875361D01*
X0914181D01*
X0914574Y0874968D01*
Y0874181D01*
X0914181Y0873787D01*
X0913000D01*
X0913787D02*
X0914574Y0873000D01*
X0915361D02*
X0916149D01*
X0915755D01*
Y0875361D01*
X0915361Y0874968D01*
X0917329Y0873000D02*
X0918116D01*
X0917723D01*
Y0875361D01*
X0917329Y0874968D01*
X0892500Y0873000D02*
Y0875361D01*
X0893681D01*
X0894074Y0874968D01*
Y0874181D01*
X0893681Y0873787D01*
X0892500D01*
X0893287D02*
X0894074Y0873000D01*
X0894861D02*
X0895649D01*
X0895255D01*
Y0875361D01*
X0894861Y0874968D01*
X0898404Y0873000D02*
X0896829D01*
X0898404Y0874574D01*
Y0874968D01*
X0898010Y0875361D01*
X0897223D01*
X0896829Y0874968D01*
X0839200Y0871261D02*
Y0869294D01*
X0839594Y0868900D01*
X0840381D01*
X0840774Y0869294D01*
Y0871261D01*
X0843136Y0868900D02*
X0841561D01*
X0843136Y0870474D01*
Y0870868D01*
X0842742Y0871261D01*
X0841955D01*
X0841561Y0870868D01*
X0926000Y0840361D02*
Y0838394D01*
X0926394Y0838000D01*
X0927181D01*
X0927574Y0838394D01*
Y0840361D01*
X0928361Y0839968D02*
X0928755Y0840361D01*
X0929542D01*
X0929936Y0839968D01*
Y0839574D01*
X0929542Y0839181D01*
X0929149D01*
X0929542D01*
X0929936Y0838787D01*
Y0838394D01*
X0929542Y0838000D01*
X0928755D01*
X0928361Y0838394D01*
X1006500Y0885861D02*
Y0883894D01*
X1006894Y0883500D01*
X1007681D01*
X1008074Y0883894D01*
Y0885861D01*
X1010436Y0883500D02*
X1008861D01*
X1010436Y0885074D01*
Y0885468D01*
X1010042Y0885861D01*
X1009255D01*
X1008861Y0885468D01*
X1011223Y0883500D02*
X1012010D01*
X1011617D01*
Y0885861D01*
X1011223Y0885468D01*
X0772000Y0928692D02*
Y0926724D01*
X0772394Y0926331D01*
X0773181D01*
X0773574Y0926724D01*
Y0928692D01*
X0775936Y0926331D02*
X0774361D01*
X0775936Y0927905D01*
Y0928299D01*
X0775542Y0928692D01*
X0774755D01*
X0774361Y0928299D01*
X0776723D02*
X0777116Y0928692D01*
X0777904D01*
X0778297Y0928299D01*
Y0926724D01*
X0777904Y0926331D01*
X0777116D01*
X0776723Y0926724D01*
Y0928299D01*
X0665000Y0545361D02*
Y0543394D01*
X0665394Y0543000D01*
X0666181D01*
X0666574Y0543394D01*
Y0545361D01*
X0667361Y0543000D02*
X0668149D01*
X0667755D01*
Y0545361D01*
X0667361Y0544968D01*
X0669329D02*
X0669723Y0545361D01*
X0670510D01*
X0670904Y0544968D01*
Y0544574D01*
X0670510Y0544181D01*
X0670904Y0543787D01*
Y0543394D01*
X0670510Y0543000D01*
X0669723D01*
X0669329Y0543394D01*
Y0543787D01*
X0669723Y0544181D01*
X0669329Y0544574D01*
Y0544968D01*
X0669723Y0544181D02*
X0670510D01*
X1093861Y0491000D02*
X1091894D01*
X1091500Y0490606D01*
Y0489819D01*
X1091894Y0489426D01*
X1093861D01*
X1091500Y0488639D02*
Y0487851D01*
Y0488245D01*
X1093861D01*
X1093468Y0488639D01*
X1093861Y0485096D02*
Y0486671D01*
X1092681D01*
X1093074Y0485884D01*
Y0485490D01*
X1092681Y0485096D01*
X1091894D01*
X1091500Y0485490D01*
Y0486277D01*
X1091894Y0486671D01*
X1042000Y0538861D02*
Y0536894D01*
X1042394Y0536500D01*
X1043181D01*
X1043574Y0536894D01*
Y0538861D01*
X1044361Y0536894D02*
X1044755Y0536500D01*
X1045542D01*
X1045936Y0536894D01*
Y0538468D01*
X1045542Y0538861D01*
X1044755D01*
X1044361Y0538468D01*
Y0538074D01*
X1044755Y0537681D01*
X1045936D01*
X0582574Y0635968D02*
X0582181Y0636361D01*
X0581394D01*
X0581000Y0635968D01*
Y0635574D01*
X0581394Y0635181D01*
X0582181D01*
X0582574Y0634787D01*
Y0634394D01*
X0582181Y0634000D01*
X0581394D01*
X0581000Y0634394D01*
X0583361Y0636361D02*
Y0634000D01*
X0584149Y0634787D01*
X0584936Y0634000D01*
Y0636361D01*
X0585723Y0634000D02*
X0586510D01*
X0586116D01*
Y0636361D01*
X0585723Y0635968D01*
X0589265Y0634000D02*
X0587691D01*
X0589265Y0635574D01*
Y0635968D01*
X0588871Y0636361D01*
X0588084D01*
X0587691Y0635968D01*
X0628574Y0538468D02*
X0628181Y0538861D01*
X0627394D01*
X0627000Y0538468D01*
Y0538074D01*
X0627394Y0537681D01*
X0628181D01*
X0628574Y0537287D01*
Y0536894D01*
X0628181Y0536500D01*
X0627394D01*
X0627000Y0536894D01*
X0629361Y0538861D02*
Y0536500D01*
X0630149Y0537287D01*
X0630936Y0536500D01*
Y0538861D01*
X0631723Y0536500D02*
X0632510D01*
X0632116D01*
Y0538861D01*
X0631723Y0538468D01*
X0633691Y0536500D02*
X0634478D01*
X0634084D01*
Y0538861D01*
X0633691Y0538468D01*
X0696074Y0461468D02*
X0695681Y0461861D01*
X0694894D01*
X0694500Y0461468D01*
Y0461074D01*
X0694894Y0460681D01*
X0695681D01*
X0696074Y0460287D01*
Y0459894D01*
X0695681Y0459500D01*
X0694894D01*
X0694500Y0459894D01*
X0696861Y0461861D02*
Y0459500D01*
X0697649Y0460287D01*
X0698436Y0459500D01*
Y0461861D01*
X0699223Y0459500D02*
X0700010D01*
X0699616D01*
Y0461861D01*
X0699223Y0461468D01*
X0701191D02*
X0701584Y0461861D01*
X0702372D01*
X0702765Y0461468D01*
Y0459894D01*
X0702372Y0459500D01*
X0701584D01*
X0701191Y0459894D01*
Y0461468D01*
X1068574Y0460968D02*
X1068181Y0461361D01*
X1067394D01*
X1067000Y0460968D01*
Y0460574D01*
X1067394Y0460181D01*
X1068181D01*
X1068574Y0459787D01*
Y0459394D01*
X1068181Y0459000D01*
X1067394D01*
X1067000Y0459394D01*
X1069361Y0461361D02*
Y0459000D01*
X1070149Y0459787D01*
X1070936Y0459000D01*
Y0461361D01*
X1071723Y0459394D02*
X1072116Y0459000D01*
X1072904D01*
X1073297Y0459394D01*
Y0460968D01*
X1072904Y0461361D01*
X1072116D01*
X1071723Y0460968D01*
Y0460574D01*
X1072116Y0460181D01*
X1073297D01*
X1128274Y0538968D02*
X1127881Y0539361D01*
X1127094D01*
X1126700Y0538968D01*
Y0538574D01*
X1127094Y0538181D01*
X1127881D01*
X1128274Y0537787D01*
Y0537394D01*
X1127881Y0537000D01*
X1127094D01*
X1126700Y0537394D01*
X1129061Y0539361D02*
Y0537000D01*
X1129849Y0537787D01*
X1130636Y0537000D01*
Y0539361D01*
X1131423Y0538968D02*
X1131816Y0539361D01*
X1132604D01*
X1132997Y0538968D01*
Y0538574D01*
X1132604Y0538181D01*
X1132997Y0537787D01*
Y0537394D01*
X1132604Y0537000D01*
X1131816D01*
X1131423Y0537394D01*
Y0537787D01*
X1131816Y0538181D01*
X1131423Y0538574D01*
Y0538968D01*
X1131816Y0538181D02*
X1132604D01*
X1186574Y0635468D02*
X1186181Y0635861D01*
X1185394D01*
X1185000Y0635468D01*
Y0635074D01*
X1185394Y0634681D01*
X1186181D01*
X1186574Y0634287D01*
Y0633894D01*
X1186181Y0633500D01*
X1185394D01*
X1185000Y0633894D01*
X1187361Y0635861D02*
Y0633500D01*
X1188149Y0634287D01*
X1188936Y0633500D01*
Y0635861D01*
X1189723D02*
X1191297D01*
Y0635468D01*
X1189723Y0633894D01*
Y0633500D01*
X1112574Y0908968D02*
X1112181Y0909361D01*
X1111394D01*
X1111000Y0908968D01*
Y0908574D01*
X1111394Y0908181D01*
X1112181D01*
X1112574Y0907787D01*
Y0907394D01*
X1112181Y0907000D01*
X1111394D01*
X1111000Y0907394D01*
X1113361Y0909361D02*
Y0907000D01*
X1114149Y0907787D01*
X1114936Y0907000D01*
Y0909361D01*
X1117297D02*
X1116510Y0908968D01*
X1115723Y0908181D01*
Y0907394D01*
X1116117Y0907000D01*
X1116904D01*
X1117297Y0907394D01*
Y0907787D01*
X1116904Y0908181D01*
X1115723D01*
X1054074Y0960968D02*
X1053681Y0961361D01*
X1052894D01*
X1052500Y0960968D01*
Y0960574D01*
X1052894Y0960181D01*
X1053681D01*
X1054074Y0959787D01*
Y0959394D01*
X1053681Y0959000D01*
X1052894D01*
X1052500Y0959394D01*
X1054861Y0961361D02*
Y0959000D01*
X1055649Y0959787D01*
X1056436Y0959000D01*
Y0961361D01*
X1058404Y0959000D02*
Y0961361D01*
X1057223Y0960181D01*
X1058797D01*
X0716074Y0908499D02*
X0715681Y0908893D01*
X0714894D01*
X0714500Y0908499D01*
Y0908106D01*
X0714894Y0907712D01*
X0715681D01*
X0716074Y0907319D01*
Y0906925D01*
X0715681Y0906532D01*
X0714894D01*
X0714500Y0906925D01*
X0716861Y0908893D02*
Y0906532D01*
X0717649Y0907319D01*
X0718436Y0906532D01*
Y0908893D01*
X0719223Y0908499D02*
X0719616Y0908893D01*
X0720404D01*
X0720797Y0908499D01*
Y0908106D01*
X0720404Y0907712D01*
X0720010D01*
X0720404D01*
X0720797Y0907319D01*
Y0906925D01*
X0720404Y0906532D01*
X0719616D01*
X0719223Y0906925D01*
X0716574Y0959968D02*
X0716181Y0960361D01*
X0715394D01*
X0715000Y0959968D01*
Y0959574D01*
X0715394Y0959181D01*
X0716181D01*
X0716574Y0958787D01*
Y0958394D01*
X0716181Y0958000D01*
X0715394D01*
X0715000Y0958394D01*
X0717361Y0960361D02*
Y0958000D01*
X0718149Y0958787D01*
X0718936Y0958000D01*
Y0960361D01*
X0721297Y0958000D02*
X0719723D01*
X0721297Y0959574D01*
Y0959968D01*
X0720904Y0960361D01*
X0720116D01*
X0719723Y0959968D01*
X0658074Y0908468D02*
X0657681Y0908861D01*
X0656894D01*
X0656500Y0908468D01*
Y0908074D01*
X0656894Y0907681D01*
X0657681D01*
X0658074Y0907287D01*
Y0906894D01*
X0657681Y0906500D01*
X0656894D01*
X0656500Y0906894D01*
X0658861Y0908861D02*
Y0906500D01*
X0659649Y0907287D01*
X0660436Y0906500D01*
Y0908861D01*
X0661223Y0906500D02*
X0662010D01*
X0661616D01*
Y0908861D01*
X0661223Y0908468D01*
X0606500Y0618000D02*
Y0620361D01*
X0607681D01*
X0608074Y0619968D01*
Y0619181D01*
X0607681Y0618787D01*
X0606500D01*
X0607287D02*
X0608074Y0618000D01*
X0608861D02*
X0609649D01*
X0609255D01*
Y0620361D01*
X0608861Y0619968D01*
X0610829D02*
X0611223Y0620361D01*
X0612010D01*
X0612404Y0619968D01*
Y0618394D01*
X0612010Y0618000D01*
X0611223D01*
X0610829Y0618394D01*
Y0619968D01*
X0613191Y0618394D02*
X0613584Y0618000D01*
X0614371D01*
X0614765Y0618394D01*
Y0619968D01*
X0614371Y0620361D01*
X0613584D01*
X0613191Y0619968D01*
Y0619574D01*
X0613584Y0619181D01*
X0614765D01*
X0660000Y0514500D02*
X0657639D01*
Y0515681D01*
X0658032Y0516074D01*
X0658819D01*
X0659213Y0515681D01*
Y0514500D01*
Y0515287D02*
X0660000Y0516074D01*
Y0516861D02*
Y0517649D01*
Y0517255D01*
X0657639D01*
X0658032Y0516861D01*
Y0518829D02*
X0657639Y0519223D01*
Y0520010D01*
X0658032Y0520404D01*
X0659606D01*
X0660000Y0520010D01*
Y0519223D01*
X0659606Y0518829D01*
X0658032D01*
X0660000Y0522371D02*
X0657639D01*
X0658819Y0521191D01*
Y0522765D01*
X0709500Y0467500D02*
Y0469861D01*
X0710681D01*
X0711074Y0469468D01*
Y0468681D01*
X0710681Y0468287D01*
X0709500D01*
X0710287D02*
X0711074Y0467500D01*
X0711861Y0467894D02*
X0712255Y0467500D01*
X0713042D01*
X0713436Y0467894D01*
Y0469468D01*
X0713042Y0469861D01*
X0712255D01*
X0711861Y0469468D01*
Y0469074D01*
X0712255Y0468681D01*
X0713436D01*
X0714223Y0467894D02*
X0714616Y0467500D01*
X0715404D01*
X0715797Y0467894D01*
Y0469468D01*
X0715404Y0469861D01*
X0714616D01*
X0714223Y0469468D01*
Y0469074D01*
X0714616Y0468681D01*
X0715797D01*
X1043000Y0434500D02*
Y0436861D01*
X1044181D01*
X1044574Y0436468D01*
Y0435681D01*
X1044181Y0435287D01*
X1043000D01*
X1043787D02*
X1044574Y0434500D01*
X1045361Y0434894D02*
X1045755Y0434500D01*
X1046542D01*
X1046936Y0434894D01*
Y0436468D01*
X1046542Y0436861D01*
X1045755D01*
X1045361Y0436468D01*
Y0436074D01*
X1045755Y0435681D01*
X1046936D01*
X1048904Y0434500D02*
Y0436861D01*
X1047723Y0435681D01*
X1049297D01*
X1115500Y0500000D02*
X1113139D01*
Y0501181D01*
X1113532Y0501574D01*
X1114319D01*
X1114713Y0501181D01*
Y0500000D01*
Y0500787D02*
X1115500Y0501574D01*
X1113532Y0502361D02*
X1113139Y0502755D01*
Y0503542D01*
X1113532Y0503936D01*
X1113926D01*
X1114319Y0503542D01*
X1114713Y0503936D01*
X1115106D01*
X1115500Y0503542D01*
Y0502755D01*
X1115106Y0502361D01*
X1114713D01*
X1114319Y0502755D01*
X1113926Y0502361D01*
X1113532D01*
X1114319Y0502755D02*
Y0503542D01*
X1115106Y0504723D02*
X1115500Y0505116D01*
Y0505904D01*
X1115106Y0506297D01*
X1113532D01*
X1113139Y0505904D01*
Y0505116D01*
X1113532Y0504723D01*
X1113926D01*
X1114319Y0505116D01*
Y0506297D01*
X1160000Y0601500D02*
X1157639D01*
Y0602681D01*
X1158032Y0603074D01*
X1158819D01*
X1159213Y0602681D01*
Y0601500D01*
Y0602287D02*
X1160000Y0603074D01*
X1158032Y0603861D02*
X1157639Y0604255D01*
Y0605042D01*
X1158032Y0605436D01*
X1158426D01*
X1158819Y0605042D01*
X1159213Y0605436D01*
X1159606D01*
X1160000Y0605042D01*
Y0604255D01*
X1159606Y0603861D01*
X1159213D01*
X1158819Y0604255D01*
X1158426Y0603861D01*
X1158032D01*
X1158819Y0604255D02*
Y0605042D01*
X1160000Y0607404D02*
X1157639D01*
X1158819Y0606223D01*
Y0607797D01*
X1087500Y0882000D02*
Y0884361D01*
X1088681D01*
X1089074Y0883968D01*
Y0883181D01*
X1088681Y0882787D01*
X1087500D01*
X1088287D02*
X1089074Y0882000D01*
X1089861Y0884361D02*
X1091436D01*
Y0883968D01*
X1089861Y0882394D01*
Y0882000D01*
X1092223Y0882394D02*
X1092616Y0882000D01*
X1093404D01*
X1093797Y0882394D01*
Y0883968D01*
X1093404Y0884361D01*
X1092616D01*
X1092223Y0883968D01*
Y0883574D01*
X1092616Y0883181D01*
X1093797D01*
X1028000Y0883000D02*
Y0885361D01*
X1029181D01*
X1029574Y0884968D01*
Y0884181D01*
X1029181Y0883787D01*
X1028000D01*
X1028787D02*
X1029574Y0883000D01*
X1030361Y0885361D02*
X1031936D01*
Y0884968D01*
X1030361Y0883394D01*
Y0883000D01*
X1033904D02*
Y0885361D01*
X1032723Y0884181D01*
X1034297D01*
X1030000Y0937500D02*
Y0939861D01*
X1031181D01*
X1031574Y0939468D01*
Y0938681D01*
X1031181Y0938287D01*
X1030000D01*
X1030787D02*
X1031574Y0937500D01*
X1033936Y0939861D02*
X1033149Y0939468D01*
X1032361Y0938681D01*
Y0937894D01*
X1032755Y0937500D01*
X1033542D01*
X1033936Y0937894D01*
Y0938287D01*
X1033542Y0938681D01*
X1032361D01*
X1034723Y0937894D02*
X1035116Y0937500D01*
X1035904D01*
X1036297Y0937894D01*
Y0939468D01*
X1035904Y0939861D01*
X1035116D01*
X1034723Y0939468D01*
Y0939074D01*
X1035116Y0938681D01*
X1036297D01*
X0741500Y0942500D02*
Y0944861D01*
X0742681D01*
X0743074Y0944468D01*
Y0943681D01*
X0742681Y0943287D01*
X0741500D01*
X0742287D02*
X0743074Y0942500D01*
X0745436Y0944861D02*
X0743861D01*
Y0943681D01*
X0744649Y0944074D01*
X0745042D01*
X0745436Y0943681D01*
Y0942894D01*
X0745042Y0942500D01*
X0744255D01*
X0743861Y0942894D01*
X0746223D02*
X0746616Y0942500D01*
X0747404D01*
X0747797Y0942894D01*
Y0944468D01*
X0747404Y0944861D01*
X0746616D01*
X0746223Y0944468D01*
Y0944074D01*
X0746616Y0943681D01*
X0747797D01*
X0664090Y0884026D02*
Y0886388D01*
X0665271D01*
X0665665Y0885994D01*
Y0885207D01*
X0665271Y0884813D01*
X0664090D01*
X0664878D02*
X0665665Y0884026D01*
X0668026Y0886388D02*
X0666452D01*
Y0885207D01*
X0667239Y0885601D01*
X0667633D01*
X0668026Y0885207D01*
Y0884420D01*
X0667633Y0884026D01*
X0666846D01*
X0666452Y0884420D01*
X0669994Y0884026D02*
Y0886388D01*
X0668813Y0885207D01*
X0670388D01*
X0986100Y0468600D02*
Y0470961D01*
X0987281D01*
X0987674Y0470568D01*
Y0469781D01*
X0987281Y0469387D01*
X0986100D01*
X0986887D02*
X0987674Y0468600D01*
X0989642D02*
Y0470961D01*
X0988461Y0469781D01*
X0990036D01*
X0992397Y0470961D02*
X0990823D01*
Y0469781D01*
X0991610Y0470174D01*
X0992004D01*
X0992397Y0469781D01*
Y0468994D01*
X0992004Y0468600D01*
X0991216D01*
X0990823Y0468994D01*
X0753600Y0476800D02*
Y0479161D01*
X0754781D01*
X0755174Y0478768D01*
Y0477981D01*
X0754781Y0477587D01*
X0753600D01*
X0754387D02*
X0755174Y0476800D01*
X0757142D02*
Y0479161D01*
X0755961Y0477981D01*
X0757536D01*
X0759504Y0476800D02*
Y0479161D01*
X0758323Y0477981D01*
X0759897D01*
X1004583Y0506000D02*
Y0508361D01*
X1005763D01*
X1006157Y0507968D01*
Y0507181D01*
X1005763Y0506787D01*
X1004583D01*
X1005370D02*
X1006157Y0506000D01*
X1008125D02*
Y0508361D01*
X1006944Y0507181D01*
X1008518D01*
X1009306Y0507968D02*
X1009699Y0508361D01*
X1010486D01*
X1010880Y0507968D01*
Y0507574D01*
X1010486Y0507181D01*
X1010093D01*
X1010486D01*
X1010880Y0506787D01*
Y0506394D01*
X1010486Y0506000D01*
X1009699D01*
X1009306Y0506394D01*
X1026563Y0505500D02*
Y0507861D01*
X1027744D01*
X1028137Y0507468D01*
Y0506681D01*
X1027744Y0506287D01*
X1026563D01*
X1027350D02*
X1028137Y0505500D01*
X1030105D02*
Y0507861D01*
X1028924Y0506681D01*
X1030499D01*
X1032860Y0505500D02*
X1031286D01*
X1032860Y0507074D01*
Y0507468D01*
X1032467Y0507861D01*
X1031679D01*
X1031286Y0507468D01*
X1152600Y0577600D02*
Y0579961D01*
X1153781D01*
X1154174Y0579568D01*
Y0578781D01*
X1153781Y0578387D01*
X1152600D01*
X1153387D02*
X1154174Y0577600D01*
X1156142D02*
Y0579961D01*
X1154961Y0578781D01*
X1156536D01*
X1157323Y0577600D02*
X1158110D01*
X1157716D01*
Y0579961D01*
X1157323Y0579568D01*
X1152600Y0589100D02*
Y0591461D01*
X1153781D01*
X1154174Y0591068D01*
Y0590281D01*
X1153781Y0589887D01*
X1152600D01*
X1153387D02*
X1154174Y0589100D01*
X1156142D02*
Y0591461D01*
X1154961Y0590281D01*
X1156536D01*
X1157323Y0591068D02*
X1157716Y0591461D01*
X1158504D01*
X1158897Y0591068D01*
Y0589494D01*
X1158504Y0589100D01*
X1157716D01*
X1157323Y0589494D01*
Y0591068D01*
X0760500Y0498500D02*
Y0500861D01*
X0761681D01*
X0762074Y0500468D01*
Y0499681D01*
X0761681Y0499287D01*
X0760500D01*
X0761287D02*
X0762074Y0498500D01*
X0762861Y0500468D02*
X0763255Y0500861D01*
X0764042D01*
X0764436Y0500468D01*
Y0500074D01*
X0764042Y0499681D01*
X0763649D01*
X0764042D01*
X0764436Y0499287D01*
Y0498894D01*
X0764042Y0498500D01*
X0763255D01*
X0762861Y0498894D01*
X0765223D02*
X0765616Y0498500D01*
X0766404D01*
X0766797Y0498894D01*
Y0500468D01*
X0766404Y0500861D01*
X0765616D01*
X0765223Y0500468D01*
Y0500074D01*
X0765616Y0499681D01*
X0766797D01*
X0761000Y0475500D02*
Y0477861D01*
X0762181D01*
X0762574Y0477468D01*
Y0476681D01*
X0762181Y0476287D01*
X0761000D01*
X0761787D02*
X0762574Y0475500D01*
X0763361Y0477468D02*
X0763755Y0477861D01*
X0764542D01*
X0764936Y0477468D01*
Y0477074D01*
X0764542Y0476681D01*
X0764149D01*
X0764542D01*
X0764936Y0476287D01*
Y0475894D01*
X0764542Y0475500D01*
X0763755D01*
X0763361Y0475894D01*
X0765723Y0477468D02*
X0766116Y0477861D01*
X0766904D01*
X0767297Y0477468D01*
Y0477074D01*
X0766904Y0476681D01*
X0767297Y0476287D01*
Y0475894D01*
X0766904Y0475500D01*
X0766116D01*
X0765723Y0475894D01*
Y0476287D01*
X0766116Y0476681D01*
X0765723Y0477074D01*
Y0477468D01*
X0766116Y0476681D02*
X0766904D01*
X0760500Y0486500D02*
Y0488861D01*
X0761681D01*
X0762074Y0488468D01*
Y0487681D01*
X0761681Y0487287D01*
X0760500D01*
X0761287D02*
X0762074Y0486500D01*
X0762861Y0488468D02*
X0763255Y0488861D01*
X0764042D01*
X0764436Y0488468D01*
Y0488074D01*
X0764042Y0487681D01*
X0763649D01*
X0764042D01*
X0764436Y0487287D01*
Y0486894D01*
X0764042Y0486500D01*
X0763255D01*
X0762861Y0486894D01*
X0765223Y0488861D02*
X0766797D01*
Y0488468D01*
X0765223Y0486894D01*
Y0486500D01*
X0760000Y0492000D02*
Y0494361D01*
X0761181D01*
X0761574Y0493968D01*
Y0493181D01*
X0761181Y0492787D01*
X0760000D01*
X0760787D02*
X0761574Y0492000D01*
X0762361Y0493968D02*
X0762755Y0494361D01*
X0763542D01*
X0763936Y0493968D01*
Y0493574D01*
X0763542Y0493181D01*
X0763149D01*
X0763542D01*
X0763936Y0492787D01*
Y0492394D01*
X0763542Y0492000D01*
X0762755D01*
X0762361Y0492394D01*
X0766297Y0494361D02*
X0765510Y0493968D01*
X0764723Y0493181D01*
Y0492394D01*
X0765116Y0492000D01*
X0765904D01*
X0766297Y0492394D01*
Y0492787D01*
X0765904Y0493181D01*
X0764723D01*
X0669000Y0500000D02*
X0666639D01*
Y0501181D01*
X0667032Y0501574D01*
X0667819D01*
X0668213Y0501181D01*
Y0500000D01*
Y0500787D02*
X0669000Y0501574D01*
X0667032Y0502361D02*
X0666639Y0502755D01*
Y0503542D01*
X0667032Y0503936D01*
X0667426D01*
X0667819Y0503542D01*
Y0503149D01*
Y0503542D01*
X0668213Y0503936D01*
X0668606D01*
X0669000Y0503542D01*
Y0502755D01*
X0668606Y0502361D01*
X0666639Y0506297D02*
Y0504723D01*
X0667819D01*
X0667426Y0505510D01*
Y0505904D01*
X0667819Y0506297D01*
X0668606D01*
X0669000Y0505904D01*
Y0505116D01*
X0668606Y0504723D01*
X0664500Y0534500D02*
Y0536861D01*
X0665681D01*
X0666074Y0536468D01*
Y0535681D01*
X0665681Y0535287D01*
X0664500D01*
X0665287D02*
X0666074Y0534500D01*
X0666861Y0536468D02*
X0667255Y0536861D01*
X0668042D01*
X0668436Y0536468D01*
Y0536074D01*
X0668042Y0535681D01*
X0667649D01*
X0668042D01*
X0668436Y0535287D01*
Y0534894D01*
X0668042Y0534500D01*
X0667255D01*
X0666861Y0534894D01*
X0670404Y0534500D02*
Y0536861D01*
X0669223Y0535681D01*
X0670797D01*
X1081800Y0535200D02*
Y0537561D01*
X1082981D01*
X1083374Y0537168D01*
Y0536381D01*
X1082981Y0535987D01*
X1081800D01*
X1082587D02*
X1083374Y0535200D01*
X1084161Y0537168D02*
X1084555Y0537561D01*
X1085342D01*
X1085736Y0537168D01*
Y0536774D01*
X1085342Y0536381D01*
X1084949D01*
X1085342D01*
X1085736Y0535987D01*
Y0535594D01*
X1085342Y0535200D01*
X1084555D01*
X1084161Y0535594D01*
X1086523Y0535200D02*
X1087310D01*
X1086917D01*
Y0537561D01*
X1086523Y0537168D01*
X1073300Y0535200D02*
Y0537561D01*
X1074481D01*
X1074874Y0537168D01*
Y0536381D01*
X1074481Y0535987D01*
X1073300D01*
X1074087D02*
X1074874Y0535200D01*
X1075661Y0537168D02*
X1076055Y0537561D01*
X1076842D01*
X1077236Y0537168D01*
Y0536774D01*
X1076842Y0536381D01*
X1076449D01*
X1076842D01*
X1077236Y0535987D01*
Y0535594D01*
X1076842Y0535200D01*
X1076055D01*
X1075661Y0535594D01*
X1078023Y0537168D02*
X1078417Y0537561D01*
X1079204D01*
X1079597Y0537168D01*
Y0535594D01*
X1079204Y0535200D01*
X1078417D01*
X1078023Y0535594D01*
Y0537168D01*
X1017900Y0547200D02*
Y0549561D01*
X1019081D01*
X1019474Y0549168D01*
Y0548381D01*
X1019081Y0547987D01*
X1017900D01*
X1018687D02*
X1019474Y0547200D01*
X1021836D02*
X1020261D01*
X1021836Y0548774D01*
Y0549168D01*
X1021442Y0549561D01*
X1020655D01*
X1020261Y0549168D01*
X1022623Y0547594D02*
X1023016Y0547200D01*
X1023804D01*
X1024197Y0547594D01*
Y0549168D01*
X1023804Y0549561D01*
X1023016D01*
X1022623Y0549168D01*
Y0548774D01*
X1023016Y0548381D01*
X1024197D01*
X1018500Y0469500D02*
Y0471861D01*
X1019681D01*
X1020074Y0471468D01*
Y0470681D01*
X1019681Y0470287D01*
X1018500D01*
X1019287D02*
X1020074Y0469500D01*
X1022436D02*
X1020861D01*
X1022436Y0471074D01*
Y0471468D01*
X1022042Y0471861D01*
X1021255D01*
X1020861Y0471468D01*
X1023223D02*
X1023617Y0471861D01*
X1024404D01*
X1024797Y0471468D01*
Y0471074D01*
X1024404Y0470681D01*
X1024797Y0470287D01*
Y0469894D01*
X1024404Y0469500D01*
X1023617D01*
X1023223Y0469894D01*
Y0470287D01*
X1023617Y0470681D01*
X1023223Y0471074D01*
Y0471468D01*
X1023617Y0470681D02*
X1024404D01*
X1065100Y0535100D02*
Y0537461D01*
X1066281D01*
X1066674Y0537068D01*
Y0536281D01*
X1066281Y0535887D01*
X1065100D01*
X1065887D02*
X1066674Y0535100D01*
X1069036D02*
X1067461D01*
X1069036Y0536674D01*
Y0537068D01*
X1068642Y0537461D01*
X1067855D01*
X1067461Y0537068D01*
X1069823Y0537461D02*
X1071397D01*
Y0537068D01*
X1069823Y0535494D01*
Y0535100D01*
X1018500Y0476000D02*
Y0478361D01*
X1019681D01*
X1020074Y0477968D01*
Y0477181D01*
X1019681Y0476787D01*
X1018500D01*
X1019287D02*
X1020074Y0476000D01*
X1022436D02*
X1020861D01*
X1022436Y0477574D01*
Y0477968D01*
X1022042Y0478361D01*
X1021255D01*
X1020861Y0477968D01*
X1024797Y0478361D02*
X1024010Y0477968D01*
X1023223Y0477181D01*
Y0476394D01*
X1023617Y0476000D01*
X1024404D01*
X1024797Y0476394D01*
Y0476787D01*
X1024404Y0477181D01*
X1023223D01*
X1057100Y0535100D02*
Y0537461D01*
X1058281D01*
X1058674Y0537068D01*
Y0536281D01*
X1058281Y0535887D01*
X1057100D01*
X1057887D02*
X1058674Y0535100D01*
X1061036D02*
X1059461D01*
X1061036Y0536674D01*
Y0537068D01*
X1060642Y0537461D01*
X1059855D01*
X1059461Y0537068D01*
X1063397Y0537461D02*
X1061823D01*
Y0536281D01*
X1062610Y0536674D01*
X1063004D01*
X1063397Y0536281D01*
Y0535494D01*
X1063004Y0535100D01*
X1062216D01*
X1061823Y0535494D01*
X0728100Y0413600D02*
Y0415961D01*
X0729281D01*
X0729674Y0415568D01*
Y0414781D01*
X0729281Y0414387D01*
X0728100D01*
X0728887D02*
X0729674Y0413600D01*
X0732036D02*
X0730461D01*
X0732036Y0415174D01*
Y0415568D01*
X0731642Y0415961D01*
X0730855D01*
X0730461Y0415568D01*
X0734004Y0413600D02*
Y0415961D01*
X0732823Y0414781D01*
X0734397D01*
X0736600Y0413600D02*
Y0415961D01*
X0737781D01*
X0738174Y0415568D01*
Y0414781D01*
X0737781Y0414387D01*
X0736600D01*
X0737387D02*
X0738174Y0413600D01*
X0740536D02*
X0738961D01*
X0740536Y0415174D01*
Y0415568D01*
X0740142Y0415961D01*
X0739355D01*
X0738961Y0415568D01*
X0741323D02*
X0741716Y0415961D01*
X0742504D01*
X0742897Y0415568D01*
Y0415174D01*
X0742504Y0414781D01*
X0742110D01*
X0742504D01*
X0742897Y0414387D01*
Y0413994D01*
X0742504Y0413600D01*
X0741716D01*
X0741323Y0413994D01*
X0737000Y0501000D02*
Y0503361D01*
X0738181D01*
X0738574Y0502968D01*
Y0502181D01*
X0738181Y0501787D01*
X0737000D01*
X0737787D02*
X0738574Y0501000D01*
X0740936D02*
X0739361D01*
X0740936Y0502574D01*
Y0502968D01*
X0740542Y0503361D01*
X0739755D01*
X0739361Y0502968D01*
X0741723Y0501000D02*
X0742510D01*
X0742116D01*
Y0503361D01*
X0741723Y0502968D01*
X0736600Y0435100D02*
Y0437461D01*
X0737781D01*
X0738174Y0437068D01*
Y0436281D01*
X0737781Y0435887D01*
X0736600D01*
X0737387D02*
X0738174Y0435100D01*
X0740536D02*
X0738961D01*
X0740536Y0436674D01*
Y0437068D01*
X0740142Y0437461D01*
X0739355D01*
X0738961Y0437068D01*
X0741323D02*
X0741716Y0437461D01*
X0742504D01*
X0742897Y0437068D01*
Y0435494D01*
X0742504Y0435100D01*
X0741716D01*
X0741323Y0435494D01*
Y0437068D01*
X0737000Y0508500D02*
Y0510861D01*
X0738181D01*
X0738574Y0510468D01*
Y0509681D01*
X0738181Y0509287D01*
X0737000D01*
X0737787D02*
X0738574Y0508500D01*
X0739361D02*
X0740149D01*
X0739755D01*
Y0510861D01*
X0739361Y0510468D01*
X0741329Y0508894D02*
X0741723Y0508500D01*
X0742510D01*
X0742904Y0508894D01*
Y0510468D01*
X0742510Y0510861D01*
X0741723D01*
X0741329Y0510468D01*
Y0510074D01*
X0741723Y0509681D01*
X0742904D01*
X0728600Y0435100D02*
Y0437461D01*
X0729781D01*
X0730174Y0437068D01*
Y0436281D01*
X0729781Y0435887D01*
X0728600D01*
X0729387D02*
X0730174Y0435100D01*
X0730961D02*
X0731749D01*
X0731355D01*
Y0437461D01*
X0730961Y0437068D01*
X0732929D02*
X0733323Y0437461D01*
X0734110D01*
X0734504Y0437068D01*
Y0436674D01*
X0734110Y0436281D01*
X0734504Y0435887D01*
Y0435494D01*
X0734110Y0435100D01*
X0733323D01*
X0732929Y0435494D01*
Y0435887D01*
X0733323Y0436281D01*
X0732929Y0436674D01*
Y0437068D01*
X0733323Y0436281D02*
X0734110D01*
X0792000Y0954361D02*
Y0952000D01*
X0793181D01*
X0793574Y0952394D01*
Y0953968D01*
X0793181Y0954361D01*
X0792000D01*
X0794361Y0952000D02*
X0795149D01*
X0794755D01*
Y0954361D01*
X0794361Y0953968D01*
X0796329D02*
X0796723Y0954361D01*
X0797510D01*
X0797904Y0953968D01*
Y0953574D01*
X0797510Y0953181D01*
X0797116D01*
X0797510D01*
X0797904Y0952787D01*
Y0952394D01*
X0797510Y0952000D01*
X0796723D01*
X0796329Y0952394D01*
X0978639Y0443000D02*
X0981000D01*
Y0444181D01*
X0980606Y0444574D01*
X0979032D01*
X0978639Y0444181D01*
Y0443000D01*
X0981000Y0445361D02*
Y0446149D01*
Y0445755D01*
X0978639D01*
X0979032Y0445361D01*
X0981000Y0448904D02*
Y0447329D01*
X0979426Y0448904D01*
X0979032D01*
X0978639Y0448510D01*
Y0447723D01*
X0979032Y0447329D01*
X1003900Y0431861D02*
Y0429500D01*
X1005081D01*
X1005474Y0429894D01*
Y0431468D01*
X1005081Y0431861D01*
X1003900D01*
X1006261Y0429500D02*
X1007049D01*
X1006655D01*
Y0431861D01*
X1006261Y0431468D01*
X1008229Y0429500D02*
X1009017D01*
X1008623D01*
Y0431861D01*
X1008229Y0431468D01*
X0746139Y0448500D02*
X0748500D01*
Y0449681D01*
X0748106Y0450074D01*
X0746532D01*
X0746139Y0449681D01*
Y0448500D01*
X0748500Y0450861D02*
Y0451649D01*
Y0451255D01*
X0746139D01*
X0746532Y0450861D01*
Y0452829D02*
X0746139Y0453223D01*
Y0454010D01*
X0746532Y0454404D01*
X0748106D01*
X0748500Y0454010D01*
Y0453223D01*
X0748106Y0452829D01*
X0746532D01*
X0766500Y0432061D02*
Y0429700D01*
X0767681D01*
X0768074Y0430094D01*
Y0431668D01*
X0767681Y0432061D01*
X0766500D01*
X0768861Y0430094D02*
X0769255Y0429700D01*
X0770042D01*
X0770436Y0430094D01*
Y0431668D01*
X0770042Y0432061D01*
X0769255D01*
X0768861Y0431668D01*
Y0431274D01*
X0769255Y0430881D01*
X0770436D01*
X1138500Y0564361D02*
Y0562000D01*
X1139681D01*
X1140074Y0562394D01*
Y0563968D01*
X1139681Y0564361D01*
X1138500D01*
X1140861Y0563968D02*
X1141255Y0564361D01*
X1142042D01*
X1142436Y0563968D01*
Y0563574D01*
X1142042Y0563181D01*
X1142436Y0562787D01*
Y0562394D01*
X1142042Y0562000D01*
X1141255D01*
X1140861Y0562394D01*
Y0562787D01*
X1141255Y0563181D01*
X1140861Y0563574D01*
Y0563968D01*
X1141255Y0563181D02*
X1142042D01*
X1138500Y0592861D02*
Y0590500D01*
X1139681D01*
X1140074Y0590894D01*
Y0592468D01*
X1139681Y0592861D01*
X1138500D01*
X1140861D02*
X1142436D01*
Y0592468D01*
X1140861Y0590894D01*
Y0590500D01*
X0684500Y0508861D02*
Y0506500D01*
X0685681D01*
X0686074Y0506894D01*
Y0508468D01*
X0685681Y0508861D01*
X0684500D01*
X0688436D02*
X0687649Y0508468D01*
X0686861Y0507681D01*
Y0506894D01*
X0687255Y0506500D01*
X0688042D01*
X0688436Y0506894D01*
Y0507287D01*
X0688042Y0507681D01*
X0686861D01*
X0696000Y0527361D02*
Y0525000D01*
X0697181D01*
X0697574Y0525394D01*
Y0526968D01*
X0697181Y0527361D01*
X0696000D01*
X0699936D02*
X0698361D01*
Y0526181D01*
X0699149Y0526574D01*
X0699542D01*
X0699936Y0526181D01*
Y0525394D01*
X0699542Y0525000D01*
X0698755D01*
X0698361Y0525394D01*
X0763074Y0956968D02*
X0762681Y0957361D01*
X0761894D01*
X0761500Y0956968D01*
Y0955394D01*
X0761894Y0955000D01*
X0762681D01*
X0763074Y0955394D01*
X0765436Y0957361D02*
X0763861D01*
Y0956181D01*
X0764649Y0956574D01*
X0765042D01*
X0765436Y0956181D01*
Y0955394D01*
X0765042Y0955000D01*
X0764255D01*
X0763861Y0955394D01*
X0766223Y0955000D02*
X0767010D01*
X0766616D01*
Y0957361D01*
X0766223Y0956968D01*
X1128674Y0620068D02*
X1128281Y0620461D01*
X1127494D01*
X1127100Y0620068D01*
Y0618494D01*
X1127494Y0618100D01*
X1128281D01*
X1128674Y0618494D01*
X1130642Y0618100D02*
Y0620461D01*
X1129461Y0619281D01*
X1131036D01*
X1131823Y0618494D02*
X1132216Y0618100D01*
X1133004D01*
X1133397Y0618494D01*
Y0620068D01*
X1133004Y0620461D01*
X1132216D01*
X1131823Y0620068D01*
Y0619674D01*
X1132216Y0619281D01*
X1133397D01*
X0646174Y0611568D02*
X0645781Y0611961D01*
X0644994D01*
X0644600Y0611568D01*
Y0609994D01*
X0644994Y0609600D01*
X0645781D01*
X0646174Y0609994D01*
X0648142Y0609600D02*
Y0611961D01*
X0646961Y0610781D01*
X0648536D01*
X0649323Y0611568D02*
X0649716Y0611961D01*
X0650504D01*
X0650897Y0611568D01*
Y0611174D01*
X0650504Y0610781D01*
X0650897Y0610387D01*
Y0609994D01*
X0650504Y0609600D01*
X0649716D01*
X0649323Y0609994D01*
Y0610387D01*
X0649716Y0610781D01*
X0649323Y0611174D01*
Y0611568D01*
X0649716Y0610781D02*
X0650504D01*
X1028137Y0515968D02*
X1027744Y0516361D01*
X1026957D01*
X1026563Y0515968D01*
Y0514394D01*
X1026957Y0514000D01*
X1027744D01*
X1028137Y0514394D01*
X1030105Y0514000D02*
Y0516361D01*
X1028924Y0515181D01*
X1030499D01*
X1031286Y0516361D02*
X1032860D01*
Y0515968D01*
X1031286Y0514394D01*
Y0514000D01*
X0996574Y0522468D02*
X0996181Y0522861D01*
X0995394D01*
X0995000Y0522468D01*
Y0520894D01*
X0995394Y0520500D01*
X0996181D01*
X0996574Y0520894D01*
X0998542Y0520500D02*
Y0522861D01*
X0997361Y0521681D01*
X0998936D01*
X1001297Y0522861D02*
X1000510Y0522468D01*
X0999723Y0521681D01*
Y0520894D01*
X1000117Y0520500D01*
X1000904D01*
X1001297Y0520894D01*
Y0521287D01*
X1000904Y0521681D01*
X0999723D01*
X1005574Y0499755D02*
X1005181Y0500149D01*
X1004394D01*
X1004000Y0499755D01*
Y0498181D01*
X1004394Y0497787D01*
X1005181D01*
X1005574Y0498181D01*
X1007542Y0497787D02*
Y0500149D01*
X1006361Y0498968D01*
X1007936D01*
X1008723Y0497787D02*
X1009510D01*
X1009116D01*
Y0500149D01*
X1008723Y0499755D01*
X1028574Y0499968D02*
X1028181Y0500361D01*
X1027394D01*
X1027000Y0499968D01*
Y0498394D01*
X1027394Y0498000D01*
X1028181D01*
X1028574Y0498394D01*
X1030542Y0498000D02*
Y0500361D01*
X1029361Y0499181D01*
X1030936D01*
X1031723Y0499968D02*
X1032117Y0500361D01*
X1032904D01*
X1033297Y0499968D01*
Y0498394D01*
X1032904Y0498000D01*
X1032117D01*
X1031723Y0498394D01*
Y0499968D01*
X1000032Y0440574D02*
X0999639Y0440181D01*
Y0439394D01*
X1000032Y0439000D01*
X1001606D01*
X1002000Y0439394D01*
Y0440181D01*
X1001606Y0440574D01*
X1000032Y0441361D02*
X0999639Y0441755D01*
Y0442542D01*
X1000032Y0442936D01*
X1000426D01*
X1000819Y0442542D01*
Y0442149D01*
Y0442542D01*
X1001213Y0442936D01*
X1001606D01*
X1002000Y0442542D01*
Y0441755D01*
X1001606Y0441361D01*
X1002000Y0443723D02*
Y0444510D01*
Y0444116D01*
X0999639D01*
X1000032Y0443723D01*
X1026468Y0450926D02*
X1026861Y0451319D01*
Y0452106D01*
X1026468Y0452500D01*
X1024894D01*
X1024500Y0452106D01*
Y0451319D01*
X1024894Y0450926D01*
X1024500Y0448564D02*
Y0450139D01*
X1026074Y0448564D01*
X1026468D01*
X1026861Y0448958D01*
Y0449745D01*
X1026468Y0450139D01*
X1024894Y0447777D02*
X1024500Y0447384D01*
Y0446596D01*
X1024894Y0446203D01*
X1026468D01*
X1026861Y0446596D01*
Y0447384D01*
X1026468Y0447777D01*
X1026074D01*
X1025681Y0447384D01*
Y0446203D01*
X1019574Y0464468D02*
X1019181Y0464861D01*
X1018394D01*
X1018000Y0464468D01*
Y0462894D01*
X1018394Y0462500D01*
X1019181D01*
X1019574Y0462894D01*
X1021936Y0462500D02*
X1020361D01*
X1021936Y0464074D01*
Y0464468D01*
X1021542Y0464861D01*
X1020755D01*
X1020361Y0464468D01*
X1022723D02*
X1023116Y0464861D01*
X1023904D01*
X1024297Y0464468D01*
Y0464074D01*
X1023904Y0463681D01*
X1024297Y0463287D01*
Y0462894D01*
X1023904Y0462500D01*
X1023116D01*
X1022723Y0462894D01*
Y0463287D01*
X1023116Y0463681D01*
X1022723Y0464074D01*
Y0464468D01*
X1023116Y0463681D02*
X1023904D01*
X0782974Y0463368D02*
X0782581Y0463761D01*
X0781794D01*
X0781400Y0463368D01*
Y0461794D01*
X0781794Y0461400D01*
X0782581D01*
X0782974Y0461794D01*
X0785336Y0461400D02*
X0783761D01*
X0785336Y0462974D01*
Y0463368D01*
X0784942Y0463761D01*
X0784155D01*
X0783761Y0463368D01*
X0787697Y0463761D02*
X0786123D01*
Y0462581D01*
X0786910Y0462974D01*
X0787304D01*
X0787697Y0462581D01*
Y0461794D01*
X0787304Y0461400D01*
X0786516D01*
X0786123Y0461794D01*
X0769032Y0464074D02*
X0768639Y0463681D01*
Y0462894D01*
X0769032Y0462500D01*
X0770606D01*
X0771000Y0462894D01*
Y0463681D01*
X0770606Y0464074D01*
X0771000Y0466436D02*
Y0464861D01*
X0769426Y0466436D01*
X0769032D01*
X0768639Y0466042D01*
Y0465255D01*
X0769032Y0464861D01*
X0771000Y0468404D02*
X0768639D01*
X0769819Y0467223D01*
Y0468797D01*
X1012974Y0549168D02*
X1012581Y0549561D01*
X1011794D01*
X1011400Y0549168D01*
Y0547594D01*
X1011794Y0547200D01*
X1012581D01*
X1012974Y0547594D01*
X1015336Y0547200D02*
X1013761D01*
X1015336Y0548774D01*
Y0549168D01*
X1014942Y0549561D01*
X1014155D01*
X1013761Y0549168D01*
X1017697Y0547200D02*
X1016123D01*
X1017697Y0548774D01*
Y0549168D01*
X1017304Y0549561D01*
X1016516D01*
X1016123Y0549168D01*
X1030674Y0559068D02*
X1030281Y0559461D01*
X1029494D01*
X1029100Y0559068D01*
Y0557494D01*
X1029494Y0557100D01*
X1030281D01*
X1030674Y0557494D01*
X1033036Y0557100D02*
X1031461D01*
X1033036Y0558674D01*
Y0559068D01*
X1032642Y0559461D01*
X1031855D01*
X1031461Y0559068D01*
X1033823Y0557100D02*
X1034610D01*
X1034216D01*
Y0559461D01*
X1033823Y0559068D01*
X1069674Y0575568D02*
X1069281Y0575961D01*
X1068494D01*
X1068100Y0575568D01*
Y0573994D01*
X1068494Y0573600D01*
X1069281D01*
X1069674Y0573994D01*
X1070461Y0573600D02*
X1071249D01*
X1070855D01*
Y0575961D01*
X1070461Y0575568D01*
X1072429Y0573994D02*
X1072823Y0573600D01*
X1073610D01*
X1074004Y0573994D01*
Y0575568D01*
X1073610Y0575961D01*
X1072823D01*
X1072429Y0575568D01*
Y0575174D01*
X1072823Y0574781D01*
X1074004D01*
X1063374Y0575568D02*
X1062981Y0575961D01*
X1062194D01*
X1061800Y0575568D01*
Y0573994D01*
X1062194Y0573600D01*
X1062981D01*
X1063374Y0573994D01*
X1064161Y0573600D02*
X1064949D01*
X1064555D01*
Y0575961D01*
X1064161Y0575568D01*
X1066129D02*
X1066523Y0575961D01*
X1067310D01*
X1067704Y0575568D01*
Y0575174D01*
X1067310Y0574781D01*
X1067704Y0574387D01*
Y0573994D01*
X1067310Y0573600D01*
X1066523D01*
X1066129Y0573994D01*
Y0574387D01*
X1066523Y0574781D01*
X1066129Y0575174D01*
Y0575568D01*
X1066523Y0574781D02*
X1067310D01*
X1057074Y0575568D02*
X1056681Y0575961D01*
X1055894D01*
X1055500Y0575568D01*
Y0573994D01*
X1055894Y0573600D01*
X1056681D01*
X1057074Y0573994D01*
X1057861Y0573600D02*
X1058649D01*
X1058255D01*
Y0575961D01*
X1057861Y0575568D01*
X1059829Y0575961D02*
X1061404D01*
Y0575568D01*
X1059829Y0573994D01*
Y0573600D01*
X1050674Y0575568D02*
X1050281Y0575961D01*
X1049494D01*
X1049100Y0575568D01*
Y0573994D01*
X1049494Y0573600D01*
X1050281D01*
X1050674Y0573994D01*
X1051461Y0573600D02*
X1052249D01*
X1051855D01*
Y0575961D01*
X1051461Y0575568D01*
X1055004Y0575961D02*
X1054216Y0575568D01*
X1053429Y0574781D01*
Y0573994D01*
X1053823Y0573600D01*
X1054610D01*
X1055004Y0573994D01*
Y0574387D01*
X1054610Y0574781D01*
X1053429D01*
X0730674Y0527068D02*
X0730281Y0527461D01*
X0729494D01*
X0729100Y0527068D01*
Y0525494D01*
X0729494Y0525100D01*
X0730281D01*
X0730674Y0525494D01*
X0731461Y0525100D02*
X0732249D01*
X0731855D01*
Y0527461D01*
X0731461Y0527068D01*
X0733429Y0525100D02*
X0734216D01*
X0733823D01*
Y0527461D01*
X0733429Y0527068D01*
X0723374D02*
X0722981Y0527461D01*
X0722194D01*
X0721800Y0527068D01*
Y0525494D01*
X0722194Y0525100D01*
X0722981D01*
X0723374Y0525494D01*
X0724161Y0525100D02*
X0724949D01*
X0724555D01*
Y0527461D01*
X0724161Y0527068D01*
X0726129D02*
X0726523Y0527461D01*
X0727310D01*
X0727704Y0527068D01*
Y0525494D01*
X0727310Y0525100D01*
X0726523D01*
X0726129Y0525494D01*
Y0527068D01*
X0716074D02*
X0715681Y0527461D01*
X0714894D01*
X0714500Y0527068D01*
Y0525494D01*
X0714894Y0525100D01*
X0715681D01*
X0716074Y0525494D01*
X0716861D02*
X0717255Y0525100D01*
X0718042D01*
X0718436Y0525494D01*
Y0527068D01*
X0718042Y0527461D01*
X0717255D01*
X0716861Y0527068D01*
Y0526674D01*
X0717255Y0526281D01*
X0718436D01*
X0708674Y0527068D02*
X0708281Y0527461D01*
X0707494D01*
X0707100Y0527068D01*
Y0525494D01*
X0707494Y0525100D01*
X0708281D01*
X0708674Y0525494D01*
X0709461Y0527068D02*
X0709855Y0527461D01*
X0710642D01*
X0711036Y0527068D01*
Y0526674D01*
X0710642Y0526281D01*
X0711036Y0525887D01*
Y0525494D01*
X0710642Y0525100D01*
X0709855D01*
X0709461Y0525494D01*
Y0525887D01*
X0709855Y0526281D01*
X0709461Y0526674D01*
Y0527068D01*
X0709855Y0526281D02*
X0710642D01*
X0826500Y0998361D02*
Y0996000D01*
X0827681D01*
X0828074Y0996394D01*
Y0997968D01*
X0827681Y0998361D01*
X0826500D01*
X0828861Y0997968D02*
X0829255Y0998361D01*
X0830042D01*
X0830436Y0997968D01*
Y0997574D01*
X0830042Y0997181D01*
X0829649D01*
X0830042D01*
X0830436Y0996787D01*
Y0996394D01*
X0830042Y0996000D01*
X0829255D01*
X0828861Y0996394D01*
X0832404Y0996000D02*
Y0998361D01*
X0831223Y0997181D01*
X0832797D01*
X0849500Y1002361D02*
Y1000000D01*
X0850681D01*
X0851074Y1000394D01*
Y1001968D01*
X0850681Y1002361D01*
X0849500D01*
X0851861Y1001968D02*
X0852255Y1002361D01*
X0853042D01*
X0853436Y1001968D01*
Y1001574D01*
X0853042Y1001181D01*
X0852649D01*
X0853042D01*
X0853436Y1000787D01*
Y1000394D01*
X0853042Y1000000D01*
X0852255D01*
X0851861Y1000394D01*
X0855797Y1002361D02*
X0854223D01*
Y1001181D01*
X0855010Y1001574D01*
X0855404D01*
X0855797Y1001181D01*
Y1000394D01*
X0855404Y1000000D01*
X0854617D01*
X0854223Y1000394D01*
X0872000Y1003861D02*
Y1001500D01*
X0873181D01*
X0873574Y1001894D01*
Y1003468D01*
X0873181Y1003861D01*
X0872000D01*
X0874361Y1003468D02*
X0874755Y1003861D01*
X0875542D01*
X0875936Y1003468D01*
Y1003074D01*
X0875542Y1002681D01*
X0875149D01*
X0875542D01*
X0875936Y1002287D01*
Y1001894D01*
X0875542Y1001500D01*
X0874755D01*
X0874361Y1001894D01*
X0878297Y1003861D02*
X0877510Y1003468D01*
X0876723Y1002681D01*
Y1001894D01*
X0877116Y1001500D01*
X0877904D01*
X0878297Y1001894D01*
Y1002287D01*
X0877904Y1002681D01*
X0876723D01*
X0896500Y1003861D02*
Y1001500D01*
X0897681D01*
X0898074Y1001894D01*
Y1003468D01*
X0897681Y1003861D01*
X0896500D01*
X0898861Y1003468D02*
X0899255Y1003861D01*
X0900042D01*
X0900436Y1003468D01*
Y1003074D01*
X0900042Y1002681D01*
X0899649D01*
X0900042D01*
X0900436Y1002287D01*
Y1001894D01*
X0900042Y1001500D01*
X0899255D01*
X0898861Y1001894D01*
X0901223Y1003861D02*
X0902797D01*
Y1003468D01*
X0901223Y1001894D01*
Y1001500D01*
X0920000Y1002361D02*
Y1000000D01*
X0921181D01*
X0921574Y1000394D01*
Y1001968D01*
X0921181Y1002361D01*
X0920000D01*
X0922361Y1001968D02*
X0922755Y1002361D01*
X0923542D01*
X0923936Y1001968D01*
Y1001574D01*
X0923542Y1001181D01*
X0923149D01*
X0923542D01*
X0923936Y1000787D01*
Y1000394D01*
X0923542Y1000000D01*
X0922755D01*
X0922361Y1000394D01*
X0924723Y1001968D02*
X0925117Y1002361D01*
X0925904D01*
X0926297Y1001968D01*
Y1001574D01*
X0925904Y1001181D01*
X0926297Y1000787D01*
Y1000394D01*
X0925904Y1000000D01*
X0925117D01*
X0924723Y1000394D01*
Y1000787D01*
X0925117Y1001181D01*
X0924723Y1001574D01*
Y1001968D01*
X0925117Y1001181D02*
X0925904D01*
X0941500Y0998861D02*
Y0996500D01*
X0942681D01*
X0943074Y0996894D01*
Y0998468D01*
X0942681Y0998861D01*
X0941500D01*
X0943861Y0998468D02*
X0944255Y0998861D01*
X0945042D01*
X0945436Y0998468D01*
Y0998074D01*
X0945042Y0997681D01*
X0944649D01*
X0945042D01*
X0945436Y0997287D01*
Y0996894D01*
X0945042Y0996500D01*
X0944255D01*
X0943861Y0996894D01*
X0946223D02*
X0946616Y0996500D01*
X0947404D01*
X0947797Y0996894D01*
Y0998468D01*
X0947404Y0998861D01*
X0946616D01*
X0946223Y0998468D01*
Y0998074D01*
X0946616Y0997681D01*
X0947797D01*
X0964500Y0992361D02*
Y0990000D01*
X0965681D01*
X0966074Y0990394D01*
Y0991968D01*
X0965681Y0992361D01*
X0964500D01*
X0968042Y0990000D02*
Y0992361D01*
X0966861Y0991181D01*
X0968436D01*
X0969223Y0991968D02*
X0969617Y0992361D01*
X0970404D01*
X0970797Y0991968D01*
Y0990394D01*
X0970404Y0990000D01*
X0969617D01*
X0969223Y0990394D01*
Y0991968D01*
X0715100Y0497100D02*
Y0499461D01*
X0716281D01*
X0716674Y0499068D01*
Y0498281D01*
X0716281Y0497887D01*
X0715100D01*
X0715887D02*
X0716674Y0497100D01*
X0717461D02*
X0718249D01*
X0717855D01*
Y0499461D01*
X0717461Y0499068D01*
X0719429Y0497100D02*
X0720216D01*
X0719823D01*
Y0499461D01*
X0719429Y0499068D01*
X0721397Y0499461D02*
X0722971D01*
Y0499068D01*
X0721397Y0497494D01*
Y0497100D01*
X0829500Y0844500D02*
Y0846861D01*
X0830681D01*
X0831074Y0846468D01*
Y0845681D01*
X0830681Y0845287D01*
X0829500D01*
X0830287D02*
X0831074Y0844500D01*
X0831861D02*
X0832649D01*
X0832255D01*
Y0846861D01*
X0831861Y0846468D01*
X0833829Y0844500D02*
X0834616D01*
X0834223D01*
Y0846861D01*
X0833829Y0846468D01*
X0835797D02*
X0836191Y0846861D01*
X0836978D01*
X0837372Y0846468D01*
Y0846074D01*
X0836978Y0845681D01*
X0837372Y0845287D01*
Y0844894D01*
X0836978Y0844500D01*
X0836191D01*
X0835797Y0844894D01*
Y0845287D01*
X0836191Y0845681D01*
X0835797Y0846074D01*
Y0846468D01*
X0836191Y0845681D02*
X0836978D01*
X1048600Y0532100D02*
Y0534461D01*
X1049781D01*
X1050174Y0534068D01*
Y0533281D01*
X1049781Y0532887D01*
X1048600D01*
X1049387D02*
X1050174Y0532100D01*
X1050961D02*
X1051749D01*
X1051355D01*
Y0534461D01*
X1050961Y0534068D01*
X1052929Y0532100D02*
X1053716D01*
X1053323D01*
Y0534461D01*
X1052929Y0534068D01*
X1054897Y0532494D02*
X1055291Y0532100D01*
X1056078D01*
X1056472Y0532494D01*
Y0534068D01*
X1056078Y0534461D01*
X1055291D01*
X1054897Y0534068D01*
Y0533674D01*
X1055291Y0533281D01*
X1056472D01*
X0930500Y0872500D02*
Y0874861D01*
X0931681D01*
X0932074Y0874468D01*
Y0873681D01*
X0931681Y0873287D01*
X0930500D01*
X0931287D02*
X0932074Y0872500D01*
X0932861D02*
X0933649D01*
X0933255D01*
Y0874861D01*
X0932861Y0874468D01*
X0936404Y0872500D02*
X0934829D01*
X0936404Y0874074D01*
Y0874468D01*
X0936010Y0874861D01*
X0935223D01*
X0934829Y0874468D01*
X0937191D02*
X0937584Y0874861D01*
X0938371D01*
X0938765Y0874468D01*
Y0872894D01*
X0938371Y0872500D01*
X0937584D01*
X0937191Y0872894D01*
Y0874468D01*
X1122574Y0581468D02*
X1122181Y0581861D01*
X1121394D01*
X1121000Y0581468D01*
Y0579894D01*
X1121394Y0579500D01*
X1122181D01*
X1122574Y0579894D01*
X1124936Y0579500D02*
X1123361D01*
X1124936Y0581074D01*
Y0581468D01*
X1124542Y0581861D01*
X1123755D01*
X1123361Y0581468D01*
X1125723D02*
X1126116Y0581861D01*
X1126904D01*
X1127297Y0581468D01*
Y0581074D01*
X1126904Y0580681D01*
X1126510D01*
X1126904D01*
X1127297Y0580287D01*
Y0579894D01*
X1126904Y0579500D01*
X1126116D01*
X1125723Y0579894D01*
X1130468Y0560426D02*
X1130861Y0560819D01*
Y0561606D01*
X1130468Y0562000D01*
X1128894D01*
X1128500Y0561606D01*
Y0560819D01*
X1128894Y0560426D01*
X1128500Y0558064D02*
Y0559639D01*
X1130074Y0558064D01*
X1130468D01*
X1130861Y0558458D01*
Y0559245D01*
X1130468Y0559639D01*
Y0557277D02*
X1130861Y0556884D01*
Y0556096D01*
X1130468Y0555703D01*
X1128894D01*
X1128500Y0556096D01*
Y0556884D01*
X1128894Y0557277D01*
X1130468D01*
X0869000Y0844500D02*
Y0846861D01*
X0870181D01*
X0870574Y0846468D01*
Y0845681D01*
X0870181Y0845287D01*
X0869000D01*
X0869787D02*
X0870574Y0844500D01*
X0872542D02*
Y0846861D01*
X0871361Y0845681D01*
X0872936D01*
D30*
X1095661Y0638130D02*
Y0846791D01*
Y0638130D02*
X1210338D01*
X1212014Y0637949D01*
X1213613Y0637416D01*
X1215063Y0636555D01*
X1216295Y0635405D01*
X1217255Y0634020D01*
X1217897Y0632461D01*
X1218193Y0630802D01*
X1218130Y0629117D02*
X1218193Y0630802D01*
X1216216Y0617461D02*
X1218130Y0629117D01*
X1213892Y0605880D02*
X1216216Y0617461D01*
X1211161Y0594388D02*
X1213892Y0605880D01*
X1208026Y0583000D02*
X1211161Y0594388D01*
X1204491Y0571729D02*
X1208026Y0583000D01*
X1200560Y0560590D02*
X1204491Y0571729D01*
X1196239Y0549597D02*
X1200560Y0560590D01*
X1191532Y0538763D02*
X1196239Y0549597D01*
X1186446Y0528102D02*
X1191532Y0538763D01*
X1180987Y0517627D02*
X1186446Y0528102D01*
X1175162Y0507352D02*
X1180987Y0517627D01*
X1168978Y0497288D02*
X1175162Y0507352D01*
X1162442Y0487449D02*
X1168978Y0497288D01*
X1155563Y0477846D02*
X1162442Y0487449D01*
X1148350Y0468493D02*
X1155563Y0477846D01*
X1140811Y0459399D02*
X1148350Y0468493D01*
X1132955Y0450578D02*
X1140811Y0459399D01*
X1124794Y0442039D02*
X1132955Y0450578D01*
X1116336Y0433794D02*
X1124794Y0442039D01*
X1107592Y0425852D02*
X1116336Y0433794D01*
X1098574Y0418223D02*
X1107592Y0425852D01*
X1089292Y0410918D02*
X1098574Y0418223D01*
X1079757Y0403945D02*
X1089292Y0410918D01*
X1069983Y0397313D02*
X1079757Y0403945D01*
X1059981Y0391030D02*
X1069983Y0397313D01*
X1049763Y0385103D02*
X1059981Y0391030D01*
X1039343Y0379541D02*
X1049763Y0385103D01*
X1028732Y0374350D02*
X1039343Y0379541D01*
X0973614Y0374350D02*
X1028732D01*
X0973614D02*
Y0421594D01*
X0800386D02*
X0973614D01*
X0800386Y0374350D02*
Y0421594D01*
X0745268Y0374350D02*
X0800386D01*
X0734657Y0379541D02*
X0745268Y0374350D01*
X0724237Y0385103D02*
X0734657Y0379541D01*
X0714019Y0391030D02*
X0724237Y0385103D01*
X0704017Y0397313D02*
X0714019Y0391030D01*
X0694242Y0403945D02*
X0704017Y0397313D01*
X0684708Y0410918D02*
X0694242Y0403945D01*
X0675426Y0418223D02*
X0684708Y0410918D01*
X0666408Y0425852D02*
X0675426Y0418223D01*
X0657664Y0433794D02*
X0666408Y0425852D01*
X0649206Y0442039D02*
X0657664Y0433794D01*
X0641045Y0450578D02*
X0649206Y0442039D01*
X0633189Y0459399D02*
X0641045Y0450578D01*
X0625650Y0468493D02*
X0633189Y0459399D01*
X0618437Y0477846D02*
X0625650Y0468493D01*
X0611558Y0487449D02*
X0618437Y0477846D01*
X0605022Y0497288D02*
X0611558Y0487449D01*
X0598838Y0507352D02*
X0605022Y0497288D01*
X0593013Y0517627D02*
X0598838Y0507352D01*
X0587554Y0528102D02*
X0593013Y0517627D01*
X0582468Y0538763D02*
X0587554Y0528102D01*
X0577761Y0549597D02*
X0582468Y0538763D01*
X0573440Y0560590D02*
X0577761Y0549597D01*
X0569509Y0571729D02*
X0573440Y0560590D01*
X0565974Y0583000D02*
X0569509Y0571729D01*
X0562839Y0594388D02*
X0565974Y0583000D01*
X0560108Y0605880D02*
X0562839Y0594388D01*
X0557784Y0617461D02*
X0560108Y0605880D01*
X0555870Y0629117D02*
X0557784Y0617461D01*
X0555807Y0630802D02*
X0555870Y0629117D01*
X0555807Y0630802D02*
X0556103Y0632461D01*
X0556745Y0634020D01*
X0557705Y0635405D01*
X0558938Y0636555D01*
X0560387Y0637416D01*
X0561986Y0637949D01*
X0563662Y0638130D01*
X0678339D01*
Y0846791D01*
X0612424D02*
X0678339D01*
X0610749Y0846972D02*
X0612424Y0846791D01*
X0609150Y0847504D02*
X0610749Y0846972D01*
X0607701Y0848364D02*
X0609150Y0847504D01*
X0606469Y0849513D02*
X0607701Y0848364D01*
X0605509Y0850898D02*
X0606469Y0849513D01*
X0604866Y0852455D02*
X0605509Y0850898D01*
X0604569Y0854114D02*
X0604866Y0852455D01*
X0604569Y0854114D02*
X0604631Y0855797D01*
X0605051Y0857429D01*
X0605807Y0858934D01*
X0612330Y0868666D01*
X0619190Y0878163D01*
X0626378Y0887414D01*
X0633885Y0896408D01*
X0641703Y0905133D01*
X0649821Y0913580D01*
X0658229Y0921737D01*
X0666919Y0929595D01*
X0675877Y0937144D01*
X0685095Y0944375D01*
X0694560Y0951278D01*
X0704261Y0957847D01*
X0714186Y0964071D01*
X0724323Y0969944D01*
X0734659Y0975459D01*
X0745181Y0980609D01*
X0755878Y0985387D01*
X0766735Y0989788D01*
X0777740Y0993807D01*
X0788878Y0997437D01*
X0800137Y1000676D01*
X0811502Y1003518D01*
X0822960Y1005961D01*
X0834496Y1008001D01*
X0846097Y1009636D01*
X0857748Y1010865D01*
X0869434Y1011684D01*
X0881142Y1012094D01*
X0892858D01*
X0904566Y1011684D01*
X0916252Y1010865D01*
X0927903Y1009636D01*
X0939504Y1008001D01*
X0951040Y1005961D01*
X0962498Y1003518D01*
X0973863Y1000676D01*
X0985122Y0997437D01*
X0996260Y0993807D01*
X1007265Y0989788D01*
X1018122Y0985387D01*
X1028819Y0980609D01*
X1039341Y0975459D01*
X1049677Y0969944D01*
X1059814Y0964071D01*
X1069739Y0957847D01*
X1079440Y0951278D01*
X1088905Y0944375D01*
X1098123Y0937144D01*
X1107081Y0929595D01*
X1115771Y0921737D01*
X1124179Y0913580D01*
X1132297Y0905133D01*
X1140115Y0896408D01*
X1147622Y0887414D01*
X1154810Y0878163D01*
X1161670Y0868666D01*
X1168193Y0858934D01*
X1168949Y0857429D01*
X1169369Y0855797D01*
X1169431Y0854114D01*
X1169134Y0852455D02*
X1169431Y0854114D01*
X1168491Y0850898D02*
X1169134Y0852455D01*
X1167531Y0849513D02*
X1168491Y0850898D01*
X1166298Y0848364D02*
X1167531Y0849513D01*
X1164850Y0847504D02*
X1166298Y0848364D01*
X1163251Y0846972D02*
X1164850Y0847504D01*
X1161576Y0846791D02*
X1163251Y0846972D01*
X1095661Y0846791D02*
X1161576D01*
D73*
X0921908Y0844665D02*
G03*
X0919021Y0844665I-0001444J0000000D01*
G01*
X0891500Y0910500D02*
G03*
X0891500Y0915500I0000000J0002500D01*
G01*
X0792500Y0910500D02*
G03*
X0792500Y0915500I0000000J0002500D01*
G01*
X0852092Y0864350D02*
G03*
X0854979Y0864350I0001444J0000000D01*
G01*
X0664957Y0588185D02*
X0672043D01*
X0664957Y0548815D02*
X0672043D01*
X0664957D02*
Y0588185D01*
X0672043Y0548815D02*
Y0588185D01*
X0674079Y0510882D02*
Y0521118D01*
X0691401D01*
Y0510882D02*
Y0521118D01*
X0674079Y0510882D02*
X0691401D01*
X0674079Y0520882D02*
Y0531118D01*
X0691401D01*
Y0520882D02*
Y0531118D01*
X0674079Y0520882D02*
X0691401D01*
X0750827Y0460197D02*
X0761063D01*
Y0442874D02*
Y0460197D01*
X0750827Y0442874D02*
X0761063D01*
X0750827D02*
Y0460197D01*
X0983161Y0454969D02*
X0993398D01*
Y0437646D02*
Y0454969D01*
X0983161Y0437646D02*
X0993398D01*
X0983161D02*
Y0454969D01*
X1149421Y0578264D02*
Y0588500D01*
X1132098Y0578264D02*
X1149421D01*
X1132098D02*
Y0588500D01*
X1149421D01*
X1149171Y0565514D02*
Y0575750D01*
X1131849Y0565514D02*
X1149171D01*
X1131849D02*
Y0575750D01*
X1149171D01*
X1005457Y0929185D02*
X1012543D01*
X1005457Y0889815D02*
X1012543D01*
X1005457D02*
Y0929185D01*
X1012543Y0889815D02*
Y0929185D01*
X0916134Y0844665D02*
Y0864350D01*
X0924795Y0844665D02*
Y0864350D01*
X0916134D02*
X0924795D01*
X0916134Y0844665D02*
X0919021D01*
X0921908D02*
X0924795D01*
X0891500Y0891209D02*
Y0910500D01*
Y0915500D02*
Y0934791D01*
X0981500D01*
Y0891209D02*
Y0934791D01*
X0891500Y0891209D02*
X0981500D01*
X0792500D02*
X0882500D01*
Y0934791D01*
X0792500D02*
X0882500D01*
X0792500Y0915500D02*
Y0934791D01*
Y0891209D02*
Y0910500D01*
X0765957Y0884815D02*
X0773043D01*
X0765957Y0924185D02*
X0773043D01*
Y0884815D02*
Y0924185D01*
X0765957Y0884815D02*
Y0924185D01*
X0868315Y0967457D02*
X0907685D01*
X0868315Y0974543D02*
X0907685D01*
X0868315Y0967457D02*
Y0974543D01*
X0907685Y0967457D02*
Y0974543D01*
X0857866Y0844665D02*
Y0864350D01*
X0849205Y0844665D02*
Y0864350D01*
Y0844665D02*
X0857866D01*
X0854979Y0864350D02*
X0857866D01*
X0849205D02*
X0852092D01*
X1045673Y0483488D02*
Y0490575D01*
X1085043Y0483488D02*
Y0490575D01*
X1045673Y0483488D02*
X1085043D01*
X1045673Y0490575D02*
X1085043D01*
X1022110Y0411567D02*
Y0426528D01*
X1008783Y0419047D02*
Y0426528D01*
X1026835D01*
Y0411567D02*
Y0426528D01*
X1008783Y0411567D02*
X1026835D01*
X1008783D02*
Y0419047D01*
X0784776Y0411795D02*
Y0426756D01*
X0771449Y0419276D02*
Y0426756D01*
X0789500D01*
Y0411795D02*
Y0426756D01*
X0771449Y0411795D02*
X0789500D01*
X0771449D02*
Y0419276D01*
D74*
X0963750Y0971403D02*
X0967411D01*
X0962060Y0971262D02*
X0967552D01*
X0960933Y0971121D02*
X0965862D01*
X0960370Y0970980D02*
X0964031D01*
X0959525Y0970840D02*
X0962764D01*
X0958961Y0970699D02*
X0962060D01*
X0958257Y0970558D02*
X0961215D01*
X0957835Y0970417D02*
X0960511D01*
X0956990Y0970276D02*
X0960088D01*
X0956567Y0970135D02*
X0959243D01*
X0956145Y0969995D02*
X0958680D01*
X0955722Y0969854D02*
X0958398D01*
X0955300Y0969713D02*
X0957553D01*
X0954877Y0969572D02*
X0957130D01*
X0954314Y0969431D02*
X0956849D01*
X0953891Y0969290D02*
X0956567D01*
X0953469Y0969150D02*
X0956145D01*
X0953187Y0969009D02*
X0955722D01*
X0952905Y0968868D02*
X0955300D01*
X0952483Y0968727D02*
X0955018D01*
X0952060Y0968586D02*
X0954595D01*
X0951638Y0968445D02*
X0954314D01*
X0951356Y0968305D02*
X0954032D01*
X0950934Y0968164D02*
X0953610D01*
X0950793Y0968023D02*
X0953328D01*
X0950511Y0967882D02*
X0953046D01*
X0950089Y0967741D02*
X0952624D01*
X0949807Y0967600D02*
X0952342D01*
X0949384Y0967459D02*
X0952060D01*
X0949103Y0967319D02*
X0951779D01*
X0948821Y0967178D02*
X0951497D01*
X0948399Y0967037D02*
X0951215D01*
X0948117Y0966896D02*
X0950934D01*
X0947835Y0966755D02*
X0950652D01*
X0947554Y0966615D02*
X0950511D01*
X0947131Y0966474D02*
X0950230D01*
X0975580D02*
X0976988D01*
X0946990Y0966333D02*
X0950089D01*
X0975298D02*
X0977270D01*
X0946709Y0966192D02*
X0949807D01*
X0975157D02*
X0977411D01*
X0946568Y0966051D02*
X0949525D01*
X0975016D02*
X0977551D01*
X0946286Y0965910D02*
X0949244D01*
X0974876D02*
X0977551D01*
X0946145Y0965769D02*
X0948962D01*
X0974876D02*
X0977692D01*
X0945864Y0965629D02*
X0948821D01*
X0974735D02*
X0977692D01*
X0945582Y0965488D02*
X0948540D01*
X0974594D02*
X0977692D01*
X0945441Y0965347D02*
X0948399D01*
X0974594D02*
X0977833D01*
X0945160Y0965206D02*
X0948117D01*
X0974594D02*
X0977833D01*
X0945019Y0965065D02*
X0947976D01*
X0974594D02*
X0976143D01*
X0976284D02*
X0977833D01*
X0944737Y0964925D02*
X0947694D01*
X0974594D02*
X0977833D01*
X0944596Y0964784D02*
X0947554D01*
X0974594D02*
X0977692D01*
X0944314Y0964643D02*
X0947413D01*
X0974594D02*
X0977692D01*
X0944174Y0964502D02*
X0947131D01*
X0974594D02*
X0977692D01*
X0944033Y0964361D02*
X0946990D01*
X0974688D02*
X0977551D01*
X0943892Y0964220D02*
X0946850D01*
X0974735D02*
X0977551D01*
X0943751Y0964079D02*
X0946709D01*
X0974876D02*
X0977551D01*
X0943610Y0963939D02*
X0946568D01*
X0975016D02*
X0977411D01*
X0943329Y0963798D02*
X0946427D01*
X0975016D02*
X0977270D01*
X0943188Y0963657D02*
X0946286D01*
X0975298D02*
X0976988D01*
X0943047Y0963516D02*
X0946004D01*
X0975439D02*
X0976847D01*
X0942906Y0963375D02*
X0945864D01*
X0942765Y0963235D02*
X0945723D01*
X0942624Y0963094D02*
X0945582D01*
X0942484Y0962953D02*
X0945441D01*
X0975861D02*
X0976706D01*
X0936709Y0962812D02*
X0939667D01*
X0939949D02*
X0941498D01*
X0942343D02*
X0945300D01*
X0946709D02*
X0948258D01*
X0949525D02*
X0955722D01*
X0962201D02*
X0965440D01*
X0965580D02*
X0967130D01*
X0968960D02*
X0970510D01*
X0972200D02*
X0973890D01*
X0975016D02*
X0976847D01*
X0978678D02*
X0985861D01*
X0986001D02*
X0994874D01*
X0936287Y0962671D02*
X0939667D01*
X0939949D02*
X0941498D01*
X0942202D02*
X0945160D01*
X0946709D02*
X0948399D01*
X0949103D02*
X0956145D01*
X0961778D02*
X0967130D01*
X0968820D02*
X0970510D01*
X0972200D02*
X0973890D01*
X0975016D02*
X0976706D01*
X0978256D02*
X0985861D01*
X0986001D02*
X0994874D01*
X0936005Y0962530D02*
X0939667D01*
X0939808D02*
X0941357D01*
X0942061D02*
X0945019D01*
X0946568D02*
X0948258D01*
X0948821D02*
X0956285D01*
X0961496D02*
X0965299D01*
X0965440D02*
X0966989D01*
X0968820D02*
X0970369D01*
X0972200D02*
X0973890D01*
X0975016D02*
X0976706D01*
X0978115D02*
X0985861D01*
X0986001D02*
X0994733D01*
X0935865Y0962389D02*
X0939667D01*
X0939808D02*
X0941357D01*
X0941920D02*
X0944878D01*
X0946568D02*
X0948258D01*
X0948680D02*
X0956426D01*
X0961355D02*
X0966989D01*
X0968679D02*
X0970369D01*
X0972200D02*
X0973749D01*
X0974876D02*
X0976566D01*
X0977974D02*
X0985720D01*
X0985861D02*
X0994592D01*
X0935724Y0962249D02*
X0939526D01*
X0939667D02*
X0941357D01*
X0941780D02*
X0944737D01*
X0946568D02*
X0948117D01*
X0948540D02*
X0956426D01*
X0961215D02*
X0966848D01*
X0968679D02*
X0970369D01*
X0972059D02*
X0973749D01*
X0974876D02*
X0976566D01*
X0977833D02*
X0985720D01*
X0985861D02*
X0994592D01*
X0935583Y0962108D02*
X0939526D01*
X0939667D02*
X0941357D01*
X0941639D02*
X0944596D01*
X0946427D02*
X0948117D01*
X0948399D02*
X0956426D01*
X0961074D02*
X0965158D01*
X0965299D02*
X0966848D01*
X0968679D02*
X0970369D01*
X0972059D02*
X0973749D01*
X0974876D02*
X0976566D01*
X0977692D02*
X0985579D01*
X0985720D02*
X0994592D01*
X0935442Y0961967D02*
X0939526D01*
X0939667D02*
X0941216D01*
X0941498D02*
X0944455D01*
X0946427D02*
X0948117D01*
X0948399D02*
X0956567D01*
X0960933D02*
X0965158D01*
X0965299D02*
X0966848D01*
X0968538D02*
X0970228D01*
X0972059D02*
X0973749D01*
X0974735D02*
X0976566D01*
X0977551D02*
X0985579D01*
X0985720D02*
X0994452D01*
X0935301Y0961826D02*
X0939385D01*
X0939526D02*
X0941216D01*
X0941357D02*
X0944314D01*
X0946427D02*
X0948117D01*
X0948258D02*
X0956567D01*
X0960792D02*
X0965017D01*
X0965158D02*
X0966707D01*
X0968538D02*
X0970228D01*
X0972059D02*
X0973749D01*
X0974735D02*
X0976425D01*
X0977551D02*
X0985579D01*
X0985720D02*
X0994452D01*
X0935301Y0961685D02*
X0939385D01*
X0939526D02*
X0944174D01*
X0946286D02*
X0947976D01*
X0948117D02*
X0956567D01*
X0960651D02*
X0965017D01*
X0965158D02*
X0966707D01*
X0968538D02*
X0970228D01*
X0971918D02*
X0973608D01*
X0974594D02*
X0976425D01*
X0977411D02*
X0985438D01*
X0985579D02*
X0994311D01*
X0935160Y0961545D02*
X0939385D01*
X0939526D02*
X0944033D01*
X0946286D02*
X0947976D01*
X0948117D02*
X0956567D01*
X0960651D02*
X0965017D01*
X0965158D02*
X0966707D01*
X0968397D02*
X0970087D01*
X0971918D02*
X0973608D01*
X0974594D02*
X0976425D01*
X0977411D02*
X0985438D01*
X0985579D02*
X0994311D01*
X0935019Y0961404D02*
X0939244D01*
X0939526D02*
X0944033D01*
X0946286D02*
X0947835D01*
X0948117D02*
X0956426D01*
X0960511D02*
X0964876D01*
X0965017D02*
X0966566D01*
X0968397D02*
X0970087D01*
X0971777D02*
X0973467D01*
X0974594D02*
X0976284D01*
X0977270D02*
X0985297D01*
X0985438D02*
X0994311D01*
X0935019Y0961263D02*
X0936850D01*
X0939385D02*
X0943892D01*
X0946286D02*
X0947835D01*
X0947976D02*
X0956426D01*
X0960511D02*
X0962201D01*
X0965017D02*
X0966566D01*
X0968397D02*
X0970087D01*
X0971777D02*
X0973467D01*
X0974453D02*
X0976284D01*
X0977270D02*
X0985297D01*
X0985438D02*
X0994170D01*
X0934879Y0961122D02*
X0936569D01*
X0939385D02*
X0943751D01*
X0946145D02*
X0947835D01*
X0947976D02*
X0950230D01*
X0954173D02*
X0956426D01*
X0960370D02*
X0962060D01*
X0964876D02*
X0966566D01*
X0968397D02*
X0969946D01*
X0971777D02*
X0973467D01*
X0974453D02*
X0976143D01*
X0977270D02*
X0979101D01*
X0986847D02*
X0994029D01*
X0934879Y0960981D02*
X0936428D01*
X0939385D02*
X0943610D01*
X0946145D02*
X0949807D01*
X0954455D02*
X0956426D01*
X0960370D02*
X0961919D01*
X0964876D02*
X0966426D01*
X0968256D02*
X0969946D01*
X0971777D02*
X0973326D01*
X0974453D02*
X0976143D01*
X0977129D02*
X0978819D01*
X0988396D02*
X0990226D01*
X0934738Y0960840D02*
X0936428D01*
X0939244D02*
X0943610D01*
X0946145D02*
X0947694D01*
X0947835D02*
X0949666D01*
X0954595D02*
X0956285D01*
X0960229D02*
X0961919D01*
X0964876D02*
X0966426D01*
X0968256D02*
X0969946D01*
X0971636D02*
X0973326D01*
X0974312D02*
X0976143D01*
X0977129D02*
X0978819D01*
X0988396D02*
X0990086D01*
X0934738Y0960699D02*
X0936428D01*
X0939244D02*
X0943470D01*
X0946145D02*
X0947694D01*
X0947835D02*
X0949666D01*
X0954595D02*
X0956285D01*
X0960229D02*
X0961919D01*
X0964736D02*
X0966426D01*
X0968256D02*
X0969946D01*
X0971636D02*
X0973326D01*
X0974312D02*
X0976002D01*
X0977129D02*
X0978678D01*
X0988396D02*
X0990086D01*
X0934738Y0960559D02*
X0936287D01*
X0939244D02*
X0943329D01*
X0946004D02*
X0949525D01*
X0954595D02*
X0956285D01*
X0960229D02*
X0961778D01*
X0964736D02*
X0966285D01*
X0968256D02*
X0969806D01*
X0971496D02*
X0973186D01*
X0974171D02*
X0976002D01*
X0976988D02*
X0978678D01*
X0988396D02*
X0989945D01*
X0934738Y0960418D02*
X0936287D01*
X0939104D02*
X0943188D01*
X0946004D02*
X0947554D01*
X0947694D02*
X0949384D01*
X0954455D02*
X0956145D01*
X0960229D02*
X0961778D01*
X0964736D02*
X0966285D01*
X0968116D02*
X0969806D01*
X0971496D02*
X0973186D01*
X0974171D02*
X0975861D01*
X0976988D02*
X0978537D01*
X0988255D02*
X0989945D01*
X0934597Y0960277D02*
X0936287D01*
X0939104D02*
X0943188D01*
X0945864D02*
X0947554D01*
X0947694D02*
X0949384D01*
X0954455D02*
X0956145D01*
X0960088D02*
X0961637D01*
X0964595D02*
X0966285D01*
X0968116D02*
X0969806D01*
X0971496D02*
X0973186D01*
X0974171D02*
X0975861D01*
X0976988D02*
X0983607D01*
X0988255D02*
X0989804D01*
X0934597Y0960136D02*
X0936146D01*
X0938963D02*
X0943047D01*
X0945864D02*
X0949244D01*
X0954455D02*
X0956145D01*
X0960088D02*
X0961637D01*
X0964595D02*
X0966285D01*
X0967975D02*
X0969665D01*
X0971355D02*
X0973045D01*
X0974031D02*
X0975861D01*
X0976847D02*
X0983607D01*
X0988114D02*
X0989804D01*
X0934597Y0959995D02*
X0936146D01*
X0938963D02*
X0943047D01*
X0945864D02*
X0947413D01*
X0947554D02*
X0949244D01*
X0954314D02*
X0956004D01*
X0960088D02*
X0961637D01*
X0964595D02*
X0966144D01*
X0967975D02*
X0969665D01*
X0971355D02*
X0973045D01*
X0973890D02*
X0975861D01*
X0976847D02*
X0983466D01*
X0988114D02*
X0989804D01*
X0934456Y0959855D02*
X0936005D01*
X0938963D02*
X0942906D01*
X0945723D02*
X0947413D01*
X0947554D02*
X0949244D01*
X0954314D02*
X0956004D01*
X0959947D02*
X0961637D01*
X0964595D02*
X0966144D01*
X0967975D02*
X0969665D01*
X0971355D02*
X0973045D01*
X0973749D02*
X0975721D01*
X0976847D02*
X0983466D01*
X0988114D02*
X0989663D01*
X0934456Y0959714D02*
X0936005D01*
X0938963D02*
X0942906D01*
X0945723D02*
X0949103D01*
X0954314D02*
X0955863D01*
X0959947D02*
X0961496D01*
X0964454D02*
X0966144D01*
X0967834D02*
X0969524D01*
X0971355D02*
X0972904D01*
X0973608D02*
X0975721D01*
X0976847D02*
X0983326D01*
X0987973D02*
X0989663D01*
X0934456Y0959573D02*
X0936005D01*
X0938963D02*
X0942765D01*
X0945723D02*
X0947272D01*
X0947413D02*
X0949103D01*
X0954314D02*
X0955863D01*
X0959947D02*
X0961496D01*
X0964454D02*
X0966144D01*
X0967834D02*
X0969524D01*
X0971214D02*
X0972904D01*
X0973467D02*
X0975721D01*
X0976706D02*
X0983326D01*
X0987973D02*
X0989663D01*
X0934315Y0959432D02*
X0935865D01*
X0938963D02*
X0942624D01*
X0945582D02*
X0947272D01*
X0947413D02*
X0948962D01*
X0954173D02*
X0955863D01*
X0959806D02*
X0961496D01*
X0964454D02*
X0966144D01*
X0967693D02*
X0969524D01*
X0971214D02*
X0972904D01*
X0973326D02*
X0975580D01*
X0976706D02*
X0983326D01*
X0987832D02*
X0989522D01*
X0934315Y0959291D02*
X0935865D01*
X0938822D02*
X0942624D01*
X0945582D02*
X0947131D01*
X0947272D02*
X0948962D01*
X0954173D02*
X0955722D01*
X0959806D02*
X0961496D01*
X0964454D02*
X0966003D01*
X0967693D02*
X0969383D01*
X0971214D02*
X0972904D01*
X0973186D02*
X0975580D01*
X0976706D02*
X0983326D01*
X0987832D02*
X0989522D01*
X0934175Y0959150D02*
X0935724D01*
X0938822D02*
X0942484D01*
X0945441D02*
X0947131D01*
X0947272D02*
X0948962D01*
X0954173D02*
X0955722D01*
X0959806D02*
X0961355D01*
X0964454D02*
X0966003D01*
X0967552D02*
X0969383D01*
X0971073D02*
X0972763D01*
X0973045D02*
X0975580D01*
X0976566D02*
X0983185D01*
X0987832D02*
X0989382D01*
X0934175Y0959009D02*
X0935724D01*
X0938822D02*
X0942484D01*
X0945300D02*
X0947131D01*
X0947272D02*
X0948962D01*
X0954032D02*
X0955722D01*
X0959665D02*
X0961355D01*
X0964313D02*
X0966003D01*
X0967552D02*
X0969383D01*
X0970932D02*
X0972763D01*
X0973045D02*
X0975439D01*
X0976566D02*
X0978115D01*
X0987691D02*
X0989382D01*
X0934034Y0958869D02*
X0935724D01*
X0938681D02*
X0942343D01*
X0945160D02*
X0946990D01*
X0947131D02*
X0948821D01*
X0954032D02*
X0955581D01*
X0959665D02*
X0961215D01*
X0964313D02*
X0966144D01*
X0967270D02*
X0969524D01*
X0970791D02*
X0972763D01*
X0972904D02*
X0973608D01*
X0973749D02*
X0975439D01*
X0976566D02*
X0978115D01*
X0987691D02*
X0989382D01*
X0933752Y0958728D02*
X0935583D01*
X0938681D02*
X0942202D01*
X0944878D02*
X0946990D01*
X0947131D02*
X0948821D01*
X0954032D02*
X0955581D01*
X0955863D02*
X0961215D01*
X0964172D02*
X0975439D01*
X0976425D02*
X0977974D01*
X0987691D02*
X0989241D01*
X0930231Y0958587D02*
X0935583D01*
X0938681D02*
X0946850D01*
X0947131D02*
X0948821D01*
X0954032D02*
X0955581D01*
X0955722D02*
X0961215D01*
X0964172D02*
X0973467D01*
X0973608D02*
X0975298D01*
X0976425D02*
X0977974D01*
X0987551D02*
X0989241D01*
X0930090Y0958446D02*
X0935442D01*
X0938540D02*
X0946850D01*
X0946990D02*
X0948680D01*
X0953891D02*
X0955440D01*
X0955581D02*
X0961215D01*
X0964172D02*
X0973326D01*
X0973608D02*
X0975298D01*
X0976284D02*
X0977833D01*
X0987551D02*
X0989241D01*
X0930090Y0958305D02*
X0935442D01*
X0938540D02*
X0946850D01*
X0946990D02*
X0948680D01*
X0953891D02*
X0955440D01*
X0955581D02*
X0961074D01*
X0964172D02*
X0973045D01*
X0973467D02*
X0975157D01*
X0976284D02*
X0977833D01*
X0987551D02*
X0989100D01*
X0930090Y0958165D02*
X0935442D01*
X0938540D02*
X0946850D01*
X0946990D02*
X0948680D01*
X0953891D02*
X0955440D01*
X0955581D02*
X0961074D01*
X0964172D02*
X0973045D01*
X0973467D02*
X0975157D01*
X0976284D02*
X0977833D01*
X0987410D02*
X0989100D01*
X0929949Y0958024D02*
X0935442D01*
X0938540D02*
X0946709D01*
X0946850D02*
X0948540D01*
X0953750D02*
X0955440D01*
X0955581D02*
X0960933D01*
X0964172D02*
X0972904D01*
X0973467D02*
X0975157D01*
X0976143D02*
X0977833D01*
X0987410D02*
X0989100D01*
X0929949Y0957883D02*
X0935301D01*
X0938540D02*
X0946709D01*
X0946850D02*
X0948540D01*
X0953750D02*
X0955300D01*
X0955440D02*
X0960792D01*
X0964172D02*
X0972763D01*
X0973467D02*
X0975157D01*
X0976143D02*
X0977692D01*
X0987410D02*
X0989100D01*
X0929949Y0957742D02*
X0935301D01*
X0938540D02*
X0946568D01*
X0946850D02*
X0948540D01*
X0953750D02*
X0955300D01*
X0955440D02*
X0960792D01*
X0964172D02*
X0972622D01*
X0973467D02*
X0975016D01*
X0976002D02*
X0977692D01*
X0987269D02*
X0988959D01*
X0929949Y0957601D02*
X0935160D01*
X0938681D02*
X0946427D01*
X0946709D02*
X0948540D01*
X0953750D02*
X0955300D01*
X0955440D02*
X0960651D01*
X0964172D02*
X0972481D01*
X0973326D02*
X0975016D01*
X0976002D02*
X0977551D01*
X0987269D02*
X0988959D01*
X0929809Y0957460D02*
X0935019D01*
X0938681D02*
X0946286D01*
X0946709D02*
X0948399D01*
X0953610D02*
X0955159D01*
X0955300D02*
X0960511D01*
X0964313D02*
X0972340D01*
X0973326D02*
X0975016D01*
X0976002D02*
X0977551D01*
X0987269D02*
X0988959D01*
X0929809Y0957320D02*
X0934879D01*
X0938822D02*
X0946145D01*
X0946709D02*
X0948399D01*
X0953610D02*
X0955159D01*
X0955300D02*
X0960229D01*
X0964454D02*
X0972059D01*
X0973186D02*
X0975016D01*
X0975861D02*
X0977551D01*
X0987128D02*
X0988818D01*
X0929668Y0957179D02*
X0934597D01*
X0938963D02*
X0946004D01*
X0946709D02*
X0948399D01*
X0953469D02*
X0955159D01*
X0955300D02*
X0960088D01*
X0964595D02*
X0971918D01*
X0973186D02*
X0974876D01*
X0975861D02*
X0977551D01*
X0987128D02*
X0988818D01*
X0929668Y0957038D02*
X0934315D01*
X0938963D02*
X0945723D01*
X0946709D02*
X0948258D01*
X0953469D02*
X0955018D01*
X0955300D02*
X0959806D01*
X0964736D02*
X0971918D01*
X0973186D02*
X0974876D01*
X0975861D02*
X0977551D01*
X0987128D02*
X0988818D01*
X0929668Y0956897D02*
X0934034D01*
X0938963D02*
X0945441D01*
X0946709D02*
X0948258D01*
X0953610D02*
X0955018D01*
X0955300D02*
X0959384D01*
X0965158D02*
X0971636D01*
X0973186D02*
X0974735D01*
X0976002D02*
X0977411D01*
X0987128D02*
X0988677D01*
X0938963Y0956756D02*
X0941920D01*
X0969946D02*
X0971496D01*
X0938963Y0956615D02*
X0941920D01*
X0969806D02*
X0971214D01*
X0938963Y0956474D02*
X0941920D01*
X0969665D02*
X0971073D01*
X0938963Y0956334D02*
X0941920D01*
X0969383D02*
X0970932D01*
X0938963Y0956193D02*
X0942061D01*
X0968960D02*
X0970650D01*
X0939104Y0956052D02*
X0942061D01*
X0968820D02*
X0970510D01*
X0939104Y0955911D02*
X0942061D01*
X0968538D02*
X0970369D01*
X0939104Y0955770D02*
X0942061D01*
X0968397D02*
X0970087D01*
X0939104Y0955630D02*
X0942061D01*
X0968116D02*
X0969946D01*
X0939104Y0955489D02*
X0942343D01*
X0967693D02*
X0969806D01*
X0939244Y0955348D02*
X0942202D01*
X0967552D02*
X0969665D01*
X0939244Y0955207D02*
X0942202D01*
X0967270D02*
X0969383D01*
X0939244Y0955066D02*
X0942343D01*
X0967130D02*
X0969242D01*
X0939244Y0954925D02*
X0942343D01*
X0966707D02*
X0968960D01*
X0939385Y0954784D02*
X0942484D01*
X0966426D02*
X0968679D01*
X0939385Y0954644D02*
X0942484D01*
X0966285D02*
X0968397D01*
X0939526Y0954503D02*
X0942624D01*
X0965862D02*
X0968116D01*
X0939526Y0954362D02*
X0942765D01*
X0965580D02*
X0967975D01*
X0939526Y0954221D02*
X0942765D01*
X0965299D02*
X0967693D01*
X0939667Y0954080D02*
X0942906D01*
X0965017D02*
X0967552D01*
X0939667Y0953940D02*
X0943047D01*
X0964595D02*
X0967270D01*
X0939808Y0953799D02*
X0943188D01*
X0964313D02*
X0966989D01*
X0939949Y0953658D02*
X0943188D01*
X0963890D02*
X0966707D01*
X0939949Y0953517D02*
X0943329D01*
X0963468D02*
X0966426D01*
X0940090Y0953376D02*
X0943610D01*
X0963046D02*
X0966144D01*
X0940230Y0953235D02*
X0943751D01*
X0962764D02*
X0966003D01*
X0940371Y0953094D02*
X0943892D01*
X0962341D02*
X0965721D01*
X0940371Y0952954D02*
X0944033D01*
X0962060D02*
X0965440D01*
X0940512Y0952813D02*
X0944174D01*
X0961637D02*
X0965158D01*
X0940653Y0952672D02*
X0944455D01*
X0961074D02*
X0964876D01*
X0940794Y0952531D02*
X0944737D01*
X0960651D02*
X0964454D01*
X0940934Y0952390D02*
X0945019D01*
X0960088D02*
X0964172D01*
X0941216Y0952249D02*
X0945300D01*
X0959665D02*
X0963890D01*
X0941357Y0952109D02*
X0945582D01*
X0959384D02*
X0963468D01*
X0941357Y0951968D02*
X0945723D01*
X0958961D02*
X0963327D01*
X0941639Y0951827D02*
X0946145D01*
X0958398D02*
X0962905D01*
X0941780Y0951686D02*
X0946568D01*
X0957835D02*
X0962482D01*
X0942061Y0951545D02*
X0947272D01*
X0956708D02*
X0962201D01*
X0942202Y0951404D02*
X0947976D01*
X0955863D02*
X0961919D01*
X0942343Y0951264D02*
X0948962D01*
X0954455D02*
X0961637D01*
X0942624Y0951123D02*
X0950793D01*
X0952765D02*
X0961074D01*
X0942906Y0950982D02*
X0960792D01*
X0943373Y0950841D02*
X0960414D01*
X0943654Y0950700D02*
X0959991D01*
X0943936Y0950559D02*
X0959569D01*
X0944218Y0950419D02*
X0959146D01*
X0944640Y0950278D02*
X0958583D01*
X0945063Y0950137D02*
X0957879D01*
X0945485Y0949996D02*
X0957315D01*
X0946049Y0949855D02*
X0956470D01*
X0946894Y0949714D02*
X0955484D01*
X0947457Y0949574D02*
X0954780D01*
X0948302Y0949433D02*
X0953794D01*
X0949569Y0949292D02*
X0952527D01*
D75*
X0602232Y0589906D02*
Y0628094D01*
X0568768D02*
X0602232D01*
X0568768Y0589906D02*
Y0628094D01*
Y0589906D02*
X0602232D01*
X0647232Y0491905D02*
Y0530094D01*
X0613768D02*
X0647232D01*
X0613768Y0491905D02*
Y0530094D01*
Y0491905D02*
X0647232D01*
X0719732Y0414906D02*
Y0453094D01*
X0686268D02*
X0719732D01*
X0686268Y0414906D02*
Y0453094D01*
Y0414906D02*
X0719732D01*
X1054268D02*
Y0453094D01*
Y0414906D02*
X1087732D01*
Y0453094D01*
X1054268D02*
X1087732D01*
X1171768Y0589906D02*
Y0628094D01*
Y0589906D02*
X1205232D01*
Y0628094D01*
X1171768D02*
X1205232D01*
X1098268Y0862405D02*
Y0900595D01*
Y0862405D02*
X1131732D01*
Y0900595D01*
X1098268D02*
X1131732D01*
X1039268Y0862405D02*
Y0900595D01*
Y0862405D02*
X1072732D01*
Y0900595D01*
X1039268D02*
X1072732D01*
X1039268Y0914406D02*
Y0952594D01*
Y0914406D02*
X1072732D01*
Y0952594D01*
X1039268D02*
X1072732D01*
X0734732Y0914406D02*
Y0952594D01*
X0701268D02*
X0734732D01*
X0701268Y0914406D02*
Y0952594D01*
Y0914406D02*
X0734732D01*
Y0862405D02*
Y0900595D01*
X0701268D02*
X0734732D01*
X0701268Y0862405D02*
Y0900595D01*
Y0862405D02*
X0734732D01*
X0675732D02*
Y0900595D01*
X0642268D02*
X0675732D01*
X0642268Y0862405D02*
Y0900595D01*
Y0862405D02*
X0675732D01*
X1126768Y0491905D02*
Y0530094D01*
Y0491905D02*
X1160232D01*
Y0530094D01*
X1126768D02*
X1160232D01*
D76*
X0665138Y0519374D02*
X0669862D01*
X0665138Y0509138D02*
X0669862D01*
X0665138Y0515437D02*
Y0519374D01*
X0669862Y0515437D02*
Y0519374D01*
Y0509138D02*
Y0512681D01*
X0665138Y0509138D02*
Y0512681D01*
Y0522126D02*
X0669862D01*
X0665138Y0532362D02*
X0669862D01*
Y0522126D02*
Y0526063D01*
X0665138Y0522126D02*
Y0526063D01*
Y0528819D02*
Y0532362D01*
X0669862Y0528819D02*
Y0532362D01*
X0773362Y0459781D02*
X0778087D01*
X0773362Y0470018D02*
X0778087D01*
Y0459781D02*
Y0463718D01*
X0773362Y0459781D02*
Y0463718D01*
Y0466474D02*
Y0470018D01*
X0778087Y0466474D02*
Y0470018D01*
X0773583Y0458138D02*
X0778307D01*
X0773583Y0447902D02*
X0778307D01*
X0773583Y0454201D02*
Y0458138D01*
X0778307Y0454201D02*
Y0458138D01*
Y0447902D02*
Y0451445D01*
X0773583Y0447902D02*
Y0451445D01*
X0744626Y0500138D02*
Y0504862D01*
X0754862Y0500138D02*
Y0504862D01*
X0744626Y0500138D02*
X0748563D01*
X0744626Y0504862D02*
X0748563D01*
X0751319D02*
X0754862D01*
X0751319Y0500138D02*
X0754862D01*
X0744626Y0507138D02*
Y0511862D01*
X0754862Y0507138D02*
Y0511862D01*
X0744626Y0507138D02*
X0748563D01*
X0744626Y0511862D02*
X0748563D01*
X0751319D02*
X0754862D01*
X0751319Y0507138D02*
X0754862D01*
X0768626Y0477138D02*
Y0481862D01*
X0778862Y0477138D02*
Y0481862D01*
X0768626Y0477138D02*
X0772563D01*
X0768626Y0481862D02*
X0772563D01*
X0775319D02*
X0778862D01*
X0775319Y0477138D02*
X0778862D01*
X0768626Y0483138D02*
Y0487862D01*
X0778862Y0483138D02*
Y0487862D01*
X0768626Y0483138D02*
X0772563D01*
X0768626Y0487862D02*
X0772563D01*
X0775319D02*
X0778862D01*
X0775319Y0483138D02*
X0778862D01*
X0768626Y0489138D02*
Y0493862D01*
X0778862Y0489138D02*
Y0493862D01*
X0768626Y0489138D02*
X0772563D01*
X0768626Y0493862D02*
X0772563D01*
X0775319D02*
X0778862D01*
X0775319Y0489138D02*
X0778862D01*
X0768626Y0495138D02*
Y0499862D01*
X0778862Y0495138D02*
Y0499862D01*
X0768626Y0495138D02*
X0772563D01*
X0768626Y0499862D02*
X0772563D01*
X0775319D02*
X0778862D01*
X0775319Y0495138D02*
X0778862D01*
X1005917Y0457909D02*
X1010642D01*
X1005917Y0447673D02*
X1010642D01*
X1005917Y0453972D02*
Y0457909D01*
X1010642Y0453972D02*
Y0457909D01*
Y0447673D02*
Y0451217D01*
X1005917Y0447673D02*
Y0451217D01*
X1020823Y0451685D02*
Y0457984D01*
X1013736Y0451291D02*
Y0457984D01*
Y0441055D02*
Y0447748D01*
X1020823Y0441055D02*
Y0447748D01*
X1013736Y0457984D02*
X1020823D01*
X1013736Y0441055D02*
X1020823D01*
X1010374Y0460638D02*
Y0465362D01*
X1000138Y0460638D02*
Y0465362D01*
X1006437D02*
X1010374D01*
X1006437Y0460638D02*
X1010374D01*
X1000138D02*
X1003681D01*
X1000138Y0465362D02*
X1003681D01*
X1000126Y0468138D02*
Y0472862D01*
X1010362Y0468138D02*
Y0472862D01*
X1000126Y0468138D02*
X1004063D01*
X1000126Y0472862D02*
X1004063D01*
X1006819D02*
X1010362D01*
X1006819Y0468138D02*
X1010362D01*
X1000230Y0474815D02*
Y0479539D01*
X1010466Y0474815D02*
Y0479539D01*
X1000230Y0474815D02*
X1004167D01*
X1000230Y0479539D02*
X1004167D01*
X1006923D02*
X1010466D01*
X1006923Y0474815D02*
X1010466D01*
X1121138Y0567138D02*
X1125862D01*
X1121138Y0577374D02*
X1125862D01*
Y0567138D02*
Y0571075D01*
X1121138Y0567138D02*
Y0571075D01*
Y0573831D02*
Y0577374D01*
X1125862Y0573831D02*
Y0577374D01*
X1121138Y0563874D02*
X1125862D01*
X1121138Y0553638D02*
X1125862D01*
X1121138Y0559937D02*
Y0563874D01*
X1125862Y0559937D02*
Y0563874D01*
Y0553638D02*
Y0557181D01*
X1121138Y0553638D02*
Y0557181D01*
X1024154Y0512917D02*
Y0517642D01*
X1013917Y0512917D02*
Y0517642D01*
X1020216D02*
X1024154D01*
X1020216Y0512917D02*
X1024154D01*
X1013917D02*
X1017461D01*
X1013917Y0517642D02*
X1017461D01*
X0992126Y0505138D02*
Y0509862D01*
X1002362Y0505138D02*
Y0509862D01*
X0992126Y0505138D02*
X0996063D01*
X0992126Y0509862D02*
X0996063D01*
X0998819D02*
X1002362D01*
X0998819Y0505138D02*
X1002362D01*
X1024154Y0496917D02*
Y0501642D01*
X1013917Y0496917D02*
Y0501642D01*
X1020216D02*
X1024154D01*
X1020216Y0496917D02*
X1024154D01*
X1013917D02*
X1017461D01*
X1013917Y0501642D02*
X1017461D01*
X1002173Y0497071D02*
Y0501795D01*
X0991937Y0497071D02*
Y0501795D01*
X0998236D02*
X1002173D01*
X0998236Y0497071D02*
X1002173D01*
X0991937D02*
X0995480D01*
X0991937Y0501795D02*
X0995480D01*
X1002173Y0513071D02*
Y0517795D01*
X0991937Y0513071D02*
Y0517795D01*
X0998236D02*
X1002173D01*
X0998236Y0513071D02*
X1002173D01*
X0991937D02*
X0995480D01*
X0991937Y0517795D02*
X0995480D01*
X1029000Y0535000D02*
Y0537000D01*
X1038000Y0540500D02*
Y0541000D01*
X1029000Y0544500D02*
Y0546500D01*
Y0535000D02*
X1033500D01*
X1029000Y0546500D02*
X1033500D01*
X0937138Y0859874D02*
X0941862D01*
X0937138Y0849638D02*
X0941862D01*
X0937138Y0855937D02*
Y0859874D01*
X0941862Y0855937D02*
Y0859874D01*
Y0849638D02*
Y0853181D01*
X0937138Y0849638D02*
Y0853181D01*
X0929626Y0866138D02*
Y0870862D01*
X0939862Y0866138D02*
Y0870862D01*
X0929626Y0866138D02*
X0933563D01*
X0929626Y0870862D02*
X0933563D01*
X0936319D02*
X0939862D01*
X0936319Y0866138D02*
X0939862D01*
X0910626D02*
Y0870862D01*
X0920862Y0866138D02*
Y0870862D01*
X0910626Y0866138D02*
X0914563D01*
X0910626Y0870862D02*
X0914563D01*
X0917319D02*
X0920862D01*
X0917319Y0866138D02*
X0920862D01*
X0900874D02*
Y0870862D01*
X0890638Y0866138D02*
Y0870862D01*
X0896937D02*
X0900874D01*
X0896937Y0866138D02*
X0900874D01*
X0890638D02*
X0894181D01*
X0890638Y0870862D02*
X0894181D01*
X0882874Y0866138D02*
Y0870862D01*
X0872638Y0866138D02*
Y0870862D01*
X0878937D02*
X0882874D01*
X0878937Y0866138D02*
X0882874D01*
X0872638D02*
X0876181D01*
X0872638Y0870862D02*
X0876181D01*
X0839374Y0837638D02*
Y0842362D01*
X0829138Y0837638D02*
Y0842362D01*
X0835437D02*
X0839374D01*
X0835437Y0837638D02*
X0839374D01*
X0829138D02*
X0832681D01*
X0829138Y0842362D02*
X0832681D01*
X0858624Y0866138D02*
Y0870862D01*
X0848388Y0866138D02*
Y0870862D01*
X0854687D02*
X0858624D01*
X0854687Y0866138D02*
X0858624D01*
X0848388D02*
X0851931D01*
X0848388Y0870862D02*
X0851931D01*
X0895638Y0837638D02*
Y0842362D01*
X0905874Y0837638D02*
Y0842362D01*
X0895638Y0837638D02*
X0899575D01*
X0895638Y0842362D02*
X0899575D01*
X0902331D02*
X0905874D01*
X0902331Y0837638D02*
X0905874D01*
X0745319Y0883638D02*
X0748862D01*
X0745319Y0888362D02*
X0748862D01*
X0738626D02*
X0742563D01*
X0738626Y0883638D02*
X0742563D01*
X0748862D02*
Y0888362D01*
X0738626Y0883638D02*
Y0888362D01*
X0831138Y0849626D02*
X0835862D01*
X0831138Y0859862D02*
X0835862D01*
Y0849626D02*
Y0853563D01*
X0831138Y0849626D02*
Y0853563D01*
Y0856319D02*
Y0859862D01*
X0835862Y0856319D02*
Y0859862D01*
X0858874Y0837638D02*
Y0842362D01*
X0848638Y0837638D02*
Y0842362D01*
X0854937D02*
X0858874D01*
X0854937Y0837638D02*
X0858874D01*
X0848638D02*
X0852181D01*
X0848638Y0842362D02*
X0852181D01*
X0910626Y0837638D02*
Y0842362D01*
X0920862Y0837638D02*
Y0842362D01*
X0910626Y0837638D02*
X0914563D01*
X0910626Y0842362D02*
X0914563D01*
X0917319D02*
X0920862D01*
X0917319Y0837638D02*
X0920862D01*
X0605407Y0610979D02*
Y0615703D01*
X0615644Y0610979D02*
Y0615703D01*
X0605407Y0610979D02*
X0609344D01*
X0605407Y0615703D02*
X0609344D01*
X0612100D02*
X0615644D01*
X0612100Y0610979D02*
X0615644D01*
X0650138Y0513626D02*
X0654862D01*
X0650138Y0523862D02*
X0654862D01*
Y0513626D02*
Y0517563D01*
X0650138Y0513626D02*
Y0517563D01*
Y0520319D02*
Y0523862D01*
X0654862Y0520319D02*
Y0523862D01*
X0717874Y0460638D02*
Y0465362D01*
X0707638Y0460638D02*
Y0465362D01*
X0713937D02*
X0717874D01*
X0713937Y0460638D02*
X0717874D01*
X0707638D02*
X0711181D01*
X0707638Y0465362D02*
X0711181D01*
X1051514Y0427298D02*
Y0432023D01*
X1041278Y0427298D02*
Y0432023D01*
X1047577D02*
X1051514D01*
X1047577Y0427298D02*
X1051514D01*
X1041278D02*
X1044821D01*
X1041278Y0432023D02*
X1044821D01*
X1117638Y0506874D02*
X1122362D01*
X1117638Y0496638D02*
X1122362D01*
X1117638Y0502937D02*
Y0506874D01*
X1122362Y0502937D02*
Y0506874D01*
Y0496638D02*
Y0500181D01*
X1117638Y0496638D02*
Y0500181D01*
X1162638Y0609374D02*
X1167362D01*
X1162638Y0599138D02*
X1167362D01*
X1162638Y0605437D02*
Y0609374D01*
X1167362Y0605437D02*
Y0609374D01*
Y0599138D02*
Y0602681D01*
X1162638Y0599138D02*
Y0602681D01*
X1095284Y0874611D02*
Y0879336D01*
X1085047Y0874611D02*
Y0879336D01*
X1091346D02*
X1095284D01*
X1091346Y0874611D02*
X1095284D01*
X1085047D02*
X1088591D01*
X1085047Y0879336D02*
X1088591D01*
X1036095Y0874609D02*
Y0879334D01*
X1025858Y0874609D02*
Y0879334D01*
X1032158D02*
X1036095D01*
X1032158Y0874609D02*
X1036095D01*
X1025858D02*
X1029402D01*
X1025858Y0879334D02*
X1029402D01*
X1031138Y0934374D02*
X1035862D01*
X1031138Y0924138D02*
X1035862D01*
X1031138Y0930437D02*
Y0934374D01*
X1035862Y0930437D02*
Y0934374D01*
Y0924138D02*
Y0927681D01*
X1031138Y0924138D02*
Y0927681D01*
X0738907Y0935477D02*
Y0940201D01*
X0749144Y0935477D02*
Y0940201D01*
X0738907Y0935477D02*
X0742844D01*
X0738907Y0940201D02*
X0742844D01*
X0745600D02*
X0749144D01*
X0745600Y0935477D02*
X0749144D01*
X0678717Y0883664D02*
Y0888389D01*
X0688953Y0883664D02*
Y0888389D01*
X0678717Y0883664D02*
X0682654D01*
X0678717Y0888389D02*
X0682654D01*
X0685409D02*
X0688953D01*
X0685409Y0883664D02*
X0688953D01*
X0996374Y0460638D02*
Y0465362D01*
X0986138Y0460638D02*
Y0465362D01*
X0992437D02*
X0996374D01*
X0992437Y0460638D02*
X0996374D01*
X0986138D02*
X0989681D01*
X0986138Y0465362D02*
X0989681D01*
X0753583Y0473650D02*
X0758307D01*
X0753583Y0463413D02*
X0758307D01*
X0753583Y0469713D02*
Y0473650D01*
X0758307Y0469713D02*
Y0473650D01*
Y0463413D02*
Y0466957D01*
X0753583Y0463413D02*
Y0466957D01*
X1023874Y0504138D02*
Y0508862D01*
X1013638Y0504138D02*
Y0508862D01*
X1019937D02*
X1023874D01*
X1019937Y0504138D02*
X1023874D01*
X1013638D02*
X1017181D01*
X1013638Y0508862D02*
X1017181D01*
X1162874Y0569638D02*
Y0574362D01*
X1152638Y0569638D02*
Y0574362D01*
X1158937D02*
X1162874D01*
X1158937Y0569638D02*
X1162874D01*
X1152638D02*
X1156181D01*
X1152638Y0574362D02*
X1156181D01*
X1162874Y0581138D02*
Y0585862D01*
X1152638Y0581138D02*
Y0585862D01*
X1158937D02*
X1162874D01*
X1158937Y0581138D02*
X1162874D01*
X1152638D02*
X1156181D01*
X1152638Y0585862D02*
X1156181D01*
X1081799Y0521756D02*
X1086524D01*
X1081799Y0531992D02*
X1086524D01*
Y0521756D02*
Y0525693D01*
X1081799Y0521756D02*
Y0525693D01*
Y0528449D02*
Y0531992D01*
X1086524Y0528449D02*
Y0531992D01*
X1073299Y0521756D02*
X1078024D01*
X1073299Y0531992D02*
X1078024D01*
Y0521756D02*
Y0525693D01*
X1073299Y0521756D02*
Y0525693D01*
Y0528449D02*
Y0531992D01*
X1078024Y0528449D02*
Y0531992D01*
X1017899Y0544024D02*
X1022624D01*
X1017899Y0533788D02*
X1022624D01*
X1017899Y0540087D02*
Y0544024D01*
X1022624Y0540087D02*
Y0544024D01*
Y0533788D02*
Y0537331D01*
X1017899Y0533788D02*
Y0537331D01*
X1065138Y0531874D02*
X1069862D01*
X1065138Y0521638D02*
X1069862D01*
X1065138Y0527937D02*
Y0531874D01*
X1069862Y0527937D02*
Y0531874D01*
Y0521638D02*
Y0525181D01*
X1065138Y0521638D02*
Y0525181D01*
X1057138Y0521626D02*
X1061862D01*
X1057138Y0531862D02*
X1061862D01*
Y0521626D02*
Y0525563D01*
X1057138Y0521626D02*
Y0525563D01*
Y0528319D02*
Y0531862D01*
X1061862Y0528319D02*
Y0531862D01*
X0728138Y0400126D02*
X0732862D01*
X0728138Y0410362D02*
X0732862D01*
Y0400126D02*
Y0404063D01*
X0728138Y0400126D02*
Y0404063D01*
Y0406819D02*
Y0410362D01*
X0732862Y0406819D02*
Y0410362D01*
X0736638Y0400126D02*
X0741362D01*
X0736638Y0410362D02*
X0741362D01*
Y0400126D02*
Y0404063D01*
X0736638Y0400126D02*
Y0404063D01*
Y0406819D02*
Y0410362D01*
X0741362Y0406819D02*
Y0410362D01*
X0736638Y0431874D02*
X0741362D01*
X0736638Y0421638D02*
X0741362D01*
X0736638Y0427937D02*
Y0431874D01*
X0741362Y0427937D02*
Y0431874D01*
Y0421638D02*
Y0425181D01*
X0736638Y0421638D02*
Y0425181D01*
X0728638Y0421626D02*
X0733362D01*
X0728638Y0431862D02*
X0733362D01*
Y0421626D02*
Y0425563D01*
X0728638Y0421626D02*
Y0425563D01*
Y0428319D02*
Y0431862D01*
X0733362Y0428319D02*
Y0431862D01*
X0760138Y0951374D02*
X0764862D01*
X0760138Y0941138D02*
X0764862D01*
X0760138Y0947437D02*
Y0951374D01*
X0764862Y0947437D02*
Y0951374D01*
Y0941138D02*
Y0944681D01*
X0760138Y0941138D02*
Y0944681D01*
X1127138Y0604626D02*
X1131862D01*
X1127138Y0614862D02*
X1131862D01*
Y0604626D02*
Y0608563D01*
X1127138Y0604626D02*
Y0608563D01*
Y0611319D02*
Y0614862D01*
X1131862Y0611319D02*
Y0614862D01*
X0644626Y0601638D02*
Y0606362D01*
X0654862Y0601638D02*
Y0606362D01*
X0644626Y0601638D02*
X0648563D01*
X0644626Y0606362D02*
X0648563D01*
X0651319D02*
X0654862D01*
X0651319Y0601638D02*
X0654862D01*
X0788488Y0451913D02*
Y0458213D01*
X0781402Y0451520D02*
Y0458213D01*
Y0441284D02*
Y0447976D01*
X0788488Y0441284D02*
Y0447976D01*
X0781402Y0458213D02*
X0788488D01*
X0781402Y0441284D02*
X0788488D01*
X1011399Y0544024D02*
X1016124D01*
X1011399Y0533788D02*
X1016124D01*
X1011399Y0540087D02*
Y0544024D01*
X1016124Y0540087D02*
Y0544024D01*
Y0533788D02*
Y0537331D01*
X1011399Y0533788D02*
Y0537331D01*
X1039374Y0549138D02*
Y0553862D01*
X1029138Y0549138D02*
Y0553862D01*
X1035437D02*
X1039374D01*
X1035437Y0549138D02*
X1039374D01*
X1029138D02*
X1032681D01*
X1029138Y0553862D02*
X1032681D01*
X1068138Y0570374D02*
X1072862D01*
X1068138Y0560138D02*
X1072862D01*
X1068138Y0566437D02*
Y0570374D01*
X1072862Y0566437D02*
Y0570374D01*
Y0560138D02*
Y0563681D01*
X1068138Y0560138D02*
Y0563681D01*
X1061804Y0570374D02*
X1066529D01*
X1061804Y0560138D02*
X1066529D01*
X1061804Y0566437D02*
Y0570374D01*
X1066529Y0566437D02*
Y0570374D01*
Y0560138D02*
Y0563681D01*
X1061804Y0560138D02*
Y0563681D01*
X1055471Y0570374D02*
X1060196D01*
X1055471Y0560138D02*
X1060196D01*
X1055471Y0566437D02*
Y0570374D01*
X1060196Y0566437D02*
Y0570374D01*
Y0560138D02*
Y0563681D01*
X1055471Y0560138D02*
Y0563681D01*
X1049138Y0570374D02*
X1053862D01*
X1049138Y0560138D02*
X1053862D01*
X1049138Y0566437D02*
Y0570374D01*
X1053862Y0566437D02*
Y0570374D01*
Y0560138D02*
Y0563681D01*
X1049138Y0560138D02*
Y0563681D01*
X0729138Y0521874D02*
X0733862D01*
X0729138Y0511638D02*
X0733862D01*
X0729138Y0517937D02*
Y0521874D01*
X0733862Y0517937D02*
Y0521874D01*
Y0511638D02*
Y0515181D01*
X0729138Y0511638D02*
Y0515181D01*
X0721805Y0521874D02*
X0726529D01*
X0721805Y0511638D02*
X0726529D01*
X0721805Y0517937D02*
Y0521874D01*
X0726529Y0517937D02*
Y0521874D01*
Y0511638D02*
Y0515181D01*
X0721805Y0511638D02*
Y0515181D01*
X0714471Y0521874D02*
X0719196D01*
X0714471Y0511638D02*
X0719196D01*
X0714471Y0517937D02*
Y0521874D01*
X0719196Y0517937D02*
Y0521874D01*
Y0511638D02*
Y0515181D01*
X0714471Y0511638D02*
Y0515181D01*
X0707138Y0521874D02*
X0711862D01*
X0707138Y0511638D02*
X0711862D01*
X0707138Y0517937D02*
Y0521874D01*
X0711862Y0517937D02*
Y0521874D01*
Y0511638D02*
Y0515181D01*
X0707138Y0511638D02*
Y0515181D01*
X0715138Y0493874D02*
X0719862D01*
X0715138Y0483638D02*
X0719862D01*
X0715138Y0489937D02*
Y0493874D01*
X0719862Y0489937D02*
Y0493874D01*
Y0483638D02*
Y0487181D01*
X0715138Y0483638D02*
Y0487181D01*
X1048638Y0518626D02*
X1053362D01*
X1048638Y0528862D02*
X1053362D01*
Y0518626D02*
Y0522563D01*
X1048638Y0518626D02*
Y0522563D01*
Y0525319D02*
Y0528862D01*
X1053362Y0525319D02*
Y0528862D01*
X0866126Y0837638D02*
Y0842362D01*
X0876362Y0837638D02*
Y0842362D01*
X0866126Y0837638D02*
X0870063D01*
X0866126Y0842362D02*
X0870063D01*
X0872819D02*
X0876362D01*
X0872819Y0837638D02*
X0876362D01*
M02*
