%FSAX25Y25*%
%MOIN*%
G70*
G01*
G75*
G04 Layer_Color=8388736*
%ADD10O,0.08661X0.02362*%
%ADD11R,0.03000X0.03543*%
%ADD12R,0.05118X0.05512*%
%ADD13R,0.05512X0.05118*%
%ADD14R,0.03543X0.03000*%
%ADD15R,0.05000X0.06693*%
%ADD16R,0.04921X0.03937*%
%ADD17R,0.08661X0.02362*%
%ADD18O,0.08661X0.02362*%
%ADD19O,0.02362X0.08661*%
%ADD20R,0.09449X0.09843*%
%ADD21C,0.01575*%
%ADD22C,0.01181*%
%ADD23C,0.00984*%
%ADD24C,0.01000*%
%ADD25C,0.03150*%
%ADD26C,0.03937*%
%ADD27C,0.02756*%
%ADD28C,0.02362*%
%ADD29C,0.00591*%
%ADD30C,0.01969*%
%ADD31C,0.05906*%
%ADD32R,0.05906X0.05906*%
%ADD33C,0.05118*%
%ADD34C,0.07874*%
%ADD35O,0.10236X0.07874*%
%ADD36O,0.08268X0.07874*%
%ADD37R,0.05118X0.09843*%
%ADD38O,0.05118X0.09843*%
%ADD39R,0.06299X0.06299*%
%ADD40C,0.06299*%
%ADD41C,2.75591*%
%ADD42C,0.39370*%
%ADD43C,0.19685*%
%ADD44C,0.05500*%
%ADD45C,0.06693*%
%ADD46C,0.05000*%
%ADD47R,0.09646X0.09843*%
%ADD48R,0.09843X0.09449*%
%ADD49R,0.02362X0.08661*%
%ADD50O,0.02362X0.08661*%
%ADD51R,0.20866X0.07087*%
%ADD52O,0.03937X0.01024*%
%ADD53O,0.01024X0.03937*%
%ADD54R,0.03937X0.01024*%
%ADD55R,0.03543X0.01575*%
%ADD56R,0.09449X0.12598*%
%ADD57R,0.06693X0.05000*%
%ADD58R,0.09843X0.14961*%
%ADD59R,0.01969X0.05512*%
%ADD60O,0.08661X0.01575*%
%ADD61R,0.08661X0.01575*%
%ADD62R,0.18110X0.09252*%
%ADD63O,0.01378X0.06299*%
%ADD64R,0.07087X0.07874*%
%ADD65R,0.03543X0.01575*%
%ADD66R,0.09843X0.09646*%
%ADD67R,0.03937X0.04921*%
%ADD68O,0.02165X0.07874*%
%ADD69R,0.15000X0.19685*%
%ADD70R,0.01575X0.03543*%
%ADD71R,0.06000X0.06299*%
%ADD72R,0.06299X0.06000*%
%ADD73C,0.00787*%
%ADD74C,0.00141*%
%ADD75C,0.01378*%
%ADD76C,0.01200*%
%ADD77O,0.09461X0.03162*%
%ADD78R,0.03800X0.04343*%
%ADD79R,0.05918X0.06312*%
%ADD80R,0.06312X0.05918*%
%ADD81R,0.04343X0.03800*%
%ADD82R,0.05800X0.07493*%
%ADD83R,0.05721X0.04737*%
%ADD84R,0.09461X0.03162*%
%ADD85O,0.09461X0.03162*%
%ADD86O,0.03162X0.09461*%
%ADD87R,0.10249X0.10642*%
%ADD88C,0.06706*%
%ADD89R,0.06706X0.06706*%
%ADD90C,0.05918*%
%ADD91C,0.08674*%
%ADD92O,0.11036X0.08674*%
%ADD93O,0.09068X0.08674*%
%ADD94R,0.05918X0.10642*%
%ADD95O,0.05918X0.10642*%
%ADD96R,0.07099X0.07099*%
%ADD97C,0.07099*%
%ADD98C,2.76391*%
%ADD99C,0.40170*%
%ADD100C,0.20485*%
%ADD101C,0.06300*%
%ADD102C,0.07493*%
%ADD103C,0.05800*%
D24*
X1024795Y0677500D02*
G03*
X1024795Y0677500I-0137795J0000000D01*
G01*
D30*
X1095661Y0638130D02*
Y0846791D01*
Y0638130D02*
X1210338D01*
X1212014Y0637949D01*
X1213613Y0637416D01*
X1215063Y0636555D01*
X1216295Y0635405D01*
X1217255Y0634020D01*
X1217897Y0632461D01*
X1218193Y0630802D01*
X1218130Y0629117D02*
X1218193Y0630802D01*
X1216216Y0617461D02*
X1218130Y0629117D01*
X1213892Y0605880D02*
X1216216Y0617461D01*
X1211161Y0594388D02*
X1213892Y0605880D01*
X1208026Y0583000D02*
X1211161Y0594388D01*
X1204491Y0571729D02*
X1208026Y0583000D01*
X1200560Y0560590D02*
X1204491Y0571729D01*
X1196239Y0549597D02*
X1200560Y0560590D01*
X1191532Y0538763D02*
X1196239Y0549597D01*
X1186446Y0528102D02*
X1191532Y0538763D01*
X1180987Y0517627D02*
X1186446Y0528102D01*
X1175162Y0507352D02*
X1180987Y0517627D01*
X1168978Y0497288D02*
X1175162Y0507352D01*
X1162442Y0487449D02*
X1168978Y0497288D01*
X1155563Y0477846D02*
X1162442Y0487449D01*
X1148350Y0468493D02*
X1155563Y0477846D01*
X1140811Y0459399D02*
X1148350Y0468493D01*
X1132955Y0450578D02*
X1140811Y0459399D01*
X1124794Y0442039D02*
X1132955Y0450578D01*
X1116336Y0433794D02*
X1124794Y0442039D01*
X1107592Y0425852D02*
X1116336Y0433794D01*
X1098574Y0418223D02*
X1107592Y0425852D01*
X1089292Y0410918D02*
X1098574Y0418223D01*
X1079757Y0403945D02*
X1089292Y0410918D01*
X1069983Y0397313D02*
X1079757Y0403945D01*
X1059981Y0391030D02*
X1069983Y0397313D01*
X1049763Y0385103D02*
X1059981Y0391030D01*
X1039343Y0379541D02*
X1049763Y0385103D01*
X1028732Y0374350D02*
X1039343Y0379541D01*
X0973614Y0374350D02*
X1028732D01*
X0973614D02*
Y0421594D01*
X0800386D02*
X0973614D01*
X0800386Y0374350D02*
Y0421594D01*
X0745268Y0374350D02*
X0800386D01*
X0734657Y0379541D02*
X0745268Y0374350D01*
X0724237Y0385103D02*
X0734657Y0379541D01*
X0714019Y0391030D02*
X0724237Y0385103D01*
X0704017Y0397313D02*
X0714019Y0391030D01*
X0694242Y0403945D02*
X0704017Y0397313D01*
X0684708Y0410918D02*
X0694242Y0403945D01*
X0675426Y0418223D02*
X0684708Y0410918D01*
X0666408Y0425852D02*
X0675426Y0418223D01*
X0657664Y0433794D02*
X0666408Y0425852D01*
X0649206Y0442039D02*
X0657664Y0433794D01*
X0641045Y0450578D02*
X0649206Y0442039D01*
X0633189Y0459399D02*
X0641045Y0450578D01*
X0625650Y0468493D02*
X0633189Y0459399D01*
X0618437Y0477846D02*
X0625650Y0468493D01*
X0611558Y0487449D02*
X0618437Y0477846D01*
X0605022Y0497288D02*
X0611558Y0487449D01*
X0598838Y0507352D02*
X0605022Y0497288D01*
X0593013Y0517627D02*
X0598838Y0507352D01*
X0587554Y0528102D02*
X0593013Y0517627D01*
X0582468Y0538763D02*
X0587554Y0528102D01*
X0577761Y0549597D02*
X0582468Y0538763D01*
X0573440Y0560590D02*
X0577761Y0549597D01*
X0569509Y0571729D02*
X0573440Y0560590D01*
X0565974Y0583000D02*
X0569509Y0571729D01*
X0562839Y0594388D02*
X0565974Y0583000D01*
X0560108Y0605880D02*
X0562839Y0594388D01*
X0557784Y0617461D02*
X0560108Y0605880D01*
X0555870Y0629117D02*
X0557784Y0617461D01*
X0555807Y0630802D02*
X0555870Y0629117D01*
X0555807Y0630802D02*
X0556103Y0632461D01*
X0556745Y0634020D01*
X0557705Y0635405D01*
X0558938Y0636555D01*
X0560387Y0637416D01*
X0561986Y0637949D01*
X0563662Y0638130D01*
X0678339D01*
Y0846791D01*
X0612424D02*
X0678339D01*
X0610749Y0846972D02*
X0612424Y0846791D01*
X0609150Y0847504D02*
X0610749Y0846972D01*
X0607701Y0848364D02*
X0609150Y0847504D01*
X0606469Y0849513D02*
X0607701Y0848364D01*
X0605509Y0850898D02*
X0606469Y0849513D01*
X0604866Y0852455D02*
X0605509Y0850898D01*
X0604569Y0854114D02*
X0604866Y0852455D01*
X0604569Y0854114D02*
X0604631Y0855797D01*
X0605051Y0857429D01*
X0605807Y0858934D01*
X0612330Y0868666D01*
X0619190Y0878163D01*
X0626378Y0887414D01*
X0633885Y0896408D01*
X0641703Y0905133D01*
X0649821Y0913580D01*
X0658229Y0921737D01*
X0666919Y0929595D01*
X0675877Y0937144D01*
X0685095Y0944375D01*
X0694560Y0951278D01*
X0704261Y0957847D01*
X0714186Y0964071D01*
X0724323Y0969944D01*
X0734659Y0975459D01*
X0745181Y0980609D01*
X0755878Y0985387D01*
X0766735Y0989788D01*
X0777740Y0993807D01*
X0788878Y0997437D01*
X0800137Y1000676D01*
X0811502Y1003518D01*
X0822960Y1005961D01*
X0834496Y1008001D01*
X0846097Y1009636D01*
X0857748Y1010865D01*
X0869434Y1011684D01*
X0881142Y1012094D01*
X0892858D01*
X0904566Y1011684D01*
X0916252Y1010865D01*
X0927903Y1009636D01*
X0939504Y1008001D01*
X0951040Y1005961D01*
X0962498Y1003518D01*
X0973863Y1000676D01*
X0985122Y0997437D01*
X0996260Y0993807D01*
X1007265Y0989788D01*
X1018122Y0985387D01*
X1028819Y0980609D01*
X1039341Y0975459D01*
X1049677Y0969944D01*
X1059814Y0964071D01*
X1069739Y0957847D01*
X1079440Y0951278D01*
X1088905Y0944375D01*
X1098123Y0937144D01*
X1107081Y0929595D01*
X1115771Y0921737D01*
X1124179Y0913580D01*
X1132297Y0905133D01*
X1140115Y0896408D01*
X1147622Y0887414D01*
X1154810Y0878163D01*
X1161670Y0868666D01*
X1168193Y0858934D01*
X1168949Y0857429D01*
X1169369Y0855797D01*
X1169431Y0854114D01*
X1169134Y0852455D02*
X1169431Y0854114D01*
X1168491Y0850898D02*
X1169134Y0852455D01*
X1167531Y0849513D02*
X1168491Y0850898D01*
X1166298Y0848364D02*
X1167531Y0849513D01*
X1164850Y0847504D02*
X1166298Y0848364D01*
X1163251Y0846972D02*
X1164850Y0847504D01*
X1161576Y0846791D02*
X1163251Y0846972D01*
X1095661Y0846791D02*
X1161576D01*
D77*
X0659051Y0586000D02*
D03*
Y0581000D02*
D03*
Y0576000D02*
D03*
Y0571000D02*
D03*
Y0566000D02*
D03*
Y0561000D02*
D03*
Y0556000D02*
D03*
Y0551000D02*
D03*
X0677949Y0586000D02*
D03*
Y0581000D02*
D03*
Y0576000D02*
D03*
Y0571000D02*
D03*
Y0566000D02*
D03*
Y0561000D02*
D03*
Y0556000D02*
D03*
Y0551000D02*
D03*
X0999551Y0927000D02*
D03*
Y0922000D02*
D03*
Y0917000D02*
D03*
Y0912000D02*
D03*
Y0907000D02*
D03*
Y0902000D02*
D03*
Y0897000D02*
D03*
Y0892000D02*
D03*
X1018449Y0927000D02*
D03*
Y0922000D02*
D03*
Y0917000D02*
D03*
Y0912000D02*
D03*
Y0907000D02*
D03*
Y0902000D02*
D03*
Y0897000D02*
D03*
Y0892000D02*
D03*
X0778949Y0887000D02*
D03*
Y0892000D02*
D03*
Y0897000D02*
D03*
Y0902000D02*
D03*
Y0907000D02*
D03*
Y0912000D02*
D03*
Y0917000D02*
D03*
Y0922000D02*
D03*
X0760051Y0887000D02*
D03*
Y0892000D02*
D03*
Y0897000D02*
D03*
Y0902000D02*
D03*
Y0907000D02*
D03*
Y0912000D02*
D03*
Y0917000D02*
D03*
Y0922000D02*
D03*
D78*
X0667500Y0517000D02*
D03*
Y0511500D02*
D03*
Y0524500D02*
D03*
Y0530000D02*
D03*
X0775724Y0462155D02*
D03*
Y0467655D02*
D03*
X0775945Y0455764D02*
D03*
Y0450264D02*
D03*
X1008280Y0455535D02*
D03*
Y0450035D02*
D03*
X1123500Y0569512D02*
D03*
Y0575012D02*
D03*
Y0561500D02*
D03*
Y0556000D02*
D03*
X0939500Y0857500D02*
D03*
Y0852000D02*
D03*
X0674000Y0611000D02*
D03*
Y0605500D02*
D03*
X0833500Y0852000D02*
D03*
Y0857500D02*
D03*
X0652500Y0516000D02*
D03*
Y0521500D02*
D03*
X1120000Y0504500D02*
D03*
Y0499000D02*
D03*
X1165000Y0607000D02*
D03*
Y0601500D02*
D03*
X1033500Y0932000D02*
D03*
Y0926500D02*
D03*
X0755945Y0471276D02*
D03*
Y0465776D02*
D03*
X1084161Y0524130D02*
D03*
Y0529630D02*
D03*
X1075661Y0524130D02*
D03*
Y0529630D02*
D03*
X1020261Y0541650D02*
D03*
Y0536150D02*
D03*
X1067500Y0529500D02*
D03*
Y0524000D02*
D03*
X1059500D02*
D03*
Y0529500D02*
D03*
X0730500Y0402500D02*
D03*
Y0408000D02*
D03*
X0739000Y0402500D02*
D03*
Y0408000D02*
D03*
Y0429500D02*
D03*
Y0424000D02*
D03*
X0731000D02*
D03*
Y0429500D02*
D03*
X0762500Y0949000D02*
D03*
Y0943500D02*
D03*
X1129500Y0607000D02*
D03*
Y0612500D02*
D03*
X1013761Y0541650D02*
D03*
Y0536150D02*
D03*
X1070500Y0568000D02*
D03*
Y0562500D02*
D03*
X1064167Y0568000D02*
D03*
Y0562500D02*
D03*
X1057833Y0568000D02*
D03*
Y0562500D02*
D03*
X1051500Y0568000D02*
D03*
Y0562500D02*
D03*
X0731500Y0519500D02*
D03*
Y0514000D02*
D03*
X0724167Y0519500D02*
D03*
Y0514000D02*
D03*
X0716833Y0519500D02*
D03*
Y0514000D02*
D03*
X0709500Y0519500D02*
D03*
Y0514000D02*
D03*
X0717500Y0491500D02*
D03*
Y0486000D02*
D03*
X1051000Y0521000D02*
D03*
Y0526500D02*
D03*
D79*
X0686480Y0516000D02*
D03*
X0679000D02*
D03*
X0686480Y0526000D02*
D03*
X0679000D02*
D03*
X1137020Y0583382D02*
D03*
X1144500D02*
D03*
X1136770Y0570632D02*
D03*
X1144250D02*
D03*
D80*
X0755945Y0447795D02*
D03*
Y0455276D02*
D03*
X0988280Y0442567D02*
D03*
Y0450047D02*
D03*
D81*
X0747000Y0502500D02*
D03*
X0752500D02*
D03*
X0747000Y0509500D02*
D03*
X0752500D02*
D03*
X0771000Y0479500D02*
D03*
X0776500D02*
D03*
X0771000Y0485500D02*
D03*
X0776500D02*
D03*
X0771000Y0491500D02*
D03*
X0776500D02*
D03*
X0771000Y0497500D02*
D03*
X0776500D02*
D03*
X1008000Y0463000D02*
D03*
X1002500D02*
D03*
Y0470500D02*
D03*
X1008000D02*
D03*
X1002604Y0477177D02*
D03*
X1008104D02*
D03*
X1021780Y0515279D02*
D03*
X1016280D02*
D03*
X0994500Y0507500D02*
D03*
X1000000D02*
D03*
X1021780Y0499279D02*
D03*
X1016280D02*
D03*
X0999799Y0499433D02*
D03*
X0994299D02*
D03*
X0999799Y0515433D02*
D03*
X0994299D02*
D03*
X0932000Y0868500D02*
D03*
X0937500D02*
D03*
X0913000D02*
D03*
X0918500D02*
D03*
X0898500D02*
D03*
X0893000D02*
D03*
X0880500D02*
D03*
X0875000D02*
D03*
X0837000Y0840000D02*
D03*
X0831500D02*
D03*
X0856250Y0868500D02*
D03*
X0850750D02*
D03*
X0898012Y0840000D02*
D03*
X0903512D02*
D03*
X1047000Y0461500D02*
D03*
X1041500D02*
D03*
X0636500Y0577000D02*
D03*
X0631000D02*
D03*
X0618000D02*
D03*
X0623500D02*
D03*
X0631000Y0570000D02*
D03*
X0636500D02*
D03*
X0623500D02*
D03*
X0618000D02*
D03*
X0773000Y0872500D02*
D03*
X0778500D02*
D03*
X0746500Y0886000D02*
D03*
X0741000D02*
D03*
X0856500Y0840000D02*
D03*
X0851000D02*
D03*
X0913000D02*
D03*
X0918500D02*
D03*
X0607782Y0613341D02*
D03*
X0613281D02*
D03*
X0715500Y0463000D02*
D03*
X0710000D02*
D03*
X1049140Y0429661D02*
D03*
X1043640D02*
D03*
X1092910Y0876974D02*
D03*
X1087409D02*
D03*
X1033721Y0876972D02*
D03*
X1028221D02*
D03*
X0741282Y0937839D02*
D03*
X0746781D02*
D03*
X0681090Y0886026D02*
D03*
X0686590D02*
D03*
X0994000Y0463000D02*
D03*
X0988500D02*
D03*
X1021500Y0506500D02*
D03*
X1016000D02*
D03*
X1160500Y0572000D02*
D03*
X1155000D02*
D03*
X1160500Y0583500D02*
D03*
X1155000D02*
D03*
X0647000Y0604000D02*
D03*
X0652500D02*
D03*
X1037000Y0551500D02*
D03*
X1031500D02*
D03*
X0868500Y0840000D02*
D03*
X0874000D02*
D03*
D82*
X1017280Y0454047D02*
D03*
Y0445047D02*
D03*
X0784945Y0454276D02*
D03*
Y0445276D02*
D03*
D83*
X1037500Y0537000D02*
D03*
Y0544500D02*
D03*
X1029500Y0540800D02*
D03*
D84*
X0930701Y0847008D02*
D03*
X0843299Y0862008D02*
D03*
D85*
X0910228D02*
D03*
Y0857008D02*
D03*
Y0852008D02*
D03*
Y0847008D02*
D03*
X0930701Y0862008D02*
D03*
Y0857008D02*
D03*
Y0852008D02*
D03*
X0863772Y0847008D02*
D03*
Y0852008D02*
D03*
Y0857008D02*
D03*
Y0862008D02*
D03*
X0843299Y0847008D02*
D03*
Y0852008D02*
D03*
Y0857008D02*
D03*
D86*
X0870500Y0961551D02*
D03*
X0875500D02*
D03*
X0880500D02*
D03*
X0885500D02*
D03*
X0890500D02*
D03*
X0895500D02*
D03*
X0900500D02*
D03*
X0905500D02*
D03*
X0870500Y0980449D02*
D03*
X0875500D02*
D03*
X0880500D02*
D03*
X0885500D02*
D03*
X0890500D02*
D03*
X0895500D02*
D03*
X0900500D02*
D03*
X0905500D02*
D03*
X1047858Y0477583D02*
D03*
X1052858D02*
D03*
X1057858D02*
D03*
X1062858D02*
D03*
X1067858D02*
D03*
X1072858D02*
D03*
X1077858D02*
D03*
X1082858D02*
D03*
X1047858Y0496480D02*
D03*
X1052858D02*
D03*
X1057858D02*
D03*
X1062858D02*
D03*
X1067858D02*
D03*
X1072858D02*
D03*
X1077858D02*
D03*
X1082858D02*
D03*
D87*
X1008390Y0419047D02*
D03*
X1027169D02*
D03*
X0771055Y0419276D02*
D03*
X0789835D02*
D03*
D88*
X0748945Y0420776D02*
D03*
Y0430776D02*
D03*
X0981279Y0430547D02*
D03*
Y0420547D02*
D03*
D89*
X0758945Y0420776D02*
D03*
Y0430776D02*
D03*
X0991280Y0430547D02*
D03*
Y0420547D02*
D03*
D90*
X0887000Y0851476D02*
D03*
X0892846Y0856142D02*
D03*
X0894291Y0849811D02*
D03*
X0890244Y0844736D02*
D03*
X0883756D02*
D03*
X0879709Y0849811D02*
D03*
X0881153Y0856142D02*
D03*
X0887000Y0858957D02*
D03*
D91*
X0970189Y0914000D02*
D03*
Y0925811D02*
D03*
X0993811Y0929512D02*
D03*
X0958378D02*
D03*
X0982000Y0925811D02*
D03*
Y0914000D02*
D03*
X0818500Y0914500D02*
D03*
Y0926311D02*
D03*
X0794878Y0930012D02*
D03*
X0830311D02*
D03*
X0806689Y0926311D02*
D03*
Y0914500D02*
D03*
X0873000Y0845500D02*
D03*
D92*
X0575461Y0628094D02*
D03*
X0595539D02*
D03*
X0575461Y0589906D02*
D03*
X0595539D02*
D03*
X0620461Y0530094D02*
D03*
X0640539D02*
D03*
X0620461Y0491905D02*
D03*
X0640539D02*
D03*
X0692961Y0453094D02*
D03*
X0713039D02*
D03*
X0692961Y0414906D02*
D03*
X0713039D02*
D03*
X1081039D02*
D03*
X1060961D02*
D03*
X1081039Y0453094D02*
D03*
X1060961D02*
D03*
X1198539Y0589906D02*
D03*
X1178461D02*
D03*
X1198539Y0628094D02*
D03*
X1178461D02*
D03*
X1125039Y0862405D02*
D03*
X1104961D02*
D03*
X1125039Y0900595D02*
D03*
X1104961D02*
D03*
X1066039Y0862405D02*
D03*
X1045961D02*
D03*
X1066039Y0900595D02*
D03*
X1045961D02*
D03*
X1066039Y0914406D02*
D03*
X1045961D02*
D03*
X1066039Y0952594D02*
D03*
X1045961D02*
D03*
X0707961D02*
D03*
X0728039D02*
D03*
X0707961Y0914406D02*
D03*
X0728039D02*
D03*
X0707961Y0900595D02*
D03*
X0728039D02*
D03*
X0707961Y0862405D02*
D03*
X0728039D02*
D03*
X0648961Y0900595D02*
D03*
X0669039D02*
D03*
X0648961Y0862405D02*
D03*
X0669039D02*
D03*
X1153539Y0491905D02*
D03*
X1133461D02*
D03*
X1153539Y0530094D02*
D03*
X1133461D02*
D03*
D93*
X0585500Y0628094D02*
D03*
Y0589906D02*
D03*
X0630500Y0530094D02*
D03*
Y0491905D02*
D03*
X0703000Y0453094D02*
D03*
Y0414906D02*
D03*
X1071000D02*
D03*
Y0453094D02*
D03*
X1188500Y0589906D02*
D03*
Y0628094D02*
D03*
X1115000Y0862405D02*
D03*
Y0900595D02*
D03*
X1056000Y0862405D02*
D03*
Y0900595D02*
D03*
Y0914406D02*
D03*
Y0952594D02*
D03*
X0718000D02*
D03*
Y0914406D02*
D03*
Y0900595D02*
D03*
Y0862405D02*
D03*
X0659000Y0900595D02*
D03*
Y0862405D02*
D03*
X1143500Y0491905D02*
D03*
Y0530094D02*
D03*
D94*
X0896500Y0883000D02*
D03*
X0797500D02*
D03*
D95*
X0906500D02*
D03*
X0916500D02*
D03*
X0926500D02*
D03*
X0936500D02*
D03*
X0946500D02*
D03*
X0956500D02*
D03*
X0966500D02*
D03*
X0976500D02*
D03*
X0896500Y0943000D02*
D03*
X0906500D02*
D03*
X0916500D02*
D03*
X0926500D02*
D03*
X0936500D02*
D03*
X0946500D02*
D03*
X0956500D02*
D03*
X0966500D02*
D03*
X0976500D02*
D03*
X0877500D02*
D03*
X0867500D02*
D03*
X0857500D02*
D03*
X0847500D02*
D03*
X0837500D02*
D03*
X0827500D02*
D03*
X0817500D02*
D03*
X0807500D02*
D03*
X0797500D02*
D03*
X0877500Y0883000D02*
D03*
X0867500D02*
D03*
X0857500D02*
D03*
X0847500D02*
D03*
X0837500D02*
D03*
X0827500D02*
D03*
X0817500D02*
D03*
X0807500D02*
D03*
D96*
X0663500Y0495000D02*
D03*
X0987500Y0561000D02*
D03*
D97*
X0663500Y0485000D02*
D03*
X0673500Y0495000D02*
D03*
Y0485000D02*
D03*
X0683500Y0495000D02*
D03*
Y0485000D02*
D03*
X0693500Y0495000D02*
D03*
Y0485000D02*
D03*
X0987500Y0551000D02*
D03*
X0997500Y0561000D02*
D03*
Y0551000D02*
D03*
X1007500Y0561000D02*
D03*
Y0551000D02*
D03*
X1017500Y0561000D02*
D03*
Y0551000D02*
D03*
D98*
X0887000Y0677500D02*
D03*
D99*
X0847630Y0464902D02*
D03*
X0926370D02*
D03*
X1052354Y0795610D02*
D03*
Y0736555D02*
D03*
X0721646D02*
D03*
Y0795610D02*
D03*
D100*
X0956055Y0851476D02*
D03*
X0817945D02*
D03*
X1089500Y0917000D02*
D03*
X0684500D02*
D03*
X1171000Y0560000D02*
D03*
X0603000D02*
D03*
X1108500Y0466063D02*
D03*
X0665500D02*
D03*
D101*
X0963000Y0981000D02*
D03*
X0973000D02*
D03*
X0824571Y0987000D02*
D03*
X0834571D02*
D03*
X0847643Y0990500D02*
D03*
X0857643D02*
D03*
X0870714Y0991500D02*
D03*
X0880714D02*
D03*
X0893786D02*
D03*
X0903786D02*
D03*
X0916857Y0990500D02*
D03*
X0926857D02*
D03*
X0939929Y0987000D02*
D03*
X0949928D02*
D03*
X0801500Y0981000D02*
D03*
X0811500D02*
D03*
X0746500Y0914500D02*
D03*
Y0904500D02*
D03*
D102*
X1116000Y0574858D02*
D03*
Y0555646D02*
D03*
X0770500Y0525358D02*
D03*
Y0506146D02*
D03*
D103*
X0769000Y0872500D02*
D03*
X0764850Y0862226D02*
D03*
Y0857110D02*
D03*
X0760028Y0854807D02*
D03*
X1057500Y0558500D02*
D03*
X1033000Y0511000D02*
D03*
X0776000Y0471500D02*
D03*
X1132598Y0583382D02*
D03*
X1132500Y0571000D02*
D03*
X1071500Y0571500D02*
D03*
X1120000Y0562500D02*
D03*
X1164500Y0572500D02*
D03*
X0991500Y0826000D02*
D03*
X1013000Y0849500D02*
D03*
X0976000Y0831500D02*
D03*
X0961500Y0902500D02*
D03*
Y0895500D02*
D03*
X0880500Y0924000D02*
D03*
X0920500Y0864000D02*
D03*
X0862500Y0899500D02*
D03*
X0874500Y0924000D02*
D03*
X0859439Y0924939D02*
D03*
X0848000Y0914000D02*
D03*
X0766000Y0831000D02*
D03*
X1120000Y0567500D02*
D03*
X1036500Y0548000D02*
D03*
X1025000Y0541500D02*
D03*
X0982000Y0451500D02*
D03*
X1028500Y0438500D02*
D03*
X0796000D02*
D03*
X0765500Y0499000D02*
D03*
X0913000Y0515000D02*
D03*
Y0509000D02*
D03*
X0722500Y0540500D02*
D03*
X0716000Y0540250D02*
D03*
X0801000Y0506500D02*
D03*
X0965500Y0519500D02*
D03*
X0732081Y0528500D02*
D03*
X0740213Y0534787D02*
D03*
X0962000Y0524500D02*
D03*
X1030000Y0477000D02*
D03*
X0946000Y0495500D02*
D03*
X0950000Y0500000D02*
D03*
X0941500Y0491000D02*
D03*
X0801000Y0472500D02*
D03*
X0842000Y0534500D02*
D03*
X0980500Y0540000D02*
D03*
X0941500Y0546500D02*
D03*
X0946500D02*
D03*
X0951500D02*
D03*
X0824500Y0545000D02*
D03*
X0844000Y0519000D02*
D03*
X0840000Y0522102D02*
D03*
X1035500Y0416500D02*
D03*
Y0422500D02*
D03*
X0783500Y0417000D02*
D03*
Y0422500D02*
D03*
X0952500Y0506000D02*
D03*
X0947000D02*
D03*
X0857000Y0499500D02*
D03*
X0861000Y0504000D02*
D03*
X0858000Y0508500D02*
D03*
X0757000Y0588500D02*
D03*
X0748000D02*
D03*
X0742752D02*
D03*
X0715000Y0623500D02*
D03*
X0728500Y0620000D02*
D03*
Y0625500D02*
D03*
X0717500Y0628500D02*
D03*
X0716500Y0639500D02*
D03*
Y0645000D02*
D03*
X0985000Y0826000D02*
D03*
X1018000Y0855500D02*
D03*
X0956500Y0546500D02*
D03*
X0790500Y0874000D02*
D03*
X0752000Y0909000D02*
D03*
X1051000Y0530500D02*
D03*
X0720000Y0475500D02*
D03*
X0722500Y0482000D02*
D03*
X1097000Y0503000D02*
D03*
X1084000Y0510500D02*
D03*
X1028000Y0531500D02*
D03*
X1164000Y0583000D02*
D03*
X0785000Y0912000D02*
D03*
X0675000Y0617000D02*
D03*
X0746500Y0892500D02*
D03*
X0739500Y0901000D02*
D03*
X1089500Y0582000D02*
D03*
X0730000Y0439500D02*
D03*
X0742500D02*
D03*
X0712000Y0483500D02*
D03*
X0704000D02*
D03*
X0755500Y0502500D02*
D03*
Y0509500D02*
D03*
X0739000Y0399000D02*
D03*
X0730500D02*
D03*
X0731000Y0420500D02*
D03*
X0739000D02*
D03*
X0745500Y0470000D02*
D03*
X0754000Y0486000D02*
D03*
X0744500Y0496500D02*
D03*
X1076500Y0636000D02*
D03*
X1073000Y0630500D02*
D03*
X0707000Y0610500D02*
D03*
X0789500Y0946000D02*
D03*
X0700500Y0614000D02*
D03*
X0727500Y0568000D02*
D03*
X0685500Y0586000D02*
D03*
X0794500Y0982000D02*
D03*
X0984000Y0944500D02*
D03*
X0989500Y0917000D02*
D03*
X1012000Y0831500D02*
D03*
X0847500Y0868500D02*
D03*
X0922500Y0840500D02*
D03*
X0887000Y0838500D02*
D03*
X0747626Y0843193D02*
D03*
X0698000Y0624000D02*
D03*
X0925500Y0868500D02*
D03*
X1012000Y0865000D02*
D03*
X0979500D02*
D03*
X0857500Y0535000D02*
D03*
X1030500Y0466500D02*
D03*
X0956500Y0479500D02*
D03*
X1077000Y0533500D02*
D03*
X0960500Y0485500D02*
D03*
X1047500Y0511000D02*
D03*
X1039000D02*
D03*
X1098000Y0599000D02*
D03*
X1048500Y0589500D02*
D03*
X1086500Y0576000D02*
D03*
X1076000Y0547500D02*
D03*
X0709500Y0540500D02*
D03*
X0790000Y0502500D02*
D03*
X0724000Y0510000D02*
D03*
X0765500Y0482000D02*
D03*
X0724000Y0525000D02*
D03*
X0717000Y0523500D02*
D03*
X0678500Y0507000D02*
D03*
X0740500Y0474500D02*
D03*
X0757500Y0522500D02*
D03*
X0678500Y0501000D02*
D03*
X0736500Y0470000D02*
D03*
X0753500Y0528000D02*
D03*
X1144264Y0594000D02*
D03*
X0773043Y0907000D02*
D03*
X0778000Y0937000D02*
D03*
X0746500Y0949500D02*
D03*
X0747000Y0964500D02*
D03*
X0777500Y0929500D02*
D03*
X0913000Y0965500D02*
D03*
X0899000Y0986500D02*
D03*
X0877000Y0972500D02*
D03*
X0867331Y0981000D02*
D03*
X0962000Y0969000D02*
D03*
X0800500D02*
D03*
X0715000Y0873000D02*
D03*
X0781500Y0982000D02*
D03*
X0991000Y0895000D02*
D03*
X0986000Y0979500D02*
D03*
X0977500Y0986500D02*
D03*
X1067858Y0487032D02*
D03*
X0990000Y0404000D02*
D03*
X1011279Y0437047D02*
D03*
X1005779D02*
D03*
X1006000Y0443000D02*
D03*
X0999279Y0456547D02*
D03*
X1000780Y0449047D02*
D03*
X0950500Y0907500D02*
D03*
X0939500Y0908500D02*
D03*
X0934000D02*
D03*
X1112500Y0621500D02*
D03*
X1129500Y0616000D02*
D03*
X0653500Y0581000D02*
D03*
X0666000Y0566000D02*
D03*
X0653500Y0551000D02*
D03*
X0627500Y0588500D02*
D03*
X0656000Y0604000D02*
D03*
X0643000Y0603500D02*
D03*
X0927000Y0894500D02*
D03*
X0892500Y0905500D02*
D03*
X0927500Y0902500D02*
D03*
Y0933500D02*
D03*
X0917500Y0913500D02*
D03*
X0936500Y0891500D02*
D03*
X0864000Y0919500D02*
D03*
X0896500Y0910000D02*
D03*
Y0916500D02*
D03*
X0910500Y0913500D02*
D03*
X0888000Y0940000D02*
D03*
X1054297Y0571142D02*
D03*
X1064500Y0558500D02*
D03*
Y0578174D02*
D03*
X0781949Y0461772D02*
D03*
X0768445Y0449276D02*
D03*
X0773445Y0437276D02*
D03*
X0778945D02*
D03*
X0766945Y0456776D02*
D03*
X0752500Y0406000D02*
D03*
X0772945Y0444276D02*
D03*
X1051500Y0596000D02*
D03*
X1053000Y0553500D02*
D03*
X1054500Y0537500D02*
D03*
X1098000Y0553000D02*
D03*
X1099500Y0571000D02*
D03*
Y0577500D02*
D03*
X0714282Y0893339D02*
D03*
Y0886339D02*
D03*
X1090500Y0592500D02*
D03*
X1074500Y0600500D02*
D03*
X0852500Y0930500D02*
D03*
X1119909Y0876474D02*
D03*
Y0869474D02*
D03*
X1119639Y0890179D02*
D03*
X0580782Y0620841D02*
D03*
Y0613841D02*
D03*
X0580006Y0600778D02*
D03*
X0625591Y0523026D02*
D03*
Y0516026D02*
D03*
X0624257Y0503393D02*
D03*
X0698091Y0446026D02*
D03*
Y0439026D02*
D03*
X0698500Y0427500D02*
D03*
X1076140Y0429161D02*
D03*
Y0422161D02*
D03*
X1076494Y0442222D02*
D03*
X1150140Y0499161D02*
D03*
Y0506161D02*
D03*
X1150668Y0519780D02*
D03*
X1193410Y0603974D02*
D03*
Y0596974D02*
D03*
X1194743Y0616607D02*
D03*
X1060721Y0876472D02*
D03*
Y0869472D02*
D03*
X1064436Y0891378D02*
D03*
X1060640Y0928661D02*
D03*
Y0921661D02*
D03*
X1061000Y0943000D02*
D03*
X0713781Y0938339D02*
D03*
Y0945339D02*
D03*
X0714216Y0924365D02*
D03*
X0654090Y0893526D02*
D03*
Y0886526D02*
D03*
X0653506Y0873278D02*
D03*
X0889500Y0886500D02*
D03*
X0883500Y0947500D02*
D03*
X0935500Y0920000D02*
D03*
X0940500D02*
D03*
X0950500Y0894000D02*
D03*
X0847500Y0840000D02*
D03*
X0884000Y0868500D02*
D03*
X0894500Y0840000D02*
D03*
X0889500Y0868500D02*
D03*
X1064000Y0535500D02*
D03*
X0944000Y0969000D02*
D03*
X0865500Y0966000D02*
D03*
X0847000Y0969000D02*
D03*
X0820000D02*
D03*
X0690000Y0886000D02*
D03*
X0700500D02*
D03*
X1035500Y0944500D02*
D03*
Y0956000D02*
D03*
X1081500Y0889500D02*
D03*
Y0877000D02*
D03*
X1091000Y0856000D02*
D03*
X1032500Y0916000D02*
D03*
X1028000Y0921500D02*
D03*
Y0893000D02*
D03*
X1032500Y0899500D02*
D03*
X1082858Y0471531D02*
D03*
X0754500Y0887000D02*
D03*
X0784264Y0922000D02*
D03*
X1052858Y0471032D02*
D03*
X0994000Y0921500D02*
D03*
X1073000Y0471000D02*
D03*
X0892000Y0972500D02*
D03*
X1005000Y0902000D02*
D03*
X1045000Y0496500D02*
D03*
X1088500Y0481000D02*
D03*
X0885500Y0972500D02*
D03*
X0875500Y0985000D02*
D03*
X0887000Y0993500D02*
D03*
X1063000Y0471000D02*
D03*
X1112000Y0530500D02*
D03*
X0643000Y0571000D02*
D03*
X1057858Y0467142D02*
D03*
X1107500Y0535000D02*
D03*
X0648500Y0576000D02*
D03*
X0636500Y0573500D02*
D03*
X0618000D02*
D03*
X0920000Y0965500D02*
D03*
X1020500Y0944500D02*
D03*
X1013500Y0957000D02*
D03*
Y0964500D02*
D03*
X1020500Y0929500D02*
D03*
X0739000Y0644000D02*
D03*
Y0639000D02*
D03*
X0722000Y0568000D02*
D03*
X0716500D02*
D03*
X0790000Y0897000D02*
D03*
X1009500Y0913000D02*
D03*
X0997000Y0888831D02*
D03*
X0885500Y0985000D02*
D03*
X0910500Y0984500D02*
D03*
X0916500Y0960500D02*
D03*
X0848000Y0954634D02*
D03*
X0928000Y0959500D02*
D03*
X0802500Y0950500D02*
D03*
X1098000Y0559000D02*
D03*
X0735500Y0568000D02*
D03*
X0740500D02*
D03*
X0749500D02*
D03*
X0755000D02*
D03*
X0746500Y0533000D02*
D03*
X0679000Y0535500D02*
D03*
X0686500Y0540000D02*
D03*
X1070000Y0596500D02*
D03*
X1073000Y0609000D02*
D03*
X1078000Y0612500D02*
D03*
X1091500D02*
D03*
X0650000Y0560000D02*
D03*
X1041000Y0466500D02*
D03*
X1088500Y0543000D02*
D03*
X1094500D02*
D03*
X1082000Y0547500D02*
D03*
X1055000Y0511000D02*
D03*
X0684000Y0474500D02*
D03*
Y0467500D02*
D03*
X0696590Y0517590D02*
D03*
X0690500Y0526000D02*
D03*
Y0516000D02*
D03*
X0667500Y0521000D02*
D03*
X0999986Y0537026D02*
D03*
X1083500Y0597000D02*
D03*
X1079000Y0589000D02*
D03*
X1065000Y0592500D02*
D03*
X1060000Y0609000D02*
D03*
X1043000Y0620500D02*
D03*
X1038500Y0625000D02*
D03*
X1046000Y0544000D02*
D03*
X1037000Y0531500D02*
D03*
X1008000Y0540000D02*
D03*
X1084000Y0520000D02*
D03*
X1077000Y0541000D02*
D03*
X1114500Y0599000D02*
D03*
X1067500Y0511000D02*
D03*
X1061500D02*
D03*
X1014283Y0461543D02*
D03*
X0989000Y0488500D02*
D03*
X0995000Y0486000D02*
D03*
X1012000Y0470500D02*
D03*
X0965000Y0491000D02*
D03*
X0971000Y0495500D02*
D03*
X0977000Y0493500D02*
D03*
X1012000Y0477000D02*
D03*
X1001500Y0488000D02*
D03*
X0983000Y0491000D02*
D03*
X0990500Y0523000D02*
D03*
X1003500D02*
D03*
X0987500Y0516000D02*
D03*
X1013000Y0524000D02*
D03*
X1007500Y0514964D02*
D03*
X1064475Y0552525D02*
D03*
X0939500Y0861500D02*
D03*
Y0848000D02*
D03*
X0833500D02*
D03*
X0834500Y0861000D02*
D03*
M02*
